<?xml version="1.0" encoding="UTF-8"?>
<svg xmlns="http://www.w3.org/2000/svg" viewBox="0 0 360 350">
  <defs>
    <style>
      .cls-1 {
        stroke: #231f20;
      }

      .cls-1, .cls-2, .cls-3, .cls-4, .cls-5, .cls-6, .cls-7, .cls-8 {
        stroke-miterlimit: 10;
      }

      .cls-1, .cls-6, .cls-7 {
        fill: none;
      }

      .cls-2, .cls-9 {
        fill: #ab2069;
      }

      .cls-2, .cls-3, .cls-4, .cls-5, .cls-8 {
        stroke: #fff;
      }

      .cls-9, .cls-10, .cls-11, .cls-12, .cls-13, .cls-14, .cls-15 {
        font-family: OpenSans-Bold, 'Open Sans';
        font-weight: 700;
      }

      .cls-9, .cls-10, .cls-11, .cls-16, .cls-13, .cls-15 {
        font-size: 12px;
      }

      .cls-10, .cls-8 {
        fill: #6fc7e9;
      }

      .cls-11, .cls-3 {
        fill: #dc4732;
      }

      .cls-4, .cls-15 {
        fill: #1e3864;
      }

      .cls-12 {
        font-size: 14px;
      }

      .cls-12, .cls-14 {
        fill: #231f20;
      }

      .cls-16 {
        fill: #9a9896;
        font-family: OpenSans, 'Open Sans';
      }

      .cls-5, .cls-13 {
        fill: #0e534d;
      }

      .cls-14 {
        font-size: 20px;
      }

      .cls-6 {
        stroke: #9a9896;
      }

      .cls-7 {
        stroke: #dc4732;
      }
    </style>
  </defs>
  <g id="basemao">
    <line class="cls-1" x1="120.02" y1="200" x2="339.83" y2="200"/>
    <rect class="cls-8" x="120" y="190" width="117.14" height="20"/>
    <rect class="cls-2" x="241.74" y="190" width="46.9" height="20"/>
    <rect class="cls-5" x="293.24" y="190" width="12.4" height="20"/>
    <rect class="cls-3" x="310.25" y="190" width="7.87" height="20"/>
    <rect class="cls-4" x="322.72" y="190" width="17.28" height="20"/>
    <line class="cls-1" x1="120.02" y1="130" x2="339.83" y2="130"/>
  </g>
  <g id="Layer_1" data-name="Layer 1">
    <text class="cls-14" transform="translate(20 27.14)"><tspan x="0" y="0">More than half of Plumley</tspan><tspan x="0" y="24">residents 25 and older do not </tspan><tspan x="0" y="48">have a high school diploma</tspan></text>
    <text class="cls-12" transform="translate(34.38 133.74)"><tspan x="0" y="0">Downtown</tspan></text>
    <text class="cls-12" transform="translate(52.95 203.36)"><tspan x="0" y="0">Plumley</tspan></text>
    <g>
      <text class="cls-12" transform="translate(94.55 300)"><tspan x="0" y="0">Bachelors Degree or Higher</tspan></text>
      <rect class="cls-4" x="74.55" y="290" width="10" height="10"/>
    </g>
    <g>
      <g>
        <text class="cls-12" transform="translate(65.2 280)"><tspan x="0" y="0">Some College</tspan></text>
        <rect class="cls-5" x="45.2" y="270" width="10" height="10"/>
      </g>
      <g>
        <text class="cls-12" transform="translate(195.2 280)"><tspan x="0" y="0">Associate Degree</tspan></text>
        <rect class="cls-3" x="175.2" y="270" width="10" height="10"/>
      </g>
    </g>
    <g>
      <g>
        <text class="cls-12" transform="translate(52.89 260)"><tspan x="0" y="0">Less than HS Diploma</tspan></text>
        <rect class="cls-8" x="34.65" y="250" width="10" height="10"/>
      </g>
      <g>
        <text class="cls-12" transform="translate(244.65 260)"><tspan x="0" y="0">HS Diploma</tspan></text>
        <rect class="cls-2" x="224.65" y="250" width="10" height="10"/>
      </g>
    </g>
    <text class="cls-9" transform="translate(159.48 110)"><tspan x="0" y="0">19%</tspan></text>
    <text class="cls-10" transform="translate(166.48 180)"><tspan x="0" y="0">59%</tspan></text>
    <text class="cls-9" transform="translate(253.08 180)"><tspan x="0" y="0">23%</tspan></text>
    <text class="cls-13" transform="translate(290.72 180)"><tspan x="0" y="0">6%</tspan></text>
    <text class="cls-11" transform="translate(321.67 222.59)"><tspan x="0" y="0">3%</tspan></text>
    <text class="cls-15" transform="translate(322.64 180)"><tspan x="0" y="0">9%</tspan></text>
    <path class="cls-7" d="M314.18,212.33s-1.34,5.76,4.85,5.76"/>
    <g>
      <text class="cls-16" transform="translate(20 340)"><tspan x="0" y="0">Data Source: American Community Survey (2023) </tspan></text>
      <line class="cls-6" x1="20.41" y1="327.54" x2="340" y2="327.54"/>
    </g>
    <rect class="cls-8" x="120" y="120" width="27.9" height="20"/>
    <rect class="cls-2" x="152.91" y="120" width="37.69" height="20"/>
    <rect class="cls-5" x="195.6" y="120" width="38.68" height="20"/>
    <rect class="cls-3" x="239.29" y="120" width="19.03" height="20"/>
    <rect class="cls-4" x="263.33" y="119.95" width="76.67" height="20"/>
    <text class="cls-10" transform="translate(121.68 110.13)"><tspan x="0" y="0">14%</tspan></text>
    <text class="cls-13" transform="translate(202.67 110.13)"><tspan x="0" y="0">19%</tspan></text>
    <text class="cls-11" transform="translate(236.54 110.26)"><tspan x="0" y="0">10%</tspan></text>
    <text class="cls-15" transform="translate(289.4 110.4)"><tspan x="0" y="0">38%</tspan></text>
  </g>
</svg>