<?xml version="1.0" encoding="UTF-8"?>
<svg id="Layer_1" data-name="Layer 1" xmlns="http://www.w3.org/2000/svg" viewBox="0 0 720 370">
  <defs>
    <style>
      .cls-1 {
        stroke: #231f20;
      }

      .cls-1, .cls-2, .cls-3, .cls-4, .cls-5, .cls-6, .cls-7, .cls-8, .cls-9, .cls-10 {
        stroke-miterlimit: 10;
      }

      .cls-1, .cls-4, .cls-9 {
        fill: none;
      }

      .cls-2, .cls-3, .cls-5, .cls-6, .cls-7, .cls-8, .cls-10 {
        stroke: #fff;
      }

      .cls-2, .cls-11 {
        fill: #067fa3;
      }

      .cls-3, .cls-12 {
        fill: #ab2069;
      }

      .cls-11, .cls-13, .cls-12, .cls-14, .cls-15, .cls-16, .cls-17, .cls-18 {
        font-family: OpenSans-Bold, 'Open Sans';
        font-weight: 700;
      }

      .cls-11, .cls-13, .cls-12, .cls-14, .cls-15, .cls-19, .cls-17, .cls-18 {
        font-size: 14px;
      }

      .cls-4 {
        stroke: #0e534d;
      }

      .cls-13, .cls-5 {
        fill: #1e3864;
      }

      .cls-6, .cls-15 {
        fill: #00a28a;
      }

      .cls-14, .cls-16, .cls-19 {
        fill: #231f20;
      }

      .cls-20 {
        fill: #9a9896;
        font-size: 12px;
      }

      .cls-20, .cls-19 {
        font-family: OpenSans, 'Open Sans';
      }

      .cls-7 {
        stroke-width: .25px;
      }

      .cls-7, .cls-8, .cls-18 {
        fill: #0e534d;
      }

      .cls-16 {
        font-size: 20px;
      }

      .cls-9 {
        stroke: #9a9896;
      }

      .cls-10, .cls-17 {
        fill: #8cbf3f;
      }
    </style>
  </defs>
  <text class="cls-14" transform="translate(114.89 205.07)"><tspan x="0" y="0">Downtown</tspan></text>
  <text class="cls-14" transform="translate(87.43 145.07)"><tspan x="0" y="0">Worcester City</tspan></text>
  <text class="cls-15" transform="translate(341.39 60.07)"><tspan x="0" y="0">White</tspan></text>
  <text class="cls-13" transform="translate(510.18 60.07)"><tspan x="0" y="0">Black</tspan></text>
  <text class="cls-18" transform="translate(544.95 110.07)"><tspan x="0" y="0">Indigenous</tspan></text>
  <text class="cls-12" transform="translate(549.63 59.93)"><tspan x="0" y="0">API</tspan></text>
  <text class="cls-17" transform="translate(618.28 59.93)"><tspan x="0" y="0">Other</tspan></text>
  <text class="cls-11" transform="translate(574.15 60.22)"><tspan x="0" y="0">Mixed</tspan></text>
  <text class="cls-14" transform="translate(133.48 264.45)"><tspan x="0" y="0">Plumley</tspan></text>
  <g>
    <rect class="cls-6" x="210" y="130.07" width="249.53" height="20"/>
    <rect class="cls-5" x="459.53" y="130.07" width="52.2" height="20"/>
    <rect class="cls-8" x="511.73" y="130.07" width="2.37" height="20"/>
    <rect class="cls-3" x="514.1" y="130.07" width="30.23" height="20"/>
    <rect class="cls-10" x="608.48" y="130.07" width="31.52" height="20"/>
    <rect class="cls-2" x="544.37" y="130.07" width="64.11" height="20"/>
  </g>
  <g>
    <rect class="cls-6" x="210" y="190.07" width="201.2" height="20"/>
    <rect class="cls-5" x="411.2" y="190.07" width="31.61" height="20"/>
    <rect class="cls-8" x="442.8" y="190.07" width="65.23" height="20"/>
    <rect class="cls-3" x="508.03" y="190.07" width="24.73" height="20"/>
    <rect class="cls-10" x="617.81" y="190.07" width="22.19" height="20"/>
    <rect class="cls-2" x="532.76" y="190.07" width="85.05" height="20"/>
  </g>
  <g>
    <rect class="cls-6" x="210" y="250.07" width="184.9" height="20"/>
    <rect class="cls-5" x="394.9" y="250.07" width="10.58" height="20"/>
    <rect class="cls-8" x="405.48" y="250.07" width="97.61" height="20"/>
    <rect class="cls-10" x="620.22" y="250.07" width="19.78" height="20"/>
    <rect class="cls-2" x="503.09" y="250.07" width="117.13" height="20"/>
  </g>
  <text class="cls-19" transform="translate(200.23 320)"><tspan x="0" y="0">0%</tspan></text>
  <text class="cls-19" transform="translate(411.23 320.14)"><tspan x="0" y="0">50%</tspan></text>
  <text class="cls-19" transform="translate(622.23 320)"><tspan x="0" y="0">100%</tspan></text>
  <text class="cls-14" transform="translate(86.03 85.07)"><tspan x="0" y="0">Massachusetts</tspan></text>
  <g>
    <g>
      <rect class="cls-6" x="210" y="70.07" width="304.14" height="20"/>
      <rect class="cls-5" x="514.14" y="70.07" width="30.1" height="20"/>
    </g>
    <g>
      <rect class="cls-10" x="616.65" y="70.07" width="23.35" height="20"/>
      <rect class="cls-3" x="545.27" y="70.07" width="30.57" height="20"/>
      <rect class="cls-2" x="575.84" y="70.07" width="40.81" height="20"/>
    </g>
    <rect class="cls-7" x="544.26" y="70.42" width=".99" height="19.31"/>
  </g>
  <path class="cls-4" d="M544.3,91.82c-3.25,3.38-4.26,7.18-2.86,9.17.28.4.84.98,2,1.36"/>
  <line class="cls-1" x1="210" y1="300" x2="640" y2="300"/>
  <line class="cls-1" x1="640" y1="295.48" x2="640" y2="304.52"/>
  <line class="cls-1" x1="210" y1="295.48" x2="210" y2="304.52"/>
  <line class="cls-1" x1="425" y1="295.48" x2="425" y2="304.52"/>
  <line class="cls-1" x1="317.5" y1="297.47" x2="317.5" y2="302.53"/>
  <line class="cls-1" x1="532.5" y1="297.57" x2="532.5" y2="302.63"/>
  <g>
    <text class="cls-20" transform="translate(20 360)"><tspan x="0" y="0">Data Source: American Community Survey (2023) </tspan></text>
    <line class="cls-9" x1="20.41" y1="347.54" x2="700" y2="347.54"/>
  </g>
  <text class="cls-16" transform="translate(20 27.14)"><tspan x="0" y="0">Demographics of Worcester</tspan></text>
</svg>