<?xml version="1.0" encoding="UTF-8" standalone="no"?>
<!-- Created with Inkscape (http://www.inkscape.org/) -->

<svg
   width="360"
   height="620"
   viewBox="0 0 95.25 164.04166"
   version="1.1"
   id="svg1"
   inkscape:version="1.4 (1:1.4+202410161351+e7c3feb100)"
   sodipodi:docname="map-ndvi-tree-360.svg"
   xml:space="preserve"
   xmlns:inkscape="http://www.inkscape.org/namespaces/inkscape"
   xmlns:sodipodi="http://sodipodi.sourceforge.net/DTD/sodipodi-0.dtd"
   xmlns:xlink="http://www.w3.org/1999/xlink"
   xmlns="http://www.w3.org/2000/svg"
   xmlns:svg="http://www.w3.org/2000/svg"><sodipodi:namedview
     id="namedview1"
     pagecolor="#ffffff"
     bordercolor="#666666"
     borderopacity="1.0"
     inkscape:showpageshadow="2"
     inkscape:pageopacity="0.0"
     inkscape:pagecheckerboard="0"
     inkscape:deskcolor="#d1d1d1"
     inkscape:document-units="px"
     inkscape:zoom="2.02"
     inkscape:cx="187.62376"
     inkscape:cy="74.257426"
     inkscape:window-width="1920"
     inkscape:window-height="1016"
     inkscape:window-x="0"
     inkscape:window-y="0"
     inkscape:window-maximized="1"
     inkscape:current-layer="layer1"
     showgrid="false"><inkscape:grid
       id="grid1"
       units="px"
       originx="0"
       originy="0"
       spacingx="2.6458333"
       spacingy="2.6458332"
       empcolor="#0099e5"
       empopacity="0.30196078"
       color="#0099e5"
       opacity="0.14901961"
       empspacing="5"
       enabled="true"
       visible="false" /></sodipodi:namedview><defs
     id="defs1"><rect
       x="304"
       y="35.19532"
       width="478"
       height="746.80469"
       id="rect16" /></defs><g
     inkscape:label="Layer 1"
     inkscape:groupmode="layer"
     id="layer1"><rect
       style="fill:#ffffff;fill-rule:evenodd;stroke-width:1.41753;stroke-linecap:round;stroke-linejoin:round;paint-order:markers fill stroke"
       id="rect2"
       width="95.25"
       height="164.04166"
       x="7.1054274e-15"
       y="8.8817842e-16" /><image
       width="95.249992"
       height="119.06251"
       preserveAspectRatio="none"
       xlink:href="map-ndvi-tree-360-qgis.png"
       id="image1"
       x="-1.3892684"
       y="22.944231" /><text
       xml:space="preserve"
       style="font-size:5.29167px;line-height:1.2;font-family:'Open Sans';-inkscape-font-specification:'Open Sans, Normal';stroke-width:0.264583"
       x="5.2916665"
       y="9.3120956"
       id="text1"><tspan
         sodipodi:role="line"
         id="tspan1"
         style="font-style:normal;font-variant:normal;font-weight:bold;font-stretch:normal;font-size:5.29167px;font-family:'Open Sans';-inkscape-font-specification:'Open Sans Bold';stroke-width:0.264583"
         x="5.2916665"
         y="9.3120956">Tree and</tspan><tspan
         sodipodi:role="line"
         style="font-style:normal;font-variant:normal;font-weight:bold;font-stretch:normal;font-size:5.29167px;font-family:'Open Sans';-inkscape-font-specification:'Open Sans Bold';stroke-width:0.264583"
         x="5.2916665"
         y="15.6621"
         id="tspan5">vegetation</tspan><tspan
         sodipodi:role="line"
         style="font-style:normal;font-variant:normal;font-weight:bold;font-stretch:normal;font-size:5.29167px;font-family:'Open Sans';-inkscape-font-specification:'Open Sans Bold';stroke-width:0.264583"
         x="5.2916665"
         y="22.012104"
         id="tspan6">density in</tspan><tspan
         sodipodi:role="line"
         style="font-style:normal;font-variant:normal;font-weight:bold;font-stretch:normal;font-size:5.29167px;font-family:'Open Sans';-inkscape-font-specification:'Open Sans Bold';stroke-width:0.264583"
         x="5.2916665"
         y="28.362108"
         id="tspan7">Bridgeport</tspan></text><path
       style="fill:#9a9996;stroke:#9a9996;stroke-width:0.264583;stroke-linecap:butt;stroke-linejoin:miter;stroke-dasharray:none;stroke-opacity:1"
       d="m -3e-6,140.22916 95.250003,0"
       id="path1"
       sodipodi:nodetypes="cc" /><text
       xml:space="preserve"
       transform="scale(0.26458333)"
       id="text16"
       style="font-weight:bold;font-size:12px;line-height:1.2;font-family:OpenSans-Bold, 'Open Sans';-inkscape-font-specification:'OpenSans-Bold, Open Sans, Bold';text-align:end;white-space:pre;shape-inside:url(#rect16);display:inline" /><text
       xml:space="preserve"
       style="font-size:3.175px;line-height:1.2;font-family:'Open Sans';-inkscape-font-specification:'Open Sans, Normal';fill:#1e3765;fill-opacity:1;stroke-width:0.264583"
       x="-19.013136"
       y="139.20018"
       id="text1-3-4-6"
       transform="rotate(-24.273517)"><tspan
         sodipodi:role="line"
         id="tspan1-6-7-1"
         style="font-style:normal;font-variant:normal;font-weight:normal;font-stretch:normal;font-size:3.175px;font-family:'Open Sans';-inkscape-font-specification:'Open Sans Bold';text-align:start;text-anchor:start;fill:#1e3765;fill-opacity:1;stroke-width:0.264583"
         x="-19.013136"
         y="139.20018">City of Bridgeport</tspan><tspan
         sodipodi:role="line"
         style="font-style:normal;font-variant:normal;font-weight:normal;font-stretch:normal;font-size:3.175px;font-family:'Open Sans';-inkscape-font-specification:'Open Sans Bold';text-align:start;text-anchor:start;fill:#1e3765;fill-opacity:1;stroke-width:0.264583"
         x="-19.013136"
         y="143.01018"
         id="tspan17-0">boundary</tspan></text><text
       xml:space="preserve"
       style="font-size:3.70417px;line-height:1.2;font-family:'Open Sans';-inkscape-font-specification:'Open Sans, Normal';stroke-width:0.264583"
       x="54.623631"
       y="8.1443424"
       id="text1-3-6-0"><tspan
         sodipodi:role="line"
         style="font-style:normal;font-variant:normal;font-weight:normal;font-stretch:normal;font-size:3.70417px;font-family:'Open Sans';-inkscape-font-specification:'Open Sans Bold';text-align:start;text-anchor:start;stroke-width:0.264583"
         x="54.623631"
         y="8.1443424"
         id="tspan4-6">More Trees</tspan></text><text
       xml:space="preserve"
       style="font-size:3.70417px;line-height:1.2;font-family:'Open Sans';-inkscape-font-specification:'Open Sans, Normal';stroke-width:0.264583"
       x="54.623631"
       y="26.164425"
       id="text1-3-6-9-1"><tspan
         sodipodi:role="line"
         style="font-style:normal;font-variant:normal;font-weight:normal;font-stretch:normal;font-size:3.70417px;font-family:'Open Sans';-inkscape-font-specification:'Open Sans Bold';text-align:start;text-anchor:start;stroke-width:0.264583"
         x="54.623631"
         y="26.164425"
         id="tspan4-4-4">Fewer Trees</tspan></text><rect
       style="fill:#f5d74d;fill-opacity:1;fill-rule:evenodd;stroke:#ffffff;stroke-width:0.276438;stroke-linecap:round;stroke-linejoin:round;paint-order:markers fill stroke"
       id="rect1"
       width="5.2752156"
       height="5.5405316"
       x="-26.450111"
       y="47.675415"
       transform="rotate(-90)" /><rect
       style="fill:#a1ca7d;fill-opacity:1;fill-rule:evenodd;stroke:#ffffff;stroke-width:0.276438;stroke-linecap:round;stroke-linejoin:round;paint-order:markers fill stroke"
       id="rect1-6"
       width="5.2752161"
       height="5.5405316"
       x="-21.174896"
       y="47.675415"
       transform="rotate(-90)" /><rect
       style="fill:#4dbdad;fill-opacity:1;fill-rule:evenodd;stroke:#ffffff;stroke-width:0.276438;stroke-linecap:round;stroke-linejoin:round;paint-order:markers fill stroke"
       id="rect1-6-6"
       width="5.2752151"
       height="5.5405316"
       x="-15.899674"
       y="47.675415"
       transform="rotate(-90)" /><rect
       style="fill:#3d7570;fill-opacity:1;fill-rule:evenodd;stroke:#ffffff;stroke-width:0.276438;stroke-linecap:round;stroke-linejoin:round;paint-order:markers fill stroke"
       id="rect1-6-6-0"
       width="5.2752151"
       height="5.5405316"
       x="-10.624468"
       y="47.675415"
       transform="rotate(-90)" /><text
       xml:space="preserve"
       style="font-size:3.175px;line-height:1.2;font-family:'Open Sans';-inkscape-font-specification:'Open Sans';fill:#9a9996;stroke-width:0.264583"
       x="5.2467051"
       y="145.70041"
       id="text10"><tspan
         sodipodi:role="line"
         style="line-height:1.2;fill:#9a9996;stroke-width:0.264583"
         x="5.2467051"
         y="145.70041"
         id="tspan12">Map data is a combination of land use data from the City </tspan><tspan
         sodipodi:role="line"
         style="line-height:1.2;fill:#9a9996;stroke-width:0.264583"
         x="5.2467051"
         y="149.51041"
         id="tspan18">of Bridgeport, LIDAR data from the Connecticut State </tspan><tspan
         sodipodi:role="line"
         style="line-height:1.2;fill:#9a9996;stroke-width:0.264583"
         x="5.2467051"
         y="153.3204"
         id="tspan14">GIS Office, and NDVI (Normalized Difference Vegetation </tspan><tspan
         sodipodi:role="line"
         style="line-height:1.2;fill:#9a9996;stroke-width:0.264583"
         x="5.2467051"
         y="157.1304"
         id="tspan15">Index) data from the European Space Agency </tspan><tspan
         sodipodi:role="line"
         style="line-height:1.2;fill:#9a9996;stroke-width:0.264583"
         x="5.2467051"
         y="160.94041"
         id="tspan16">(Copernicus Sentinel-2 L2A)</tspan></text><g
       id="text1-3-3-4-4"
       style="font-size:3.70417px;line-height:1.2;font-family:'Open Sans';-inkscape-font-specification:'Open Sans, Normal';opacity:0.790622;stroke:#ffffff;stroke-width:1.05833;stroke-linecap:round;stroke-linejoin:round;stroke-dasharray:none"
       aria-label="East&#10;Side"
       transform="matrix(0.81772624,0,0,0.81772624,-68.400497,-8.3655611)"><path
         style="font-weight:bold;-inkscape-font-specification:'Open Sans Bold';stroke:#ffffff;stroke-width:1.05833;stroke-dasharray:none"
         d="m 157.33855,98.952621 h -1.5229 v -2.644285 h 1.5229 v 0.459404 h -0.96221 v 0.580585 h 0.89529 v 0.459404 h -0.89529 V 98.4896 h 0.96221 z m 1.7924,0 -0.10671,-0.274918 h -0.0145 q -0.13927,0.175441 -0.28758,0.244171 -0.1465,0.06692 -0.38344,0.06692 -0.2912,0 -0.4594,-0.166398 -0.1664,-0.166399 -0.1664,-0.473874 0,-0.321944 0.22427,-0.473873 0.22609,-0.153737 0.68007,-0.170015 l 0.35088,-0.01085 v -0.08862 q 0,-0.307475 -0.31471,-0.307475 -0.24236,0 -0.56973,0.146503 l -0.18268,-0.372587 q 0.34907,-0.182677 0.77411,-0.182677 0.40696,0 0.624,0.177251 0.21704,0.17725 0.21704,0.538985 v 1.347464 z m -0.16278,-0.936894 -0.21342,0.0072 q -0.24056,0.0072 -0.35812,0.08682 -0.11757,0.07958 -0.11757,0.242363 0,0.233319 0.26769,0.233319 0.19172,0 0.30566,-0.110329 0.11576,-0.110329 0.11576,-0.293006 z m 2.52672,0.336414 q 0,0.311092 -0.21704,0.473873 -0.21523,0.162781 -0.6457,0.162781 -0.22066,0 -0.3762,-0.03075 -0.15555,-0.02894 -0.2912,-0.08682 v -0.455787 q 0.15374,0.07235 0.34546,0.121182 0.19353,0.04883 0.34003,0.04883 0.30024,0 0.30024,-0.173633 0,-0.06511 -0.0398,-0.104903 -0.0398,-0.0416 -0.13746,-0.09224 -0.0977,-0.05245 -0.26045,-0.121181 -0.23332,-0.09767 -0.34365,-0.180868 -0.10852,-0.0832 -0.15916,-0.189911 -0.0488,-0.10852 -0.0488,-0.265875 0,-0.269493 0.208,-0.415996 0.20981,-0.148311 0.59325,-0.148311 0.36535,0 0.71081,0.159163 l -0.1664,0.397909 q -0.15193,-0.06511 -0.28396,-0.106712 -0.13204,-0.0416 -0.2695,-0.0416 -0.24417,0 -0.24417,0.132033 0,0.07416 0.0778,0.128416 0.0796,0.05426 0.34546,0.160972 0.23694,0.09586 0.34727,0.179059 0.11033,0.0832 0.16278,0.19172 0.0524,0.108521 0.0524,0.258641 z m 1.28235,0.197146 q 0.1447,0 0.34727,-0.0633 v 0.410569 q -0.20619,0.09224 -0.50643,0.09224 -0.33099,0 -0.48292,-0.166398 -0.15012,-0.168207 -0.15012,-0.502812 v -0.974877 h -0.26406 V 97.11139 l 0.30385,-0.184486 0.15917,-0.426847 h 0.35269 v 0.430465 h 0.56611 v 0.414187 h -0.56611 v 0.974877 q 0,0.117564 0.0651,0.173633 0.0669,0.05607 0.17544,0.05607 z"
         id="path17" /><path
         style="font-weight:bold;-inkscape-font-specification:'Open Sans Bold';stroke:#ffffff;stroke-width:1.05833;stroke-dasharray:none"
         d="m 157.37653,102.6633 q 0,0.35812 -0.25864,0.56431 -0.25683,0.20619 -0.71623,0.20619 -0.42323,0 -0.7488,-0.15916 v -0.5209 q 0.26769,0.11937 0.45217,0.1682 0.1863,0.0488 0.34004,0.0488 0.18448,0 0.28215,-0.0705 0.0995,-0.0705 0.0995,-0.20981 0,-0.0778 -0.0434,-0.13746 -0.0434,-0.0615 -0.12842,-0.11756 -0.0832,-0.0561 -0.34184,-0.17906 -0.24236,-0.11395 -0.36354,-0.21885 -0.12118,-0.1049 -0.19353,-0.24417 -0.0724,-0.13927 -0.0724,-0.32556 0,-0.35089 0.23694,-0.55165 0.23874,-0.20076 0.65836,-0.20076 0.20619,0 0.39248,0.0488 0.1881,0.0488 0.39248,0.13746 l -0.18086,0.43589 q -0.21162,-0.0868 -0.35089,-0.12118 -0.13746,-0.0344 -0.2713,-0.0344 -0.15916,0 -0.24417,0.0742 -0.085,0.0742 -0.085,0.19353 0,0.0742 0.0344,0.13023 0.0344,0.0543 0.10852,0.10671 0.076,0.0506 0.35631,0.18448 0.37077,0.17725 0.50823,0.35631 0.13746,0.17725 0.13746,0.43589 z m 0.41238,-1.81048 q 0,-0.2695 0.30024,-0.2695 0.30024,0 0.30024,0.2695 0,0.12841 -0.076,0.20076 -0.0742,0.0705 -0.22428,0.0705 -0.30024,0 -0.30024,-0.2713 z m 0.57516,2.54481 h -0.55165 v -2.0221 h 0.55165 z m 1.21905,0.0362 q -0.35631,0 -0.56069,-0.27673 -0.20257,-0.27673 -0.20257,-0.76688 0,-0.49738 0.20619,-0.77411 0.20799,-0.27854 0.57154,-0.27854 0.38163,0 0.58239,0.29663 h 0.0181 q -0.0416,-0.22609 -0.0416,-0.40334 v -0.64751 h 0.55346 v 2.81431 h -0.42324 l -0.10671,-0.26226 h -0.0235 q -0.1881,0.29843 -0.57335,0.29843 z m 0.19353,-0.43951 q 0.21161,0 0.30928,-0.12299 0.0995,-0.12299 0.10852,-0.4178 v -0.0597 q 0,-0.32556 -0.10128,-0.46664 -0.0995,-0.14108 -0.32557,-0.14108 -0.18448,0 -0.28758,0.15736 -0.10128,0.15555 -0.10128,0.45398 0,0.29843 0.10309,0.44855 0.1031,0.14831 0.29482,0.14831 z m 2.34766,-1.26426 q -0.17544,0 -0.27492,0.11213 -0.0995,0.11033 -0.11395,0.31471 h 0.77412 q -0.004,-0.20438 -0.10671,-0.31471 -0.1031,-0.11213 -0.27854,-0.11213 z m 0.0778,1.70377 q -0.48834,0 -0.76326,-0.26949 -0.27492,-0.2695 -0.27492,-0.76327 0,-0.50823 0.25322,-0.78496 0.25502,-0.27854 0.70357,-0.27854 0.42866,0 0.6674,0.24417 0.23875,0.24418 0.23875,0.67464 v 0.26768 h -1.30406 q 0.009,0.23513 0.13927,0.36717 0.13023,0.13203 0.36535,0.13203 0.18268,0 0.34546,-0.038 0.16278,-0.038 0.34003,-0.12118 v 0.42684 q -0.14469,0.0724 -0.30928,0.10672 -0.16459,0.0362 -0.40153,0.0362 z"
         id="path18" /></g><text
       xml:space="preserve"
       style="font-size:3.029px;line-height:1.2;font-family:'Open Sans';-inkscape-font-specification:'Open Sans, Normal';stroke-width:0.216356"
       x="58.741917"
       y="72.550606"
       id="text1-3-3-4-2"><tspan
         sodipodi:role="line"
         id="tspan1-6-2-5-6"
         style="font-style:normal;font-variant:normal;font-weight:bold;font-stretch:normal;font-size:3.029px;font-family:'Open Sans';-inkscape-font-specification:'Open Sans Bold';stroke-width:0.216356"
         x="58.741917"
         y="72.550606">East</tspan><tspan
         sodipodi:role="line"
         style="font-style:normal;font-variant:normal;font-weight:bold;font-stretch:normal;font-size:3.029px;font-family:'Open Sans';-inkscape-font-specification:'Open Sans Bold';stroke-width:0.216356"
         x="58.741917"
         y="76.18541"
         id="tspan3-6">Side</tspan></text><path
       style="font-weight:bold;font-size:3.70417px;line-height:1.2;font-family:'Open Sans';-inkscape-font-specification:'Open Sans Bold';opacity:0.790622;stroke:#ffffff;stroke-width:0.865424;stroke-linecap:round;stroke-linejoin:round;stroke-dasharray:none"
       d="m 40.103013,90.162469 q 0,0.53393 -0.304677,0.81789 -0.303196,0.28397 -0.877044,0.28397 h -0.612306 v -2.1623 h 0.678861 q 0.529477,0 0.822321,0.27952 0.292845,0.27954 0.292845,0.78092 z m -0.476237,0.0119 q 0,-0.6966 -0.615264,-0.6966 h -0.244034 v 1.40801 h 0.196704 q 0.662594,0 0.662594,-0.71141 z m 1.248276,0.26031 q 0,0.24552 0.07989,0.37124 0.08137,0.12572 0.263259,0.12572 0.18044,0 0.258826,-0.12425 0.07989,-0.12571 0.07989,-0.37271 0,-0.24551 -0.07989,-0.36827 -0.07989,-0.12275 -0.261778,-0.12275 -0.180439,0 -0.260307,0.12275 -0.07989,0.12128 -0.07989,0.36827 z m 1.143272,0 q 0,0.40378 -0.212977,0.63154 -0.212977,0.22776 -0.593081,0.22776 -0.238121,0 -0.420041,-0.10358 -0.181911,-0.10506 -0.279531,-0.30024 -0.09762,-0.19523 -0.09762,-0.45554 0,-0.40524 0.211497,-0.63005 0.211496,-0.2248 0.594561,-0.2248 0.238121,0 0.420033,0.10358 0.181919,0.10358 0.279531,0.29728 0.09763,0.19374 0.09763,0.45405 z m 1.671269,0.82972 -0.12719,-0.57829 -0.171567,-0.73062 h -0.01044 l -0.301717,1.30891 h -0.485114 l -0.470324,-1.65352 h 0.44962 l 0.190791,0.73211 q 0.04588,0.1967 0.09318,0.54279 h 0.0088 q 0.0057,-0.11243 0.05176,-0.35644 l 0.02363,-0.12571 0.204104,-0.79275 h 0.496941 l 0.193752,0.79275 q 0.0057,0.0326 0.01774,0.0961 0.01333,0.0636 0.02519,0.13608 0.01186,0.071 0.02069,0.14051 0.01044,0.0681 0.01186,0.10948 h 0.0088 q 0.01333,-0.10653 0.04734,-0.29136 0.03401,-0.18636 0.04882,-0.25143 l 0.198184,-0.73211 h 0.442226 l -0.476243,1.65352 z m 2.759818,0 H 45.99832 v -0.96578 q 0,-0.17896 -0.06361,-0.26771 -0.06362,-0.0902 -0.202625,-0.0902 -0.189312,0 -0.273612,0.12719 -0.08431,0.12572 -0.08431,0.41856 v 0.77796 h -0.451091 v -1.65353 h 0.344606 l 0.06067,0.2115 h 0.02511 q 0.07548,-0.1198 0.207064,-0.18044 0.13311,-0.0622 0.301716,-0.0622 0.288405,0 0.437787,0.15677 0.149373,0.15529 0.149373,0.44961 z m 1.161015,-0.32982 q 0.118326,0 0.283972,-0.0517 v 0.33574 q -0.168607,0.0753 -0.414121,0.0753 -0.270659,0 -0.394897,-0.13606 -0.122757,-0.13755 -0.122757,-0.41116 v -0.79718 h -0.215928 v -0.19079 l 0.248466,-0.15087 0.130157,-0.34904 h 0.288404 v 0.352 h 0.462931 v 0.3387 h -0.462931 v 0.79718 q 0,0.0961 0.05323,0.14198 0.05471,0.0458 0.143462,0.0458 z m 0.977625,-0.4999 q 0,0.24552 0.07989,0.37124 0.08137,0.12572 0.263259,0.12572 0.180439,0 0.258826,-0.12425 0.07989,-0.12571 0.07989,-0.37271 0,-0.24551 -0.07989,-0.36827 -0.07989,-0.12275 -0.261786,-0.12275 -0.180432,0 -0.260299,0.12275 -0.07989,0.12128 -0.07989,0.36827 z m 1.143271,0 q 0,0.40378 -0.212977,0.63154 -0.212977,0.22776 -0.59308,0.22776 -0.238123,0 -0.420042,-0.10358 -0.181912,-0.10506 -0.279531,-0.30024 -0.09761,-0.19523 -0.09761,-0.45554 0,-0.40524 0.211496,-0.63005 0.211497,-0.2248 0.59456,-0.2248 0.238123,0 0.420034,0.10358 0.18192,0.10358 0.279532,0.29728 0.09763,0.19374 0.09763,0.45405 z m 1.671269,0.82972 -0.127197,-0.57829 -0.17156,-0.73062 h -0.01044 l -0.301716,1.30891 h -0.485117 l -0.470323,-1.65352 h 0.449618 l 0.190792,0.73211 q 0.04588,0.1967 0.09318,0.54279 h 0.009 q 0.0057,-0.11243 0.05176,-0.35644 l 0.02363,-0.12571 0.204105,-0.79275 h 0.49694 l 0.193752,0.79275 q 0.0057,0.0326 0.01774,0.0961 0.01333,0.0636 0.02519,0.13608 0.01185,0.071 0.02069,0.14051 0.01044,0.0681 0.01186,0.10948 h 0.009 q 0.01333,-0.10653 0.04734,-0.29136 0.03401,-0.18636 0.04882,-0.25143 l 0.198185,-0.73211 h 0.442155 l -0.476244,1.65352 z m 2.759818,0 h -0.451091 v -0.96578 q 0,-0.17896 -0.06362,-0.26771 -0.06362,-0.0902 -0.202624,-0.0902 -0.189311,0 -0.273611,0.12719 -0.08431,0.12572 -0.08431,0.41856 v 0.77796 h -0.45109 v -1.65353 h 0.344606 l 0.06067,0.2115 h 0.02519 q 0.07539,-0.1198 0.207064,-0.18044 0.13311,-0.0622 0.301716,-0.0622 0.288404,0 0.437786,0.15677 0.149374,0.15529 0.149374,0.44961 z"
       id="text1-3-3-4-7-0"
       aria-label="Downtown" /><text
       xml:space="preserve"
       style="font-size:3.029px;line-height:1.2;font-family:'Open Sans';-inkscape-font-specification:'Open Sans, Normal';stroke-width:0.216356"
       x="38.036839"
       y="91.264359"
       id="text1-3-3-4-7-4"><tspan
         sodipodi:role="line"
         style="font-style:normal;font-variant:normal;font-weight:bold;font-stretch:normal;font-size:3.029px;font-family:'Open Sans';-inkscape-font-specification:'Open Sans Bold';stroke-width:0.216356"
         x="38.036839"
         y="91.264359"
         id="tspan3-2-9">Downtown</tspan></text></g></svg>
