<?xml version="1.0" encoding="UTF-8" standalone="no"?>
<!-- Created with Inkscape (http://www.inkscape.org/) -->

<svg
   width="720"
   height="810"
   viewBox="0 0 190.5 214.3125"
   version="1.1"
   id="svg1"
   inkscape:version="1.4 (1:1.4+202410161351+e7c3feb100)"
   sodipodi:docname="map-ndvi-tree-720.svg"
   xml:space="preserve"
   xmlns:inkscape="http://www.inkscape.org/namespaces/inkscape"
   xmlns:sodipodi="http://sodipodi.sourceforge.net/DTD/sodipodi-0.dtd"
   xmlns:xlink="http://www.w3.org/1999/xlink"
   xmlns="http://www.w3.org/2000/svg"
   xmlns:svg="http://www.w3.org/2000/svg"><sodipodi:namedview
     id="namedview1"
     pagecolor="#ffffff"
     bordercolor="#666666"
     borderopacity="1.0"
     inkscape:showpageshadow="2"
     inkscape:pageopacity="0.0"
     inkscape:pagecheckerboard="0"
     inkscape:deskcolor="#d1d1d1"
     inkscape:document-units="px"
     inkscape:zoom="2.02"
     inkscape:cx="99.009902"
     inkscape:cy="437.62377"
     inkscape:window-width="1920"
     inkscape:window-height="1016"
     inkscape:window-x="0"
     inkscape:window-y="0"
     inkscape:window-maximized="1"
     inkscape:current-layer="layer1"
     showgrid="false"><inkscape:grid
       id="grid1"
       units="px"
       originx="0"
       originy="0"
       spacingx="2.6458333"
       spacingy="2.6458332"
       empcolor="#0099e5"
       empopacity="0.30196078"
       color="#0099e5"
       opacity="0.14901961"
       empspacing="5"
       enabled="true"
       visible="false" /></sodipodi:namedview><defs
     id="defs1"><rect
       x="304"
       y="35.19532"
       width="478"
       height="746.80469"
       id="rect16" /></defs><g
     inkscape:label="Layer 1"
     inkscape:groupmode="layer"
     id="layer1"><rect
       style="fill:#ffffff;fill-rule:evenodd;stroke-width:2.29136;stroke-linecap:round;stroke-linejoin:round;paint-order:markers fill stroke"
       id="rect2"
       width="190.5"
       height="214.31252"
       x="0"
       y="0" /><image
       width="190.50002"
       height="214.31252"
       preserveAspectRatio="none"
       xlink:href="map-ndvi-tree-720-qgis.png"
       id="image1-5"
       x="-1.5258789e-05"
       y="0" /><text
       xml:space="preserve"
       style="font-size:5.29167px;line-height:1.2;font-family:'Open Sans';-inkscape-font-specification:'Open Sans, Normal';stroke-width:0.264583"
       x="5.18573"
       y="37.543846"
       id="text1"><tspan
         sodipodi:role="line"
         id="tspan1"
         style="font-style:normal;font-variant:normal;font-weight:bold;font-stretch:normal;font-size:5.29167px;font-family:'Open Sans';-inkscape-font-specification:'Open Sans Bold';stroke-width:0.264583"
         x="5.18573"
         y="37.543846">Tree and</tspan><tspan
         sodipodi:role="line"
         style="font-style:normal;font-variant:normal;font-weight:bold;font-stretch:normal;font-size:5.29167px;font-family:'Open Sans';-inkscape-font-specification:'Open Sans Bold';stroke-width:0.264583"
         x="5.18573"
         y="43.893848"
         id="tspan6">vegetation</tspan><tspan
         sodipodi:role="line"
         style="font-style:normal;font-variant:normal;font-weight:bold;font-stretch:normal;font-size:5.29167px;font-family:'Open Sans';-inkscape-font-specification:'Open Sans Bold';stroke-width:0.264583"
         x="5.18573"
         y="50.243851"
         id="tspan7">density in</tspan><tspan
         sodipodi:role="line"
         style="font-style:normal;font-variant:normal;font-weight:bold;font-stretch:normal;font-size:5.29167px;font-family:'Open Sans';-inkscape-font-specification:'Open Sans Bold';stroke-width:0.264583"
         x="5.18573"
         y="56.593857"
         id="tspan8">Bridgeport</tspan></text><text
       xml:space="preserve"
       style="font-size:3.70417px;line-height:1.2;font-family:'Open Sans';-inkscape-font-specification:'Open Sans, Normal';stroke-width:0.264583"
       x="17.610134"
       y="70.76609"
       id="text1-3-6-0"><tspan
         sodipodi:role="line"
         style="font-style:normal;font-variant:normal;font-weight:bold;font-stretch:normal;font-size:3.70417px;font-family:'Open Sans';-inkscape-font-specification:'Open Sans Bold';text-align:start;text-anchor:start;stroke-width:0.264583"
         x="17.610134"
         y="70.76609"
         id="tspan4-6">More Trees</tspan></text><text
       xml:space="preserve"
       style="font-size:3.70417px;line-height:1.2;font-family:'Open Sans';-inkscape-font-specification:'Open Sans, Normal';stroke-width:0.264583"
       x="17.840717"
       y="89.202957"
       id="text1-3-6-9"><tspan
         sodipodi:role="line"
         style="font-style:normal;font-variant:normal;font-weight:bold;font-stretch:normal;font-size:3.70417px;font-family:'Open Sans';-inkscape-font-specification:'Open Sans Bold';text-align:start;text-anchor:start;stroke-width:0.264583"
         x="17.840717"
         y="89.202957"
         id="tspan4-4">Fewer Trees</tspan></text><text
       xml:space="preserve"
       style="font-size:3.43958px;line-height:1.2;font-family:'Open Sans';-inkscape-font-specification:'Open Sans, Normal';fill:#1e3765;fill-opacity:1;stroke-width:0.264583"
       x="16.331764"
       y="226.70599"
       id="text1-3-4"
       transform="rotate(-24.273517)"><tspan
         sodipodi:role="line"
         id="tspan1-6-7"
         style="font-style:normal;font-variant:normal;font-weight:normal;font-stretch:normal;font-size:3.43958px;font-family:'Open Sans';-inkscape-font-specification:'Open Sans Bold';text-align:start;text-anchor:start;fill:#1e3765;fill-opacity:1;stroke-width:0.264583"
         x="16.331764"
         y="226.70599">City of Bridgeport</tspan><tspan
         sodipodi:role="line"
         style="font-style:normal;font-variant:normal;font-weight:normal;font-stretch:normal;font-size:3.43958px;font-family:'Open Sans';-inkscape-font-specification:'Open Sans Bold';text-align:start;text-anchor:start;fill:#1e3765;fill-opacity:1;stroke-width:0.264583"
         x="16.331764"
         y="230.8335"
         id="tspan17">boundary</tspan></text><rect
       style="opacity:1;fill:#f5d74d;fill-opacity:1;fill-rule:evenodd;stroke:none;stroke-width:0.382062;stroke-linecap:round;stroke-linejoin:round;paint-order:markers fill stroke"
       id="rect1"
       width="5.2752156"
       height="10.583333"
       x="-89.280251"
       y="5.291666"
       transform="rotate(-90)" /><rect
       style="fill:#a1ca7d;fill-opacity:1;fill-rule:evenodd;stroke:none;stroke-width:0.382062;stroke-linecap:round;stroke-linejoin:round;paint-order:markers fill stroke"
       id="rect1-6"
       width="5.2752161"
       height="10.583333"
       x="-84.005035"
       y="5.291666"
       transform="rotate(-90)" /><rect
       style="fill:#4dbdad;fill-opacity:1;fill-rule:evenodd;stroke:none;stroke-width:0.382062;stroke-linecap:round;stroke-linejoin:round;paint-order:markers fill stroke"
       id="rect1-6-6"
       width="5.2752151"
       height="10.583333"
       x="-78.729813"
       y="5.291666"
       transform="rotate(-90)" /><path
       style="fill:#77767b;stroke:#77767b;stroke-width:0.264583;stroke-linecap:butt;stroke-linejoin:miter;stroke-dasharray:none;stroke-opacity:1"
       d="M 5.2916665,99.669248 H 60.854165"
       id="path1"
       sodipodi:nodetypes="cc" /><rect
       style="fill:#3d7570;fill-opacity:1;fill-rule:evenodd;stroke:none;stroke-width:0.382062;stroke-linecap:round;stroke-linejoin:round;paint-order:markers fill stroke"
       id="rect1-6-6-0"
       width="5.2752151"
       height="10.583333"
       x="-73.454605"
       y="5.291666"
       transform="rotate(-90)" /><g
       id="text1-3-3-4-4"
       style="font-size:3.70417px;line-height:1.2;font-family:'Open Sans';-inkscape-font-specification:'Open Sans, Normal';stroke:#ffffff;stroke-width:1.05833333;stroke-linecap:round;stroke-linejoin:round;opacity:0.79062208;stroke-dasharray:none"
       aria-label="East&#10;Side"
       transform="translate(-27.828848,-3.8968584)"><path
         style="font-weight:bold;-inkscape-font-specification:'Open Sans Bold';stroke:#ffffff;stroke-width:1.05833333;stroke-dasharray:none"
         d="m 157.33855,98.952621 h -1.5229 v -2.644285 h 1.5229 v 0.459404 h -0.96221 v 0.580585 h 0.89529 v 0.459404 h -0.89529 V 98.4896 h 0.96221 z m 1.7924,0 -0.10671,-0.274918 h -0.0145 q -0.13927,0.175441 -0.28758,0.244171 -0.1465,0.06692 -0.38344,0.06692 -0.2912,0 -0.4594,-0.166398 -0.1664,-0.166399 -0.1664,-0.473874 0,-0.321944 0.22427,-0.473873 0.22609,-0.153737 0.68007,-0.170015 l 0.35088,-0.01085 v -0.08862 q 0,-0.307475 -0.31471,-0.307475 -0.24236,0 -0.56973,0.146503 l -0.18268,-0.372587 q 0.34907,-0.182677 0.77411,-0.182677 0.40696,0 0.624,0.177251 0.21704,0.17725 0.21704,0.538985 v 1.347464 z m -0.16278,-0.936894 -0.21342,0.0072 q -0.24056,0.0072 -0.35812,0.08682 -0.11757,0.07958 -0.11757,0.242363 0,0.233319 0.26769,0.233319 0.19172,0 0.30566,-0.110329 0.11576,-0.110329 0.11576,-0.293006 z m 2.52672,0.336414 q 0,0.311092 -0.21704,0.473873 -0.21523,0.162781 -0.6457,0.162781 -0.22066,0 -0.3762,-0.03075 -0.15555,-0.02894 -0.2912,-0.08682 v -0.455787 q 0.15374,0.07235 0.34546,0.121182 0.19353,0.04883 0.34003,0.04883 0.30024,0 0.30024,-0.173633 0,-0.06511 -0.0398,-0.104903 -0.0398,-0.0416 -0.13746,-0.09224 -0.0977,-0.05245 -0.26045,-0.121181 -0.23332,-0.09767 -0.34365,-0.180868 -0.10852,-0.0832 -0.15916,-0.189911 -0.0488,-0.10852 -0.0488,-0.265875 0,-0.269493 0.208,-0.415996 0.20981,-0.148311 0.59325,-0.148311 0.36535,0 0.71081,0.159163 l -0.1664,0.397909 q -0.15193,-0.06511 -0.28396,-0.106712 -0.13204,-0.0416 -0.2695,-0.0416 -0.24417,0 -0.24417,0.132033 0,0.07416 0.0778,0.128416 0.0796,0.05426 0.34546,0.160972 0.23694,0.09586 0.34727,0.179059 0.11033,0.0832 0.16278,0.19172 0.0524,0.108521 0.0524,0.258641 z m 1.28235,0.197146 q 0.1447,0 0.34727,-0.0633 v 0.410569 q -0.20619,0.09224 -0.50643,0.09224 -0.33099,0 -0.48292,-0.166398 -0.15012,-0.168207 -0.15012,-0.502812 v -0.974877 h -0.26406 V 97.11139 l 0.30385,-0.184486 0.15917,-0.426847 h 0.35269 v 0.430465 h 0.56611 v 0.414187 h -0.56611 v 0.974877 q 0,0.117564 0.0651,0.173633 0.0669,0.05607 0.17544,0.05607 z"
         id="path17" /><path
         style="font-weight:bold;-inkscape-font-specification:'Open Sans Bold';stroke:#ffffff;stroke-width:1.05833333;stroke-dasharray:none"
         d="m 157.37653,102.6633 q 0,0.35812 -0.25864,0.56431 -0.25683,0.20619 -0.71623,0.20619 -0.42323,0 -0.7488,-0.15916 v -0.5209 q 0.26769,0.11937 0.45217,0.1682 0.1863,0.0488 0.34004,0.0488 0.18448,0 0.28215,-0.0705 0.0995,-0.0705 0.0995,-0.20981 0,-0.0778 -0.0434,-0.13746 -0.0434,-0.0615 -0.12842,-0.11756 -0.0832,-0.0561 -0.34184,-0.17906 -0.24236,-0.11395 -0.36354,-0.21885 -0.12118,-0.1049 -0.19353,-0.24417 -0.0724,-0.13927 -0.0724,-0.32556 0,-0.35089 0.23694,-0.55165 0.23874,-0.20076 0.65836,-0.20076 0.20619,0 0.39248,0.0488 0.1881,0.0488 0.39248,0.13746 l -0.18086,0.43589 q -0.21162,-0.0868 -0.35089,-0.12118 -0.13746,-0.0344 -0.2713,-0.0344 -0.15916,0 -0.24417,0.0742 -0.085,0.0742 -0.085,0.19353 0,0.0742 0.0344,0.13023 0.0344,0.0543 0.10852,0.10671 0.076,0.0506 0.35631,0.18448 0.37077,0.17725 0.50823,0.35631 0.13746,0.17725 0.13746,0.43589 z m 0.41238,-1.81048 q 0,-0.2695 0.30024,-0.2695 0.30024,0 0.30024,0.2695 0,0.12841 -0.076,0.20076 -0.0742,0.0705 -0.22428,0.0705 -0.30024,0 -0.30024,-0.2713 z m 0.57516,2.54481 h -0.55165 v -2.0221 h 0.55165 z m 1.21905,0.0362 q -0.35631,0 -0.56069,-0.27673 -0.20257,-0.27673 -0.20257,-0.76688 0,-0.49738 0.20619,-0.77411 0.20799,-0.27854 0.57154,-0.27854 0.38163,0 0.58239,0.29663 h 0.0181 q -0.0416,-0.22609 -0.0416,-0.40334 v -0.64751 h 0.55346 v 2.81431 h -0.42324 l -0.10671,-0.26226 h -0.0235 q -0.1881,0.29843 -0.57335,0.29843 z m 0.19353,-0.43951 q 0.21161,0 0.30928,-0.12299 0.0995,-0.12299 0.10852,-0.4178 v -0.0597 q 0,-0.32556 -0.10128,-0.46664 -0.0995,-0.14108 -0.32557,-0.14108 -0.18448,0 -0.28758,0.15736 -0.10128,0.15555 -0.10128,0.45398 0,0.29843 0.10309,0.44855 0.1031,0.14831 0.29482,0.14831 z m 2.34766,-1.26426 q -0.17544,0 -0.27492,0.11213 -0.0995,0.11033 -0.11395,0.31471 h 0.77412 q -0.004,-0.20438 -0.10671,-0.31471 -0.1031,-0.11213 -0.27854,-0.11213 z m 0.0778,1.70377 q -0.48834,0 -0.76326,-0.26949 -0.27492,-0.2695 -0.27492,-0.76327 0,-0.50823 0.25322,-0.78496 0.25502,-0.27854 0.70357,-0.27854 0.42866,0 0.6674,0.24417 0.23875,0.24418 0.23875,0.67464 v 0.26768 h -1.30406 q 0.009,0.23513 0.13927,0.36717 0.13023,0.13203 0.36535,0.13203 0.18268,0 0.34546,-0.038 0.16278,-0.038 0.34003,-0.12118 v 0.42684 q -0.14469,0.0724 -0.30928,0.10672 -0.16459,0.0362 -0.40153,0.0362 z"
         id="path18" /></g><text
       xml:space="preserve"
       style="font-size:3.70417px;line-height:1.2;font-family:'Open Sans';-inkscape-font-specification:'Open Sans, Normal';stroke-width:0.264583"
       x="127.654"
       y="95.055779"
       id="text1-3-3-4"><tspan
         sodipodi:role="line"
         id="tspan1-6-2-5"
         style="font-style:normal;font-variant:normal;font-weight:bold;font-stretch:normal;font-size:3.70417px;font-family:'Open Sans';-inkscape-font-specification:'Open Sans Bold';stroke-width:0.264583"
         x="127.654"
         y="95.055779">East</tspan><tspan
         sodipodi:role="line"
         style="font-style:normal;font-variant:normal;font-weight:bold;font-stretch:normal;font-size:3.70417px;font-family:'Open Sans';-inkscape-font-specification:'Open Sans Bold';stroke-width:0.264583"
         x="127.654"
         y="99.500786"
         id="tspan3">Side</tspan></text><path
       style="font-weight:bold;font-size:3.70417px;line-height:1.2;font-family:'Open Sans';-inkscape-font-specification:'Open Sans Bold';stroke:#ffffff;stroke-width:1.05833333;stroke-linecap:round;stroke-linejoin:round;opacity:0.79062208;stroke-dasharray:none"
       d="m 104.54008,122.92042 q 0,0.65294 -0.37259,1.0002 -0.37078,0.34727 -1.07254,0.34727 h -0.74879 v -2.64429 h 0.83018 q 0.6475,0 1.00562,0.34184 0.35812,0.34184 0.35812,0.95498 z m -0.58239,0.0145 q 0,-0.85188 -0.75241,-0.85188 h -0.29843 v 1.72186 h 0.24055 q 0.81029,0 0.81029,-0.86998 z m 1.52652,0.31833 q 0,0.30024 0.0977,0.45398 0.0995,0.15374 0.32194,0.15374 0.22066,0 0.31652,-0.15193 0.0977,-0.15374 0.0977,-0.45579 0,-0.30024 -0.0977,-0.45036 -0.0977,-0.15012 -0.32013,-0.15012 -0.22066,0 -0.31833,0.15012 -0.0977,0.14831 -0.0977,0.45036 z m 1.39811,0 q 0,0.49377 -0.26045,0.77231 -0.26045,0.27853 -0.72528,0.27853 -0.2912,0 -0.51367,-0.1266 -0.22246,-0.12842 -0.34184,-0.36717 -0.11937,-0.23874 -0.11937,-0.55707 0,-0.49558 0.25864,-0.77049 0.25864,-0.27492 0.72709,-0.27492 0.2912,0 0.51366,0.1266 0.22247,0.12661 0.34184,0.36355 0.11938,0.23693 0.11938,0.55526 z m 2.0438,1.01467 -0.15554,-0.70719 -0.20981,-0.89349 h -0.0127 l -0.36897,1.60068 h -0.59325 l -0.57516,-2.0221 h 0.54984 l 0.23332,0.89529 q 0.0561,0.24056 0.11395,0.66379 h 0.0108 q 0.007,-0.13746 0.0633,-0.43589 l 0.0289,-0.15374 0.2496,-0.96945 h 0.60771 l 0.23694,0.96945 q 0.007,0.0398 0.0217,0.11756 0.0163,0.0778 0.0308,0.1664 0.0145,0.0868 0.0253,0.17183 0.0127,0.0832 0.0145,0.13384 h 0.0108 q 0.0163,-0.13023 0.0579,-0.35631 0.0416,-0.22789 0.0597,-0.30748 l 0.24236,-0.89529 h 0.5408 l -0.5824,2.0221 z m 3.37499,0 h -0.55164 v -1.18107 q 0,-0.21885 -0.0778,-0.32737 -0.0778,-0.11033 -0.24779,-0.11033 -0.23151,0 -0.3346,0.15555 -0.1031,0.15374 -0.1031,0.51186 v 0.95136 h -0.55164 v -2.0221 h 0.42142 l 0.0742,0.25864 h 0.0307 q 0.0923,-0.1465 0.25322,-0.22066 0.16278,-0.076 0.36897,-0.076 0.35269,0 0.53537,0.19172 0.18267,0.18991 0.18267,0.54983 z m 1.41981,-0.40334 q 0.1447,0 0.34727,-0.0633 v 0.41057 q -0.20619,0.0922 -0.50643,0.0922 -0.33099,0 -0.48292,-0.1664 -0.15012,-0.1682 -0.15012,-0.50281 v -0.97487 h -0.26406 v -0.23332 l 0.30385,-0.18449 0.15917,-0.42685 h 0.35269 v 0.43047 h 0.56612 v 0.41419 h -0.56612 v 0.97487 q 0,0.11757 0.0651,0.17364 0.0669,0.0561 0.17544,0.0561 z m 1.19554,-0.61133 q 0,0.30024 0.0977,0.45398 0.0995,0.15374 0.32194,0.15374 0.22066,0 0.31652,-0.15193 0.0977,-0.15374 0.0977,-0.45579 0,-0.30024 -0.0977,-0.45036 -0.0977,-0.15012 -0.32014,-0.15012 -0.22065,0 -0.31832,0.15012 -0.0977,0.14831 -0.0977,0.45036 z m 1.39811,0 q 0,0.49377 -0.26045,0.77231 -0.26045,0.27853 -0.72528,0.27853 -0.2912,0 -0.51367,-0.1266 -0.22246,-0.12842 -0.34184,-0.36717 -0.11937,-0.23874 -0.11937,-0.55707 0,-0.49558 0.25864,-0.77049 0.25864,-0.27492 0.72709,-0.27492 0.2912,0 0.51366,0.1266 0.22247,0.12661 0.34184,0.36355 0.11938,0.23693 0.11938,0.55526 z m 2.0438,1.01467 -0.15555,-0.70719 -0.2098,-0.89349 h -0.0127 l -0.36897,1.60068 h -0.59325 l -0.57516,-2.0221 h 0.54984 l 0.23332,0.89529 q 0.0561,0.24056 0.11395,0.66379 h 0.0109 q 0.007,-0.13746 0.0633,-0.43589 l 0.0289,-0.15374 0.2496,-0.96945 h 0.60771 l 0.23694,0.96945 q 0.007,0.0398 0.0217,0.11756 0.0163,0.0778 0.0308,0.1664 0.0145,0.0868 0.0253,0.17183 0.0127,0.0832 0.0145,0.13384 h 0.0109 q 0.0163,-0.13023 0.0579,-0.35631 0.0416,-0.22789 0.0597,-0.30748 l 0.24236,-0.89529 h 0.5408 l -0.5824,2.0221 z m 3.37499,0 h -0.55164 v -1.18107 q 0,-0.21885 -0.0778,-0.32737 -0.0778,-0.11033 -0.24779,-0.11033 -0.23151,0 -0.3346,0.15555 -0.1031,0.15374 -0.1031,0.51186 v 0.95136 h -0.55164 v -2.0221 h 0.42142 l 0.0742,0.25864 h 0.0308 q 0.0922,-0.1465 0.25322,-0.22066 0.16278,-0.076 0.36897,-0.076 0.35269,0 0.53537,0.19172 0.18267,0.18991 0.18267,0.54983 z"
       id="text1-3-3-4-7-0"
       aria-label="Downtown" /><text
       xml:space="preserve"
       style="font-size:3.70417px;line-height:1.2;font-family:'Open Sans';-inkscape-font-specification:'Open Sans, Normal';stroke-width:0.264583"
       x="102.01335"
       y="124.26791"
       id="text1-3-3-4-7"><tspan
         sodipodi:role="line"
         style="font-style:normal;font-variant:normal;font-weight:bold;font-stretch:normal;font-size:3.70417px;font-family:'Open Sans';-inkscape-font-specification:'Open Sans Bold';stroke-width:0.264583"
         x="102.01335"
         y="124.26791"
         id="tspan3-2">Downtown</tspan></text><text
       xml:space="preserve"
       transform="scale(0.26458333)"
       id="text16"
       style="font-weight:bold;font-size:12px;line-height:1.2;font-family:OpenSans-Bold, 'Open Sans';-inkscape-font-specification:'OpenSans-Bold, Open Sans, Bold';text-align:end;white-space:pre;shape-inside:url(#rect16);display:inline" /><text
       xml:space="preserve"
       style="font-size:3.175px;line-height:1.2;font-family:'Open Sans';-inkscape-font-specification:'Open Sans';fill:#9a9996;stroke-width:0.264583"
       x="5.2467079"
       y="105.49207"
       id="text10"><tspan
         sodipodi:role="line"
         id="tspan10"
         style="line-height:1.2;fill:#9a9996;stroke-width:0.264583"
         x="5.2467079"
         y="105.49207">Map data is a combination of land use </tspan><tspan
         sodipodi:role="line"
         style="line-height:1.2;fill:#9a9996;stroke-width:0.264583"
         x="5.2467079"
         y="109.30207"
         id="tspan12">data from the City of Bridgeport, </tspan><tspan
         sodipodi:role="line"
         style="line-height:1.2;fill:#9a9996;stroke-width:0.264583"
         x="5.2467079"
         y="113.11208"
         id="tspan18">LIDAR data from the Connecticut State </tspan><tspan
         sodipodi:role="line"
         style="line-height:1.2;fill:#9a9996;stroke-width:0.264583"
         x="5.2467079"
         y="116.92207"
         id="tspan13">GIS Office, and NDVI (Normalized </tspan><tspan
         sodipodi:role="line"
         style="line-height:1.2;fill:#9a9996;stroke-width:0.264583"
         x="5.2467079"
         y="120.73207"
         id="tspan14">Difference Vegetation Index) data </tspan><tspan
         sodipodi:role="line"
         style="line-height:1.2;fill:#9a9996;stroke-width:0.264583"
         x="5.2467079"
         y="124.54208"
         id="tspan15">from the European Space Agency </tspan><tspan
         sodipodi:role="line"
         style="line-height:1.2;fill:#9a9996;stroke-width:0.264583"
         x="5.2467079"
         y="128.35207"
         id="tspan16">(Copernicus Sentinel-2 L2A)</tspan></text></g></svg>
