<?xml version="1.0" encoding="UTF-8" standalone="no"?>
<!-- Created with Inkscape (http://www.inkscape.org/) -->

<svg
   width="720"
   height="450"
   viewBox="0 0 190.5 119.0625"
   version="1.1"
   id="svg1"
   inkscape:version="1.4 (1:1.4+202410161351+e7c3feb100)"
   sodipodi:docname="tree-canopy-benefits-720.svg"
   xmlns:inkscape="http://www.inkscape.org/namespaces/inkscape"
   xmlns:sodipodi="http://sodipodi.sourceforge.net/DTD/sodipodi-0.dtd"
   xmlns="http://www.w3.org/2000/svg"
   xmlns:svg="http://www.w3.org/2000/svg">
  <sodipodi:namedview
     id="namedview1"
     pagecolor="#ffffff"
     bordercolor="#666666"
     borderopacity="1.0"
     inkscape:showpageshadow="2"
     inkscape:pageopacity="0.0"
     inkscape:pagecheckerboard="0"
     inkscape:deskcolor="#d1d1d1"
     inkscape:document-units="mm"
     showgrid="false"
     inkscape:zoom="5.6568544"
     inkscape:cx="153.35378"
     inkscape:cy="43.045124"
     inkscape:window-width="1920"
     inkscape:window-height="1016"
     inkscape:window-x="0"
     inkscape:window-y="0"
     inkscape:window-maximized="1"
     inkscape:current-layer="layer1">
    <inkscape:grid
       id="grid1"
       units="px"
       originx="0"
       originy="0"
       spacingx="2.6458333"
       spacingy="2.6458332"
       empcolor="#0099e5"
       empopacity="0.30196078"
       color="#0099e5"
       opacity="0.14901961"
       empspacing="5"
       enabled="true"
       visible="false" />
  </sodipodi:namedview>
  <defs
     id="defs1" />
  <g
     inkscape:label="Layer 1"
     inkscape:groupmode="layer"
     id="layer1">
    <rect
       style="fill:none;fill-opacity:1;fill-rule:evenodd;stroke:#007fa3;stroke-width:0.396875;stroke-linecap:round;stroke-linejoin:round;stroke-dasharray:none;stroke-opacity:1;paint-order:markers fill stroke"
       id="rect11"
       width="7.9374967"
       height="5.2916641"
       x="116.99667"
       y="69.533638"
       rx="0.73425823"
       ry="0.73425823" />
    <text
       xml:space="preserve"
       style="font-size:14.2875px;line-height:1.2;font-family:sans-serif;-inkscape-font-specification:'sans-serif, Normal';display:inline;fill:#00a189;fill-opacity:1;stroke-width:0.35937"
       x="21.928057"
       y="18.520832"
       id="text4-1-7-0"><tspan
         sodipodi:role="line"
         style="font-style:normal;font-variant:normal;font-weight:bold;font-stretch:normal;font-size:14.2875px;font-family:'Open Sans';-inkscape-font-specification:'Open Sans, Bold';font-variant-ligatures:normal;font-variant-caps:normal;font-variant-numeric:normal;font-variant-east-asian:normal;fill:#00a189;fill-opacity:1;stroke-width:0.35937"
         x="21.928057"
         y="18.520832"
         id="tspan6">1</tspan></text>
    <text
       xml:space="preserve"
       style="font-size:14.2875px;line-height:1.2;font-family:sans-serif;-inkscape-font-specification:'sans-serif, Normal';display:inline;fill:#000000;fill-opacity:1;stroke-width:0.35937"
       x="19.113897"
       y="35.481297"
       id="text4-1-7-0-8"><tspan
         sodipodi:role="line"
         style="font-style:normal;font-variant:normal;font-weight:bold;font-stretch:normal;font-size:14.2875px;font-family:'Open Sans';-inkscape-font-specification:'Open Sans, Bold';font-variant-ligatures:normal;font-variant-caps:normal;font-variant-numeric:normal;font-variant-east-asian:normal;fill:#000000;fill-opacity:1;stroke-width:0.35937"
         x="19.113897"
         y="35.481297"
         id="tspan6-68">=</tspan></text>
    <path
       style="fill:#ab1368;fill-opacity:1;stroke:#00a189;stroke-width:0.79375;stroke-linecap:butt;stroke-linejoin:miter;stroke-dasharray:none;stroke-opacity:1"
       d="M 16.571717,18.517156 V 8.9002906"
       id="path1-2-6"
       sodipodi:nodetypes="cc" />
    <text
       xml:space="preserve"
       style="font-size:5.29167px;line-height:1.2;font-family:sans-serif;-inkscape-font-specification:'sans-serif, Normal';display:inline;fill:#000000;stroke-width:0.264583"
       x="50.270832"
       y="12.118151"
       id="text4-1-7-0-1"><tspan
         sodipodi:role="line"
         style="font-style:normal;font-variant:normal;font-weight:bold;font-stretch:normal;font-size:5.29167px;font-family:'Open Sans';-inkscape-font-specification:'Open Sans, Bold';font-variant-ligatures:normal;font-variant-caps:normal;font-variant-numeric:normal;font-variant-east-asian:normal;fill:#000000;stroke-width:0.264583"
         x="50.270832"
         y="12.118151"
         id="tspan1">Increase in tree canopy</tspan><tspan
         sodipodi:role="line"
         style="font-style:normal;font-variant:normal;font-weight:bold;font-stretch:normal;font-size:5.29167px;font-family:'Open Sans';-inkscape-font-specification:'Open Sans, Bold';font-variant-ligatures:normal;font-variant-caps:normal;font-variant-numeric:normal;font-variant-east-asian:normal;fill:#000000;stroke-width:0.264583"
         x="50.270832"
         y="18.474947"
         id="tspan10">in Bridgeport, CT</tspan></text>
    <text
       xml:space="preserve"
       style="font-size:14.2875px;line-height:1.2;font-family:sans-serif;-inkscape-font-specification:'sans-serif, Normal';display:inline;fill:#8dbf2e;fill-opacity:1;stroke-width:0.35937"
       x="8.9510813"
       y="52.776287"
       id="text4-1-7-0-3"><tspan
         sodipodi:role="line"
         style="font-style:normal;font-variant:normal;font-weight:bold;font-stretch:normal;font-size:14.2875px;font-family:'Open Sans';-inkscape-font-specification:'Open Sans, Bold';font-variant-ligatures:normal;font-variant-caps:normal;font-variant-numeric:normal;font-variant-east-asian:normal;fill:#8dbf2e;fill-opacity:1;stroke-width:0.35937"
         x="8.9510813"
         y="52.776287"
         id="tspan6-6">101.5</tspan></text>
    <text
       xml:space="preserve"
       style="font-size:14.2875px;line-height:1.2;font-family:sans-serif;-inkscape-font-specification:'sans-serif, Normal';display:inline;fill:#8dbf2e;fill-opacity:1;stroke-width:0.35937"
       x="128.20241"
       y="53.261475"
       id="text4-1-7-0-3-6"><tspan
         sodipodi:role="line"
         style="font-style:normal;font-variant:normal;font-weight:normal;font-stretch:normal;font-size:14.2875px;font-family:'Open Sans';-inkscape-font-specification:'Open Sans, Bold';font-variant-ligatures:normal;font-variant-caps:normal;font-variant-numeric:normal;font-variant-east-asian:normal;fill:#8dbf2e;fill-opacity:1;stroke-width:0.35937"
         x="128.20241"
         y="53.261475"
         id="tspan6-6-8">47</tspan></text>
    <text
       xml:space="preserve"
       style="font-size:4.23333px;line-height:1.2;font-family:sans-serif;-inkscape-font-specification:'sans-serif, Normal';display:inline;fill:#000000;stroke-width:0.264583"
       x="50.098564"
       y="46.607529"
       id="text4-1-7-0-1-0"><tspan
         sodipodi:role="line"
         style="font-style:normal;font-variant:normal;font-weight:normal;font-stretch:normal;font-size:4.23333px;font-family:'Open Sans';-inkscape-font-specification:'Open Sans, Bold';font-variant-ligatures:normal;font-variant-caps:normal;font-variant-numeric:normal;font-variant-east-asian:normal;fill:#000000;stroke-width:0.264583"
         x="50.098564"
         y="46.607529"
         id="tspan2">Tonnes of carbon</tspan><tspan
         sodipodi:role="line"
         style="font-style:normal;font-variant:normal;font-weight:normal;font-stretch:normal;font-size:4.23333px;font-family:'Open Sans';-inkscape-font-specification:'Open Sans, Bold';font-variant-ligatures:normal;font-variant-caps:normal;font-variant-numeric:normal;font-variant-east-asian:normal;fill:#000000;stroke-width:0.264583"
         x="50.098564"
         y="51.692959"
         id="tspan3">sequestered</tspan></text>
    <text
       xml:space="preserve"
       style="font-size:4.23333px;line-height:1.2;font-family:sans-serif;-inkscape-font-specification:'sans-serif, Normal';display:inline;fill:#000000;stroke-width:0.264583"
       x="149.26408"
       y="46.71965"
       id="text4-1-7-0-1-0-6"><tspan
         sodipodi:role="line"
         style="font-style:normal;font-variant:normal;font-weight:normal;font-stretch:normal;font-size:4.23333px;font-family:'Open Sans';-inkscape-font-specification:'Open Sans, Bold';font-variant-ligatures:normal;font-variant-caps:normal;font-variant-numeric:normal;font-variant-east-asian:normal;fill:#000000;stroke-width:0.264583"
         x="149.26408"
         y="46.71965"
         id="tspan4">Homes' energy </tspan><tspan
         sodipodi:role="line"
         style="font-style:normal;font-variant:normal;font-weight:normal;font-stretch:normal;font-size:4.23333px;font-family:'Open Sans';-inkscape-font-specification:'Open Sans, Bold';font-variant-ligatures:normal;font-variant-caps:normal;font-variant-numeric:normal;font-variant-east-asian:normal;fill:#000000;stroke-width:0.264583"
         x="149.26408"
         y="51.80508"
         id="tspan11">use offset</tspan></text>
    <text
       xml:space="preserve"
       style="font-size:3.175px;line-height:1;font-family:Ubuntu;-inkscape-font-specification:Ubuntu;display:inline;fill:#666666;stroke:none;stroke-width:0.264584;stroke-linecap:square;stroke-miterlimit:10"
       x="10.229866"
       y="116.10092"
       id="text13-1-9-2-4"><tspan
         style="font-style:normal;font-variant:normal;font-weight:normal;font-stretch:normal;font-size:3.175px;line-height:1;font-family:'Open Sans';-inkscape-font-specification:'Open Sans, Normal';font-variant-ligatures:normal;font-variant-caps:normal;font-variant-numeric:normal;font-variant-east-asian:normal;fill:#9a9996;stroke-width:0.264584"
         x="10.229866"
         y="116.10092"
         id="tspan14-2-7-6-4">Data source: Tree Equity Score</tspan></text>
    <rect
       style="fill:none;fill-opacity:1;fill-rule:evenodd;stroke:#f6f5f4;stroke-width:0.264583;stroke-linecap:round;stroke-linejoin:round;stroke-dasharray:none;stroke-opacity:1;paint-order:markers fill stroke"
       id="rect4"
       width="179.91667"
       height="21.16667"
       x="5.2916665"
       y="37.041664" />
    <rect
       style="fill:none;fill-opacity:1;fill-rule:evenodd;stroke:#f6f5f4;stroke-width:0.264583;stroke-linecap:round;stroke-linejoin:round;stroke-dasharray:none;stroke-opacity:1;paint-order:markers fill stroke"
       id="rect4-7"
       width="179.91667"
       height="21.16667"
       x="5.2916665"
       y="2.6458309" />
    <text
       xml:space="preserve"
       style="font-size:14.2875px;line-height:1.2;font-family:sans-serif;-inkscape-font-specification:'sans-serif, Normal';display:inline;fill:#007fa3;fill-opacity:1;stroke-width:0.35937"
       x="10.03918"
       y="76.588783"
       id="text4-1-7-0-3-1"><tspan
         sodipodi:role="line"
         style="font-style:normal;font-variant:normal;font-weight:bold;font-stretch:normal;font-size:14.2875px;font-family:'Open Sans';-inkscape-font-specification:'Open Sans, Bold';font-variant-ligatures:normal;font-variant-caps:normal;font-variant-numeric:normal;font-variant-east-asian:normal;fill:#007fa3;fill-opacity:1;stroke-width:0.35937"
         x="10.03918"
         y="76.588783"
         id="tspan6-6-1">3736</tspan></text>
    <text
       xml:space="preserve"
       style="font-size:14.2875px;line-height:1.2;font-family:sans-serif;-inkscape-font-specification:'sans-serif, Normal';display:inline;fill:#007fa3;fill-opacity:1;stroke-width:0.35937"
       x="128.20241"
       y="77.073975"
       id="text4-1-7-0-3-6-5"><tspan
         sodipodi:role="line"
         style="font-style:normal;font-variant:normal;font-weight:normal;font-stretch:normal;font-size:14.2875px;font-family:'Open Sans';-inkscape-font-specification:'Open Sans, Bold';font-variant-ligatures:normal;font-variant-caps:normal;font-variant-numeric:normal;font-variant-east-asian:normal;fill:#007fa3;fill-opacity:1;stroke-width:0.35937"
         x="128.20241"
         y="77.073975"
         id="tspan6-6-8-9">49</tspan></text>
    <text
       xml:space="preserve"
       style="font-size:4.23333px;line-height:1.2;font-family:sans-serif;-inkscape-font-specification:'sans-serif, Normal';display:inline;fill:#000000;stroke-width:0.264583"
       x="49.877388"
       y="70.420029"
       id="text4-1-7-0-1-0-7"><tspan
         sodipodi:role="line"
         style="font-style:normal;font-variant:normal;font-weight:normal;font-stretch:normal;font-size:4.23333px;font-family:'Open Sans';-inkscape-font-specification:'Open Sans, Bold';font-variant-ligatures:normal;font-variant-caps:normal;font-variant-numeric:normal;font-variant-east-asian:normal;fill:#000000;stroke-width:0.264583"
         x="49.877388"
         y="70.420029"
         id="tspan3-6">Cubic metres of</tspan><tspan
         sodipodi:role="line"
         style="font-style:normal;font-variant:normal;font-weight:normal;font-stretch:normal;font-size:4.23333px;font-family:'Open Sans';-inkscape-font-specification:'Open Sans, Bold';font-variant-ligatures:normal;font-variant-caps:normal;font-variant-numeric:normal;font-variant-east-asian:normal;fill:#000000;stroke-width:0.264583"
         x="49.877388"
         y="75.505455"
         id="tspan5">runoff reduction</tspan></text>
    <text
       xml:space="preserve"
       style="font-size:4.23333px;line-height:1.2;font-family:sans-serif;-inkscape-font-specification:'sans-serif, Normal';display:inline;fill:#000000;stroke-width:0.264583"
       x="149.26408"
       y="70.53215"
       id="text4-1-7-0-1-0-6-7"><tspan
         sodipodi:role="line"
         style="font-style:normal;font-variant:normal;font-weight:normal;font-stretch:normal;font-size:4.23333px;font-family:'Open Sans';-inkscape-font-specification:'Open Sans, Bold';font-variant-ligatures:normal;font-variant-caps:normal;font-variant-numeric:normal;font-variant-east-asian:normal;fill:#000000;stroke-width:0.264583"
         x="149.26408"
         y="70.53215"
         id="tspan4-6">Swimming</tspan><tspan
         sodipodi:role="line"
         style="font-style:normal;font-variant:normal;font-weight:normal;font-stretch:normal;font-size:4.23333px;font-family:'Open Sans';-inkscape-font-specification:'Open Sans, Bold';font-variant-ligatures:normal;font-variant-caps:normal;font-variant-numeric:normal;font-variant-east-asian:normal;fill:#000000;stroke-width:0.264583"
         x="149.26408"
         y="75.617577"
         id="tspan7">pools</tspan></text>
    <rect
       style="fill:none;fill-opacity:1;fill-rule:evenodd;stroke:#f6f5f4;stroke-width:0.264583;stroke-linecap:round;stroke-linejoin:round;stroke-dasharray:none;stroke-opacity:1;paint-order:markers fill stroke"
       id="rect4-5"
       width="179.91667"
       height="21.16667"
       x="5.2916665"
       y="60.854164" />
    <text
       xml:space="preserve"
       style="font-size:14.2875px;line-height:1.2;font-family:sans-serif;-inkscape-font-specification:'sans-serif, Normal';display:inline;fill:#6fc7ea;fill-opacity:1;stroke-width:0.35937"
       x="10.03918"
       y="100.40128"
       id="text4-1-7-0-3-1-1"><tspan
         sodipodi:role="line"
         style="font-style:normal;font-variant:normal;font-weight:bold;font-stretch:normal;font-size:14.2875px;font-family:'Open Sans';-inkscape-font-specification:'Open Sans, Bold';font-variant-ligatures:normal;font-variant-caps:normal;font-variant-numeric:normal;font-variant-east-asian:normal;fill:#6fc7ea;fill-opacity:1;stroke-width:0.35937"
         x="10.03918"
         y="100.40128"
         id="tspan6-6-1-2">83.1</tspan></text>
    <text
       xml:space="preserve"
       style="font-size:14.2875px;line-height:1.2;font-family:sans-serif;-inkscape-font-specification:'sans-serif, Normal';display:inline;fill:#6fc7ea;fill-opacity:1;stroke-width:0.35937"
       x="128.20241"
       y="100.88647"
       id="text4-1-7-0-3-6-5-9"><tspan
         sodipodi:role="line"
         style="font-style:normal;font-variant:normal;font-weight:normal;font-stretch:normal;font-size:14.2875px;font-family:'Open Sans';-inkscape-font-specification:'Open Sans, Bold';font-variant-ligatures:normal;font-variant-caps:normal;font-variant-numeric:normal;font-variant-east-asian:normal;fill:#6fc7ea;fill-opacity:1;stroke-width:0.35937"
         x="128.20241"
         y="100.88647"
         id="tspan6-6-8-9-3">84</tspan></text>
    <text
       xml:space="preserve"
       style="font-size:4.23333px;line-height:1.2;font-family:sans-serif;-inkscape-font-specification:'sans-serif, Normal';display:inline;fill:#000000;stroke-width:0.264583"
       x="49.720291"
       y="94.232529"
       id="text4-1-7-0-1-0-7-9"><tspan
         sodipodi:role="line"
         style="font-style:normal;font-variant:normal;font-weight:normal;font-stretch:normal;font-size:4.23333px;font-family:'Open Sans';-inkscape-font-specification:'Open Sans, Bold';font-variant-ligatures:normal;font-variant-caps:normal;font-variant-numeric:normal;font-variant-east-asian:normal;fill:#000000;stroke-width:0.264583"
         x="49.720291"
         y="94.232529"
         id="tspan5-8">Kilograms of</tspan><tspan
         sodipodi:role="line"
         style="font-style:normal;font-variant:normal;font-weight:normal;font-stretch:normal;font-size:4.23333px;font-family:'Open Sans';-inkscape-font-specification:'Open Sans, Bold';font-variant-ligatures:normal;font-variant-caps:normal;font-variant-numeric:normal;font-variant-east-asian:normal;fill:#000000;stroke-width:0.264583"
         x="49.720291"
         y="99.317955"
         id="tspan8">PM2.5 reduction</tspan></text>
    <text
       xml:space="preserve"
       style="font-size:4.23333px;line-height:1.2;font-family:sans-serif;-inkscape-font-specification:'sans-serif, Normal';display:inline;fill:#000000;stroke-width:0.264583"
       x="149.26408"
       y="94.34465"
       id="text4-1-7-0-1-0-6-7-8"><tspan
         sodipodi:role="line"
         style="font-style:normal;font-variant:normal;font-weight:normal;font-stretch:normal;font-size:4.23333px;font-family:'Open Sans';-inkscape-font-specification:'Open Sans, Bold';font-variant-ligatures:normal;font-variant-caps:normal;font-variant-numeric:normal;font-variant-east-asian:normal;fill:#000000;stroke-width:0.264583"
         x="149.26408"
         y="94.34465"
         id="tspan7-0">Gas powered</tspan><tspan
         sodipodi:role="line"
         style="font-style:normal;font-variant:normal;font-weight:normal;font-stretch:normal;font-size:4.23333px;font-family:'Open Sans';-inkscape-font-specification:'Open Sans, Bold';font-variant-ligatures:normal;font-variant-caps:normal;font-variant-numeric:normal;font-variant-east-asian:normal;fill:#000000;stroke-width:0.264583"
         x="149.26408"
         y="99.430077"
         id="tspan9">cars offset</tspan></text>
    <rect
       style="fill:none;fill-opacity:1;fill-rule:evenodd;stroke:#f6f5f4;stroke-width:0.264583;stroke-linecap:round;stroke-linejoin:round;stroke-dasharray:none;stroke-opacity:1;paint-order:markers fill stroke"
       id="rect4-5-9"
       width="179.91667"
       height="21.16667"
       x="5.2916665"
       y="84.666664" />
    <path
       stroke="#333333"
       stroke-width="0.171819"
       stroke-linecap="butt"
       d="M 185.0843,110.99271 H 5.2916665"
       fill-rule="nonzero"
       id="path2-8-9-7-9"
       style="display:inline;fill:#9a9996;fill-opacity:1;stroke:#9a9996;stroke-width:0.264583;stroke-linecap:square;stroke-miterlimit:10;stroke-dasharray:none;stroke-opacity:1"
       sodipodi:nodetypes="cc" />
    <path
       id="path16388"
       d="m 121.93759,70.147587 c -0.0418,0 -0.16213,0.05454 -0.16213,0.05454 l -1.2369,0.62535 c -0.16469,0.0656 -0.22996,0.328329 -0.13086,0.459526 l 0.3614,0.524271 -1.47829,0.755504 0.74385,0.558447 0.93149,-0.558447 0.93075,0.558447 0.37303,-0.373042 -1.11689,-1.489193 0.95183,-0.569354 c 0.19679,-0.09911 0.16506,-0.262285 0.16506,-0.361391 -0.001,-0.07815 -0.1341,-0.184659 -0.33234,-0.184658 z m 0.79697,1.116893 c -0.36012,0 -0.65226,0.291397 -0.65226,0.651521 0,0.360124 0.29214,0.652266 0.65226,0.652266 0.36013,0 0.65153,-0.292142 0.65153,-0.652266 0,-0.360124 -0.29143,-0.651521 -0.65153,-0.651521 z m -3.63064,1.861489 -0.93075,0.558447 v 0.558448 l 0.93075,-0.558448 0.93074,0.558448 0.93149,-0.558448 0.93075,0.558448 0.74384,-0.558448 1.1169,0.558448 v -0.558448 l -1.1169,-0.558447 -0.74384,0.558447 -0.93075,-0.558447 -0.93149,0.558447 z"
       style="fill:#007fa3;fill-opacity:1;stroke-width:0.372298" />
    <path
       d="m 118.29356,51.067076 c 0,0.06294 0.0511,0.113975 0.11389,0.113975 h 1.70906 v -1.367607 h 1.36762 v 1.367607 h 1.70904 c 0.0629,0 0.11389,-0.05102 0.11389,-0.113975 v -2.620834 h -5.01363 z m 5.43852,-3.26858 -0.42483,-0.37331 v -1.713565 c 0,-0.251767 -0.2041,-0.45587 -0.45587,-0.45587 -0.25177,0 -0.45587,0.204103 -0.45587,0.45587 v 0.911737 l -1.51225,-1.326578 c -0.0431,-0.04572 -0.11509,-0.04797 -0.16093,-0.005 l -0.005,0.005 -2.84877,2.490412 c -0.0431,0.04593 -0.0407,0.118057 0.005,0.161098 0.0207,0.01941 0.0479,0.0304 0.0764,0.03079 l 0.79924,0.01138 h 4.89912 c 0.0629,2.11e-4 0.11406,-0.05066 0.11441,-0.113594 1.1e-4,-0.02908 -0.0106,-0.05712 -0.0308,-0.07832 z"
       id="path1"
       style="fill:#8dbf2e;fill-opacity:1;stroke-width:0.455868" />
    <path
       d="m 123.95493,95.892153 -0.5895,-0.547671 -0.52295,-1.045899 a 0.49917923,0.49917923 0 0 0 -0.42787,-0.237705 h -2.94753 a 0.49917923,0.49917923 0 0 0 -0.42787,0.237705 l -0.52295,1.045899 -0.5895,0.547671 a 0.23770438,0.23770438 0 0 0 -0.076,0.174471 v 2.035225 a 0.23770438,0.23770438 0 0 0 0.23771,0.237705 h 0.95082 c 0.095,0 0.2377,-0.09509 0.2377,-0.190163 v -0.285245 h 3.32787 v 0.237703 c 0,0.09509 0.0951,0.237705 0.19016,0.237705 h 0.99835 a 0.23770438,0.23770438 0 0 0 0.23772,-0.237705 v -2.035225 a 0.23770438,0.23770438 0 0 0 -0.076,-0.174471 z m -4.44032,-1.355866 h 2.85245 l 0.47542,0.950818 h -3.80327 z m 0.23772,2.186881 c 0,0.09509 -0.14267,0.190163 -0.23772,0.190163 h -0.99835 c -0.0951,0 -0.19016,-0.142613 -0.19016,-0.237705 v -0.522948 c 0.0476,-0.142614 0.14267,-0.237705 0.28525,-0.190165 l 0.9508,0.190165 c 0.0951,0 0.19018,0.142613 0.19018,0.237703 z m 3.80326,-0.04754 c 0,0.09509 -0.095,0.237705 -0.19016,0.237705 h -0.99837 c -0.0951,0 -0.2377,-0.09509 -0.2377,-0.190162 v -0.332788 c 0,-0.09509 0.095,-0.237703 0.19018,-0.237703 l 0.9508,-0.190165 c 0.14267,-0.04754 0.2377,0.04754 0.28525,0.190165 z"
       id="path1-1"
       style="fill:#6fc7ea;fill-opacity:1;stroke-width:0.475408" />
    <path
       d="m 18.036127,15.241203 a 0.20460708,0.20460708 0 0 1 -0.05628,-0.136926 0.19015526,0.19015526 0 0 1 0.187152,-0.189391 h 1.100612 a 0.19015526,0.19015526 0 0 0 0.190313,-0.190168 0.19624025,0.19624025 0 0 0 -0.06001,-0.136151 l -1.633848,-1.636856 a 0.22818633,0.22818633 0 0 1 -0.04801,-0.129311 0.18939466,0.18939466 0 0 1 0.190326,-0.18939 h 0.869383 a 0.19091591,0.19091591 0 0 0 0.190027,-0.190916 0.1878734,0.1878734 0 0 0 -0.05855,-0.135406 l -1.628471,-1.62545 -0.01067,-0.01067 a 0.19928273,0.19928273 0 0 1 -0.05028,-0.129311 0.19015526,0.19015526 0 0 1 0.188578,-0.190167 h 0.65872 a 0.19015526,0.19015526 0 0 0 0.190021,-0.190167 0.1871128,0.1871128 0 0 0 -0.05175,-0.124737 h 0.0067 L 16.722775,8.2502412 a 0.19243714,0.19243714 0 0 0 -0.03187,-0.033461 0.18939466,0.18939466 0 0 0 -0.120163,-0.041823 v 0 a 0.18939466,0.18939466 0 0 0 -0.120162,0.041823 0.19243714,0.19243714 0 0 0 -0.03188,0.033461 l -1.481722,1.7859398 a 0.1871128,0.1871128 0 0 0 -0.05175,0.124737 0.19015526,0.19015526 0 0 0 0.190033,0.190167 h 0.658693 a 0.18330967,0.18330967 0 0 1 0.13998,0.319461 l -0.01067,0.01067 -1.62694,1.625449 a 0.1878734,0.1878734 0 0 0 -0.05855,0.135406 0.19091591,0.19091591 0 0 0 0.187152,0.190913 h 0.870917 a 0.18939466,0.18939466 0 0 1 0.19002,0.189393 0.22818633,0.22818633 0 0 1 -0.04801,0.129311 l -1.635342,1.636856 a 0.19624025,0.19624025 0 0 0 -0.06241,0.136151 0.19015526,0.19015526 0 0 0 0.190019,0.190168 h 1.102906 a 0.19015526,0.19015526 0 0 1 0.188593,0.189391 0.20460708,0.20460708 0 0 1 -0.05628,0.136926 l -1.627727,1.621643 -0.0067,0.0069 a 0.18863405,0.18863405 0 0 0 0,0.26698 0.194719,0.194719 0 0 0 0.136886,0.06008 h 2.582317 v 0.760623 l 0.760638,-0.006 v -0.75449 h 2.579263 a 0.20004337,0.20004337 0 0 0 0.197781,-0.193185 0.18863405,0.18863405 0 0 0 -0.05401,-0.13463 z"
       id="path1-8-3"
       style="fill:#00a189;fill-opacity:1;stroke-width:0.76062" />
    <text
       xml:space="preserve"
       style="font-size:14.2875px;line-height:1.2;font-family:sans-serif;-inkscape-font-specification:'sans-serif, Normal';display:inline;fill:#00a189;fill-opacity:1;stroke-width:0.35937"
       x="29.586916"
       y="18.524321"
       id="text4-1-7-0-8-9"><tspan
         sodipodi:role="line"
         style="font-style:normal;font-variant:normal;font-weight:normal;font-stretch:normal;font-size:14.2875px;font-family:'Open Sans';-inkscape-font-specification:'Open Sans, Bold';font-variant-ligatures:normal;font-variant-caps:normal;font-variant-numeric:normal;font-variant-east-asian:normal;fill:#00a189;fill-opacity:1;stroke-width:0.35937"
         x="29.586916"
         y="18.524321"
         id="tspan6-0">%</tspan></text>
  </g>
</svg>
