<?xml version="1.0" encoding="UTF-8"?>
<svg xmlns="http://www.w3.org/2000/svg" width="360" height="365" xmlns:xlink="http://www.w3.org/1999/xlink" viewBox="0 0 360 365">
  <defs>
    <style>
      .cls-1, .cls-2, .cls-3, .cls-4, .cls-5, .cls-6 {
        fill: none;
      }

      .cls-2, .cls-7, .cls-3, .cls-4, .cls-5, .cls-6 {
        stroke-miterlimit: 10;
      }

      .cls-2, .cls-3 {
        stroke: #231f20;
      }

      .cls-8, .cls-9, .cls-10, .cls-11 {
        font-size: 14px;
      }

      .cls-8, .cls-10, .cls-12 {
        font-family: OpenSans-Bold, 'Open Sans';
        font-weight: 700;
      }

      .cls-8, .cls-7 {
        fill: #1e3864;
      }

      .cls-13 {
        clip-path: url(#clippath-1);
      }

      .cls-14 {
        clip-path: url(#clippath-2);
      }

      .cls-9 {
        font-family: MyriadPro-Regular, 'Myriad Pro';
      }

      .cls-9, .cls-12, .cls-15, .cls-11 {
        fill: #231f20;
      }

      .cls-10 {
        fill: #00a18a;
      }

      .cls-16 {
        letter-spacing: 0em;
      }

      .cls-7 {
        stroke: #1e3864;
      }

      .cls-3 {
        stroke-width: 2px;
      }

      .cls-17 {
        fill: #9a9896;
      }

      .cls-17, .cls-15 {
        font-size: 12px;
      }

      .cls-17, .cls-15, .cls-11 {
        font-family: OpenSans, 'Open Sans';
      }

      .cls-12 {
        font-size: 20px;
      }

      .cls-4 {
        stroke: #9a9896;
      }

      .cls-18 {
        letter-spacing: 0em;
      }

      .cls-19 {
        letter-spacing: -.01em;
      }

      .cls-5 {
        stroke: #00a18a;
      }

      .cls-20 {
        clip-path: url(#clippath);
      }

      .cls-6 {
        stroke: #00a28a;
      }
    </style>
    <clipPath id="clippath">
      <rect class="cls-1" x="183.92" y="300" width="10" height="10"/>
    </clipPath>
    <clipPath id="clippath-1">
      <path class="cls-5" d="M234.57,179.97c8.49.34,13.39-51.4,21.32-50,7.33,1.3,9.12,46.55,21.32,50,1.13.32,2.08.2,2.66.07"/>
    </clipPath>
    <clipPath id="clippath-2">
      <path class="cls-5" d="M61.22,179.97c.49.1,1.51.25,2.77,0,11.26-2.25,13.89-31.28,21.32-32.78,8.3-1.68,11.99,32.9,21.32,32.78,9.24-.12,12.11-34.14,21.32-34.36,9.4-.23,12.97,35.09,21.13,34.36,10.02-.9,12.93-54.87,21.51-55.12,8.72-.25,12.78,55.3,21.32,55.12,9.05-.19,12.8-62.67,21.32-62.62,8.5.05,12.04,62.25,21.32,62.62"/>
    </clipPath>
  </defs>
  <g id="Layer_1" data-name="Layer 1">
    <text class="cls-12" transform="translate(20.48 27.67)"><tspan x="0" y="0">Only Wood Buffalo had more </tspan><tspan x="0" y="24">migrating out than in</tspan></text>
    <text class="cls-17" transform="translate(20 339.38)"><tspan x="0" y="0">Sources: Government of Canada (2021), </tspan><tspan x="0" y="14.4">Statistics Canada (2021)</tspan></text>
    <line class="cls-4" x1="20.41" y1="326.92" x2="340" y2="326.92"/>
  </g>
  <g id="Layer_7" data-name="Layer 7">
    <rect class="cls-7" x="60" y="300" width="10" height="10"/>
    <text class="cls-15" transform="translate(75 310)"><tspan x="0" y="0">Moved to area</tspan></text>
    <text class="cls-15" transform="translate(198.92 310)"><tspan x="0" y="0">Moved out of area</tspan></text>
    <g>
      <g class="cls-20">
        <line class="cls-5" x1="142.09" y1="375.16" x2="222.07" y2="227.57"/>
        <line class="cls-5" x1="145.67" y1="375.16" x2="225.65" y2="227.57"/>
        <line class="cls-5" x1="149.25" y1="375.16" x2="229.23" y2="227.57"/>
        <line class="cls-5" x1="152.82" y1="375.16" x2="232.8" y2="227.57"/>
        <line class="cls-5" x1="156.4" y1="375.16" x2="236.38" y2="227.57"/>
        <line class="cls-5" x1="159.98" y1="375.16" x2="239.96" y2="227.57"/>
      </g>
      <rect class="cls-6" x="183.92" y="300" width="10" height="10"/>
    </g>
  </g>
  <g id="Layer_10" data-name="Layer 10">
    <text class="cls-11" transform="translate(49.24 234.65) rotate(-45)"><tspan x="0" y="0">CALGARY</tspan></text>
    <text class="cls-11" transform="translate(77.25 249.56) rotate(-45)"><tspan x="0" y="0">EDMONTON</tspan></text>
    <text class="cls-11" transform="translate(118.77 250.14) rotate(-45)"><tspan x="0" y="0">LETHBRIDGE</tspan></text>
    <text class="cls-11" transform="translate(174.43 236.13) rotate(-45)"><tspan x="0" y="0">RED DEER</tspan></text>
    <text class="cls-11" transform="translate(186.23 268.06) rotate(-45)"><tspan x="0" y="0">WOOD BUFFALO</tspan></text>
    <text class="cls-10" transform="translate(222.23 107.66)"><tspan x="0" y="0">51 leaving</tspan><tspan x="3.61" y="16.8">per 1000 </tspan></text>
    <text class="cls-8" transform="translate(273.09 158.68)"><tspan x="0" y="0">34 arriving</tspan><tspan x="0" y="14">per 1000</tspan></text>
    <text class="cls-9" transform="translate(34.06 183.94) rotate(-90)"><tspan x="0" y="0">per 1000 </tspan><tspan class="cls-19" x="54.22" y="0">r</tspan><tspan class="cls-16" x="58.66" y="0">eside</tspan><tspan class="cls-18" x="89.4" y="0">n</tspan><tspan x="97.12" y="0">ts </tspan></text>
    <text class="cls-9" transform="translate(37.63 160.44)"><tspan x="0" y="0">25</tspan></text>
    <text class="cls-9" transform="translate(38.03 110.55)"><tspan x="0" y="0">75</tspan></text>
    <text class="cls-9" transform="translate(38.03 135.03)"><tspan x="0" y="0">50</tspan></text>
    <line class="cls-2" x1="54.4" y1="105.92" x2="58.99" y2="105.92"/>
    <line class="cls-2" x1="54.4" y1="130.61" x2="58.99" y2="130.61"/>
    <line class="cls-2" x1="54.4" y1="155.31" x2="58.99" y2="155.31"/>
    <g>
      <g class="cls-13">
        <line class="cls-5" x1="205.96" y1="213.39" x2="237.82" y2="101.25"/>
        <line class="cls-5" x1="207.38" y1="213.39" x2="239.24" y2="101.25"/>
        <line class="cls-5" x1="208.81" y1="213.39" x2="240.66" y2="101.25"/>
        <line class="cls-5" x1="210.23" y1="213.39" x2="242.09" y2="101.25"/>
        <line class="cls-5" x1="211.66" y1="213.39" x2="243.51" y2="101.25"/>
        <line class="cls-5" x1="213.08" y1="213.39" x2="244.94" y2="101.25"/>
        <line class="cls-5" x1="214.51" y1="213.39" x2="246.36" y2="101.25"/>
        <line class="cls-5" x1="215.93" y1="213.39" x2="247.79" y2="101.25"/>
        <line class="cls-5" x1="217.36" y1="213.39" x2="249.21" y2="101.25"/>
        <line class="cls-5" x1="218.78" y1="213.39" x2="250.64" y2="101.25"/>
        <line class="cls-5" x1="220.21" y1="213.39" x2="252.06" y2="101.25"/>
        <line class="cls-5" x1="221.63" y1="213.39" x2="253.49" y2="101.25"/>
        <line class="cls-5" x1="223.06" y1="213.39" x2="254.91" y2="101.25"/>
        <line class="cls-5" x1="224.48" y1="213.39" x2="256.34" y2="101.25"/>
        <line class="cls-5" x1="227.33" y1="213.39" x2="259.19" y2="101.25"/>
        <line class="cls-5" x1="230.18" y1="213.39" x2="262.04" y2="101.25"/>
        <line class="cls-5" x1="233.03" y1="213.39" x2="264.89" y2="101.25"/>
        <line class="cls-5" x1="235.88" y1="213.39" x2="267.74" y2="101.25"/>
        <line class="cls-5" x1="238.73" y1="213.39" x2="270.59" y2="101.25"/>
        <line class="cls-5" x1="241.58" y1="213.39" x2="273.43" y2="101.25"/>
        <line class="cls-5" x1="244.43" y1="213.39" x2="276.28" y2="101.25"/>
        <line class="cls-5" x1="247.28" y1="213.39" x2="279.13" y2="101.25"/>
        <line class="cls-5" x1="250.13" y1="213.39" x2="281.98" y2="101.25"/>
        <line class="cls-5" x1="252.98" y1="213.39" x2="284.83" y2="101.25"/>
        <line class="cls-5" x1="255.83" y1="213.39" x2="287.68" y2="101.25"/>
        <line class="cls-5" x1="258.67" y1="213.39" x2="290.53" y2="101.25"/>
        <line class="cls-5" x1="261.52" y1="213.39" x2="293.38" y2="101.25"/>
        <line class="cls-5" x1="264.37" y1="213.39" x2="296.23" y2="101.25"/>
        <line class="cls-5" x1="267.22" y1="213.39" x2="299.08" y2="101.25"/>
        <line class="cls-5" x1="268.65" y1="213.39" x2="300.51" y2="101.25"/>
        <line class="cls-5" x1="270.07" y1="213.39" x2="301.93" y2="101.25"/>
        <line class="cls-5" x1="271.5" y1="213.39" x2="303.36" y2="101.25"/>
      </g>
      <path class="cls-5" d="M234.57,179.97c8.49.34,13.39-51.4,21.32-50,7.33,1.3,9.12,46.55,21.32,50,1.13.32,2.08.2,2.66.07"/>
    </g>
    <path class="cls-7" d="M61.22,180c.54.12,1.54.28,2.77,0,11.52-2.61,13.92-37.13,21.32-38.48,8.07-1.47,11.96,38.3,21.32,38.48,8.89.18,12.03-35.56,21.32-35.78,9.45-.22,13.15,36.56,21.13,35.78,10.18-.99,13.12-61.79,21.51-62.02,8.51-.23,12.58,62.03,21.32,62.02,8.79,0,12.92-62.91,21.32-62.62,8.26.29,10.93,61.33,21.32,62.62"/>
    <path class="cls-7" d="M234.57,180c8.14,1.01,12.8-35.66,21.32-33.58,7.41,1.82,10.01,31.1,21.32,33.58,1.21.26,2.27.07,2.66.07"/>
    <g>
      <g class="cls-14">
        <line class="cls-5" x1="45.26" y1="213.39" x2="77.12" y2="101.25"/>
        <line class="cls-5" x1="46.69" y1="213.39" x2="78.54" y2="101.25"/>
        <line class="cls-5" x1="48.11" y1="213.39" x2="79.97" y2="101.25"/>
        <line class="cls-5" x1="49.54" y1="213.39" x2="81.39" y2="101.25"/>
        <line class="cls-5" x1="50.96" y1="213.39" x2="82.82" y2="101.25"/>
        <line class="cls-5" x1="52.38" y1="213.39" x2="84.24" y2="101.25"/>
        <line class="cls-5" x1="53.81" y1="213.39" x2="85.67" y2="101.25"/>
        <line class="cls-5" x1="55.23" y1="213.39" x2="87.09" y2="101.25"/>
        <line class="cls-5" x1="56.66" y1="213.39" x2="88.52" y2="101.25"/>
        <line class="cls-5" x1="58.08" y1="213.39" x2="89.94" y2="101.25"/>
        <line class="cls-5" x1="60.93" y1="213.39" x2="92.79" y2="101.25"/>
        <line class="cls-5" x1="63.78" y1="213.39" x2="95.64" y2="101.25"/>
        <line class="cls-5" x1="66.63" y1="213.39" x2="98.49" y2="101.25"/>
        <line class="cls-5" x1="69.48" y1="213.39" x2="101.34" y2="101.25"/>
        <line class="cls-5" x1="72.33" y1="213.39" x2="104.19" y2="101.25"/>
        <line class="cls-5" x1="75.18" y1="213.39" x2="107.04" y2="101.25"/>
        <line class="cls-5" x1="78.03" y1="213.39" x2="109.89" y2="101.25"/>
        <line class="cls-5" x1="80.88" y1="213.39" x2="112.74" y2="101.25"/>
        <line class="cls-5" x1="83.73" y1="213.39" x2="115.59" y2="101.25"/>
        <line class="cls-5" x1="86.58" y1="213.39" x2="118.44" y2="101.25"/>
        <line class="cls-5" x1="89.43" y1="213.39" x2="121.29" y2="101.25"/>
        <line class="cls-5" x1="92.28" y1="213.39" x2="124.14" y2="101.25"/>
        <line class="cls-5" x1="95.13" y1="213.39" x2="126.99" y2="101.25"/>
        <line class="cls-5" x1="97.98" y1="213.39" x2="129.84" y2="101.25"/>
        <line class="cls-5" x1="100.83" y1="213.39" x2="132.69" y2="101.25"/>
        <line class="cls-5" x1="103.68" y1="213.39" x2="135.53" y2="101.25"/>
        <line class="cls-5" x1="106.53" y1="213.39" x2="138.38" y2="101.25"/>
        <line class="cls-5" x1="109.38" y1="213.39" x2="141.23" y2="101.25"/>
        <line class="cls-5" x1="112.23" y1="213.39" x2="144.08" y2="101.25"/>
        <line class="cls-5" x1="115.08" y1="213.39" x2="146.93" y2="101.25"/>
        <line class="cls-5" x1="117.92" y1="213.39" x2="149.78" y2="101.25"/>
        <line class="cls-5" x1="120.77" y1="213.39" x2="152.63" y2="101.25"/>
        <line class="cls-5" x1="123.62" y1="213.39" x2="155.48" y2="101.25"/>
        <line class="cls-5" x1="126.47" y1="213.39" x2="158.33" y2="101.25"/>
        <line class="cls-5" x1="129.32" y1="213.39" x2="161.18" y2="101.25"/>
        <line class="cls-5" x1="132.17" y1="213.39" x2="164.03" y2="101.25"/>
        <line class="cls-5" x1="135.02" y1="213.39" x2="166.88" y2="101.25"/>
        <line class="cls-5" x1="137.87" y1="213.39" x2="169.73" y2="101.25"/>
        <line class="cls-5" x1="140.72" y1="213.39" x2="172.58" y2="101.25"/>
        <line class="cls-5" x1="143.57" y1="213.39" x2="175.43" y2="101.25"/>
        <line class="cls-5" x1="146.42" y1="213.39" x2="178.28" y2="101.25"/>
        <line class="cls-5" x1="149.27" y1="213.39" x2="181.13" y2="101.25"/>
        <line class="cls-5" x1="152.12" y1="213.39" x2="183.98" y2="101.25"/>
        <line class="cls-5" x1="154.97" y1="213.39" x2="186.83" y2="101.25"/>
        <line class="cls-5" x1="157.82" y1="213.39" x2="189.68" y2="101.25"/>
        <line class="cls-5" x1="160.67" y1="213.39" x2="192.53" y2="101.25"/>
        <line class="cls-5" x1="163.52" y1="213.39" x2="195.38" y2="101.25"/>
        <line class="cls-5" x1="166.37" y1="213.39" x2="198.23" y2="101.25"/>
        <line class="cls-5" x1="169.22" y1="213.39" x2="201.07" y2="101.25"/>
        <line class="cls-5" x1="172.07" y1="213.39" x2="203.92" y2="101.25"/>
        <line class="cls-5" x1="174.92" y1="213.39" x2="206.77" y2="101.25"/>
        <line class="cls-5" x1="177.77" y1="213.39" x2="209.62" y2="101.25"/>
        <line class="cls-5" x1="180.62" y1="213.39" x2="212.47" y2="101.25"/>
        <line class="cls-5" x1="183.46" y1="213.39" x2="215.32" y2="101.25"/>
        <line class="cls-5" x1="186.31" y1="213.39" x2="218.17" y2="101.25"/>
        <line class="cls-5" x1="189.16" y1="213.39" x2="221.02" y2="101.25"/>
        <line class="cls-5" x1="192.01" y1="213.39" x2="223.87" y2="101.25"/>
        <line class="cls-5" x1="194.86" y1="213.39" x2="226.72" y2="101.25"/>
        <line class="cls-5" x1="197.71" y1="213.39" x2="229.57" y2="101.25"/>
        <line class="cls-5" x1="200.56" y1="213.39" x2="232.42" y2="101.25"/>
        <line class="cls-5" x1="203.41" y1="213.39" x2="235.27" y2="101.25"/>
        <line class="cls-5" x1="206.26" y1="213.39" x2="238.12" y2="101.25"/>
        <line class="cls-5" x1="209.11" y1="213.39" x2="240.97" y2="101.25"/>
        <line class="cls-5" x1="211.96" y1="213.39" x2="243.82" y2="101.25"/>
        <line class="cls-5" x1="214.81" y1="213.39" x2="246.67" y2="101.25"/>
        <line class="cls-5" x1="217.66" y1="213.39" x2="249.52" y2="101.25"/>
        <line class="cls-5" x1="220.51" y1="213.39" x2="252.37" y2="101.25"/>
        <line class="cls-5" x1="223.36" y1="213.39" x2="255.22" y2="101.25"/>
        <line class="cls-5" x1="226.21" y1="213.39" x2="258.07" y2="101.25"/>
        <line class="cls-5" x1="227.63" y1="213.39" x2="259.49" y2="101.25"/>
        <line class="cls-5" x1="229.06" y1="213.39" x2="260.92" y2="101.25"/>
        <line class="cls-5" x1="230.48" y1="213.39" x2="262.34" y2="101.25"/>
        <line class="cls-5" x1="231.91" y1="213.39" x2="263.77" y2="101.25"/>
        <line class="cls-5" x1="233.33" y1="213.39" x2="265.19" y2="101.25"/>
        <line class="cls-5" x1="234.76" y1="213.39" x2="266.61" y2="101.25"/>
        <line class="cls-5" x1="236.18" y1="213.39" x2="268.04" y2="101.25"/>
      </g>
      <path class="cls-5" d="M61.22,179.97c.49.1,1.51.25,2.77,0,11.26-2.25,13.89-31.28,21.32-32.78,8.3-1.68,11.99,32.9,21.32,32.78,9.24-.12,12.11-34.14,21.32-34.36,9.4-.23,12.97,35.09,21.13,34.36,10.02-.9,12.93-54.87,21.51-55.12,8.72-.25,12.78,55.3,21.32,55.12,9.05-.19,12.8-62.67,21.32-62.62,8.5.05,12.04,62.25,21.32,62.62"/>
    </g>
    <line class="cls-3" x1="54.4" y1="180" x2="339.93" y2="180"/>
  </g>
</svg>