<?xml version="1.0" encoding="UTF-8"?>
<svg id="Layer_1" data-name="Layer 1" xmlns="http://www.w3.org/2000/svg" width="360" height="506.48" xmlns:xlink="http://www.w3.org/1999/xlink" viewBox="0 0 360 506.48">
  <defs>
    <style>
      .cls-1, .cls-2, .cls-3, .cls-4 {
        fill: none;
      }

      .cls-2 {
        stroke-width: 2px;
      }

      .cls-2, .cls-3 {
        stroke: #1e3864;
      }

      .cls-2, .cls-3, .cls-4 {
        stroke-miterlimit: 10;
      }

      .cls-5, .cls-6, .cls-7 {
        font-size: 14px;
      }

      .cls-5, .cls-8 {
        font-family: OpenSans-Bold, 'Open Sans';
        font-weight: 700;
      }

      .cls-5, .cls-9 {
        fill: #1e3864;
      }

      .cls-10 {
        clip-path: url(#clippath-1);
      }

      .cls-11 {
        clip-path: url(#clippath-2);
      }

      .cls-12 {
        font-size: 12px;
      }

      .cls-12, .cls-6 {
        fill: #9a9896;
      }

      .cls-12, .cls-6, .cls-7 {
        font-family: OpenSans, 'Open Sans';
      }

      .cls-13 {
        fill: #00a28a;
      }

      .cls-8 {
        font-size: 20px;
      }

      .cls-8, .cls-7 {
        fill: #231f20;
      }

      .cls-4 {
        stroke: #9a9896;
      }

      .cls-14 {
        clip-path: url(#clippath);
      }
    </style>
    <clipPath id="clippath">
      <rect class="cls-1" x="125.96" y="302.99" width="24" height="96.94"/>
    </clipPath>
    <clipPath id="clippath-1">
      <rect class="cls-1" x="168" y="302.99" width="24" height="82.53"/>
    </clipPath>
    <clipPath id="clippath-2">
      <rect class="cls-1" x="210.04" y="302.99" width="24" height="68.63"/>
    </clipPath>
  </defs>
  <text class="cls-12" transform="translate(20 480)"><tspan x="0" y="0">Sources: Regional Municipality of Wood Buffalo Census </tspan><tspan x="0" y="14.4">Report (2015, 2018, 2021)</tspan></text>
  <line class="cls-4" x1="20.41" y1="467.54" x2="340" y2="467.54"/>
  <rect class="cls-13" x="42.88" y="300.08" width="274.23" height="2.91"/>
  <g>
    <line class="cls-4" x1="108.73" y1="243.83" x2="251.27" y2="243.83"/>
    <line class="cls-4" x1="108.73" y1="359.24" x2="251.27" y2="359.24"/>
    <line class="cls-4" x1="108.73" y1="415.49" x2="251.27" y2="415.49"/>
    <line class="cls-4" x1="108.73" y1="187.58" x2="251.27" y2="187.58"/>
    <line class="cls-4" x1="108.73" y1="131.33" x2="251.27" y2="131.33"/>
  </g>
  <text class="cls-6" transform="translate(255.47 134.72)"><tspan x="0" y="0">75k</tspan></text>
  <text class="cls-6" transform="translate(255.47 191.96)"><tspan x="0" y="0">50k</tspan></text>
  <text class="cls-6" transform="translate(79.9 419.97)"><tspan x="0" y="0">50k</tspan></text>
  <text class="cls-6" transform="translate(256.43 248.78)"><tspan x="0" y="0">25k</tspan></text>
  <text class="cls-6" transform="translate(79.21 363.34)"><tspan x="0" y="0">25k</tspan></text>
  <text class="cls-5" transform="translate(41.63 278.29)"><tspan x="0" y="0">Permanent</tspan><tspan x="1.91" y="16.8">Population</tspan></text>
  <text class="cls-5" transform="translate(241.67 317.94)"><tspan x="0" y="0">Shadow</tspan><tspan x="0" y="16.8">Population</tspan></text>
  <g>
    <g>
      <rect class="cls-9" x="125.96" y="115.7" width="24" height="184.38"/>
      <g class="cls-14">
        <g>
          <line class="cls-2" x1="124.75" y1="304.37" x2="153.04" y2="272.55"/>
          <line class="cls-2" x1="124.75" y1="309.54" x2="153.04" y2="277.72"/>
          <line class="cls-2" x1="124.75" y1="314.71" x2="153.04" y2="282.89"/>
          <line class="cls-2" x1="124.75" y1="319.88" x2="153.04" y2="288.06"/>
          <line class="cls-2" x1="124.75" y1="325.05" x2="153.04" y2="293.23"/>
          <line class="cls-2" x1="124.75" y1="330.22" x2="153.04" y2="298.4"/>
          <line class="cls-2" x1="124.75" y1="335.39" x2="153.04" y2="303.57"/>
          <line class="cls-2" x1="124.75" y1="340.56" x2="153.04" y2="308.74"/>
          <line class="cls-2" x1="124.75" y1="345.73" x2="153.04" y2="313.91"/>
          <line class="cls-2" x1="124.75" y1="350.9" x2="153.04" y2="319.08"/>
          <line class="cls-2" x1="124.75" y1="356.07" x2="153.04" y2="324.25"/>
          <line class="cls-2" x1="124.75" y1="361.24" x2="153.04" y2="329.42"/>
          <line class="cls-2" x1="124.75" y1="366.41" x2="153.04" y2="334.59"/>
          <line class="cls-2" x1="124.75" y1="371.58" x2="153.04" y2="339.76"/>
          <line class="cls-2" x1="124.75" y1="376.75" x2="153.04" y2="344.93"/>
          <line class="cls-2" x1="124.75" y1="381.92" x2="153.04" y2="350.1"/>
          <line class="cls-2" x1="124.75" y1="387.09" x2="153.04" y2="355.27"/>
          <line class="cls-2" x1="124.75" y1="392.26" x2="153.04" y2="360.44"/>
          <line class="cls-2" x1="124.75" y1="397.43" x2="153.04" y2="365.61"/>
          <line class="cls-2" x1="124.75" y1="402.6" x2="153.04" y2="370.78"/>
          <line class="cls-2" x1="124.75" y1="407.77" x2="153.04" y2="375.95"/>
          <line class="cls-2" x1="124.75" y1="412.94" x2="153.04" y2="381.12"/>
          <line class="cls-2" x1="124.75" y1="418.11" x2="153.04" y2="386.29"/>
          <line class="cls-2" x1="124.75" y1="423.28" x2="153.04" y2="391.46"/>
          <line class="cls-2" x1="124.75" y1="428.45" x2="153.04" y2="396.63"/>
          <line class="cls-2" x1="124.75" y1="433.62" x2="153.04" y2="401.8"/>
          <line class="cls-2" x1="124.75" y1="438.79" x2="153.04" y2="406.97"/>
        </g>
      </g>
      <text class="cls-7" transform="translate(121.95 434.3)"><tspan x="0" y="0">2015</tspan></text>
      <line class="cls-3" x1="137.96" y1="411.16" x2="137.96" y2="419.97"/>
    </g>
    <g>
      <rect class="cls-9" x="168" y="131.31" width="24" height="168.77"/>
      <g class="cls-10">
        <g>
          <line class="cls-2" x1="166.85" y1="304.23" x2="195.14" y2="272.42"/>
          <line class="cls-2" x1="166.85" y1="309.4" x2="195.14" y2="277.58"/>
          <line class="cls-2" x1="166.85" y1="314.57" x2="195.14" y2="282.75"/>
          <line class="cls-2" x1="166.85" y1="319.74" x2="195.14" y2="287.92"/>
          <line class="cls-2" x1="166.85" y1="324.91" x2="195.14" y2="293.09"/>
          <line class="cls-2" x1="166.85" y1="330.08" x2="195.14" y2="298.26"/>
          <line class="cls-2" x1="166.85" y1="335.25" x2="195.14" y2="303.43"/>
          <line class="cls-2" x1="166.85" y1="340.42" x2="195.14" y2="308.6"/>
          <line class="cls-2" x1="166.85" y1="345.59" x2="195.14" y2="313.77"/>
          <line class="cls-2" x1="166.85" y1="350.76" x2="195.14" y2="318.94"/>
          <line class="cls-2" x1="166.85" y1="355.93" x2="195.14" y2="324.11"/>
          <line class="cls-2" x1="166.85" y1="361.1" x2="195.14" y2="329.28"/>
          <line class="cls-2" x1="166.85" y1="366.27" x2="195.14" y2="334.45"/>
          <line class="cls-2" x1="166.85" y1="371.44" x2="195.14" y2="339.62"/>
          <line class="cls-2" x1="166.85" y1="376.61" x2="195.14" y2="344.79"/>
          <line class="cls-2" x1="166.85" y1="381.78" x2="195.14" y2="349.96"/>
          <line class="cls-2" x1="166.85" y1="386.95" x2="195.14" y2="355.13"/>
          <line class="cls-2" x1="166.85" y1="392.12" x2="195.14" y2="360.3"/>
          <line class="cls-2" x1="166.85" y1="397.29" x2="195.14" y2="365.47"/>
          <line class="cls-2" x1="166.85" y1="402.46" x2="195.14" y2="370.64"/>
          <line class="cls-2" x1="166.85" y1="407.63" x2="195.14" y2="375.81"/>
          <line class="cls-2" x1="166.85" y1="412.8" x2="195.14" y2="380.98"/>
          <line class="cls-2" x1="166.85" y1="417.97" x2="195.14" y2="386.15"/>
          <line class="cls-2" x1="166.85" y1="423.14" x2="195.14" y2="391.32"/>
          <line class="cls-2" x1="166.85" y1="428.31" x2="195.14" y2="396.49"/>
          <line class="cls-2" x1="166.85" y1="433.48" x2="195.14" y2="401.66"/>
          <line class="cls-2" x1="166.85" y1="438.65" x2="195.14" y2="406.83"/>
        </g>
      </g>
      <text class="cls-7" transform="translate(163.99 434.3)"><tspan x="0" y="0">2018</tspan></text>
      <line class="cls-3" x1="180" y1="411.16" x2="180" y2="419.97"/>
    </g>
    <g>
      <polygon class="cls-9" points="234.04 300.08 210.04 300.08 210.04 130.08 221.62 130.08 234.04 130.08 234.04 300.08"/>
      <g class="cls-11">
        <g>
          <line class="cls-2" x1="209.02" y1="304.13" x2="237.3" y2="272.31"/>
          <line class="cls-2" x1="209.02" y1="309.3" x2="237.3" y2="277.48"/>
          <line class="cls-2" x1="209.02" y1="314.47" x2="237.3" y2="282.65"/>
          <line class="cls-2" x1="209.02" y1="319.64" x2="237.3" y2="287.82"/>
          <line class="cls-2" x1="209.02" y1="324.81" x2="237.3" y2="292.99"/>
          <line class="cls-2" x1="209.02" y1="329.98" x2="237.3" y2="298.16"/>
          <line class="cls-2" x1="209.02" y1="335.15" x2="237.3" y2="303.33"/>
          <line class="cls-2" x1="209.02" y1="340.32" x2="237.3" y2="308.5"/>
          <line class="cls-2" x1="209.02" y1="345.49" x2="237.3" y2="313.67"/>
          <line class="cls-2" x1="209.02" y1="350.66" x2="237.3" y2="318.84"/>
          <line class="cls-2" x1="209.02" y1="355.83" x2="237.3" y2="324.01"/>
          <line class="cls-2" x1="209.02" y1="361" x2="237.3" y2="329.18"/>
          <line class="cls-2" x1="209.02" y1="366.17" x2="237.3" y2="334.35"/>
          <line class="cls-2" x1="209.02" y1="371.34" x2="237.3" y2="339.52"/>
          <line class="cls-2" x1="209.02" y1="376.51" x2="237.3" y2="344.69"/>
          <line class="cls-2" x1="209.02" y1="381.68" x2="237.3" y2="349.86"/>
          <line class="cls-2" x1="209.02" y1="386.85" x2="237.3" y2="355.03"/>
          <line class="cls-2" x1="209.02" y1="392.02" x2="237.3" y2="360.2"/>
          <line class="cls-2" x1="209.02" y1="397.19" x2="237.3" y2="365.37"/>
          <line class="cls-2" x1="209.02" y1="402.36" x2="237.3" y2="370.54"/>
          <line class="cls-2" x1="209.02" y1="407.53" x2="237.3" y2="375.71"/>
          <line class="cls-2" x1="209.02" y1="412.7" x2="237.3" y2="380.88"/>
          <line class="cls-2" x1="209.02" y1="417.87" x2="237.3" y2="386.05"/>
          <line class="cls-2" x1="209.02" y1="423.04" x2="237.3" y2="391.22"/>
          <line class="cls-2" x1="209.02" y1="428.21" x2="237.3" y2="396.39"/>
          <line class="cls-2" x1="209.02" y1="433.38" x2="237.3" y2="401.56"/>
          <line class="cls-2" x1="209.02" y1="438.55" x2="237.3" y2="406.73"/>
        </g>
      </g>
      <text class="cls-7" transform="translate(206.03 434.3)"><tspan x="0" y="0">2021</tspan></text>
      <line class="cls-3" x1="222.04" y1="411.16" x2="222.04" y2="419.97"/>
    </g>
  </g>
  <text class="cls-8" transform="translate(20 25)"><tspan x="0" y="0">The falling shadow population </tspan><tspan x="0" y="24">accounts for most of Wood </tspan><tspan x="0" y="48">Buffalo’s population decline</tspan></text>
</svg>