<?xml version="1.0" encoding="UTF-8"?>
<svg xmlns="http://www.w3.org/2000/svg" width="720" height="260" xmlns:xlink="http://www.w3.org/1999/xlink" viewBox="0 0 720 260">
  <defs>
    <style>
      .cls-1, .cls-2, .cls-3, .cls-4, .cls-5, .cls-6 {
        fill: none;
      }

      .cls-2, .cls-7, .cls-3, .cls-4, .cls-5, .cls-6 {
        stroke-miterlimit: 10;
      }

      .cls-2, .cls-3 {
        stroke: #231f20;
      }

      .cls-8, .cls-9, .cls-10, .cls-11 {
        font-size: 14px;
      }

      .cls-8, .cls-10, .cls-12 {
        font-family: OpenSans-Bold, 'Open Sans';
        font-weight: 700;
      }

      .cls-8, .cls-7 {
        fill: #1e3864;
      }

      .cls-13 {
        clip-path: url(#clippath-1);
      }

      .cls-14 {
        clip-path: url(#clippath-3);
      }

      .cls-15 {
        clip-path: url(#clippath-2);
      }

      .cls-9 {
        font-family: MyriadPro-Regular, 'Myriad Pro';
      }

      .cls-9, .cls-12, .cls-16, .cls-11 {
        fill: #231f20;
      }

      .cls-10 {
        fill: #00a18a;
      }

      .cls-17 {
        letter-spacing: 0em;
      }

      .cls-7 {
        stroke: #1e3864;
      }

      .cls-3 {
        stroke-width: 2px;
      }

      .cls-18 {
        fill: #9a9896;
      }

      .cls-18, .cls-16 {
        font-size: 12px;
      }

      .cls-18, .cls-16, .cls-11 {
        font-family: OpenSans, 'Open Sans';
      }

      .cls-12 {
        font-size: 20px;
      }

      .cls-4 {
        stroke: #9a9896;
      }

      .cls-19 {
        letter-spacing: 0em;
      }

      .cls-20 {
        letter-spacing: -.01em;
      }

      .cls-5 {
        stroke: #00a18a;
      }

      .cls-21 {
        clip-path: url(#clippath);
      }

      .cls-6 {
        stroke: #00a28a;
      }
    </style>
    <clipPath id="clippath">
      <path class="cls-5" d="M535.59,170.12c21.33.45,33.62-67.64,53.53-65.8,18.41,1.71,22.91,61.27,53.53,65.8,2.84.42,5.21.27,6.69.1"/>
    </clipPath>
    <clipPath id="clippath-1">
      <rect class="cls-1" x="409.95" y="210.02" width="10" height="10"/>
    </clipPath>
    <clipPath id="clippath-2">
      <path class="cls-1" d="M100.39,170.12c1.23.13,3.79.33,6.96,0,28.26-2.96,34.87-41.16,53.53-43.14,20.84-2.21,30.11,43.3,53.53,43.14,23.19-.16,30.4-44.93,53.53-45.22,23.6-.3,32.57,46.19,53.05,45.22,25.15-1.18,32.47-72.22,54.01-72.54,21.89-.33,32.08,72.78,53.53,72.54,22.72-.25,32.12-82.48,53.53-82.41,21.35.06,30.22,81.92,53.53,82.41"/>
    </clipPath>
    <clipPath id="clippath-3">
      <path class="cls-5" d="M100.39,170.12c1.23.13,3.79.33,6.96,0,28.26-2.96,34.87-41.16,53.53-43.14,20.84-2.21,30.11,43.3,53.53,43.14,23.19-.16,30.4-44.93,53.53-45.22,23.6-.3,32.57,46.19,53.05,45.22,25.15-1.18,32.47-72.22,54.01-72.54,21.89-.33,32.08,72.78,53.53,72.54,22.72-.25,32.12-82.48,53.53-82.41,21.35.06,30.22,81.92,53.53,82.41"/>
    </clipPath>
  </defs>
  <g id="Layer_1" data-name="Layer 1">
    <text class="cls-11" transform="translate(131.57 187.34)"><tspan x="0" y="0">CALGARY</tspan></text>
    <text class="cls-11" transform="translate(227.68 187.34)"><tspan x="0" y="0">EDMONTON</tspan></text>
    <text class="cls-11" transform="translate(333.32 187.34)"><tspan x="0" y="0">LETHBRIDGE</tspan></text>
    <text class="cls-11" transform="translate(448.85 187.34)"><tspan x="0" y="0">RED DEER</tspan></text>
    <text class="cls-11" transform="translate(533.09 187.34)"><tspan x="0" y="0">WOOD BUFFALO</tspan></text>
    <text class="cls-12" transform="translate(28.47 25)"><tspan x="0" y="0">Only Wood Buffalo has more residents migrating out than in </tspan></text>
    <text class="cls-10" transform="translate(524.26 92.16)"><tspan x="0" y="0">51 leaving per 1000 </tspan></text>
    <text class="cls-9" transform="translate(43.03 142.17)"><tspan x="0" y="0">25</tspan></text>
    <text class="cls-9" transform="translate(43.42 77.07)"><tspan x="0" y="0">75</tspan></text>
    <text class="cls-9" transform="translate(43.42 109.86)"><tspan x="0" y="0">50</tspan></text>
    <text class="cls-9" transform="translate(33.79 160.28) rotate(-90)"><tspan x="0" y="0">per 1000 </tspan><tspan class="cls-20" x="54.22" y="0">r</tspan><tspan class="cls-17" x="58.66" y="0">eside</tspan><tspan class="cls-19" x="89.4" y="0">n</tspan><tspan x="97.12" y="0">ts </tspan></text>
    <text class="cls-18" transform="translate(20.21 250)"><tspan x="0" y="0">Sources: Government of Canada (2021), Statistics Canada (2021)</tspan></text>
    <line class="cls-4" x1="20.62" y1="237.54" x2="700" y2="237.54"/>
  </g>
  <g id="Layer_7" data-name="Layer 7">
    <g>
      <g class="cls-21">
        <line class="cls-5" x1="463.75" y1="214.1" x2="543.73" y2="66.52"/>
        <line class="cls-5" x1="467.33" y1="214.1" x2="547.31" y2="66.52"/>
        <line class="cls-5" x1="470.91" y1="214.1" x2="550.89" y2="66.52"/>
        <line class="cls-5" x1="474.48" y1="214.1" x2="554.46" y2="66.52"/>
        <line class="cls-5" x1="478.06" y1="214.1" x2="558.04" y2="66.52"/>
        <line class="cls-5" x1="481.64" y1="214.1" x2="561.62" y2="66.52"/>
        <line class="cls-5" x1="485.21" y1="214.1" x2="565.19" y2="66.52"/>
        <line class="cls-5" x1="488.79" y1="214.1" x2="568.77" y2="66.52"/>
        <line class="cls-5" x1="492.37" y1="214.1" x2="572.35" y2="66.52"/>
        <line class="cls-5" x1="495.94" y1="214.1" x2="575.92" y2="66.52"/>
        <line class="cls-5" x1="499.52" y1="214.1" x2="579.5" y2="66.52"/>
        <line class="cls-5" x1="503.1" y1="214.1" x2="583.08" y2="66.52"/>
        <line class="cls-5" x1="506.68" y1="214.1" x2="586.66" y2="66.52"/>
        <line class="cls-5" x1="510.25" y1="214.1" x2="590.23" y2="66.52"/>
        <line class="cls-5" x1="513.83" y1="214.1" x2="593.81" y2="66.52"/>
        <line class="cls-5" x1="517.41" y1="214.1" x2="597.39" y2="66.52"/>
        <line class="cls-5" x1="520.98" y1="214.1" x2="600.96" y2="66.52"/>
        <line class="cls-5" x1="524.56" y1="214.1" x2="604.54" y2="66.52"/>
        <line class="cls-5" x1="528.14" y1="214.1" x2="608.12" y2="66.52"/>
        <line class="cls-5" x1="531.71" y1="214.1" x2="611.69" y2="66.52"/>
        <line class="cls-5" x1="535.29" y1="214.1" x2="615.27" y2="66.52"/>
        <line class="cls-5" x1="538.87" y1="214.1" x2="618.85" y2="66.52"/>
        <line class="cls-5" x1="542.45" y1="214.1" x2="622.43" y2="66.52"/>
        <line class="cls-5" x1="546.02" y1="214.1" x2="626" y2="66.52"/>
        <line class="cls-5" x1="549.6" y1="214.1" x2="629.58" y2="66.52"/>
        <line class="cls-5" x1="553.18" y1="214.1" x2="633.16" y2="66.52"/>
        <line class="cls-5" x1="556.75" y1="214.1" x2="636.73" y2="66.52"/>
        <line class="cls-5" x1="560.33" y1="214.1" x2="640.31" y2="66.52"/>
        <line class="cls-5" x1="563.91" y1="214.1" x2="643.89" y2="66.52"/>
        <line class="cls-5" x1="567.48" y1="214.1" x2="647.46" y2="66.52"/>
        <line class="cls-5" x1="571.06" y1="214.1" x2="651.04" y2="66.52"/>
        <line class="cls-5" x1="574.64" y1="214.1" x2="654.62" y2="66.52"/>
        <line class="cls-5" x1="578.22" y1="214.1" x2="658.2" y2="66.52"/>
        <line class="cls-5" x1="581.79" y1="214.1" x2="661.77" y2="66.52"/>
        <line class="cls-5" x1="585.37" y1="214.1" x2="665.35" y2="66.52"/>
        <line class="cls-5" x1="588.95" y1="214.1" x2="668.93" y2="66.52"/>
        <line class="cls-5" x1="592.52" y1="214.1" x2="672.5" y2="66.52"/>
        <line class="cls-5" x1="596.1" y1="214.1" x2="676.08" y2="66.52"/>
        <line class="cls-5" x1="599.68" y1="214.1" x2="679.66" y2="66.52"/>
        <line class="cls-5" x1="603.25" y1="214.1" x2="683.23" y2="66.52"/>
        <line class="cls-5" x1="606.83" y1="214.1" x2="686.81" y2="66.52"/>
        <line class="cls-5" x1="610.41" y1="214.1" x2="690.39" y2="66.52"/>
        <line class="cls-5" x1="613.98" y1="214.1" x2="693.97" y2="66.52"/>
        <line class="cls-5" x1="617.56" y1="214.1" x2="697.54" y2="66.52"/>
        <line class="cls-5" x1="621.14" y1="214.1" x2="701.12" y2="66.52"/>
        <line class="cls-5" x1="624.72" y1="214.1" x2="704.7" y2="66.52"/>
        <line class="cls-5" x1="628.29" y1="214.1" x2="708.27" y2="66.52"/>
      </g>
      <path class="cls-5" d="M535.59,170.12c21.33.45,33.62-67.64,53.53-65.8,18.41,1.71,22.91,61.27,53.53,65.8,2.84.42,5.21.27,6.69.1"/>
    </g>
    <path class="cls-7" d="M100.39,170.16c1.35.16,3.88.37,6.96,0,28.92-3.44,34.94-48.86,53.53-50.64,20.26-1.94,30.02,50.4,53.53,50.64,22.33.23,30.2-46.8,53.53-47.09,23.72-.29,33.02,48.11,53.05,47.09,25.57-1.31,32.94-81.32,54.01-81.63,21.36-.31,31.58,81.64,53.53,81.63,22.06-.01,32.43-82.79,53.53-82.41,20.75.38,27.45,80.71,53.53,82.41"/>
    <path class="cls-7" d="M535.59,170.16c20.43,1.33,32.15-46.93,53.53-44.19,18.62,2.39,25.13,40.93,53.53,44.19,3.04.35,5.7.1,6.69.1"/>
    <g>
      <g>
        <rect class="cls-7" x="199.95" y="209.98" width="10" height="10"/>
        <text class="cls-16" transform="translate(218.21 220.02)"><tspan x="0" y="0">Moved to area</tspan></text>
      </g>
      <g>
        <text class="cls-16" transform="translate(428.58 220.02)"><tspan x="0" y="0">Moved out of area</tspan></text>
        <g>
          <g class="cls-13">
            <line class="cls-5" x1="368.13" y1="285.18" x2="448.11" y2="137.59"/>
            <line class="cls-5" x1="371.7" y1="285.18" x2="451.68" y2="137.59"/>
            <line class="cls-5" x1="375.28" y1="285.18" x2="455.26" y2="137.59"/>
            <line class="cls-5" x1="378.86" y1="285.18" x2="458.84" y2="137.59"/>
            <line class="cls-5" x1="382.43" y1="285.18" x2="462.41" y2="137.59"/>
            <line class="cls-5" x1="386.01" y1="285.18" x2="465.99" y2="137.59"/>
          </g>
          <rect class="cls-6" x="409.95" y="210.02" width="10" height="10"/>
        </g>
      </g>
    </g>
    <line class="cls-2" x1="60.31" y1="72.66" x2="67.07" y2="72.66"/>
    <line class="cls-2" x1="60.31" y1="105.16" x2="67.07" y2="105.16"/>
    <line class="cls-2" x1="60.31" y1="137.66" x2="67.07" y2="137.66"/>
    <text class="cls-8" transform="translate(627.88 145.3)"><tspan x="0" y="0">34 arriving </tspan><tspan x="0" y="14">per 1000</tspan></text>
  </g>
  <g id="Layer_10" data-name="Layer 10">
    <g class="cls-15">
      <line class="cls-6" x1="60.31" y1="214.1" x2="140.29" y2="66.52"/>
      <line class="cls-6" x1="63.89" y1="214.1" x2="143.87" y2="66.52"/>
      <line class="cls-6" x1="67.47" y1="214.1" x2="147.45" y2="66.52"/>
      <line class="cls-6" x1="71.05" y1="214.1" x2="151.03" y2="66.52"/>
      <line class="cls-6" x1="74.62" y1="214.1" x2="154.6" y2="66.52"/>
      <line class="cls-6" x1="78.2" y1="214.1" x2="158.18" y2="66.52"/>
      <line class="cls-6" x1="81.78" y1="214.1" x2="161.76" y2="66.52"/>
      <line class="cls-6" x1="85.35" y1="214.1" x2="165.33" y2="66.52"/>
      <line class="cls-6" x1="88.93" y1="214.1" x2="168.91" y2="66.52"/>
      <line class="cls-6" x1="92.51" y1="214.1" x2="172.49" y2="66.52"/>
      <line class="cls-6" x1="96.08" y1="214.1" x2="176.06" y2="66.52"/>
      <line class="cls-6" x1="99.66" y1="214.1" x2="179.64" y2="66.52"/>
      <line class="cls-6" x1="103.24" y1="214.1" x2="183.22" y2="66.52"/>
      <line class="cls-6" x1="106.82" y1="214.1" x2="186.8" y2="66.52"/>
      <line class="cls-6" x1="110.39" y1="214.1" x2="190.37" y2="66.52"/>
      <line class="cls-6" x1="113.97" y1="214.1" x2="193.95" y2="66.52"/>
      <line class="cls-6" x1="117.55" y1="214.1" x2="197.53" y2="66.52"/>
      <line class="cls-6" x1="121.12" y1="214.1" x2="201.1" y2="66.52"/>
      <line class="cls-6" x1="124.7" y1="214.1" x2="204.68" y2="66.52"/>
      <line class="cls-6" x1="128.28" y1="214.1" x2="208.26" y2="66.52"/>
      <line class="cls-6" x1="131.85" y1="214.1" x2="211.83" y2="66.52"/>
      <line class="cls-6" x1="135.43" y1="214.1" x2="215.41" y2="66.52"/>
      <line class="cls-6" x1="139.01" y1="214.1" x2="218.99" y2="66.52"/>
      <line class="cls-6" x1="142.59" y1="214.1" x2="222.57" y2="66.52"/>
      <line class="cls-6" x1="146.16" y1="214.1" x2="226.14" y2="66.52"/>
      <line class="cls-6" x1="149.74" y1="214.1" x2="229.72" y2="66.52"/>
      <line class="cls-6" x1="153.32" y1="214.1" x2="233.3" y2="66.52"/>
      <line class="cls-6" x1="156.89" y1="214.1" x2="236.87" y2="66.52"/>
      <line class="cls-6" x1="160.47" y1="214.1" x2="240.45" y2="66.52"/>
      <line class="cls-6" x1="164.05" y1="214.1" x2="244.03" y2="66.52"/>
      <line class="cls-6" x1="167.62" y1="214.1" x2="247.6" y2="66.52"/>
      <line class="cls-6" x1="171.2" y1="214.1" x2="251.18" y2="66.52"/>
      <line class="cls-6" x1="174.78" y1="214.1" x2="254.76" y2="66.52"/>
      <line class="cls-6" x1="178.36" y1="214.1" x2="258.34" y2="66.52"/>
      <line class="cls-6" x1="181.93" y1="214.1" x2="261.91" y2="66.52"/>
      <line class="cls-6" x1="185.51" y1="214.1" x2="265.49" y2="66.52"/>
      <line class="cls-6" x1="189.09" y1="214.1" x2="269.07" y2="66.52"/>
      <line class="cls-6" x1="192.66" y1="214.1" x2="272.64" y2="66.52"/>
      <line class="cls-6" x1="196.24" y1="214.1" x2="276.22" y2="66.52"/>
      <line class="cls-6" x1="199.82" y1="214.1" x2="279.8" y2="66.52"/>
      <line class="cls-6" x1="203.39" y1="214.1" x2="283.37" y2="66.52"/>
      <line class="cls-6" x1="206.97" y1="214.1" x2="286.95" y2="66.52"/>
      <line class="cls-6" x1="210.55" y1="214.1" x2="290.53" y2="66.52"/>
      <line class="cls-6" x1="214.12" y1="214.1" x2="294.11" y2="66.52"/>
      <line class="cls-6" x1="217.7" y1="214.1" x2="297.68" y2="66.52"/>
      <line class="cls-6" x1="221.28" y1="214.1" x2="301.26" y2="66.52"/>
      <line class="cls-6" x1="224.86" y1="214.1" x2="304.84" y2="66.52"/>
      <line class="cls-6" x1="228.43" y1="214.1" x2="308.41" y2="66.52"/>
      <line class="cls-6" x1="232.01" y1="214.1" x2="311.99" y2="66.52"/>
      <line class="cls-6" x1="235.59" y1="214.1" x2="315.57" y2="66.52"/>
      <line class="cls-6" x1="239.16" y1="214.1" x2="319.14" y2="66.52"/>
      <line class="cls-6" x1="242.74" y1="214.1" x2="322.72" y2="66.52"/>
      <line class="cls-6" x1="246.32" y1="214.1" x2="326.3" y2="66.52"/>
      <line class="cls-6" x1="249.89" y1="214.1" x2="329.88" y2="66.52"/>
      <line class="cls-6" x1="253.47" y1="214.1" x2="333.45" y2="66.52"/>
      <line class="cls-6" x1="257.05" y1="214.1" x2="337.03" y2="66.52"/>
      <line class="cls-6" x1="260.63" y1="214.1" x2="340.61" y2="66.52"/>
      <line class="cls-6" x1="264.2" y1="214.1" x2="344.18" y2="66.52"/>
      <line class="cls-6" x1="267.78" y1="214.1" x2="347.76" y2="66.52"/>
      <line class="cls-6" x1="271.36" y1="214.1" x2="351.34" y2="66.52"/>
      <line class="cls-6" x1="274.93" y1="214.1" x2="354.91" y2="66.52"/>
      <line class="cls-6" x1="278.51" y1="214.1" x2="358.49" y2="66.52"/>
      <line class="cls-6" x1="282.09" y1="214.1" x2="362.07" y2="66.52"/>
      <line class="cls-6" x1="285.66" y1="214.1" x2="365.65" y2="66.52"/>
      <line class="cls-6" x1="289.24" y1="214.1" x2="369.22" y2="66.52"/>
      <line class="cls-6" x1="292.82" y1="214.1" x2="372.8" y2="66.52"/>
      <line class="cls-6" x1="296.4" y1="214.1" x2="376.38" y2="66.52"/>
      <line class="cls-6" x1="299.97" y1="214.1" x2="379.95" y2="66.52"/>
      <line class="cls-6" x1="303.55" y1="214.1" x2="383.53" y2="66.52"/>
      <line class="cls-6" x1="307.13" y1="214.1" x2="387.11" y2="66.52"/>
      <line class="cls-6" x1="310.7" y1="214.1" x2="390.68" y2="66.52"/>
      <line class="cls-6" x1="314.28" y1="214.1" x2="394.26" y2="66.52"/>
      <line class="cls-6" x1="317.86" y1="214.1" x2="397.84" y2="66.52"/>
      <line class="cls-6" x1="321.43" y1="214.1" x2="401.41" y2="66.52"/>
      <line class="cls-6" x1="325.01" y1="214.1" x2="404.99" y2="66.52"/>
      <line class="cls-6" x1="328.59" y1="214.1" x2="408.57" y2="66.52"/>
      <line class="cls-6" x1="332.17" y1="214.1" x2="412.15" y2="66.52"/>
      <line class="cls-6" x1="335.74" y1="214.1" x2="415.72" y2="66.52"/>
      <line class="cls-6" x1="339.32" y1="214.1" x2="419.3" y2="66.52"/>
      <line class="cls-6" x1="342.9" y1="214.1" x2="422.88" y2="66.52"/>
      <line class="cls-6" x1="346.47" y1="214.1" x2="426.45" y2="66.52"/>
      <line class="cls-6" x1="350.05" y1="214.1" x2="430.03" y2="66.52"/>
      <line class="cls-6" x1="353.63" y1="214.1" x2="433.61" y2="66.52"/>
      <line class="cls-6" x1="357.2" y1="214.1" x2="437.18" y2="66.52"/>
      <line class="cls-6" x1="360.78" y1="214.1" x2="440.76" y2="66.52"/>
      <line class="cls-6" x1="364.36" y1="214.1" x2="444.34" y2="66.52"/>
      <line class="cls-6" x1="367.94" y1="214.1" x2="447.92" y2="66.52"/>
      <line class="cls-6" x1="371.51" y1="214.1" x2="451.49" y2="66.52"/>
      <line class="cls-6" x1="375.09" y1="214.1" x2="455.07" y2="66.52"/>
      <line class="cls-6" x1="378.67" y1="214.1" x2="458.65" y2="66.52"/>
      <line class="cls-6" x1="382.24" y1="214.1" x2="462.22" y2="66.52"/>
      <line class="cls-6" x1="385.82" y1="214.1" x2="465.8" y2="66.52"/>
      <line class="cls-6" x1="389.4" y1="214.1" x2="469.38" y2="66.52"/>
      <line class="cls-6" x1="392.97" y1="214.1" x2="472.95" y2="66.52"/>
      <line class="cls-6" x1="396.55" y1="214.1" x2="476.53" y2="66.52"/>
      <line class="cls-6" x1="400.13" y1="214.1" x2="480.11" y2="66.52"/>
      <line class="cls-6" x1="403.71" y1="214.1" x2="483.69" y2="66.52"/>
      <line class="cls-6" x1="407.28" y1="214.1" x2="487.26" y2="66.52"/>
      <line class="cls-6" x1="410.86" y1="214.1" x2="490.84" y2="66.52"/>
      <line class="cls-6" x1="414.44" y1="214.1" x2="494.42" y2="66.52"/>
      <line class="cls-6" x1="418.01" y1="214.1" x2="497.99" y2="66.52"/>
      <line class="cls-6" x1="421.59" y1="214.1" x2="501.57" y2="66.52"/>
      <line class="cls-6" x1="425.17" y1="214.1" x2="505.15" y2="66.52"/>
      <line class="cls-6" x1="428.74" y1="214.1" x2="508.72" y2="66.52"/>
      <line class="cls-6" x1="432.32" y1="214.1" x2="512.3" y2="66.52"/>
      <line class="cls-6" x1="435.9" y1="214.1" x2="515.88" y2="66.52"/>
      <line class="cls-6" x1="439.48" y1="214.1" x2="519.46" y2="66.52"/>
      <line class="cls-6" x1="443.05" y1="214.1" x2="523.03" y2="66.52"/>
      <line class="cls-6" x1="446.63" y1="214.1" x2="526.61" y2="66.52"/>
      <line class="cls-6" x1="450.21" y1="214.1" x2="530.19" y2="66.52"/>
      <line class="cls-6" x1="453.78" y1="214.1" x2="533.76" y2="66.52"/>
      <line class="cls-6" x1="457.36" y1="214.1" x2="537.34" y2="66.52"/>
      <line class="cls-6" x1="460.94" y1="214.1" x2="540.92" y2="66.52"/>
      <line class="cls-6" x1="464.51" y1="214.1" x2="544.49" y2="66.52"/>
      <line class="cls-6" x1="468.09" y1="214.1" x2="548.07" y2="66.52"/>
      <line class="cls-6" x1="471.67" y1="214.1" x2="551.65" y2="66.52"/>
      <line class="cls-6" x1="475.25" y1="214.1" x2="555.23" y2="66.52"/>
      <line class="cls-6" x1="478.82" y1="214.1" x2="558.8" y2="66.52"/>
      <line class="cls-6" x1="482.4" y1="214.1" x2="562.38" y2="66.52"/>
      <line class="cls-6" x1="485.98" y1="214.1" x2="565.96" y2="66.52"/>
      <line class="cls-6" x1="489.55" y1="214.1" x2="569.53" y2="66.52"/>
      <line class="cls-6" x1="493.13" y1="214.1" x2="573.11" y2="66.52"/>
      <line class="cls-6" x1="496.71" y1="214.1" x2="576.69" y2="66.52"/>
      <line class="cls-6" x1="500.28" y1="214.1" x2="580.26" y2="66.52"/>
      <line class="cls-6" x1="503.86" y1="214.1" x2="583.84" y2="66.52"/>
      <line class="cls-6" x1="507.44" y1="214.1" x2="587.42" y2="66.52"/>
      <line class="cls-6" x1="511.02" y1="214.1" x2="591" y2="66.52"/>
      <line class="cls-6" x1="514.59" y1="214.1" x2="594.57" y2="66.52"/>
      <line class="cls-6" x1="518.17" y1="214.1" x2="598.15" y2="66.52"/>
      <line class="cls-6" x1="521.75" y1="214.1" x2="601.73" y2="66.52"/>
      <line class="cls-6" x1="525.32" y1="214.1" x2="605.3" y2="66.52"/>
      <line class="cls-6" x1="528.9" y1="214.1" x2="608.88" y2="66.52"/>
      <line class="cls-6" x1="532.48" y1="214.1" x2="612.46" y2="66.52"/>
      <line class="cls-6" x1="536.05" y1="214.1" x2="616.03" y2="66.52"/>
      <line class="cls-6" x1="539.63" y1="214.1" x2="619.61" y2="66.52"/>
    </g>
    <g>
      <g class="cls-14">
        <line class="cls-5" x1="60.31" y1="214.1" x2="140.29" y2="66.52"/>
        <line class="cls-5" x1="63.89" y1="214.1" x2="143.87" y2="66.52"/>
        <line class="cls-5" x1="67.47" y1="214.1" x2="147.45" y2="66.52"/>
        <line class="cls-5" x1="71.05" y1="214.1" x2="151.03" y2="66.52"/>
        <line class="cls-5" x1="74.62" y1="214.1" x2="154.6" y2="66.52"/>
        <line class="cls-5" x1="78.2" y1="214.1" x2="158.18" y2="66.52"/>
        <line class="cls-5" x1="81.78" y1="214.1" x2="161.76" y2="66.52"/>
        <line class="cls-5" x1="85.35" y1="214.1" x2="165.33" y2="66.52"/>
        <line class="cls-5" x1="88.93" y1="214.1" x2="168.91" y2="66.52"/>
        <line class="cls-5" x1="92.51" y1="214.1" x2="172.49" y2="66.52"/>
        <line class="cls-5" x1="96.08" y1="214.1" x2="176.06" y2="66.52"/>
        <line class="cls-5" x1="99.66" y1="214.1" x2="179.64" y2="66.52"/>
        <line class="cls-5" x1="103.24" y1="214.1" x2="183.22" y2="66.52"/>
        <line class="cls-5" x1="106.82" y1="214.1" x2="186.8" y2="66.52"/>
        <line class="cls-5" x1="110.39" y1="214.1" x2="190.37" y2="66.52"/>
        <line class="cls-5" x1="113.97" y1="214.1" x2="193.95" y2="66.52"/>
        <line class="cls-5" x1="117.55" y1="214.1" x2="197.53" y2="66.52"/>
        <line class="cls-5" x1="121.12" y1="214.1" x2="201.1" y2="66.52"/>
        <line class="cls-5" x1="124.7" y1="214.1" x2="204.68" y2="66.52"/>
        <line class="cls-5" x1="128.28" y1="214.1" x2="208.26" y2="66.52"/>
        <line class="cls-5" x1="131.85" y1="214.1" x2="211.83" y2="66.52"/>
        <line class="cls-5" x1="135.43" y1="214.1" x2="215.41" y2="66.52"/>
        <line class="cls-5" x1="139.01" y1="214.1" x2="218.99" y2="66.52"/>
        <line class="cls-5" x1="142.59" y1="214.1" x2="222.57" y2="66.52"/>
        <line class="cls-5" x1="146.16" y1="214.1" x2="226.14" y2="66.52"/>
        <line class="cls-5" x1="149.74" y1="214.1" x2="229.72" y2="66.52"/>
        <line class="cls-5" x1="153.32" y1="214.1" x2="233.3" y2="66.52"/>
        <line class="cls-5" x1="156.89" y1="214.1" x2="236.87" y2="66.52"/>
        <line class="cls-5" x1="160.47" y1="214.1" x2="240.45" y2="66.52"/>
        <line class="cls-5" x1="164.05" y1="214.1" x2="244.03" y2="66.52"/>
        <line class="cls-5" x1="167.62" y1="214.1" x2="247.6" y2="66.52"/>
        <line class="cls-5" x1="171.2" y1="214.1" x2="251.18" y2="66.52"/>
        <line class="cls-5" x1="174.78" y1="214.1" x2="254.76" y2="66.52"/>
        <line class="cls-5" x1="178.36" y1="214.1" x2="258.34" y2="66.52"/>
        <line class="cls-5" x1="181.93" y1="214.1" x2="261.91" y2="66.52"/>
        <line class="cls-5" x1="185.51" y1="214.1" x2="265.49" y2="66.52"/>
        <line class="cls-5" x1="189.09" y1="214.1" x2="269.07" y2="66.52"/>
        <line class="cls-5" x1="192.66" y1="214.1" x2="272.64" y2="66.52"/>
        <line class="cls-5" x1="196.24" y1="214.1" x2="276.22" y2="66.52"/>
        <line class="cls-5" x1="199.82" y1="214.1" x2="279.8" y2="66.52"/>
        <line class="cls-5" x1="203.39" y1="214.1" x2="283.37" y2="66.52"/>
        <line class="cls-5" x1="206.97" y1="214.1" x2="286.95" y2="66.52"/>
        <line class="cls-5" x1="210.55" y1="214.1" x2="290.53" y2="66.52"/>
        <line class="cls-5" x1="214.12" y1="214.1" x2="294.11" y2="66.52"/>
        <line class="cls-5" x1="217.7" y1="214.1" x2="297.68" y2="66.52"/>
        <line class="cls-5" x1="221.28" y1="214.1" x2="301.26" y2="66.52"/>
        <line class="cls-5" x1="224.86" y1="214.1" x2="304.84" y2="66.52"/>
        <line class="cls-5" x1="228.43" y1="214.1" x2="308.41" y2="66.52"/>
        <line class="cls-5" x1="232.01" y1="214.1" x2="311.99" y2="66.52"/>
        <line class="cls-5" x1="235.59" y1="214.1" x2="315.57" y2="66.52"/>
        <line class="cls-5" x1="239.16" y1="214.1" x2="319.14" y2="66.52"/>
        <line class="cls-5" x1="242.74" y1="214.1" x2="322.72" y2="66.52"/>
        <line class="cls-5" x1="246.32" y1="214.1" x2="326.3" y2="66.52"/>
        <line class="cls-5" x1="249.89" y1="214.1" x2="329.88" y2="66.52"/>
        <line class="cls-5" x1="253.47" y1="214.1" x2="333.45" y2="66.52"/>
        <line class="cls-5" x1="257.05" y1="214.1" x2="337.03" y2="66.52"/>
        <line class="cls-5" x1="260.63" y1="214.1" x2="340.61" y2="66.52"/>
        <line class="cls-5" x1="264.2" y1="214.1" x2="344.18" y2="66.52"/>
        <line class="cls-5" x1="267.78" y1="214.1" x2="347.76" y2="66.52"/>
        <line class="cls-5" x1="271.36" y1="214.1" x2="351.34" y2="66.52"/>
        <line class="cls-5" x1="274.93" y1="214.1" x2="354.91" y2="66.52"/>
        <line class="cls-5" x1="278.51" y1="214.1" x2="358.49" y2="66.52"/>
        <line class="cls-5" x1="282.09" y1="214.1" x2="362.07" y2="66.52"/>
        <line class="cls-5" x1="285.66" y1="214.1" x2="365.65" y2="66.52"/>
        <line class="cls-5" x1="289.24" y1="214.1" x2="369.22" y2="66.52"/>
        <line class="cls-5" x1="292.82" y1="214.1" x2="372.8" y2="66.52"/>
        <line class="cls-5" x1="296.4" y1="214.1" x2="376.38" y2="66.52"/>
        <line class="cls-5" x1="299.97" y1="214.1" x2="379.95" y2="66.52"/>
        <line class="cls-5" x1="303.55" y1="214.1" x2="383.53" y2="66.52"/>
        <line class="cls-5" x1="307.13" y1="214.1" x2="387.11" y2="66.52"/>
        <line class="cls-5" x1="310.7" y1="214.1" x2="390.68" y2="66.52"/>
        <line class="cls-5" x1="314.28" y1="214.1" x2="394.26" y2="66.52"/>
        <line class="cls-5" x1="317.86" y1="214.1" x2="397.84" y2="66.52"/>
        <line class="cls-5" x1="321.43" y1="214.1" x2="401.41" y2="66.52"/>
        <line class="cls-5" x1="325.01" y1="214.1" x2="404.99" y2="66.52"/>
        <line class="cls-5" x1="328.59" y1="214.1" x2="408.57" y2="66.52"/>
        <line class="cls-5" x1="332.17" y1="214.1" x2="412.15" y2="66.52"/>
        <line class="cls-5" x1="335.74" y1="214.1" x2="415.72" y2="66.52"/>
        <line class="cls-5" x1="339.32" y1="214.1" x2="419.3" y2="66.52"/>
        <line class="cls-5" x1="342.9" y1="214.1" x2="422.88" y2="66.52"/>
        <line class="cls-5" x1="346.47" y1="214.1" x2="426.45" y2="66.52"/>
        <line class="cls-5" x1="350.05" y1="214.1" x2="430.03" y2="66.52"/>
        <line class="cls-5" x1="353.63" y1="214.1" x2="433.61" y2="66.52"/>
        <line class="cls-5" x1="357.2" y1="214.1" x2="437.18" y2="66.52"/>
        <line class="cls-5" x1="360.78" y1="214.1" x2="440.76" y2="66.52"/>
        <line class="cls-5" x1="364.36" y1="214.1" x2="444.34" y2="66.52"/>
        <line class="cls-5" x1="367.94" y1="214.1" x2="447.92" y2="66.52"/>
        <line class="cls-5" x1="371.51" y1="214.1" x2="451.49" y2="66.52"/>
        <line class="cls-5" x1="375.09" y1="214.1" x2="455.07" y2="66.52"/>
        <line class="cls-5" x1="378.67" y1="214.1" x2="458.65" y2="66.52"/>
        <line class="cls-5" x1="382.24" y1="214.1" x2="462.22" y2="66.52"/>
        <line class="cls-5" x1="385.82" y1="214.1" x2="465.8" y2="66.52"/>
        <line class="cls-5" x1="389.4" y1="214.1" x2="469.38" y2="66.52"/>
        <line class="cls-5" x1="392.97" y1="214.1" x2="472.95" y2="66.52"/>
        <line class="cls-5" x1="396.55" y1="214.1" x2="476.53" y2="66.52"/>
        <line class="cls-5" x1="400.13" y1="214.1" x2="480.11" y2="66.52"/>
        <line class="cls-5" x1="403.71" y1="214.1" x2="483.69" y2="66.52"/>
        <line class="cls-5" x1="407.28" y1="214.1" x2="487.26" y2="66.52"/>
        <line class="cls-5" x1="410.86" y1="214.1" x2="490.84" y2="66.52"/>
        <line class="cls-5" x1="414.44" y1="214.1" x2="494.42" y2="66.52"/>
        <line class="cls-5" x1="418.01" y1="214.1" x2="497.99" y2="66.52"/>
        <line class="cls-5" x1="421.59" y1="214.1" x2="501.57" y2="66.52"/>
        <line class="cls-5" x1="425.17" y1="214.1" x2="505.15" y2="66.52"/>
        <line class="cls-5" x1="428.74" y1="214.1" x2="508.72" y2="66.52"/>
        <line class="cls-5" x1="432.32" y1="214.1" x2="512.3" y2="66.52"/>
        <line class="cls-5" x1="435.9" y1="214.1" x2="515.88" y2="66.52"/>
        <line class="cls-5" x1="439.48" y1="214.1" x2="519.46" y2="66.52"/>
        <line class="cls-5" x1="443.05" y1="214.1" x2="523.03" y2="66.52"/>
        <line class="cls-5" x1="446.63" y1="214.1" x2="526.61" y2="66.52"/>
        <line class="cls-5" x1="450.21" y1="214.1" x2="530.19" y2="66.52"/>
        <line class="cls-5" x1="453.78" y1="214.1" x2="533.76" y2="66.52"/>
        <line class="cls-5" x1="457.36" y1="214.1" x2="537.34" y2="66.52"/>
        <line class="cls-5" x1="460.94" y1="214.1" x2="540.92" y2="66.52"/>
        <line class="cls-5" x1="464.51" y1="214.1" x2="544.49" y2="66.52"/>
        <line class="cls-5" x1="468.09" y1="214.1" x2="548.07" y2="66.52"/>
        <line class="cls-5" x1="471.67" y1="214.1" x2="551.65" y2="66.52"/>
        <line class="cls-5" x1="475.25" y1="214.1" x2="555.23" y2="66.52"/>
        <line class="cls-5" x1="478.82" y1="214.1" x2="558.8" y2="66.52"/>
        <line class="cls-5" x1="482.4" y1="214.1" x2="562.38" y2="66.52"/>
        <line class="cls-5" x1="485.98" y1="214.1" x2="565.96" y2="66.52"/>
        <line class="cls-5" x1="489.55" y1="214.1" x2="569.53" y2="66.52"/>
        <line class="cls-5" x1="493.13" y1="214.1" x2="573.11" y2="66.52"/>
        <line class="cls-5" x1="496.71" y1="214.1" x2="576.69" y2="66.52"/>
        <line class="cls-5" x1="500.28" y1="214.1" x2="580.26" y2="66.52"/>
        <line class="cls-5" x1="503.86" y1="214.1" x2="583.84" y2="66.52"/>
        <line class="cls-5" x1="507.44" y1="214.1" x2="587.42" y2="66.52"/>
        <line class="cls-5" x1="511.02" y1="214.1" x2="591" y2="66.52"/>
        <line class="cls-5" x1="514.59" y1="214.1" x2="594.57" y2="66.52"/>
        <line class="cls-5" x1="518.17" y1="214.1" x2="598.15" y2="66.52"/>
        <line class="cls-5" x1="521.75" y1="214.1" x2="601.73" y2="66.52"/>
        <line class="cls-5" x1="525.32" y1="214.1" x2="605.3" y2="66.52"/>
        <line class="cls-5" x1="528.9" y1="214.1" x2="608.88" y2="66.52"/>
        <line class="cls-5" x1="532.48" y1="214.1" x2="612.46" y2="66.52"/>
        <line class="cls-5" x1="536.05" y1="214.1" x2="616.03" y2="66.52"/>
        <line class="cls-5" x1="539.63" y1="214.1" x2="619.61" y2="66.52"/>
      </g>
      <path class="cls-5" d="M100.39,170.12c1.23.13,3.79.33,6.96,0,28.26-2.96,34.87-41.16,53.53-43.14,20.84-2.21,30.11,43.3,53.53,43.14,23.19-.16,30.4-44.93,53.53-45.22,23.6-.3,32.57,46.19,53.05,45.22,25.15-1.18,32.47-72.22,54.01-72.54,21.89-.33,32.08,72.78,53.53,72.54,22.72-.25,32.12-82.48,53.53-82.41,21.35.06,30.22,81.92,53.53,82.41"/>
    </g>
    <line class="cls-3" x1="60.31" y1="170.16" x2="700" y2="170.16"/>
  </g>
</svg>