<?xml version="1.0" encoding="UTF-8"?>
<svg id="Layer_1" data-name="Layer 1" xmlns="http://www.w3.org/2000/svg" viewBox="0 0 360 274.38">
  <defs>
    <style>
      .cls-1 {
        fill: #1e3864;
      }

      .cls-1, .cls-2 {
        stroke: #fff;
      }

      .cls-1, .cls-2, .cls-3, .cls-4 {
        stroke-miterlimit: 10;
      }

      .cls-2 {
        fill: #00a28a;
      }

      .cls-5 {
        font-size: 18px;
      }

      .cls-5, .cls-6 {
        font-family: OpenSans-Bold, 'Open Sans';
        font-weight: 700;
      }

      .cls-5, .cls-4 {
        fill: #fff;
      }

      .cls-7 {
        fill: #9a9896;
      }

      .cls-7, .cls-8 {
        font-family: OpenSans, 'Open Sans';
        font-size: 12px;
      }

      .cls-6 {
        font-size: 20px;
      }

      .cls-6, .cls-8 {
        fill: #231f20;
      }

      .cls-3 {
        fill: none;
        stroke: #9a9896;
      }

      .cls-4 {
        stroke: #00a28a;
        stroke-width: 2px;
      }
    </style>
  </defs>
  <text class="cls-6" transform="translate(19.9 24.94)"><tspan x="0" y="0">Migration in and out of Wood </tspan><tspan x="0" y="24">Buffalo (2021 to 2022)</tspan></text>
  <path class="cls-4" d="M179.89,187.23v3.77h0v.95h0v1.88h0v2.8h0v1.91h0v.93h0v2.81h0v.93h0v.93h0v.93h0v1.87h0v.93h0v1.85h0v.93h0v1.85h0v.93h0v.47s.01.23.01.23v.23h0v.48s-.01.23-.01.23v1.15h0v.91h0v1.87h0v.92h0s-.23,0-.23,0h-20.42s-.24-.01-.24-.01h-.44s-.01.01-.01.01h-3.73s.01-.24.01-.24v-.37h0v-1h0v-.23h0v-.93h0v-.24h0v-.68h0v-.73h0v-.2h0v-.2h0v-.03h0v-.2h0v-.49h0v-1.85h0v-.93h-.21v-.45h0v-1.13h0v-.27h0v-.93h0v-2.23h0v-.32h0v-.25h-8.43v1.08h0v.32h-2.81v-.68h0v-.25h0v-.23h0v-.24h-2.8s-.01.01-.01.01h-.23s-.23-.01-.23-.01h-2.35s-.24,0-.24,0h-2.33s-.24.01-.24.01h-.71s-.23-.01-.23-.01h-1.17s-.04.01-.04.01h0s-.01-.03-.01-.03h-.01s-.03-.03-.03-.03l-.04-.03h-.04s-.01-.01-.01-.01h-.03s-.01-.03-.01-.03h-.01v-.03s-.03-.01-.03-.01v-.03h-.03v-.04h0v-.03h0s-.01-.03-.01-.03v-.03h-.01v-.08h0v-.09s.01-.01.01-.01h.01v-.03h0v-.03h.01s.01-.03.01-.03h0s.01-.03.01-.03h.01v-.03h.01s.01-.03.01-.03v-.03h.04s.01-.03.01-.03h.03s.03-.04.03-.04h.04s.01-.03.01-.03h.01s.01-.01.01-.01h.01s.01-.01.01-.01h.01s.01-.03.01-.03l.03-.03h.03s.01-.03.01-.03h.03s.05-.03.05-.03h.04s.01-.01.01-.01h.03s.03-.01.03-.01h.01s.03-.01.03-.01h.01s.01-.03.01-.03h.01s.03-.01.03-.01l.04-.03h.03s.01-.03.01-.03h.04s.01-.03.01-.03h.01s.01-.03.01-.03v-.03s.01-.01.01-.01h0v-.04h0s-.01-.03-.01-.03h0s-.01-.03-.01-.03h-.01s-.01-.03-.01-.03h0s-.01-.03-.01-.03h-.03s-.01-.01-.01-.01h-.05s-.01,0-.01,0h-.12s-.01-.01-.01-.01h-.01s-.01-.03-.01-.03h0s-.03-.03-.03-.03v-.03h-.03v-.03s-.03-.01-.03-.01h0s-.01-.04-.01-.04h-.01v-.08s-.03-.05-.03-.05h0v-.03h0v-.07h0s.01-.03.01-.03v-.08h0s.01-.03.01-.03v-.04h0v-.03h.01v-.03h0v-.07s.05-.07.05-.07h0s.01-.03.01-.03v-.03s.03-.01.03-.01v-.05s.01-.01.01-.01h.01v-.03h0s.03-.09.03-.09v-.11s.01-.01.01-.01h0s-.01-.05-.01-.05h0v-.03h-.01v-.03h0v-.03h-.01v-.05h0s-.01-.03-.01-.03h0s-.01-.03-.01-.03h-.01s-.01-.03-.01-.03h0s-.01-.03-.01-.03h0s-.01-.03-.01-.03h0s-.01-.01-.01-.01h-.01s-.01-.01-.01-.01h0s-.01-.01-.01-.01h-.01v-.03h-.01s-.01-.01-.01-.01h0s-.01-.03-.01-.03h-.01s-.01-.01-.01-.01h0s-.01-.01-.01-.01h-.01s-.01-.01-.01-.01h0s-.01-.03-.01-.03h-.01s-.01-.03-.01-.03h0v-.03h0v-.03h0s.01-.04.01-.04h0v-.03h0v-.03h.01s.01-.03.01-.03h0s.01-.01.01-.01h.01s.01-.01.01-.01h.01s.01-.01.01-.01h.08s.04-.01.04-.01h.16s.01.01.01.01h.19s.03-.03.03-.03h.04s.01-.01.01-.01h.01s.01-.03.01-.03h.03s.01-.03.01-.03h.01s.01-.03.01-.03h.01l.03-.04.03-.05h0s.01-.01.01-.01h0s.01-.04.01-.04h.01v-.03h0v-.03h.01s.01-.03.01-.03v-.04s.01-.01.01-.01h0s.01-.01.01-.01v-.03h0s.01-.01.01-.01v-.04s.01-.01.01-.01h.01v-.05h.01v-.03h0s.01-.03.01-.03v-.04s.03-.01.03-.01v-.04s.01-.03.01-.03v-.03h0s.01-.01.01-.01h0v-.03h0v-.05s.01-.03.01-.03h.01v-.03h0s-.01-.01-.01-.01h0s-.01-.03-.01-.03h0v-.03h0v-.07h0v-.03h-.01v-.03h0v-.03h0s-.01-.03-.01-.03h0v-.03h0s-.01-.03-.01-.03h0v-.03h-.01s-.01-.04-.01-.04h0s-.01-.04-.01-.04h0v-.05h0v-.13s.01-.03.01-.03h0s.03-.09.03-.09h0s.01-.04.01-.04v-.03s.01-.01.01-.01h0s.01-.03.01-.03v-.03s.03-.01.03-.01l.03-.03h.01s.01-.03.01-.03h.03s.01-.03.01-.03h.01s.01-.01.01-.01h.01s.01-.01.01-.01h0s.01-.01.01-.01h.01s.01-.01.01-.01h0s.01-.03.01-.03h.01s.01-.03.01-.03v-.03s.01-.01.01-.01h.01v-.03h0s0,0,0,0h.01-.01v-.03h0v-.03h0v-.03h.01v-.03h0v-.03h-.01v-.03h0v-.03h0v-.03h0v-.05h0s.01-.05.01-.05h0v-.03h0v-.03h0s.01-.04.01-.04v-.03s.01-.01.01-.01h.01s.01-.01.01-.01h.03s.01-.03.01-.03h.08s.01-.01.01-.01h.08s.01-.03.01-.03h.03s.01-.03.01-.03h0s.01-.03.01-.03h.01s.01-.03.01-.03h0s.01-.04.01-.04h.01s.01-.03.01-.03v-.03h.01v-.03h0v-.03h.01v-.03h0s.01-.01.01-.01h0v-.03h0v-.03h.01v-.03h0v-.03h.01s.01-.03.01-.03h0v-.05s.03-.01.03-.01v-.03h.03s.01-.03.01-.03l.03-.03h.01v-.03h.03s.01-.03.01-.03h.01v-.03h.03v-.03h.01s.03-.04.03-.04h.01s.01-.04.01-.04h.01s.01-.01.01-.01h.01v-.03l.03-.03v-.03h.01v-.05s.03-.01.03-.01h0v-.03h0v-.03h.01v-.07h.01v-.03h0v-.03h0v-.03h0v-.07h0v-.03h0s.01-.01.01-.01h-.01s-.01-.04-.01-.04v-.03s-.03-.03-.03-.03l-.03-.03-.03-.04h-.01s-.01-.03-.01-.03h-.01v-.04s-.04-.01-.04-.01h-.01s-.01-.03-.01-.03h-.01s-.01-.01-.01-.01h-.01v-.03h-.03s-.01-.01-.01-.01v-.03h-.03v-.03h-.01s-.01-.04-.01-.04v-.03s-.03-.04-.03-.04v-.03s-.01-.01-.01-.01h0s-.01-.04-.01-.04v-.03h0v-.05h0s-.01-.03-.01-.03h0v-.07h0s-.01-.01-.01-.01h0v-.07h0v-.05s0-.01,0-.01h0v-.04h0v-.11s.01-.03.01-.03h0v-.03h-.01s.01-.04.01-.04h0v-.03h-.01v-.03h0v-.03h0s-.01-.04-.01-.04h0s-.01-.03-.01-.03h0s-.01-.03-.01-.03h0s-.01-.03-.01-.03v-.03h-.01v-.04h-.01v-.03h0s-.01-.03-.01-.03h0s-.01-.04-.01-.04h0s-.01-.03-.01-.03h0s-.01-.03-.01-.03h0s-.01-.03-.01-.03h0s-.01-.03-.01-.03v-.04s-.01-.01-.01-.01h0v-.03h-.01s-.01-.04-.01-.04v-.04s-.03-.01-.03-.01h0s-.01-.03-.01-.03h0s-.01-.03-.01-.03h-.01v-.03h-.01s-.03-.03-.03-.03v-.04s-.05-.05-.05-.05h-.01v-.03h-.01s-.01-.03-.01-.03h0s-.01-.04-.01-.04v-.03s-.01-.01-.01-.01h-.01s-.01-.03-.01-.03v-.03s-.03-.01-.03-.01h0s-.01-.03-.01-.03l-.03-.04h0v-.05s-.01-.01-.01-.01h-.01v-.05h0v-.08s-.03-.01-.03-.01v-.03h-.01v-.07s-.01-.01-.01-.01h0v-.05h0s-.01-.04-.01-.04v-.03h0v-.03h-.01s-.01-.05-.01-.05h0v-.05s-.01-.01-.01-.01v-.03s-.01-.01-.01-.01v-.03s-.03-.03-.03-.03h0s-.01-.03-.01-.03h0s-.01-.04-.01-.04h-.01v-.03h-.01v-.03h-.01v-.03h-.01s-.01-.04-.01-.04h0s-.01-.01-.01-.01v-.04s-.03-.01-.03-.01h0s-.01-.03-.01-.03h0s-.01-.03-.01-.03h0s-.01-.03-.01-.03h0v-.05s-.01-.01-.01-.01v-.03s-.01-.01-.01-.01h0s-.01-.03-.01-.03h0s-.01-.01-.01-.01h0v-.03h-.01s-.01-.04-.01-.04v-.05s-.01-.01-.01-.01v-.03s-.01-.01-.01-.01v-.03h-.01v-.03h-.01v-.03h0s-.01-.03-.01-.03v-.05s-.01-.03-.01-.03h-.01v-.03h0s-.01-.01-.01-.01h0s-.01-.03-.01-.03h-.01s-.01-.04-.01-.04v-.03s-.03-.01-.03-.01h-.01s-.01-.04-.01-.04h0v-.03h-.01v-.03h-.03v-.03h-.01s-.01-.03-.01-.03h0s-.01-.03-.01-.03h0s-.01-.03-.01-.03h0s-.01-.03-.01-.03h-.01v-.03h-.01s-.01-.03-.01-.03h-.01s-.01-.03-.01-.03h-.01v-.03h-.01s-.01-.03-.01-.03h-.01s-.01-.01-.01-.01h-.01s-.01-.01-.01-.01h-.09v-.03h-.01s-.01-.03-.01-.03h-.01s-.01-.01-.01-.01h-.01s-.01-.03-.01-.03h-.01v-.03h-.01s-.01-.01-.01-.01h0s-.01-.01-.01-.01h0s-.01-.03-.01-.03h-.01s-.01-.03-.01-.03h-.01v-.03h-.01s-.01-.04-.01-.04h-.01s-.01-.04-.01-.04h-.01v-.03h0v-.08s-.03-.03-.03-.03v-.03s-.01-.01-.01-.01h0s-.01-.03-.01-.03h0s-.01-.03-.01-.03h0s-.01-.03-.01-.03h0v-.03h0v-.03h0s-.01-.03-.01-.03h-.01v-.04h-.01s-.01-.03-.01-.03h-.01s-.01-.03-.01-.03h-.01s-.03-.01-.03-.01h-.01s-.03-.03-.03-.03h-.04s-.04-.03-.04-.03h-.04s-.01-.01-.01-.01h-.01v-.03h-.03v-.03h-.01s-.01-.03-.01-.03h0s-.01-.03-.01-.03h0v-.03h-.01v-.07h0v-.05h-.01v-.03s.01-.01.01-.01h0v-.03h.01s.01-.05.01-.05v-.03h.01v-.03h0s.01-.05.01-.05h0s.01-.03.01-.03v-.03h0v-.03h0v-.03h0v-.07s-.01-.01-.01-.01v-.03s-.03-.01-.03-.01h0v-.03h-.01v-.03h-.01v-.03h-.01s-.01-.04-.01-.04l-.03-.03h0s-.01-.03-.01-.03h0s-.01-.01-.01-.01h0s-.01-.03-.01-.03h0s-.01-.01-.01-.01v-.03s-.03-.01-.03-.01h0s-.01-.01-.01-.01h0s-.01-.01-.01-.01h0v-.03h-.01s-.01-.01-.01-.01h0s-.01-.03-.01-.03h-.01v-.03h-.01v-.03h-.01v-.03h-.01s-.01-.04-.01-.04v-.05h0v-.03h0s-.01-.03-.01-.03h.01v-.03h0s.01-.04.01-.04h.01v-.03h.01s.01-.04.01-.04h.01s.01-.01.01-.01h0s.01-.03.01-.03h0s.01-.04.01-.04v-.03s.01-.01.01-.01v-.04s.01-.03.01-.03v-.03h0v-.03h0v-.08h0s-.01-.03-.01-.03h0s-.01-.01-.01-.01h0v-.03h-.01s-.01-.01-.01-.01h0s-.01-.01-.01-.01h0s-.01-.03-.01-.03h-.01s-.01-.01-.01-.01h-.04s-.01-.01-.01-.01h-.01s-.01-.01-.01-.01h-.09s-.01-.01-.01-.01h-.08s-.01-.01-.01-.01h-.07s-.01-.01-.01-.01h-.01s-.01-.01-.01-.01h-.08s-.01-.01-.01-.01h-.01s-.01-.01-.01-.01h-.01s-.01-.03-.01-.03h0s-.03-.01-.03-.01h0s-.03-.01-.03-.01h-.01s-.01-.03-.01-.03h-.01s-.01-.01-.01-.01h0s-.01-.01-.01-.01h-.01s-.01-.04-.01-.04h-.01s-.01-.01-.01-.01h0s-.01-.03-.01-.03v-.03s-.03-.01-.03-.01h-.01s-.01-.04-.01-.04h0s-.01-.03-.01-.03h0s-.01-.01-.01-.01v-.05s-.03-.03-.03-.03h0v-.04h0v-.12h.01v-.08s.01-.01.01-.01h.01s.01-.03.01-.03v-.03h.01v-.03h.03s.01-.03.01-.03h.01v-.03h.03s.01-.03.01-.03h.01v-.03h.01s.01-.03.01-.03h.03s.01-.01.01-.01h.01s.03-.03.03-.03h.01s.01-.03.01-.03h.01s.01-.03.01-.03h.03s.01-.01.01-.01h.01s.01-.01.01-.01h.01v-.77h0v-1.17h-.44v-.28h0v-.23h0v-.44h0v-.05h0v-.89h0v-.95h0v-.71h0v-.24h0v-.72s-.01-.03-.01-.03v-.2h0v-2.13h0v-.25h0v-.47h0v-.95h0v-.96h0v-.95h0v-.96h-.45v-.96h0v-.6h0v-1.31h0v-.96h0v-.96h0v-1.13h0v-2.04h0v-2.59h0v-.41h0v-.55h-.48v-1.93h0v-.96h-5.83v-1.93h0v-.97h-16.28v-.96h0v-1.93h0v-.97h0v-.97h0v-1.21h0v-.24h0v-.39h0v-.11h0v-.97h0v-.97h0v-.97h0v-.15h0v-.33h0v-.49h0v-1.96h0v-.97h0v-1.96h0v-1.96h0v-.99h0v-1.96h0v-.24h0v-.08h0v-.16h0v-.51h0v-.49h0v-.49h0v-1h.32s.01.01.01.01h46.81l.03-.09v-.03l.04-.07h.01s.01-.04.01-.04h.03s.01-.05.01-.05v-.03s.01-.03.01-.03v-.04s-.03-.07-.03-.07l-.19-.56-.04-.19v-.04l-.03-.15h0s.03-.13.03-.13v-.07s.05-.21.05-.21h0s.04-.17.04-.17h0s.03-.13.03-.13h0s.01-.05.01-.05v-.11s.05-.28.05-.28v-.11s.03-.05.03-.05v-.09s.04-.17.04-.17v-.13s-.01-.35-.01-.35v-.17s-.04-.05-.04-.05l-.04-.11-.04-.05v-.03s-.04-.05-.04-.05l-.03-.05-.19-.17-.09-.09-.05-.05-.05-.03-.05-.04-.07-.03-.17-.03-.12-.03-.19-.04h-.01s-.07-.04-.07-.04l-.07-.04-.07-.15v-.05s-.03-.08-.03-.08v-.07s.04-.08.04-.08l.05-.08.07-.08.05-.05.04-.05.08-.08.08-.09.04-.04.03-.07v-.09s.01-.15.01-.15v-.07s-.04-.05-.04-.05l-.08-.05h-.04s-.16-.04-.16-.04l-.16.03h-.04s-.08.05-.08.05l-.03.04-.05.03-.04.03-.09.04h-.05s-.05.01-.05.01h-.05s-.01-.01-.01-.01h-.07s-.04-.04-.04-.04l-.04-.03v-.04s-.04-.05-.04-.05h-.01s-.03-.09-.03-.09v-.33s-.01-.05-.01-.05v-.03s-.01-.04-.01-.04v-.04s-.03-.09-.03-.09v-.05s-.03-.07-.03-.07v-.07s-.04-.04-.04-.04l-.04-.05-.04-.09-.04-.04v-.04s-.04-.03-.04-.03l-.03-.04-.03-.05-.04-.08-.03-.08-.03-.09-.03-.07v-.04h0s-.01-.21-.01-.21v-.13s.01-.01.01-.01v-.04s.01-.07.01-.07v-.09s.01-.07.01-.07v-.21s-.03-.05-.03-.05v-.03s-.04-.07-.04-.07l-.04-.08-.07-.09-.05-.05-.13-.11v-.04s-.03-.01-.03-.01l-.11-.16v-.05s-.09-.24-.09-.24l-.03-.04-.04-.04h-.03s-.03-.04-.03-.04l-.03-.07v-.21s.01-.07.01-.07v-.04s.01-.08.01-.08v-.19s.04-.05.04-.05l.05-.11.03-.09.03-.07v-.04s.03-.03.03-.03v-.08s-.04-.03-.04-.03l-.03-.03h-.04s-.03-.05-.03-.05l-.03-.03v-.04s-.03-.04-.03-.04v-.03s-.04-.05-.04-.05v-.11s-.03-.03-.03-.03v-.04s-.04-.01-.04-.01l-.04-.04-.03-.05v-.04s-.01-.07-.01-.07v-.03s.01-.01.01-.01l-.11-.13h-.01v-.15s.03-.03.03-.03l.05-.03h.04s.04-.04.04-.04l.03-.05v-.04s.03-.04.03-.04l.04-.05h.01s.07-.07.07-.07l.05-.04h.01s.01-.01.01-.01l.03-.03h.01s.01-.07.01-.07h.01v-.12s-.03-.04-.03-.04v-.09s.01-.03.01-.03l-.03-.07-.04-.04h-.09s-.11-.01-.11-.01h-.13s-.04-.05-.04-.05v-.04s-.03-.04-.03-.04v-.07s.03-.03.03-.03v-.05s.04-.03.04-.03l.03-.03h.04s.09-.07.09-.07h.05s.04-.03.04-.03h.05l.13.03.07.03h.03s.03.01.03.01l.05.03.19.07.04.03.05.07v.09s.01.04.01.04v.03s.03.01.03.01h.05v-.03s.08-.15.08-.15l.04-.11.04-.08.03-.03.03-.05v-.03s.03-.04.03-.04v-.04s.03-.07.03-.07v-.11s.01-.04.01-.04v-.05s0-.07,0-.07l.04-.11.03-.07.05-.04.07-.04.04-.03h.13s.07.04.07.04l.05.04.04.04.04.05h.01s.03.03.03.03h.05s.04.01.04.01h.08v-.03s.04-.03.04-.03v-.05s.03-.08.03-.08v-.07s-.04-.01-.04-.01h-.03s-.08,0-.08,0h-.03s-.03-.03-.03-.03v-.03s-.01-.03-.01-.03v-.09s.05-.05.05-.05l.04-.05.03-.03.04-.03h.04s.07-.01.07-.01h.15s.11.03.11.03h.2s.07.03.07.03h.08s.03.03.03.03l.05.03h.05s.01.01.01.01h.01s.04.04.04.04l.04.05.03.05v.07s.01.07.01.07h0v.19s.03.04.03.04l.03.05.04.08.05.07.07.05.07.03h.31s.07-.04.07-.04l.03-.03.05-.05.04-.05.03-.07v-.19s-.03-.04-.03-.04h-.03s-.03-.01-.03-.01h-.01s.01.08.01.08v.09s-.04.01-.04.01h-.01s-.03.01-.03.01l-.04-.03-.03-.05v-.05s-.01-.04-.01-.04v-.04s.04-.03.04-.03v-.03s.01-.03.01-.03v-.08l-.03-.04v-.03s-.04-.01-.04-.01h-.07v-.03l.03-.03.03-.04v-.15s-.04-.07-.04-.07l-.03-.03-.03-.05-.04-.03-.04-.03h-.03s-.03-.04-.03-.04v-.03s-.03-.04-.03-.04v-.05s0-.04,0-.04v-.08s.03-.03.03-.03v-.04s.03-.03.03-.03l.04-.04.04-.04.05-.04.04-.03h.04s.05-.03.05-.03h.04s.04,0,.04,0h.03s.03.04.03.04h.01v.12s.05.04.05.04l.05.03h.03s.01.01.01.01l.05.04.07.03h.04s.07.04.07.04h.13s.03-.05.03-.05h0s.04-.08.04-.08l.03-.07v-.09s.03-.04.03-.04v-.04s.03-.03.03-.03h.05s.03.03.03.03h.03s.05.01.05.01h.01s.04-.03.04-.03l.09-.05.04-.03.05-.04.09-.05.05-.04.05-.08.05-.05.04-.03h.04s.03-.03.03-.03h.03s.01.04.01.04v.03s-.03.03-.03.03l-.04.05v.04s-.03.05-.03.05v.04s-.01.05-.01.05v.04s.03.04.03.04h.01v.03s.05.01.05.01l.04.03.04.03v.04s.04.05.04.05l.03.04.04.04.03.03h.04s.03.03.03.03h.07s.03-.04.03-.04l.04-.03h.03s.04-.04.04-.04l.03-.03.03-.03v-.03s0-.01,0-.01h-.01s-.05-.01-.05-.01h-.04s-.03-.01-.03-.01v-.03s-.03-.03-.03-.03v-.03s.03-.01.03-.01h.01l.03-.03.04-.03.05-.05.04-.04v-.04s.03-.03.03-.03h0s-.01-.03-.01-.03h-.01s-.03-.03-.03-.03v-.03s-.03-.07-.03-.07v-.05s-.03-.04-.03-.04v-.07s-.03-.07-.03-.07v-.15s.01-.07.01-.07v-.04l.03-.03v-.03h.11s.04.05.04.05l.04.03h.03s.04.03.04.03h.08s.03,0,.03,0h.04s.07-.03.07-.03h.04s.04-.04.04-.04l.03-.03v-.05s-.05-.03-.05-.03l-.05-.05-.03-.03-.03-.04v-.03s-.01-.03-.01-.03v-.04s.03-.04.03-.04l.03-.05.03-.04.04-.03h.04s.03.04.03.04l.04.07.03.04.05.04.07.07.08.05.05.04h.03s.01.01.01.01h.04s.03.01.03.01v-.03s0-.03,0-.03v-.04s-.04-.05-.04-.05l-.03-.07v-.08l.03-.04.03-.03.03-.05v-.05s.03-.05.03-.05v-.07s.03-.07.03-.07v-.07s.03-.07.03-.07v-.07s.03-.05.03-.05v-.04s.04-.04.04-.04h.03s.04-.03.04-.03h.05s.05.04.05.04l.04.03h.07s.04.01.04.01h.09s.03-.01.03-.01h.01s.01.04.01.04v.04s-.04.04-.04.04l-.04.05v.03s-.03.04-.03.04v.04s-.01.04-.01.04v.03s.03.04.03.04l.03.03h.03s.03.01.03.01h.08s.09-.04.09-.04l.07-.03.08-.04h.08s.08-.04.08-.04l.09-.03h.03s.04-.05.04-.05l.03-.03.03-.03h.03s.04,0,.04,0h.13s.07,0,.07,0h.04s.05-.03.05-.03v-.03s.05-.03.05-.03v-.33s-.03-.03-.03-.03l-.03-.05-.03-.07v-.07s-.01-.05-.01-.05v-.17s.03-.05.03-.05v-.04s.01-.03.01-.03h0s-.01-.03-.01-.03h-.01s-.03-.03-.03-.03h-.03s-.01-.03-.01-.03v-.09s-.01-.04-.01-.04v-.04s.01-.01.01-.01v-.12s0-.04,0-.04v-.03s.03-.04.03-.04h.03s.05-.03.05-.03h.07s.04-.03.04-.03h.19s.04-.04.04-.04h.09s.01-.01.01-.01h.04s.04.01.04.01h.03s.04,0,.04,0l.04-.03h.03s.01-.04.01-.04v-.03s.04-.04.04-.04l.05-.05.05-.05.03-.03.04-.04.03-.04.03-.05.03-.04v-.03s.03-.05.03-.05v-.05s0-.03,0-.03l-.03-.08-.04-.08-.03-.07v-.05s-.01-.07-.01-.07v-.03s.04-.09.04-.09l-.04.03-.05.03h-.01s-.09.05-.09.05v.03s-.04.07-.04.07v.11l-.03.07h0s-.01.01-.01.01l-.03.05.03.04v.07s-.07-.03-.07-.03h-.19s-.07.03-.07.03h-.01l-.05.03h-.08s-.09.04-.09.04h-.03s-.07-.03-.07-.03v-.07s.07-.08.07-.08h.01s-.01-.01-.01-.01l-.03-.04-.09.03h-.11s-.01.03-.01.03h-.01s-.08.08-.08.08l-.05.08-.07.04-.04.03h-.01l-.04.05-.04.07-.07.04-.07.07h-.03s-.01.03-.01.03h-.03s-.09.01-.09.01h-.11s-.01-.01-.01-.01h-.08l-.07.04-.05-.03v-.04s.03-.03.03-.03l.03-.08.03-.09v-.17l-.03-.07-.04-.05-.07.03h-.09s-.05-.01-.05-.01v-.03h-.03l-.03-.05-.05-.04-.08-.03h-.08s-.07-.05-.07-.05h-.03s-.01-.03-.01-.03l-.05-.04h-.01s-.04-.05-.04-.05v-.05s.08.01.08.01h.03s.01.01.01.01h.05l.05.04.05.03v-.07s.01-.04.01-.04h.08s.04.08.04.08l.05.03.08.03v-.03s.01-.03.01-.03l-.04-.08h-.05s-.03-.03-.03-.03l.03-.04h.07s.08-.01.08-.01h.01v-.05s.03-.03.03-.03v-.08l.04-.08-.05-.05h0s-.01-.04-.01-.04v-.03s-.01-.01-.01-.01h-.08l-.08-.04-.03-.08v-.07h0v-.04l.04-.08-.05-.05h-.04s-.08-.04-.08-.04h-.12s-.05.03-.05.03h-.01s-.03.01-.03.01l-.08.07-.09-.04h-.17l.04-.11v-.05s-.03-.04-.03-.04l-.03-.04-.03-.05v-.04s0-.03,0-.03h0s.05-.05.05-.05l.04-.04v-.04s0-.04,0-.04h-.03s-.07-.01-.07-.01h-.05s-.03.01-.03.01h0s-.03.03-.03.03l-.03.03-.08-.12-.11-.15v-.04s-.05-.05-.05-.05h-.01v-.03l-.05-.09-.07-.11-.04-.04-.03-.04h-.12s-.12,0-.12,0h-.03s-.05.04-.05.04h-.01l-.05.08h-.04s-.04-.05-.04-.05h-.05s-.03.01-.03.01l-.05.03-.15.03h-.03s-.07-.05-.07-.05v-.17s-.07-.09-.07-.09v-.03s-.04-.04-.04-.04l.07-.07v-.17h-.08s-.05,0-.05,0h-.07l-.08-.07-.03-.11v-.04h0s.01-.08.01-.08v-.12s.05-.07.05-.07v-.04s.08-.07.08-.07v-.07s.03-.04.03-.04v-.03l.08-.11v-.11s-.01-.04-.01-.04l-.04-.07h-.03s-.01-.01-.01-.01l-.08-.04h-.13l-.04.03-.09.05h-.16l-.12-.03-.09-.11-.04-.08v-.03s-.01-.12-.01-.12v-.03s.04-.04.04-.04v-.12s.08-.07.08-.07l.05-.11v-.03s.09-.07.09-.07h.01s.04-.05.04-.05l.08-.09h0s.12-.12.12-.12l.07-.09.04-.04h0s.04-.07.04-.07l.11-.08h.01s.09-.05.09-.05h.11s.04,0,.04,0h.08s.17-.01.17-.01h.11l.03-.03v-.05s-.01-.04-.01-.04v-.04s-.09-.12-.09-.12l-.04-.05-.08-.09-.04-.04v-.07s-.01-.09-.01-.09v-.11s-.03-.09-.03-.09l-.03-.09v-.08s.03-.01.03-.01v-.09s.01-.07.01-.07v-.04s.01-.05.01-.05v-.09s.03-.05.03-.05v-.05s.01-.03.01-.03v-.03h.01v-.12s.03-.04.03-.04v-.05s.01-.01.01-.01h.01v-.03h.01v-.04l.04-.07h0s.01-.04.01-.04h.01v-.07h.01v-.03h.01v-.03l.03-.04h.01v-.08s.01-.01.01-.01v-.03s.01-.03.01-.03h0s.01-.03.01-.03v-.07s.07-.16.07-.16v-.05s.05-.17.05-.17v-.09s.01-.01.01-.01l.03-.15v-.04s.03-.03.03-.03h0s.03-.05.03-.05l.03-.03h.01s.01-.04.01-.04l.03-.03v-.03s.11-.08.11-.08l.15-.09.17-.07.12-.04.13-.04.11-.04.07-.04h.03s.05-.08.05-.08v-.03s.03-.04.03-.04v-.07l.04-.16.05-.2v-.03s.05-.05.05-.05l.11-.21.03-.09v-.03s.01-.09.01-.09h-.01s-.01-.07-.01-.07l-.04-.04-.05-.04-.07-.05-.03-.03-.12-.09-.11-.03h-.01s-.13-.03-.13-.03h-.13s-.09-.07-.09-.07h-.01l-.07-.11-.04-.07-.05-.04-.12-.05h-.05s-.05.01-.05.01l-.04.04-.03.03v.03s-.04.03-.04.03v.03s-.04.01-.04.01l-.07.03h-.05s-.08.01-.08.01l-.04-.03-.04-.04-.03-.04v-.05s0-.08,0-.08v-.03s-.03-.03-.03-.03h-.01s-.01-.01-.01-.01l-.03-.03h-.01s-.03-.05-.03-.05l-.03-.07-.04-.07v-.05h-.03v-.03s-.03-.01-.03-.01l-.04-.04h-.01s-.09-.08-.09-.08l-.08-.05-.03-.03-.12-.07-.08-.04-.03-.03-.05-.03-.08-.05-.07-.04-.05-.04-.07-.03-.05-.03-.08-.03h-.03s-.07-.05-.07-.05h-.01s-.01-.04-.01-.04l-.03-.04v-.05s-.03-.03-.03-.03v-.03s-.03-.03-.03-.03v-.03l-.03-.05v-.09h0v-.07s-.01-.03-.01-.03l-.03-.04-.04-.05-.07-.05h-.07s-.01-.01-.01-.01h-.03s-.03-.01-.03-.01h-.05s-.04-.04-.04-.04h-.05s-.09-.08-.09-.08l-.09-.04-.12-.07-.13-.09-.03-.03-.04-.03-.17-.15-.05-.13-.05-.15v-.03s-.09-.15-.09-.15v-.04s-.11-.13-.11-.13l-.05-.08-.03-.05-.03-.05v-.03s-.03-.11-.03-.11v-.04l.03-.13.03-.15v-.03s-.03-.12-.03-.12v-.11l-.03-.13v-.31s.11-.15.11-.15l.12-.11.07-.12v-.08s-.03-.03-.03-.03l-.04-.04v-.05s0-.07,0-.07l.04-.07v-.08s-.04-.09-.04-.09l-.08-.05v-.03s.01-.04.01-.04l.04-.05.05-.05v-.07s-.04-.12-.04-.12l-.04-.07-.29-.45-.11-.15-.07-.19-.04-.2v-.03l.03-.19.11-.17.2-.15.13-.08.07-.08v-.12s0-.17,0-.17l-.04-.11-.04-.13v-.05s-.03-.05-.03-.05v-.05l.03-.03.04-.07.03-.08.05-.11.09-.11.03-.13.11-.2.07-.11.04-.09.04-.07.03-.09.04-.05.11-.09.07-.05.08-.08v-.11s-.04-.11-.04-.11v-.05s-.09-.07-.09-.07l-.04-.04h-.01l-.21-.09-.29-.09-.35-.12-.33-.09-.27-.07-.25-.05h-.47s-.17-.07-.17-.07l-.11-.11-.08-.12-.05-.12v-.12s.05-.08.05-.08l.07-.11.12-.07.12-.03.07-.03.12-.09.09-.12.05-.15-.03-.09-.03-.15.05-.09.09-.05.07-.07.05-.08.08-.08.09.03.09-.03.12.04h.13l.31-.09.29-.09.21-.16v-.03s.03-.33.03-.33h0s-.01-.25-.01-.25v-.44s-.07-.16-.07-.16l-.03-.05-.03-.05h-.01s-.15-.15-.15-.15l-.19-.25-.2-.23-.07-.12.03-.05.15-.09.04-.08v-.12l-.07-.27-.07-.13-.12-.27-.07-.12v-.17l.03-.07.03-.07v-.07s0-.08,0-.08l-.12-.13-.04-.09v-.11s.03-.08.03-.08l.11-.12.03-.04.04-.09.04-.09v-.09l-.03-.04v-.03s-.11-.11-.11-.11l-.03-.05-.03-.08-.05-.05-.05-.07-.04-.08v-.05s-.04-.15-.04-.15v-.07s-.03-.08-.03-.08l.03-.19.08-.31.04-.15.07-.17.03-.09v-.11l-.04-.12v-.03s-.05-.09-.05-.09l-.05-.2.03-.28.11-.23.07-.09.08-.07.04-.05.04-.08.04-.05.03-.09v-.09l-.05-.13-.08-.12-.08-.16v-.15s.01-.13.01-.13l.08-.19.03-.17v-.19s.01-.11.01-.11l-.04-.08-.04-.07v-.11s0-.11,0-.11l.03-.04h0s.07-.12.07-.12l.08-.13.05-.08.04-.05.07-.08.04-.09.03-.08.04-.09-.03-.09v-.09s-.03-.08-.03-.08v-.09s.07-.12.07-.12l.15-.11.07-.13.05-.25v-.11s-.08-.13-.08-.13l-.07-.21v-.07s-.01-.03-.01-.03v-.41s0-.16,0-.16l-.07-.16-.03-.04-.04-.07-.07-.08-.11-.09-.15-.04-.16-.11-.04-.03-.04-.04-.07-.03-.08-.04-.09-.07h-.01s-.03-.12-.03-.12l-.04-.16v-.2s-.05-.15-.05-.15l-.03-.04-.05-.07-.03-.03-.04-.05-.12-.07-.17-.03h-.16l-.03-.03-.04-.03-.03-.03-.04-.05-.03-.09-.03-.11-.04-.07-.05-.08-.03-.09v-.16s-.03-.12-.03-.12l.03-.13v-.05s.04-.12.04-.12l.04-.08.04-.09.08-.05.13-.09v-.07s.03-.07.03-.07v-.05s.01-.01.01-.01v-.05s-.27-.32-.27-.32l-.03-.09v-.09s-.03-.05-.03-.05v-.09s.01-.03.01-.03l.03-.05.05-.05.05-.04v-.07s-.04-.05-.04-.05l-.07-.08-.03-.05v-.05l.04-.04.03-.07v-.12s-.07-.23-.07-.23h0s-.07-.09-.07-.09l-.13-.09-.47-.25-.11-.09-.05-.09-.11-.15-.03-.07-.04-.07-.03-.11v-.05s-.01-.11-.01-.11v-.15l.03-.13h-4.45s-.03,0-.03,0h0v.03h-.04s-.01-.03-.01-.03h-.09s-.03-.03-.03-.03h-.01s-.03-.03-.03-.03l-.04-.03h-.01s-.01-.01-.01-.01h-.01v-.03h-.11s-.04-.01-.04-.01h-.05s-.01.03-.01.03h-.01v.04h0s-.01.01-.01.01h-.03v.03s-.04.01-.04.01h0s-.01.01-.01.01h0s-.01.01-.01.01h-.01s-.01.01-.01.01h-.04s-.03.03-.03.03h-.04s-.01.01-.01.01h-.03s-.01,0-.01,0h0s-.01,0-.01,0h-.11s-.01.01-.01.01h-.01s-.01.03-.01.03h0s-.01.01-.01.01h-.01s-.01.01-.01.01h-.01s-.01.03-.01.03h-.03s-.01.01-.01.01h-.03s-.01.01-.01.01h-.01s-.01,0-.01,0h-.01s-.01.01-.01.01h-.01s-.03.01-.03.01h-.08s-.01.01-.01.01h-.04s0,0,0,0h-.03s-.01.01-.01.01h-.03s-.01.01-.01.01h-.01s-.01.01-.01.01h-.03s-.01,0-.01,0h-.01.01-.04v.03h0s-.01.03-.01.03h-.03s-.01-.01-.01-.01h0s-.01.01-.01.01h0v.03h.01s-.01.01-.01.01h-.01s-.01-.01-.01-.01h-.01v.03h-.01s-.01.01-.01.01h-.01.01-.03s-.01.01-.01.01h-.01s-.01-.01-.01-.01h-.03s-.03-.01-.03-.01h-.04s-.01.01-.01.01h0s-.01.03-.01.03h-.01.01-.04v-.03h0s-.01-.01-.01-.01h0s.01-.05.01-.05h0s-.01-.03-.01-.03h-.01s-.01-.01-.01-.01h0s-.01-.01-.01-.01h-.03s-.01.01-.01.01h0s-.01.01-.01.01h-.01s-.01,0-.01,0h0v.03h0s-.01.01-.01.01h-.03s-.01-.03-.01-.03h-.01s-.01-.01-.01-.01h0s-.01-.01-.01-.01h-.03s-.01-.01-.01-.01h-.04s-.01.01-.01.01h-.01s-.01.01-.01.01h-.01s-.01.01-.01.01h-.01s-.01-.01-.01-.01h-.03v-.03h.01v-.03h-.01v-.03h-.03v-.03h-.01v-.03h-.01s-.01-.01-.01-.01h0v-.03h0v-.03h-.01s-.01-.01-.01-.01h0s-.01-.03-.01-.03h0s.01-.01.01-.01h0v-.03h-.01s-.04-.03-.04-.03h-.01s-.01-.01-.01-.01v-.03s-.04-.04-.04-.04v-.03s-.01-.04-.01-.04h0s-.01-.03-.01-.03v-.04h.04s.03-.01.03-.01h.04v-.03h0s-.01-.04-.01-.04v-.07s-.03-.03-.03-.03v-.12h0s.01-.01.01-.01h.04s.01.01.01.01h.01v-.03h0s-.03-.04-.03-.04h0v-.03h-.01s-.01-.01-.01-.01h0s-.01-.03-.01-.03h-.05s-.01-.01-.01-.01h0s-.01-.03-.01-.03v-.03s.01-.01.01-.01h-.03s-.01.01-.01.01v-.03h-.04v-.03h-.01s.01-.01.01-.01h.03v-.03h.01s-.01-.03-.01-.03h-.01s-.01.01-.01.01h0s.01-.03.01-.03h0v-.03h-.01s-.01-.03-.01-.03h0s-.01-.01-.01-.01h-.01s-.04-.04-.04-.04h-.03v-.03h-.05s-.01.01-.01.01h0v-.05s-.01-.01-.01-.01h0v-.03h-.01v-.03h0s.01-.03.01-.03h0s-.01-.03-.01-.03h0s-.01-.01-.01-.01h-.03s-.01-.01-.01-.01h-.04s-.04.03-.04.03h0s-.04.01-.04.01h0s-.01-.01-.01-.01h-.01v-.03h0s-.01-.03-.01-.03h.01s-.01-.03-.01-.03h0v-.03h-.01s-.01-.03-.01-.03h-.01s-.01-.03-.01-.03h0s-.01-.03-.01-.03h0v-.03h0s-.01-.01-.01-.01h-.03v.03h-.05s-.01.01-.01.01h0s-.01-.03-.01-.03h-.01s-.01-.01-.01-.01h-.11s-.01-.01-.01-.01h0s-.01.01-.01.01h-.03s-.01,0-.01,0h-.01s-.01-.01-.01-.01h-.07s-.04-.05-.04-.05h0v-.03h0s-.03-.01-.03-.01h-.03s-.01-.03-.01-.03h-.03s-.01-.01-.01-.01h0s-.01-.03-.01-.03h-.03s-.01.01-.01.01h-.07s-.03.04-.03.04h0v.03h-.01v.03h-.05s-.01.03-.01.03h-.01s-.01.01-.01.01h-.01s-.01.01-.01.01h-.03s-.01.01-.01.01h-.05s-.01.01-.01.01h-.01v-.03h-.01v-.03h0s-.01-.03-.01-.03h-.03s-.01-.01-.01-.01h0v-.03h0v-.05s.01-.01.01-.01h.01v-.03h0s.01-.01.01-.01h0v-.05s.01-.01.01-.01h.01v-.08s-.01-.01-.01-.01h0v-.03h-.01s-.03-.01-.03-.01h-.03v-.03h-.01s-.01-.03-.01-.03h0s-.01-.01-.01-.01h0s-.01-.01-.01-.01h-.01s-.01-.01-.01-.01h-.01s-.01.01-.01.01h-.01s-.01-.01-.01-.01h-.01s-.01.01-.01.01h-.01s-.01.01-.01.01h-.03s-.01.01-.01.01h-.01s-.01-.01-.01-.01h0s-.01-.01-.01-.01h-.01s-.01-.01-.01-.01h-.03s-.01-.04-.01-.04h-.01s-.01-.03-.01-.03h-.03s-.01-.03-.01-.03h-.01v-.05h0v-.03h0v-.03h-.01s-.01-.01-.01-.01h-.03s-.03-.05-.03-.05h-.01v-.03h-.01v-.03h-.01v-.03h-.03v-.03h-.03s-.01-.01-.01-.01h-.05s-.01-.03-.01-.03h0v-.03h0v-.03h-.01v-.03h-.01v-.03h0s-.03-.01-.03-.01h-.01s-.01-.04-.01-.04h-.01v-.03h0v-.03h.01v-.03h-.01v-.03h0s-.01-.01-.01-.01h0s-.01-.03-.01-.03h-.01s-.01.01-.01.01h0s-.01-.01-.01-.01h0v-.03h0v-.03h-.03s-.01.03-.01.03h0s.01.01.01.01h0s.01.01.01.01h0s-.01.01-.01.01h-.01s-.01-.03-.01-.03h0s.01-.03.01-.03h0v-.03h-.01s-.01-.01-.01-.01h-.01s0,0,0,0h0s-.01.03-.01.03h-.01s-.01.01-.01.01h0s-.01-.01-.01-.01h-.03s-.01.01-.01.01h-.01v-.03h-.05s-.01.01-.01.01h-.03v-.03h0v-.03h-.04s-.01-.01-.01-.01h-.01v-.03h0s-.01-.01-.01-.01h-.01s-.01.01-.01.01h-.01v-.04h-.01v-.03h-.01s-.01,0-.01,0h-.03s0,0,0,0h.01v-.03h.03v-.03h-.03s-.03-.03-.03-.03h-.01s0,0,0,0h-.01s-.01.03-.01.03h0v.03h-.03v-.03h-.01v-.03h.01v-.03h.01s-.01-.01-.01-.01h-.01s-.01,0-.01,0v.03h-.04s-.03.01-.03.01h0v.03h.01s-.01.01-.01.01h-.01s-.01-.03-.01-.03v-.03h-.04s-.01-.01-.01-.01h-.03v-.03h-.01v-.05s.01-.01.01-.01h-.05v-.03h-.01s-.01-.01-.01-.01h-.01s-.01-.01-.01-.01h-.01s-.03.03-.03.03h-.03s-.01-.03-.01-.03h-.01s-.01-.03-.01-.03v-.03s-.03-.03-.03-.03l-.04-.04h-.03v-.03l-.03-.03h-.03s-.03-.03-.03-.03h-.03s-.04-.03-.04-.03h-.01s-.01-.01-.01-.01h-.03s-.04-.03-.04-.03h-.05s-.03-.01-.03-.01h-.11s-.01.01-.01.01h-.04s-.03.01-.03.01h-.04s-.03-.01-.03-.01h-.01s-.01-.03-.01-.03l-.04-.04v-.03s-.04-.03-.04-.03l-.03-.04h-.01s-.03-.05-.03-.05l-.03-.03-.03-.03-.04-.03-.03-.04h-.01s-.04-.05-.04-.05l-.03-.04-.03-.03-.03-.03-.03-.03v-.03s-.07-.03-.07-.03l-.05-.05-.03-.04-.05-.04-.03-.04v-.03s-.04-.01-.04-.01h-.03s-.04-.05-.04-.05h-.03l-.03-.03-.05-.04-.13-.08-.11-.07-.08-.05h-.03s-.01-.03-.01-.03h-.05s-.07-.03-.07-.03h-.03s-.03.01-.03.01h-.09s-.01-.03-.01-.03l-.03-.03-.04-.05h-.03s-.01-.03-.01-.03h-.04s-.05-.04-.05-.04h-.03s-.01-.04-.01-.04v-.04s-.04-.07-.04-.07h0v-.03l-.04-.09v-.04s-.03-.03-.03-.03h-.01v-.03s-.03-.01-.03-.01l-.03-.03h-.03s-.07-.05-.07-.05h-.01s-.04-.04-.04-.04l-.07-.04-.03-.03h-.01s-.04-.05-.04-.05l-.04-.04v-.03s-.03-.01-.03-.01h-.04s-.03-.03-.03-.03h-.07v.03l-.04.07v.03s-.03.01-.03.01h-.01s-.03.01-.03.01h-.01s-.03-.03-.03-.03l-.03-.03v-.03s-.03-.03-.03-.03h-.05v.03h0s.01.03.01.03v.03s.03.01.03.01h0v.03h0s-.01.03-.01.03h-.04s-.01.01-.01.01l-.03-.03-.03-.03v-.03s-.04-.03-.04-.03l-.04-.03h-.01s-.01-.01-.01-.01h-.04s-.01.03-.01.03h0s-.01.04-.01.04v.05s-.01.01-.01.01h-.04s-.03,0-.03,0h-.01s-.03-.03-.03-.03v-.03s-.03-.04-.03-.04v-.04s-.01-.01-.01-.01h0v-.07s-.03-.03-.03-.03h-.01s-.03-.04-.03-.04h-.05s-.01.03-.01.03h0s-.01.03-.01.03h-.01v.03h-.01s-.01.01-.01.01h-.03s-.04-.04-.04-.04h-.01s-.03-.03-.03-.03h-.01v-.08s.03-.03.03-.03l.03-.05v-.04s.04-.03.04-.03h.01s.03-.04.03-.04h.01s.01-.04.01-.04h.01v-.07s-.04-.07-.04-.07v-.04h-.01v-.08s.01-.04.01-.04v-.07s.03-.01.03-.01h0s.01-.03.01-.03h.01s.01-.03.01-.03v-.03h0v-.07h-.01.01s.01-.03.01-.03h.01s.01-.01.01-.01h.01s.03.03.03.03h.05s.01-.01.01-.01h.03s.01-.01.01-.01h.01s.01-.01.01-.01h1.13s.53-.01.53-.01h3.23s.29.01.29.01h8.69s.39-.01.39-.01h15.63s.05-.01.05-.01h12.46v.08h0v1.04h0v1.04h0v.52h0v.52h0v1.04h0v1.04h0v1.04h0v2.07h0v.79h0v.25h0v2.07h0v1.04h0v1.03h0v1.03h0v1.03h0v1.03h0v1.03h0v1.03h0v1.03h0v1.03h0v1.03h0v1.03h0v2.04h0v2.04h0v2.04h0v1.01h0v1.01h0v1.01h0v4.57h0v1.51h0v1h0v2.03h0v1.01h0v1h0v1h0v1.01h0v1h0v3.01h0v1h0v1h0v2.99h0v1h0v1h0v.99h0v1h0v.49h0v.49h0v1h0v.99h0v.99h0v1.99h0v1.01h0v.99h0v.75h0v.21h0v.76h0v.25h0v.99h0v1.71h0v1.24h0v.99h0v.97h0v.99h0v.97h0v.99h0v.97h0v2.93h0v.97h0v.97h0v.97h0v.97h0v.97h0v2.91h0v.97h0v1.93h0v1.21h0v.72h0v.96h0v1.93h0v.96h0v.96h0v.96h0v3.84h0v.96h0v.96h0v1.91h0v.96h0v.95h0v.96h0v.95h0v1.91h0v.24h0v.68h0v.97h0v2.85h0" vector-effect="none"/>
  <g>
    <polygon class="cls-1" points="168.62 169.94 241.18 169.94 241.18 189.94 168.62 189.94 158.62 179.94 168.62 169.94"/>
    <polygon class="cls-2" points="168.45 169.94 202.78 169.94 202.78 189.94 168.45 189.94 158.62 179.94 168.45 169.94"/>
  </g>
  <g>
    <polygon class="cls-1" points="270.5 167.87 159.3 167.87 159.3 147.87 270.5 147.87 280.5 157.87 270.5 167.87"/>
    <rect class="cls-2" x="159.3" y="147.87" width="70.8" height="20"/>
  </g>
  <text class="cls-7" transform="translate(20.07 249.97)"><tspan x="0" y="0">Source: Government of Canada (2021), </tspan><tspan x="0" y="14.4">Statistics Canada (2021)</tspan></text>
  <line class="cls-3" x1="20.48" y1="237.51" x2="339.93" y2="237.51"/>
  <text class="cls-5" transform="translate(255.42 161.86) scale(.58)"><tspan x="0" y="0">5%</tspan></text>
  <text class="cls-5" transform="translate(168.94 183.69) scale(.58)"><tspan x="0" y="0">3.4%</tspan></text>
  <rect class="cls-2" x="239.9" y="69.94" width="10" height="10"/>
  <rect class="cls-1" x="239.9" y="89.94" width="10" height="10"/>
  <text class="cls-8" transform="translate(252.23 79.45)"><tspan x="0" y="0">Rest of Alberta</tspan></text>
  <text class="cls-8" transform="translate(252.23 99.59)"><tspan x="0" y="0">Other Provinces</tspan></text>
</svg>