<?xml version="1.0" encoding="UTF-8"?>
<svg id="Layer_1" data-name="Layer 1" xmlns="http://www.w3.org/2000/svg" viewBox="0 0 720 384.26">
  <defs>
    <style>
      .cls-1 {
        stroke: #231f20;
      }

      .cls-1, .cls-2, .cls-3, .cls-4 {
        fill: none;
        stroke-miterlimit: 10;
      }

      .cls-5 {
        fill: #efc419;
      }

      .cls-6 {
        fill: #d2d2d1;
        font-size: 8px;
      }

      .cls-6, .cls-7, .cls-8 {
        font-family: OpenSans, 'Open Sans';
      }

      .cls-9 {
        fill: #6fc7e9;
      }

      .cls-10, .cls-11 {
        font-family: OpenSans-Bold, 'Open Sans';
        font-weight: 700;
      }

      .cls-10, .cls-11, .cls-8 {
        fill: #231f20;
      }

      .cls-10, .cls-8 {
        font-size: 12px;
      }

      .cls-2 {
        stroke-width: .25px;
      }

      .cls-2, .cls-3 {
        stroke: #58595b;
      }

      .cls-3 {
        stroke-width: .5px;
      }

      .cls-7 {
        fill: #808285;
        font-size: 10px;
      }

      .cls-12 {
        fill: #00a28a;
      }

      .cls-11 {
        font-size: 20px;
      }

      .cls-4 {
        stroke: #d2d2d1;
      }
    </style>
  </defs>
  <text class="cls-11" transform="translate(13.54 28.4)"><tspan x="0" y="0">Wood Buffalo Has the Largest Wage Gap Among Alberta’s Major Cities</tspan></text>
  <text class="cls-8" transform="translate(246.21 345.66)"><tspan x="0" y="0">Upper Income</tspan></text>
  <text class="cls-8" transform="translate(29.83 345.74)"><tspan x="0" y="0">Lower Income</tspan></text>
  <text class="cls-6" transform="translate(5.54 378.49)"><tspan x="0" y="0">Sources: Alberta Wage &amp; Salary Survey (2022), Statistics Canada (2021) </tspan></text>
  <circle class="cls-5" cx="24.53" cy="341.51" r="3.92"/>
  <text class="cls-8" transform="translate(133.17 345.51)"><tspan x="0" y="0">Middle Income</tspan></text>
  <circle class="cls-9" cx="127.06" cy="341.43" r="3.92"/>
  <circle class="cls-12" cx="240.01" cy="341.35" r="3.92"/>
  <text class="cls-10" transform="translate(103.88 107.18)"><tspan x="0" y="0">CALGARY</tspan></text>
  <text class="cls-10" transform="translate(85.4 180.16)"><tspan x="0" y="0">EDMONTON</tspan></text>
  <text class="cls-10" transform="translate(59.09 253.14)"><tspan x="0" y="0">WOOD BUFFALO</tspan></text>
  <text class="cls-10" transform="translate(496.4 228.57)"><tspan x="0" y="0">$24.19+</tspan></text>
  <text class="cls-10" transform="translate(455.57 155.46)"><tspan x="0" y="0">$15.70+</tspan></text>
  <text class="cls-10" transform="translate(446.1 83.01)"><tspan x="0" y="0">$17.70+</tspan></text>
  <text class="cls-7" transform="translate(397.44 282.49)"><tspan x="0" y="0">$25</tspan></text>
  <text class="cls-10" transform="translate(342.19 301.06)"><tspan x="0" y="0">Averagle Hourly Wage</tspan></text>
  <text class="cls-7" transform="translate(643.76 281.9)"><tspan x="0" y="0">$50</tspan></text>
  <g>
    <line class="cls-3" x1="163.99" y1="169.33" x2="401.22" y2="169.33"/>
    <line class="cls-3" x1="163.99" y1="175.75" x2="488.33" y2="175.75"/>
    <line class="cls-3" x1="163.99" y1="182.17" x2="554.45" y2="182.17"/>
  </g>
  <circle class="cls-5" cx="401.22" cy="169.33" r="5.12"/>
  <circle class="cls-9" cx="488.33" cy="175.75" r="5.12"/>
  <circle class="cls-12" cx="554.45" cy="182.17" r="5.12"/>
  <g>
    <line class="cls-3" x1="163.99" y1="242.37" x2="400.53" y2="242.37"/>
    <line class="cls-3" x1="163.99" y1="248.79" x2="516.46" y2="248.79"/>
    <line class="cls-3" x1="163.99" y1="255.21" x2="636.78" y2="255.21"/>
  </g>
  <circle class="cls-5" cx="400.53" cy="242.37" r="5.12"/>
  <circle class="cls-9" cx="516.46" cy="248.79" r="5.12"/>
  <circle class="cls-12" cx="636.78" cy="255.21" r="5.12"/>
  <g>
    <line class="cls-3" x1="163.99" y1="109.13" x2="564.61" y2="109.13"/>
    <line class="cls-3" x1="163.99" y1="102.71" x2="485.99" y2="102.71"/>
    <line class="cls-3" x1="163.99" y1="96.3" x2="391.74" y2="96.3"/>
  </g>
  <circle class="cls-9" cx="485.99" cy="102.71" r="5.12"/>
  <circle class="cls-12" cx="564.61" cy="109.13" r="5.12"/>
  <circle class="cls-5" cx="391.74" cy="96.3" r="5.12"/>
  <line class="cls-2" x1="163.99" y1="79.65" x2="163.99" y2="271.85"/>
  <line class="cls-2" x1="408.09" y1="263.57" x2="408.09" y2="271.85"/>
  <line class="cls-2" x1="652.19" y1="263.57" x2="652.19" y2="271.85"/>
  <line class="cls-1" x1="400.53" y1="231.59" x2="636.78" y2="231.59"/>
  <line class="cls-1" x1="401.22" y1="158.55" x2="554.45" y2="158.55"/>
  <line class="cls-1" x1="391.74" y1="85.52" x2="564.61" y2="85.52"/>
  <line class="cls-4" x1="5.95" y1="368.29" x2="709.82" y2="368.29"/>
</svg>