<?xml version="1.0" encoding="UTF-8"?>
<svg id="Layer_1" data-name="Layer 1" xmlns="http://www.w3.org/2000/svg" width="360" height="406.2" xmlns:xlink="http://www.w3.org/1999/xlink" viewBox="0 0 360 406.2">
  <defs>
    <style>
      .cls-1, .cls-2, .cls-3, .cls-4 {
        fill: none;
      }

      .cls-2 {
        stroke-width: 2px;
      }

      .cls-2, .cls-3 {
        stroke: #1e3864;
      }

      .cls-2, .cls-3, .cls-4 {
        stroke-miterlimit: 10;
      }

      .cls-5, .cls-6, .cls-7 {
        font-size: 14px;
      }

      .cls-5, .cls-8 {
        font-family: OpenSans-Bold, 'Open Sans';
        font-weight: 700;
      }

      .cls-5, .cls-9 {
        fill: #1e3864;
      }

      .cls-10 {
        clip-path: url(#clippath-1);
      }

      .cls-11 {
        clip-path: url(#clippath-2);
      }

      .cls-12 {
        font-size: 12px;
      }

      .cls-12, .cls-6 {
        fill: #9a9896;
      }

      .cls-12, .cls-6, .cls-7 {
        font-family: OpenSans, 'Open Sans';
      }

      .cls-13 {
        fill: #00a28a;
      }

      .cls-8 {
        font-size: 20px;
      }

      .cls-8, .cls-7 {
        fill: #231f20;
      }

      .cls-4 {
        stroke: #9a9896;
      }

      .cls-14 {
        clip-path: url(#clippath);
      }
    </style>
    <clipPath id="clippath">
      <rect class="cls-1" x="221.45" y="240.35" width="64.63" height="20"/>
    </clipPath>
    <clipPath id="clippath-1">
      <rect class="cls-1" x="221.45" y="210.22" width="55.02" height="20"/>
    </clipPath>
    <clipPath id="clippath-2">
      <rect class="cls-1" x="221.45" y="180.08" width="45.76" height="20"/>
    </clipPath>
  </defs>
  <text class="cls-12" transform="translate(20 380)"><tspan x="0" y="0">Sources: Regional Municipality of Wood Buffalo Census </tspan><tspan x="0" y="14.4">Report (2015, 2018, 2021)</tspan></text>
  <line class="cls-4" x1="20.41" y1="367.54" x2="340" y2="367.54"/>
  <rect class="cls-13" x="99.98" y="218.55" width="240" height="2.91" transform="translate(439.98 .02) rotate(90)"/>
  <line class="cls-4" x1="181.03" y1="291.48" x2="181.03" y2="148.95"/>
  <line class="cls-4" x1="143.53" y1="291.48" x2="143.53" y2="148.95"/>
  <line class="cls-4" x1="106.03" y1="291.48" x2="106.03" y2="148.95"/>
  <line class="cls-4" x1="296.45" y1="291.48" x2="296.45" y2="148.95"/>
  <line class="cls-4" x1="258.95" y1="291.48" x2="258.95" y2="148.95"/>
  <line class="cls-4" x1="68.53" y1="291.48" x2="68.53" y2="148.95"/>
  <text class="cls-6" transform="translate(52.85 307.51)"><tspan x="0" y="0">100k</tspan></text>
  <text class="cls-6" transform="translate(94.35 307.51)"><tspan x="0" y="0">75k</tspan></text>
  <text class="cls-6" transform="translate(284.77 143.17)"><tspan x="0" y="0">50k</tspan></text>
  <text class="cls-6" transform="translate(131.85 307.51)"><tspan x="0" y="0">50k</tspan></text>
  <text class="cls-6" transform="translate(247.27 143.17)"><tspan x="0" y="0">25k</tspan></text>
  <text class="cls-6" transform="translate(169.35 307.66)"><tspan x="0" y="0">25k</tspan></text>
  <text class="cls-5" transform="translate(129.13 126.04)"><tspan x="0" y="0">Permanent</tspan><tspan x="1.91" y="16.8">Population</tspan></text>
  <text class="cls-5" transform="translate(226.54 307.51)"><tspan x="0" y="0">Shadow</tspan><tspan x="0" y="16.8">Population</tspan></text>
  <text class="cls-7" transform="translate(28.49 195)"><tspan x="0" y="0">2015</tspan></text>
  <line class="cls-3" x1="72.65" y1="190" x2="63.84" y2="190"/>
  <text class="cls-7" transform="translate(28.49 225)"><tspan x="0" y="0">2018</tspan></text>
  <line class="cls-3" x1="72.65" y1="220" x2="63.84" y2="220"/>
  <text class="cls-7" transform="translate(28.49 255)"><tspan x="0" y="0">2021</tspan></text>
  <line class="cls-3" x1="72.65" y1="250" x2="63.84" y2="250"/>
  <text class="cls-8" transform="translate(20 25)"><tspan x="0" y="0">The falling shadow population </tspan><tspan x="0" y="24">accounts for most of Wood </tspan><tspan x="0" y="48">Buffalo’s population decline</tspan></text>
  <rect class="cls-9" x="106.02" y="210.22" width="112.51" height="20"/>
  <rect class="cls-9" x="95.61" y="240.35" width="122.92" height="20"/>
  <rect class="cls-9" x="105.2" y="180.08" width="113.33" height="20"/>
  <g>
    <g class="cls-14">
      <g>
        <line class="cls-2" x1="195.51" y1="262.69" x2="163.69" y2="234.4"/>
        <line class="cls-2" x1="200.68" y1="262.69" x2="168.86" y2="234.4"/>
        <line class="cls-2" x1="205.85" y1="262.69" x2="174.03" y2="234.4"/>
        <line class="cls-2" x1="211.02" y1="262.69" x2="179.2" y2="234.4"/>
        <line class="cls-2" x1="216.19" y1="262.69" x2="184.37" y2="234.4"/>
        <line class="cls-2" x1="221.36" y1="262.69" x2="189.54" y2="234.4"/>
        <line class="cls-2" x1="226.53" y1="262.69" x2="194.71" y2="234.4"/>
        <line class="cls-2" x1="231.7" y1="262.69" x2="199.88" y2="234.4"/>
        <line class="cls-2" x1="236.87" y1="262.69" x2="205.05" y2="234.4"/>
        <line class="cls-2" x1="242.04" y1="262.69" x2="210.22" y2="234.4"/>
        <line class="cls-2" x1="247.21" y1="262.69" x2="215.39" y2="234.4"/>
        <line class="cls-2" x1="252.38" y1="262.69" x2="220.56" y2="234.4"/>
        <line class="cls-2" x1="257.55" y1="262.69" x2="225.73" y2="234.4"/>
        <line class="cls-2" x1="262.72" y1="262.69" x2="230.9" y2="234.4"/>
        <line class="cls-2" x1="267.89" y1="262.69" x2="236.07" y2="234.4"/>
        <line class="cls-2" x1="273.06" y1="262.69" x2="241.24" y2="234.4"/>
        <line class="cls-2" x1="278.23" y1="262.69" x2="246.41" y2="234.4"/>
        <line class="cls-2" x1="283.4" y1="262.69" x2="251.58" y2="234.4"/>
        <line class="cls-2" x1="288.57" y1="262.69" x2="256.75" y2="234.4"/>
        <line class="cls-2" x1="293.74" y1="262.69" x2="261.92" y2="234.4"/>
        <line class="cls-2" x1="298.91" y1="262.69" x2="267.09" y2="234.4"/>
        <line class="cls-2" x1="304.08" y1="262.69" x2="272.26" y2="234.4"/>
        <line class="cls-2" x1="309.25" y1="262.69" x2="277.43" y2="234.4"/>
        <line class="cls-2" x1="314.42" y1="262.69" x2="282.6" y2="234.4"/>
        <line class="cls-2" x1="319.59" y1="262.69" x2="287.77" y2="234.4"/>
        <g>
          <line class="cls-2" x1="324.76" y1="262.69" x2="292.94" y2="234.4"/>
          <line class="cls-2" x1="329.87" y1="262.69" x2="298.05" y2="234.4"/>
          <line class="cls-2" x1="335.04" y1="262.69" x2="303.22" y2="234.4"/>
          <line class="cls-2" x1="340.21" y1="262.69" x2="308.39" y2="234.4"/>
          <line class="cls-2" x1="345.38" y1="262.69" x2="313.56" y2="234.4"/>
          <line class="cls-2" x1="350.55" y1="262.69" x2="318.73" y2="234.4"/>
          <line class="cls-2" x1="355.72" y1="262.69" x2="323.9" y2="234.4"/>
          <line class="cls-2" x1="360.89" y1="262.69" x2="329.07" y2="234.4"/>
          <line class="cls-2" x1="366.06" y1="262.69" x2="334.24" y2="234.4"/>
          <line class="cls-2" x1="371.23" y1="262.69" x2="339.41" y2="234.4"/>
          <line class="cls-2" x1="376.4" y1="262.69" x2="344.58" y2="234.4"/>
          <line class="cls-2" x1="381.57" y1="262.69" x2="349.75" y2="234.4"/>
          <line class="cls-2" x1="386.74" y1="262.69" x2="354.92" y2="234.4"/>
          <line class="cls-2" x1="391.91" y1="262.69" x2="360.09" y2="234.4"/>
        </g>
      </g>
    </g>
    <g class="cls-10">
      <g>
        <line class="cls-2" x1="195.51" y1="232.52" x2="163.69" y2="204.23"/>
        <line class="cls-2" x1="200.68" y1="232.52" x2="168.86" y2="204.23"/>
        <line class="cls-2" x1="205.85" y1="232.52" x2="174.03" y2="204.23"/>
        <line class="cls-2" x1="211.02" y1="232.52" x2="179.2" y2="204.23"/>
        <line class="cls-2" x1="216.19" y1="232.52" x2="184.37" y2="204.23"/>
        <line class="cls-2" x1="221.36" y1="232.52" x2="189.54" y2="204.23"/>
        <line class="cls-2" x1="226.53" y1="232.52" x2="194.71" y2="204.23"/>
        <line class="cls-2" x1="231.7" y1="232.52" x2="199.88" y2="204.23"/>
        <line class="cls-2" x1="236.87" y1="232.52" x2="205.05" y2="204.23"/>
        <line class="cls-2" x1="242.04" y1="232.52" x2="210.22" y2="204.23"/>
        <line class="cls-2" x1="247.21" y1="232.52" x2="215.39" y2="204.23"/>
        <line class="cls-2" x1="252.38" y1="232.52" x2="220.56" y2="204.23"/>
        <line class="cls-2" x1="257.55" y1="232.52" x2="225.73" y2="204.23"/>
        <line class="cls-2" x1="262.72" y1="232.52" x2="230.9" y2="204.23"/>
        <line class="cls-2" x1="267.89" y1="232.52" x2="236.07" y2="204.23"/>
        <line class="cls-2" x1="273.06" y1="232.52" x2="241.24" y2="204.23"/>
        <line class="cls-2" x1="278.23" y1="232.52" x2="246.41" y2="204.23"/>
        <line class="cls-2" x1="283.4" y1="232.52" x2="251.58" y2="204.23"/>
        <line class="cls-2" x1="288.57" y1="232.52" x2="256.75" y2="204.23"/>
        <line class="cls-2" x1="293.74" y1="232.52" x2="261.92" y2="204.23"/>
        <line class="cls-2" x1="298.91" y1="232.52" x2="267.09" y2="204.23"/>
        <line class="cls-2" x1="304.08" y1="232.52" x2="272.26" y2="204.23"/>
        <line class="cls-2" x1="309.25" y1="232.52" x2="277.43" y2="204.23"/>
        <line class="cls-2" x1="314.42" y1="232.52" x2="282.6" y2="204.23"/>
        <line class="cls-2" x1="319.59" y1="232.52" x2="287.77" y2="204.23"/>
        <g>
          <line class="cls-2" x1="324.76" y1="232.52" x2="292.94" y2="204.23"/>
          <line class="cls-2" x1="329.87" y1="232.52" x2="298.05" y2="204.23"/>
          <line class="cls-2" x1="335.04" y1="232.52" x2="303.22" y2="204.23"/>
          <line class="cls-2" x1="340.21" y1="232.52" x2="308.39" y2="204.23"/>
          <line class="cls-2" x1="345.38" y1="232.52" x2="313.56" y2="204.23"/>
          <line class="cls-2" x1="350.55" y1="232.52" x2="318.73" y2="204.23"/>
          <line class="cls-2" x1="355.72" y1="232.52" x2="323.9" y2="204.23"/>
          <line class="cls-2" x1="360.89" y1="232.52" x2="329.07" y2="204.23"/>
          <line class="cls-2" x1="366.06" y1="232.52" x2="334.24" y2="204.23"/>
          <line class="cls-2" x1="371.23" y1="232.52" x2="339.41" y2="204.23"/>
          <line class="cls-2" x1="376.4" y1="232.52" x2="344.58" y2="204.23"/>
          <line class="cls-2" x1="381.57" y1="232.52" x2="349.75" y2="204.23"/>
          <line class="cls-2" x1="386.74" y1="232.52" x2="354.92" y2="204.23"/>
          <line class="cls-2" x1="391.91" y1="232.52" x2="360.09" y2="204.23"/>
        </g>
      </g>
    </g>
    <g class="cls-11">
      <g>
        <line class="cls-2" x1="195.5" y1="202.39" x2="163.68" y2="174.11"/>
        <line class="cls-2" x1="200.67" y1="202.39" x2="168.85" y2="174.11"/>
        <line class="cls-2" x1="205.84" y1="202.39" x2="174.02" y2="174.11"/>
        <line class="cls-2" x1="211.01" y1="202.39" x2="179.19" y2="174.11"/>
        <line class="cls-2" x1="216.18" y1="202.39" x2="184.36" y2="174.11"/>
        <line class="cls-2" x1="221.35" y1="202.39" x2="189.53" y2="174.11"/>
        <line class="cls-2" x1="226.52" y1="202.39" x2="194.7" y2="174.11"/>
        <line class="cls-2" x1="231.69" y1="202.39" x2="199.87" y2="174.11"/>
        <line class="cls-2" x1="236.86" y1="202.39" x2="205.04" y2="174.11"/>
        <line class="cls-2" x1="242.03" y1="202.39" x2="210.21" y2="174.11"/>
        <line class="cls-2" x1="247.2" y1="202.39" x2="215.38" y2="174.11"/>
        <line class="cls-2" x1="252.37" y1="202.39" x2="220.55" y2="174.11"/>
        <line class="cls-2" x1="257.54" y1="202.39" x2="225.72" y2="174.11"/>
        <line class="cls-2" x1="262.71" y1="202.39" x2="230.89" y2="174.11"/>
        <line class="cls-2" x1="267.88" y1="202.39" x2="236.06" y2="174.11"/>
        <line class="cls-2" x1="273.05" y1="202.39" x2="241.23" y2="174.11"/>
        <line class="cls-2" x1="278.22" y1="202.39" x2="246.4" y2="174.11"/>
        <line class="cls-2" x1="283.39" y1="202.39" x2="251.57" y2="174.11"/>
        <line class="cls-2" x1="288.56" y1="202.39" x2="256.74" y2="174.11"/>
        <line class="cls-2" x1="293.73" y1="202.39" x2="261.91" y2="174.11"/>
        <line class="cls-2" x1="298.9" y1="202.39" x2="267.08" y2="174.11"/>
        <line class="cls-2" x1="304.07" y1="202.39" x2="272.25" y2="174.11"/>
        <line class="cls-2" x1="309.24" y1="202.39" x2="277.42" y2="174.11"/>
        <line class="cls-2" x1="314.41" y1="202.39" x2="282.59" y2="174.11"/>
        <line class="cls-2" x1="319.58" y1="202.39" x2="287.76" y2="174.11"/>
        <g>
          <line class="cls-2" x1="324.75" y1="202.39" x2="292.93" y2="174.11"/>
          <line class="cls-2" x1="329.87" y1="202.39" x2="298.05" y2="174.11"/>
          <line class="cls-2" x1="335.03" y1="202.39" x2="303.22" y2="174.11"/>
          <line class="cls-2" x1="340.2" y1="202.39" x2="308.39" y2="174.11"/>
          <line class="cls-2" x1="345.37" y1="202.39" x2="313.56" y2="174.11"/>
          <line class="cls-2" x1="350.54" y1="202.39" x2="318.73" y2="174.11"/>
          <line class="cls-2" x1="355.71" y1="202.39" x2="323.89" y2="174.11"/>
          <line class="cls-2" x1="360.88" y1="202.39" x2="329.06" y2="174.11"/>
          <line class="cls-2" x1="366.05" y1="202.39" x2="334.23" y2="174.11"/>
          <line class="cls-2" x1="371.22" y1="202.39" x2="339.4" y2="174.11"/>
          <line class="cls-2" x1="376.39" y1="202.39" x2="344.57" y2="174.11"/>
          <line class="cls-2" x1="381.56" y1="202.39" x2="349.74" y2="174.11"/>
          <line class="cls-2" x1="386.73" y1="202.39" x2="354.91" y2="174.11"/>
          <line class="cls-2" x1="391.9" y1="202.39" x2="360.08" y2="174.11"/>
        </g>
      </g>
    </g>
  </g>
</svg>