<?xml version="1.0" encoding="UTF-8"?>
<svg id="Layer_1" data-name="Layer 1" xmlns="http://www.w3.org/2000/svg" width="720" height="350" xmlns:xlink="http://www.w3.org/1999/xlink" viewBox="0 0 720 350">
  <defs>
    <style>
      .cls-1, .cls-2, .cls-3, .cls-4 {
        fill: none;
      }

      .cls-2 {
        stroke-width: 2px;
      }

      .cls-2, .cls-3 {
        stroke: #1e3864;
      }

      .cls-2, .cls-3, .cls-4 {
        stroke-miterlimit: 10;
      }

      .cls-5, .cls-6, .cls-7 {
        font-size: 14px;
      }

      .cls-5, .cls-8 {
        font-family: OpenSans-Bold, 'Open Sans';
        font-weight: 700;
      }

      .cls-5, .cls-9 {
        fill: #1e3864;
      }

      .cls-10 {
        clip-path: url(#clippath-1);
      }

      .cls-11 {
        clip-path: url(#clippath-2);
      }

      .cls-12 {
        font-size: 12px;
      }

      .cls-12, .cls-6 {
        fill: #9a9896;
      }

      .cls-12, .cls-6, .cls-7 {
        font-family: OpenSans, 'Open Sans';
      }

      .cls-13 {
        fill: #00a28a;
      }

      .cls-8 {
        font-size: 20px;
      }

      .cls-8, .cls-7 {
        fill: #231f20;
      }

      .cls-4 {
        stroke: #9a9896;
      }

      .cls-14 {
        clip-path: url(#clippath);
      }
    </style>
    <clipPath id="clippath">
      <rect class="cls-1" x="481.46" y="200" width="172.34" height="20"/>
    </clipPath>
    <clipPath id="clippath-1">
      <rect class="cls-1" x="481.46" y="170" width="146.71" height="20"/>
    </clipPath>
    <clipPath id="clippath-2">
      <rect class="cls-1" x="481.46" y="140" width="122.02" height="20"/>
    </clipPath>
  </defs>
  <text class="cls-8" transform="translate(20 25)"><tspan x="0" y="0">The falling shadow population accounts for most of Wood Buffalo’s </tspan><tspan x="0" y="24">population decline</tspan></text>
  <text class="cls-12" transform="translate(20 339)"><tspan x="0" y="0">Sources: Regional Municipality of Wood Buffalo Census Report (2015, 2018, 2021)</tspan></text>
  <line class="cls-4" x1="20.41" y1="326.54" x2="700" y2="326.54"/>
  <rect class="cls-13" x="370.1" y="178.55" width="219.81" height="2.91" transform="translate(300 660) rotate(-90)"/>
  <text class="cls-6" transform="translate(168.16 270.41)"><tspan x="0" y="0">75k</tspan></text>
  <text class="cls-6" transform="translate(64.16 270.41)"><tspan x="0" y="0">100k</tspan></text>
  <text class="cls-6" transform="translate(268.16 270.41)"><tspan x="0" y="0">50k</tspan></text>
  <text class="cls-6" transform="translate(668.69 99.54)"><tspan x="0" y="0">50k</tspan></text>
  <text class="cls-6" transform="translate(368.2 270.55)"><tspan x="0" y="0">25k</tspan></text>
  <text class="cls-6" transform="translate(568.32 99.54)"><tspan x="0" y="0">25k</tspan></text>
  <text class="cls-5" transform="translate(309.63 99.54)"><tspan x="0" y="0">Permanent Population</tspan></text>
  <text class="cls-5" transform="translate(490 270.08)"><tspan x="0" y="0">Shadow Population</tspan></text>
  <rect class="cls-9" x="178.5" y="170" width="300.04" height="20"/>
  <rect class="cls-9" x="150.74" y="200" width="327.79" height="20"/>
  <rect class="cls-9" x="176.31" y="140" width="302.22" height="20"/>
  <g class="cls-14">
    <g>
      <line class="cls-2" x1="472.15" y1="224.14" x2="440.33" y2="195.86"/>
      <line class="cls-2" x1="477.32" y1="224.14" x2="445.5" y2="195.86"/>
      <line class="cls-2" x1="482.49" y1="224.14" x2="450.67" y2="195.86"/>
      <line class="cls-2" x1="487.66" y1="224.14" x2="455.84" y2="195.86"/>
      <line class="cls-2" x1="492.83" y1="224.14" x2="461.01" y2="195.86"/>
      <line class="cls-2" x1="498" y1="224.14" x2="466.18" y2="195.86"/>
      <line class="cls-2" x1="503.17" y1="224.14" x2="471.35" y2="195.86"/>
      <line class="cls-2" x1="508.34" y1="224.14" x2="476.52" y2="195.86"/>
      <line class="cls-2" x1="513.51" y1="224.14" x2="481.69" y2="195.86"/>
      <line class="cls-2" x1="518.68" y1="224.14" x2="486.86" y2="195.86"/>
      <line class="cls-2" x1="523.85" y1="224.14" x2="492.03" y2="195.86"/>
      <line class="cls-2" x1="529.02" y1="224.14" x2="497.2" y2="195.86"/>
      <line class="cls-2" x1="534.19" y1="224.14" x2="502.37" y2="195.86"/>
      <line class="cls-2" x1="539.36" y1="224.14" x2="507.54" y2="195.86"/>
      <line class="cls-2" x1="544.53" y1="224.14" x2="512.71" y2="195.86"/>
      <line class="cls-2" x1="549.7" y1="224.14" x2="517.88" y2="195.86"/>
      <line class="cls-2" x1="554.87" y1="224.14" x2="523.05" y2="195.86"/>
      <line class="cls-2" x1="560.04" y1="224.14" x2="528.22" y2="195.86"/>
      <line class="cls-2" x1="565.21" y1="224.14" x2="533.39" y2="195.86"/>
      <line class="cls-2" x1="570.38" y1="224.14" x2="538.56" y2="195.86"/>
      <line class="cls-2" x1="575.55" y1="224.14" x2="543.73" y2="195.86"/>
      <line class="cls-2" x1="580.72" y1="224.14" x2="548.9" y2="195.86"/>
      <line class="cls-2" x1="585.89" y1="224.14" x2="554.07" y2="195.86"/>
      <line class="cls-2" x1="591.06" y1="224.14" x2="559.24" y2="195.86"/>
      <line class="cls-2" x1="596.23" y1="224.14" x2="564.41" y2="195.86"/>
      <g>
        <line class="cls-2" x1="601.4" y1="224.14" x2="569.58" y2="195.86"/>
        <line class="cls-2" x1="606.51" y1="224.14" x2="574.69" y2="195.86"/>
        <line class="cls-2" x1="611.68" y1="224.14" x2="579.86" y2="195.86"/>
        <line class="cls-2" x1="616.85" y1="224.14" x2="585.03" y2="195.86"/>
        <line class="cls-2" x1="622.02" y1="224.14" x2="590.2" y2="195.86"/>
        <line class="cls-2" x1="627.19" y1="224.14" x2="595.37" y2="195.86"/>
        <line class="cls-2" x1="632.36" y1="224.14" x2="600.54" y2="195.86"/>
        <line class="cls-2" x1="637.53" y1="224.14" x2="605.71" y2="195.86"/>
        <line class="cls-2" x1="642.7" y1="224.14" x2="610.88" y2="195.86"/>
        <line class="cls-2" x1="647.87" y1="224.14" x2="616.05" y2="195.86"/>
        <line class="cls-2" x1="653.04" y1="224.14" x2="621.22" y2="195.86"/>
        <line class="cls-2" x1="658.21" y1="224.14" x2="626.39" y2="195.86"/>
        <line class="cls-2" x1="663.38" y1="224.14" x2="631.56" y2="195.86"/>
        <line class="cls-2" x1="668.55" y1="224.14" x2="636.73" y2="195.86"/>
        <line class="cls-2" x1="673.72" y1="224.14" x2="641.9" y2="195.86"/>
        <line class="cls-2" x1="678.89" y1="224.14" x2="647.07" y2="195.86"/>
        <line class="cls-2" x1="684.06" y1="224.14" x2="652.24" y2="195.86"/>
        <line class="cls-2" x1="689.23" y1="224.14" x2="657.41" y2="195.86"/>
        <line class="cls-2" x1="694.4" y1="224.14" x2="662.58" y2="195.86"/>
        <line class="cls-2" x1="699.57" y1="224.14" x2="667.75" y2="195.86"/>
        <line class="cls-2" x1="704.74" y1="224.14" x2="672.92" y2="195.86"/>
        <line class="cls-2" x1="709.91" y1="224.14" x2="678.09" y2="195.86"/>
        <line class="cls-2" x1="715.08" y1="224.14" x2="683.26" y2="195.86"/>
        <line class="cls-2" x1="720.25" y1="224.14" x2="688.43" y2="195.86"/>
        <line class="cls-2" x1="725.42" y1="224.14" x2="693.6" y2="195.86"/>
        <line class="cls-2" x1="730.59" y1="224.14" x2="698.77" y2="195.86"/>
        <line class="cls-2" x1="735.76" y1="224.14" x2="703.94" y2="195.86"/>
        <line class="cls-2" x1="740.93" y1="224.14" x2="709.11" y2="195.86"/>
      </g>
    </g>
  </g>
  <g class="cls-10">
    <g>
      <line class="cls-2" x1="472.15" y1="194.14" x2="440.33" y2="165.86"/>
      <line class="cls-2" x1="477.32" y1="194.14" x2="445.5" y2="165.86"/>
      <line class="cls-2" x1="482.49" y1="194.14" x2="450.67" y2="165.86"/>
      <line class="cls-2" x1="487.66" y1="194.14" x2="455.84" y2="165.86"/>
      <line class="cls-2" x1="492.83" y1="194.14" x2="461.01" y2="165.86"/>
      <line class="cls-2" x1="498" y1="194.14" x2="466.18" y2="165.86"/>
      <line class="cls-2" x1="503.17" y1="194.14" x2="471.35" y2="165.86"/>
      <line class="cls-2" x1="508.34" y1="194.14" x2="476.52" y2="165.86"/>
      <line class="cls-2" x1="513.51" y1="194.14" x2="481.69" y2="165.86"/>
      <line class="cls-2" x1="518.68" y1="194.14" x2="486.86" y2="165.86"/>
      <line class="cls-2" x1="523.85" y1="194.14" x2="492.03" y2="165.86"/>
      <line class="cls-2" x1="529.02" y1="194.14" x2="497.2" y2="165.86"/>
      <line class="cls-2" x1="534.19" y1="194.14" x2="502.37" y2="165.86"/>
      <line class="cls-2" x1="539.36" y1="194.14" x2="507.54" y2="165.86"/>
      <line class="cls-2" x1="544.53" y1="194.14" x2="512.71" y2="165.86"/>
      <line class="cls-2" x1="549.7" y1="194.14" x2="517.88" y2="165.86"/>
      <line class="cls-2" x1="554.87" y1="194.14" x2="523.05" y2="165.86"/>
      <line class="cls-2" x1="560.04" y1="194.14" x2="528.22" y2="165.86"/>
      <line class="cls-2" x1="565.21" y1="194.14" x2="533.39" y2="165.86"/>
      <line class="cls-2" x1="570.38" y1="194.14" x2="538.56" y2="165.86"/>
      <line class="cls-2" x1="575.55" y1="194.14" x2="543.73" y2="165.86"/>
      <line class="cls-2" x1="580.72" y1="194.14" x2="548.9" y2="165.86"/>
      <line class="cls-2" x1="585.89" y1="194.14" x2="554.07" y2="165.86"/>
      <line class="cls-2" x1="591.06" y1="194.14" x2="559.24" y2="165.86"/>
      <line class="cls-2" x1="596.23" y1="194.14" x2="564.41" y2="165.86"/>
      <g>
        <line class="cls-2" x1="601.4" y1="194.14" x2="569.58" y2="165.86"/>
        <line class="cls-2" x1="606.51" y1="194.14" x2="574.69" y2="165.86"/>
        <line class="cls-2" x1="611.68" y1="194.14" x2="579.86" y2="165.86"/>
        <line class="cls-2" x1="616.85" y1="194.14" x2="585.03" y2="165.86"/>
        <line class="cls-2" x1="622.02" y1="194.14" x2="590.2" y2="165.86"/>
        <line class="cls-2" x1="627.19" y1="194.14" x2="595.37" y2="165.86"/>
        <line class="cls-2" x1="632.36" y1="194.14" x2="600.54" y2="165.86"/>
        <line class="cls-2" x1="637.53" y1="194.14" x2="605.71" y2="165.86"/>
        <line class="cls-2" x1="642.7" y1="194.14" x2="610.88" y2="165.86"/>
        <line class="cls-2" x1="647.87" y1="194.14" x2="616.05" y2="165.86"/>
        <line class="cls-2" x1="653.04" y1="194.14" x2="621.22" y2="165.86"/>
        <line class="cls-2" x1="658.21" y1="194.14" x2="626.39" y2="165.86"/>
        <line class="cls-2" x1="663.38" y1="194.14" x2="631.56" y2="165.86"/>
        <line class="cls-2" x1="668.55" y1="194.14" x2="636.73" y2="165.86"/>
        <line class="cls-2" x1="673.72" y1="194.14" x2="641.9" y2="165.86"/>
        <line class="cls-2" x1="678.89" y1="194.14" x2="647.07" y2="165.86"/>
        <line class="cls-2" x1="684.06" y1="194.14" x2="652.24" y2="165.86"/>
        <line class="cls-2" x1="689.23" y1="194.14" x2="657.41" y2="165.86"/>
        <line class="cls-2" x1="694.4" y1="194.14" x2="662.58" y2="165.86"/>
        <line class="cls-2" x1="699.57" y1="194.14" x2="667.75" y2="165.86"/>
        <line class="cls-2" x1="704.74" y1="194.14" x2="672.92" y2="165.86"/>
        <line class="cls-2" x1="709.91" y1="194.14" x2="678.09" y2="165.86"/>
        <line class="cls-2" x1="715.08" y1="194.14" x2="683.26" y2="165.86"/>
        <line class="cls-2" x1="720.25" y1="194.14" x2="688.43" y2="165.86"/>
        <line class="cls-2" x1="725.42" y1="194.14" x2="693.6" y2="165.86"/>
        <line class="cls-2" x1="730.59" y1="194.14" x2="698.77" y2="165.86"/>
        <line class="cls-2" x1="735.76" y1="194.14" x2="703.94" y2="165.86"/>
        <line class="cls-2" x1="740.93" y1="194.14" x2="709.11" y2="165.86"/>
      </g>
    </g>
  </g>
  <g class="cls-11">
    <g>
      <line class="cls-2" x1="472.15" y1="164.14" x2="440.33" y2="135.86"/>
      <line class="cls-2" x1="477.32" y1="164.14" x2="445.5" y2="135.86"/>
      <line class="cls-2" x1="482.49" y1="164.14" x2="450.67" y2="135.86"/>
      <line class="cls-2" x1="487.66" y1="164.14" x2="455.84" y2="135.86"/>
      <line class="cls-2" x1="492.83" y1="164.14" x2="461.01" y2="135.86"/>
      <line class="cls-2" x1="498" y1="164.14" x2="466.18" y2="135.86"/>
      <line class="cls-2" x1="503.17" y1="164.14" x2="471.35" y2="135.86"/>
      <line class="cls-2" x1="508.34" y1="164.14" x2="476.52" y2="135.86"/>
      <line class="cls-2" x1="513.51" y1="164.14" x2="481.69" y2="135.86"/>
      <line class="cls-2" x1="518.68" y1="164.14" x2="486.86" y2="135.86"/>
      <line class="cls-2" x1="523.85" y1="164.14" x2="492.03" y2="135.86"/>
      <line class="cls-2" x1="529.02" y1="164.14" x2="497.2" y2="135.86"/>
      <line class="cls-2" x1="534.19" y1="164.14" x2="502.37" y2="135.86"/>
      <line class="cls-2" x1="539.36" y1="164.14" x2="507.54" y2="135.86"/>
      <line class="cls-2" x1="544.53" y1="164.14" x2="512.71" y2="135.86"/>
      <line class="cls-2" x1="549.7" y1="164.14" x2="517.88" y2="135.86"/>
      <line class="cls-2" x1="554.87" y1="164.14" x2="523.05" y2="135.86"/>
      <line class="cls-2" x1="560.04" y1="164.14" x2="528.22" y2="135.86"/>
      <line class="cls-2" x1="565.21" y1="164.14" x2="533.39" y2="135.86"/>
      <line class="cls-2" x1="570.38" y1="164.14" x2="538.56" y2="135.86"/>
      <line class="cls-2" x1="575.55" y1="164.14" x2="543.73" y2="135.86"/>
      <line class="cls-2" x1="580.72" y1="164.14" x2="548.9" y2="135.86"/>
      <line class="cls-2" x1="585.89" y1="164.14" x2="554.07" y2="135.86"/>
      <line class="cls-2" x1="591.06" y1="164.14" x2="559.24" y2="135.86"/>
      <line class="cls-2" x1="596.23" y1="164.14" x2="564.41" y2="135.86"/>
      <g>
        <line class="cls-2" x1="601.4" y1="164.14" x2="569.58" y2="135.86"/>
        <line class="cls-2" x1="606.51" y1="164.14" x2="574.69" y2="135.86"/>
        <line class="cls-2" x1="611.68" y1="164.14" x2="579.86" y2="135.86"/>
        <line class="cls-2" x1="616.85" y1="164.14" x2="585.03" y2="135.86"/>
        <line class="cls-2" x1="622.02" y1="164.14" x2="590.2" y2="135.86"/>
        <line class="cls-2" x1="627.19" y1="164.14" x2="595.37" y2="135.86"/>
        <line class="cls-2" x1="632.36" y1="164.14" x2="600.54" y2="135.86"/>
        <line class="cls-2" x1="637.53" y1="164.14" x2="605.71" y2="135.86"/>
        <line class="cls-2" x1="642.7" y1="164.14" x2="610.88" y2="135.86"/>
        <line class="cls-2" x1="647.87" y1="164.14" x2="616.05" y2="135.86"/>
        <line class="cls-2" x1="653.04" y1="164.14" x2="621.22" y2="135.86"/>
        <line class="cls-2" x1="658.21" y1="164.14" x2="626.39" y2="135.86"/>
        <line class="cls-2" x1="663.38" y1="164.14" x2="631.56" y2="135.86"/>
        <line class="cls-2" x1="668.55" y1="164.14" x2="636.73" y2="135.86"/>
        <line class="cls-2" x1="673.72" y1="164.14" x2="641.9" y2="135.86"/>
        <line class="cls-2" x1="678.89" y1="164.14" x2="647.07" y2="135.86"/>
        <line class="cls-2" x1="684.06" y1="164.14" x2="652.24" y2="135.86"/>
        <line class="cls-2" x1="689.23" y1="164.14" x2="657.41" y2="135.86"/>
        <line class="cls-2" x1="694.4" y1="164.14" x2="662.58" y2="135.86"/>
        <line class="cls-2" x1="699.57" y1="164.14" x2="667.75" y2="135.86"/>
        <line class="cls-2" x1="704.74" y1="164.14" x2="672.92" y2="135.86"/>
        <line class="cls-2" x1="709.91" y1="164.14" x2="678.09" y2="135.86"/>
        <line class="cls-2" x1="715.08" y1="164.14" x2="683.26" y2="135.86"/>
        <line class="cls-2" x1="720.25" y1="164.14" x2="688.43" y2="135.86"/>
        <line class="cls-2" x1="725.42" y1="164.14" x2="693.6" y2="135.86"/>
        <line class="cls-2" x1="730.59" y1="164.14" x2="698.77" y2="135.86"/>
        <line class="cls-2" x1="735.76" y1="164.14" x2="703.94" y2="135.86"/>
        <line class="cls-2" x1="740.93" y1="164.14" x2="709.11" y2="135.86"/>
      </g>
    </g>
  </g>
  <g>
    <line class="cls-4" x1="379.88" y1="250.08" x2="379.88" y2="110.02"/>
    <line class="cls-4" x1="580" y1="250.08" x2="580" y2="110.02"/>
    <line class="cls-4" x1="680" y1="250.08" x2="680" y2="110.02"/>
    <line class="cls-4" x1="179.84" y1="250.08" x2="179.84" y2="110.02"/>
    <line class="cls-4" x1="279.84" y1="250.08" x2="279.84" y2="110.02"/>
    <line class="cls-4" x1="79.84" y1="250.08" x2="79.84" y2="110.02"/>
  </g>
  <text class="cls-7" transform="translate(39.79 215.14)"><tspan x="0" y="0">2015</tspan></text>
  <line class="cls-3" x1="75.71" y1="210" x2="84.52" y2="210"/>
  <text class="cls-7" transform="translate(39.79 185.07)"><tspan x="0" y="0">2018</tspan></text>
  <line class="cls-3" x1="75.59" y1="180.05" x2="84.41" y2="180.05"/>
  <text class="cls-7" transform="translate(39.79 155)"><tspan x="0" y="0">2021</tspan></text>
  <line class="cls-3" x1="75.44" y1="150" x2="84.25" y2="150"/>
</svg>