<?xml version="1.0" encoding="UTF-8"?>
<svg id="Layer_1" data-name="Layer 1" xmlns="http://www.w3.org/2000/svg" viewBox="0 0 360 381.96">
  <defs>
    <style>
      .cls-1 {
        stroke: #231f20;
      }

      .cls-1, .cls-2, .cls-3, .cls-4 {
        fill: none;
        stroke-miterlimit: 10;
      }

      .cls-5 {
        fill: #efc419;
      }

      .cls-6 {
        fill: #d2d2d1;
        font-size: 8px;
      }

      .cls-6, .cls-7, .cls-8 {
        font-family: OpenSans, 'Open Sans';
      }

      .cls-9 {
        fill: #6fc7e9;
      }

      .cls-10, .cls-11 {
        font-family: OpenSans-Bold, 'Open Sans';
        font-weight: 700;
      }

      .cls-10, .cls-11, .cls-8 {
        fill: #231f20;
      }

      .cls-10, .cls-8 {
        font-size: 12px;
      }

      .cls-2 {
        stroke-width: .25px;
      }

      .cls-2, .cls-3 {
        stroke: #58595b;
      }

      .cls-3 {
        stroke-width: .5px;
      }

      .cls-7 {
        fill: #808285;
        font-size: 10px;
      }

      .cls-12 {
        fill: #00a28a;
      }

      .cls-11 {
        font-size: 20px;
      }

      .cls-4 {
        stroke: #d2d2d1;
      }
    </style>
  </defs>
  <text class="cls-11" transform="translate(2.47 26.86)"><tspan x="0" y="0">Wood Buffalo Has the Largest Wage</tspan><tspan x="0" y="24">Gap Among Alberta’s Major Cities</tspan></text>
  <text class="cls-8" transform="translate(242.92 343.97)"><tspan x="0" y="0">Upper Income</tspan></text>
  <text class="cls-8" transform="translate(26.54 344.05)"><tspan x="0" y="0">Lower Income</tspan></text>
  <circle class="cls-5" cx="21.24" cy="339.81" r="3.92"/>
  <text class="cls-8" transform="translate(129.88 343.81)"><tspan x="0" y="0">Middle Income</tspan></text>
  <circle class="cls-9" cx="123.77" cy="339.74" r="3.92"/>
  <circle class="cls-12" cx="236.72" cy="339.66" r="3.92"/>
  <text class="cls-10" transform="translate(44.76 117.17)"><tspan x="0" y="0">CALGARY</tspan></text>
  <text class="cls-10" transform="translate(27.37 190.15)"><tspan x="0" y="0">EDMONTON</tspan></text>
  <text class="cls-10" transform="translate(2.23 263.13)"><tspan x="0" y="0">WOOD BUFFALO</tspan></text>
  <text class="cls-10" transform="translate(260.02 238.56)"><tspan x="0" y="0">$24.19+</tspan></text>
  <text class="cls-10" transform="translate(239.2 165.46)"><tspan x="0" y="0">$15.70+</tspan></text>
  <text class="cls-10" transform="translate(243.62 93.01)"><tspan x="0" y="0">$17.70+</tspan></text>
  <text class="cls-7" transform="translate(218.41 292.48)"><tspan x="0" y="0">$25</tspan></text>
  <text class="cls-10" transform="translate(161.02 311.05)"><tspan x="0" y="0">Averagle Hourly Wage</tspan></text>
  <text class="cls-7" transform="translate(340.54 291.89)"><tspan x="0" y="0">$50</tspan></text>
  <line class="cls-3" x1="104.88" y1="179.32" x2="223.49" y2="179.32"/>
  <line class="cls-3" x1="104.88" y1="185.74" x2="267.05" y2="185.74"/>
  <line class="cls-3" x1="104.88" y1="192.16" x2="300.11" y2="192.16"/>
  <circle class="cls-5" cx="223.49" cy="179.32" r="5.12"/>
  <circle class="cls-9" cx="267.05" cy="185.74" r="5.12"/>
  <circle class="cls-12" cx="300.11" cy="192.16" r="5.12"/>
  <line class="cls-3" x1="104.95" y1="252.36" x2="223.22" y2="252.36"/>
  <line class="cls-3" x1="104.95" y1="258.78" x2="281.18" y2="258.78"/>
  <line class="cls-3" x1="104.95" y1="265.2" x2="341.35" y2="265.2"/>
  <circle class="cls-5" cx="223.22" cy="252.36" r="5.12"/>
  <circle class="cls-9" cx="281.18" cy="258.78" r="5.12"/>
  <circle class="cls-12" cx="341.35" cy="265.2" r="5.12"/>
  <line class="cls-3" x1="104.88" y1="119.12" x2="305.19" y2="119.12"/>
  <line class="cls-3" x1="104.88" y1="112.7" x2="265.88" y2="112.7"/>
  <line class="cls-3" x1="104.88" y1="106.29" x2="218.75" y2="106.29"/>
  <circle class="cls-9" cx="265.88" cy="112.7" r="5.12"/>
  <circle class="cls-12" cx="305.19" cy="119.12" r="5.12"/>
  <circle class="cls-5" cx="218.75" cy="106.29" r="5.12"/>
  <line class="cls-2" x1="104.88" y1="89.64" x2="104.88" y2="281.84"/>
  <line class="cls-2" x1="226.93" y1="273.56" x2="226.93" y2="281.84"/>
  <line class="cls-2" x1="348.98" y1="273.56" x2="348.98" y2="281.84"/>
  <line class="cls-1" x1="223.22" y1="241.58" x2="341.35" y2="241.58"/>
  <line class="cls-1" x1="223.15" y1="168.54" x2="299.77" y2="168.54"/>
  <line class="cls-1" x1="218.75" y1="95.51" x2="305.19" y2="95.51"/>
  <text class="cls-6" transform="translate(5.06 376.96)"><tspan x="0" y="0">Sources: Alberta Wage &amp; Salary Survey (2022), Statistics Canada (2021) </tspan></text>
  <line class="cls-4" x1="5.47" y1="366.76" x2="354.71" y2="366.76"/>
</svg>