<?xml version="1.0" encoding="UTF-8"?>
<svg xmlns="http://www.w3.org/2000/svg" viewBox="0 0 720 460">
  <defs>
    <style>
      .cls-1 {
        stroke: #999795;
      }

      .cls-1, .cls-2, .cls-3, .cls-4, .cls-5, .cls-6, .cls-7, .cls-8, .cls-9 {
        fill: none;
      }

      .cls-1, .cls-7 {
        stroke-miterlimit: 10;
      }

      .cls-10 {
        fill: #00a28a;
      }

      .cls-10, .cls-11, .cls-12, .cls-13, .cls-14, .cls-15 {
        font-family: OpenSans-Bold, 'Open Sans';
        font-weight: 700;
      }

      .cls-10, .cls-11, .cls-13, .cls-16, .cls-14, .cls-17, .cls-15 {
        font-size: 14px;
      }

      .cls-2 {
        stroke: #00a28a;
      }

      .cls-2, .cls-18, .cls-3, .cls-4, .cls-6, .cls-8 {
        stroke-linejoin: round;
      }

      .cls-2, .cls-3, .cls-4, .cls-8 {
        stroke-width: 1.5px;
      }

      .cls-2, .cls-3, .cls-4, .cls-8, .cls-9 {
        stroke-linecap: square;
      }

      .cls-18 {
        fill: #231f20;
        opacity: .03;
      }

      .cls-18, .cls-6, .cls-9 {
        stroke-width: .8px;
      }

      .cls-18, .cls-9 {
        stroke: #000;
      }

      .cls-11 {
        fill: #ab2069;
      }

      .cls-12 {
        font-size: 20px;
      }

      .cls-3 {
        stroke: #ab2069;
      }

      .cls-13 {
        fill: #6fc7e9;
      }

      .cls-19 {
        fill: #6d6e71;
      }

      .cls-19, .cls-20 {
        font-size: 12px;
      }

      .cls-19, .cls-20, .cls-16, .cls-17 {
        font-family: OpenSans, 'Open Sans';
      }

      .cls-4 {
        stroke: #dc4732;
      }

      .cls-20 {
        fill: #999795;
      }

      .cls-5 {
        stroke-width: .25px;
      }

      .cls-5, .cls-6 {
        stroke: #d1d3d4;
      }

      .cls-16 {
        fill: #bcbec0;
      }

      .cls-7 {
        stroke: #6d6e71;
        stroke-width: .5px;
      }

      .cls-14 {
        fill: #dc4732;
      }

      .cls-8 {
        stroke: #6fc7e9;
      }
    </style>
  </defs>
  <g id="Layer_1" data-name="Layer 1">
    <g>
      <text class="cls-20" transform="translate(20 450)"><tspan x="0" y="0" xml:space="preserve">Data Source: American Public Transportation Association  (2025) </tspan></text>
      <line class="cls-1" x1="20.41" y1="437.54" x2="700" y2="437.54"/>
    </g>
    <g id="line2d_28" data-name="line2d 28">
      <path id="m24202845b9" class="cls-7" d="M111.67,380.27v3.5"/>
    </g>
    <g id="line2d_29" data-name="line2d 29">
      <path id="m24202845b9-2" data-name="m24202845b9" class="cls-7" d="M118.83,380.27v3.5"/>
    </g>
    <g id="line2d_30" data-name="line2d 30">
      <path id="m24202845b9-3" data-name="m24202845b9" class="cls-7" d="M126.49,380.27v3.5"/>
    </g>
    <g id="line2d_31" data-name="line2d 31">
      <path id="m24202845b9-4" data-name="m24202845b9" class="cls-7" d="M133.91,380.27v3.5"/>
    </g>
    <g id="line2d_32" data-name="line2d 32">
      <path id="m24202845b9-5" data-name="m24202845b9" class="cls-7" d="M141.57,380.27v3.5"/>
    </g>
    <g id="line2d_34" data-name="line2d 34">
      <path id="m24202845b9-6" data-name="m24202845b9" class="cls-7" d="M156.64,380.27v3.5"/>
    </g>
    <g id="line2d_35" data-name="line2d 35">
      <path id="m24202845b9-7" data-name="m24202845b9" class="cls-7" d="M164.3,380.27v3.5"/>
    </g>
    <g id="line2d_36" data-name="line2d 36">
      <path id="m24202845b9-8" data-name="m24202845b9" class="cls-7" d="M171.72,380.27v3.5"/>
    </g>
    <g id="line2d_37" data-name="line2d 37">
      <path id="m24202845b9-9" data-name="m24202845b9" class="cls-7" d="M179.38,380.27v3.5"/>
    </g>
    <g id="line2d_38" data-name="line2d 38">
      <path id="m24202845b9-10" data-name="m24202845b9" class="cls-7" d="M186.79,380.27v3.5"/>
    </g>
    <g id="line2d_40" data-name="line2d 40">
      <path id="m24202845b9-11" data-name="m24202845b9" class="cls-7" d="M202.11,380.27v3.5"/>
    </g>
    <g id="line2d_41" data-name="line2d 41">
      <path id="m24202845b9-12" data-name="m24202845b9" class="cls-7" d="M209.03,380.27v3.5"/>
    </g>
    <g id="line2d_42" data-name="line2d 42">
      <path id="m24202845b9-13" data-name="m24202845b9" class="cls-7" d="M216.69,380.27v3.5"/>
    </g>
    <g id="line2d_43" data-name="line2d 43">
      <path id="m24202845b9-14" data-name="m24202845b9" class="cls-7" d="M224.11,380.27v3.5"/>
    </g>
    <g id="line2d_44" data-name="line2d 44">
      <path id="m24202845b9-15" data-name="m24202845b9" class="cls-7" d="M231.77,380.27v3.5"/>
    </g>
    <g id="line2d_46" data-name="line2d 46">
      <path id="m24202845b9-16" data-name="m24202845b9" class="cls-7" d="M246.84,380.27v3.5"/>
    </g>
    <g id="line2d_47" data-name="line2d 47">
      <path id="m24202845b9-17" data-name="m24202845b9" class="cls-7" d="M254.5,380.27v3.5"/>
    </g>
    <g id="line2d_48" data-name="line2d 48">
      <path id="m24202845b9-18" data-name="m24202845b9" class="cls-7" d="M261.92,380.27v3.5"/>
    </g>
    <g id="line2d_49" data-name="line2d 49">
      <path id="m24202845b9-19" data-name="m24202845b9" class="cls-7" d="M269.58,380.27v3.5"/>
    </g>
    <g id="line2d_50" data-name="line2d 50">
      <path id="m24202845b9-20" data-name="m24202845b9" class="cls-7" d="M276.99,380.27v3.5"/>
    </g>
    <g id="line2d_52" data-name="line2d 52">
      <path id="m24202845b9-21" data-name="m24202845b9" class="cls-7" d="M292.32,380.27v3.5"/>
    </g>
    <g id="line2d_53" data-name="line2d 53">
      <path id="m24202845b9-22" data-name="m24202845b9" class="cls-7" d="M299.23,380.27v3.5"/>
    </g>
    <g id="line2d_54" data-name="line2d 54">
      <path id="m24202845b9-23" data-name="m24202845b9" class="cls-7" d="M306.9,380.27v3.5"/>
    </g>
    <g id="line2d_55" data-name="line2d 55">
      <path id="m24202845b9-24" data-name="m24202845b9" class="cls-7" d="M314.31,380.27v3.5"/>
    </g>
    <g id="line2d_56" data-name="line2d 56">
      <path id="m24202845b9-25" data-name="m24202845b9" class="cls-7" d="M321.97,380.27v3.5"/>
    </g>
    <g id="line2d_58" data-name="line2d 58">
      <path id="m24202845b9-26" data-name="m24202845b9" class="cls-7" d="M337.04,380.27v3.5"/>
    </g>
    <g id="line2d_59" data-name="line2d 59">
      <path id="m24202845b9-27" data-name="m24202845b9" class="cls-7" d="M344.71,380.27v3.5"/>
    </g>
    <g id="line2d_60" data-name="line2d 60">
      <path id="m24202845b9-28" data-name="m24202845b9" class="cls-7" d="M352.12,380.27v3.5"/>
    </g>
    <g id="line2d_61" data-name="line2d 61">
      <path id="m24202845b9-29" data-name="m24202845b9" class="cls-7" d="M359.78,380.27v3.5"/>
    </g>
    <g id="line2d_62" data-name="line2d 62">
      <path id="m24202845b9-30" data-name="m24202845b9" class="cls-7" d="M367.19,380.27v3.5"/>
    </g>
    <g id="line2d_64" data-name="line2d 64">
      <path id="m24202845b9-31" data-name="m24202845b9" class="cls-7" d="M382.52,380.27v3.5"/>
    </g>
    <g id="line2d_65" data-name="line2d 65">
      <path id="m24202845b9-32" data-name="m24202845b9" class="cls-7" d="M389.44,380.27v3.5"/>
    </g>
    <g id="line2d_66" data-name="line2d 66">
      <path id="m24202845b9-33" data-name="m24202845b9" class="cls-7" d="M397.1,380.27v3.5"/>
    </g>
    <g id="line2d_67" data-name="line2d 67">
      <path id="m24202845b9-34" data-name="m24202845b9" class="cls-7" d="M404.51,380.27v3.5"/>
    </g>
    <g id="line2d_68" data-name="line2d 68">
      <path id="m24202845b9-35" data-name="m24202845b9" class="cls-7" d="M412.17,380.27v3.5"/>
    </g>
    <g id="line2d_70" data-name="line2d 70">
      <path id="m24202845b9-36" data-name="m24202845b9" class="cls-7" d="M427.25,380.27v3.5"/>
    </g>
    <g id="line2d_71" data-name="line2d 71">
      <path id="m24202845b9-37" data-name="m24202845b9" class="cls-7" d="M434.91,380.27v3.5"/>
    </g>
    <g id="line2d_72" data-name="line2d 72">
      <path id="m24202845b9-38" data-name="m24202845b9" class="cls-7" d="M442.32,380.27v3.5"/>
    </g>
    <g id="line2d_73" data-name="line2d 73">
      <path id="m24202845b9-39" data-name="m24202845b9" class="cls-7" d="M449.98,380.27v3.5"/>
    </g>
    <g id="line2d_74" data-name="line2d 74">
      <path id="m24202845b9-40" data-name="m24202845b9" class="cls-7" d="M457.39,380.27v3.5"/>
    </g>
    <g id="line2d_76" data-name="line2d 76">
      <path id="m24202845b9-41" data-name="m24202845b9" class="cls-7" d="M472.72,380.27v3.5"/>
    </g>
    <g id="line2d_77" data-name="line2d 77">
      <path id="m24202845b9-42" data-name="m24202845b9" class="cls-7" d="M479.88,380.27v3.5"/>
    </g>
    <g id="line2d_78" data-name="line2d 78">
      <path id="m24202845b9-43" data-name="m24202845b9" class="cls-7" d="M487.54,380.27v3.5"/>
    </g>
    <g id="line2d_79" data-name="line2d 79">
      <path id="m24202845b9-44" data-name="m24202845b9" class="cls-7" d="M494.96,380.27v3.5"/>
    </g>
    <g id="line2d_80" data-name="line2d 80">
      <path id="m24202845b9-45" data-name="m24202845b9" class="cls-7" d="M502.62,380.27v3.5"/>
    </g>
    <g id="line2d_82" data-name="line2d 82">
      <path id="m24202845b9-46" data-name="m24202845b9" class="cls-7" d="M517.69,380.27v3.5"/>
    </g>
    <g id="line2d_83" data-name="line2d 83">
      <path id="m24202845b9-47" data-name="m24202845b9" class="cls-7" d="M525.35,380.27v3.5"/>
    </g>
    <g id="line2d_84" data-name="line2d 84">
      <path id="m24202845b9-48" data-name="m24202845b9" class="cls-7" d="M532.77,380.27v3.5"/>
    </g>
    <g id="line2d_85" data-name="line2d 85">
      <path id="m24202845b9-49" data-name="m24202845b9" class="cls-7" d="M540.43,380.27v3.5"/>
    </g>
    <g id="line2d_86" data-name="line2d 86">
      <path id="m24202845b9-50" data-name="m24202845b9" class="cls-7" d="M547.84,380.27v3.5"/>
    </g>
    <g id="line2d_88" data-name="line2d 88">
      <path id="m24202845b9-51" data-name="m24202845b9" class="cls-7" d="M563.16,380.27v3.5"/>
    </g>
    <g id="line2d_89" data-name="line2d 89">
      <path id="m24202845b9-52" data-name="m24202845b9" class="cls-7" d="M570.08,380.27v3.5"/>
    </g>
    <g id="line2d_90" data-name="line2d 90">
      <path id="m24202845b9-53" data-name="m24202845b9" class="cls-7" d="M577.74,380.27v3.5"/>
    </g>
    <g id="line2d_91" data-name="line2d 91">
      <path id="m24202845b9-54" data-name="m24202845b9" class="cls-7" d="M585.16,380.27v3.5"/>
    </g>
    <g id="line2d_92" data-name="line2d 92">
      <path id="m24202845b9-55" data-name="m24202845b9" class="cls-7" d="M592.82,380.27v3.5"/>
    </g>
    <g id="line2d_27" data-name="line2d 27">
      <path id="m24202845b9-56" data-name="m24202845b9" class="cls-7" d="M103.97,377.95v8.15"/>
    </g>
    <g id="line2d_33" data-name="line2d 33">
      <path id="m24202845b9-57" data-name="m24202845b9" class="cls-7" d="M148.95,377.95v8.15"/>
    </g>
    <g id="line2d_39" data-name="line2d 39">
      <path id="m24202845b9-58" data-name="m24202845b9" class="cls-7" d="M194.43,377.95v8.15"/>
    </g>
    <g id="line2d_45" data-name="line2d 45">
      <path id="m24202845b9-59" data-name="m24202845b9" class="cls-7" d="M239.17,377.95v8.15"/>
    </g>
    <g id="line2d_51" data-name="line2d 51">
      <path id="m24202845b9-60" data-name="m24202845b9" class="cls-7" d="M284.64,377.95v8.15"/>
    </g>
    <g id="line2d_57" data-name="line2d 57">
      <path id="m24202845b9-61" data-name="m24202845b9" class="cls-7" d="M329.38,377.95v8.15"/>
    </g>
    <g id="line2d_63" data-name="line2d 63">
      <path id="m24202845b9-62" data-name="m24202845b9" class="cls-7" d="M374.86,377.95v8.15"/>
    </g>
    <g id="line2d_69" data-name="line2d 69">
      <path id="m24202845b9-63" data-name="m24202845b9" class="cls-7" d="M419.59,377.95v8.15"/>
    </g>
    <g id="line2d_75" data-name="line2d 75">
      <path id="m24202845b9-64" data-name="m24202845b9" class="cls-7" d="M465.07,377.95v8.15"/>
    </g>
    <g id="line2d_81" data-name="line2d 81">
      <path id="m24202845b9-65" data-name="m24202845b9" class="cls-7" d="M510.06,377.95v8.15"/>
    </g>
    <g id="line2d_87" data-name="line2d 87">
      <path id="m24202845b9-66" data-name="m24202845b9" class="cls-7" d="M555.53,377.95v8.15"/>
    </g>
    <g id="line2d_93" data-name="line2d 93">
      <path id="m24202845b9-67" data-name="m24202845b9" class="cls-7" d="M600.27,377.95v8.15"/>
    </g>
    <g id="line2d_88-2" data-name="line2d 88">
      <path id="m24202845b9-68" data-name="m24202845b9" class="cls-7" d="M607.9,380.27v3.5"/>
    </g>
    <g id="line2d_89-2" data-name="line2d 89">
      <path id="m24202845b9-69" data-name="m24202845b9" class="cls-7" d="M614.82,380.27v3.5"/>
    </g>
    <g id="line2d_90-2" data-name="line2d 90">
      <path id="m24202845b9-70" data-name="m24202845b9" class="cls-7" d="M622.48,380.27v3.5"/>
    </g>
    <g id="line2d_91-2" data-name="line2d 91">
      <path id="m24202845b9-71" data-name="m24202845b9" class="cls-7" d="M629.89,380.27v3.5"/>
    </g>
    <g id="line2d_92-2" data-name="line2d 92">
      <path id="m24202845b9-72" data-name="m24202845b9" class="cls-7" d="M637.56,380.27v3.5"/>
    </g>
    <g id="line2d_93-2" data-name="line2d 93">
      <path id="m24202845b9-73" data-name="m24202845b9" class="cls-7" d="M645.01,377.95v8.15"/>
    </g>
    <path class="cls-6" d="M90,364.61h565"/>
    <path class="cls-6" d="M90,290.94h565"/>
    <path class="cls-6" d="M90,217.26h565"/>
    <path class="cls-6" d="M90,143.59h510.29"/>
    <path class="cls-5" d="M90,106.75h565"/>
    <path class="cls-5" d="M90,180.43h510.27"/>
    <path class="cls-5" d="M90,254.1h565"/>
    <path class="cls-5" d="M90,327.77h565"/>
    <path class="cls-9" d="M90,69.92h565"/>
    <rect class="cls-18" x="193.94" y="69.87" width="90.46" height="303.07"/>
    <rect class="cls-18" x="374.36" y="69.87" width="90.46" height="303.07"/>
    <rect class="cls-18" x="555.53" y="69.87" width="89.47" height="303.07"/>
    <g id="line2d_108" data-name="line2d 108">
      <path class="cls-8" d="M104.07,69.92h7.17l7.66,167,7.41,122.44,7.66-19.95,7.41-36.75,7.66,2.93,7.66-1.31,7.41,12.63,7.66-3.94,7.41-4.89,7.66-19.47,7.66,30.22,6.92-11.05,7.66-10.91,7.41,7.51,7.66-13.74,7.41-22.57,7.66,2.33,7.66-4.42,7.41-20.01,7.66.14,7.41-7.8,7.66,1.85,7.66,35.37,6.92-42.58,7.66-6.26,7.41,8.88,7.66.84,7.41-7.56,7.66.84,7.66-26.52,7.41-15.05,7.66,10.93,7.41-12.18,7.66,34.1,7.66-29.6,6.92-4.52,7.66,3.56,7.41,2,7.66-.05,7.41-4.88,7.66,7.01,7.66-35.28,7.41,8.56,7.66,6.44,7.41-19.83,7.66,22.53,7.66-15.53,7.17-5.92,7.66,3.53,7.41-6.39,7.66,7.27,7.41,3.88,7.66,5.81,7.66-15.53,7.41-11.35,7.66-5.52,7.41,13.18,7.66,9.83,7.66-3.22,6.92-13.97,7.66-1.98,7.41-8.52,7.66-.62,7.41,8.66,7.66,5.42"/>
    </g>
    <g id="line2d_110" data-name="line2d 110">
      <path class="cls-2" d="M104.07,69.92h7.17l7.66,140.92,7.41,101.57,7.66-25.71,7.41-32.86,7.66,18.05,7.66,2.12,7.41,9.5,7.66-8.94,7.41-.53,7.66-14.96,7.66,25.85,6.92-13.84,7.66-7.06,7.41-.09,7.66,1.09,7.41-14.16,7.66,4.46,7.66-5.26,7.41-1.8,7.66-12.37,7.41-6.04,7.66-8.92,7.66,33.58,6.92-36.16,7.66,2.72,7.41,2.27,7.66-2.86,7.41-5.18,7.66,1.37,7.66-8.81,7.41-2.85,7.66.91,7.41-8.18,7.66,15.14,7.66-27.82,6.92-5.94,7.66,12.16,7.41-.95,7.66-5.18,7.41-.58,7.66,6.33,7.66-9.21,7.41-3.21,7.66-4.18,7.41-9.7,7.66,5.32,7.66,5.93,7.17-21.95,7.66,14.25,7.41-8.23,7.66,4.06,7.41,2.17,7.66.87,7.66-4.98,7.41-5.6,7.66-9.68,7.41-.09,7.66,7.77,7.66,10.08,6.92-20.14,7.66,8.53,7.41-5.52,7.66,5.97,7.41.97,7.66,6.32"/>
    </g>
    <g id="line2d_111" data-name="line2d 111">
      <path class="cls-3" d="M104.07,69.92h7.17l7.66,166.22,7.41,111.22,7.66-17.44,7.41-29.43,7.66,9.47,7.66-4.86,7.41,3.72,7.66-6.51,7.41-3.45,7.66-6.92,7.66,20.16,6.92-11.24,7.66-3.27,7.41-4.13,7.66-5.13,7.41-19.33,7.66-1.35,7.66-7.64,7.41-2.98,7.66-8.68,7.41-12.82,7.66,2.82,7.66,33.67,6.92-31.39,7.66-3.54,7.41,2.48,7.66-5.57,7.41-6.94,7.66,2.7,7.66-14.9,7.41-3.01,7.66-1.27,7.41-4.47,7.66,11.21,7.66-13.77,6.92-6.5,7.66,10.44,7.41-4.03,7.66-6.21,7.41,2.98,7.66.44,7.66-11.82,7.41-2.92,7.66-3.25,7.41-15.14,7.66,15.06,7.66,7.4,7.17-13.03,7.66,5.33,7.41-9.17,7.66,1.08,7.41,4.74,7.66.66,7.66-4.35,7.41-9.51,7.66-5.48,7.41-.63,7.66,3.65,7.66,19.8,6.92-19.84,7.66-2.63,7.41-2.89,7.66-.49,7.41,11.72,7.66,4.79"/>
    </g>
    <path class="cls-4" d="M104.07,69.92h7.17l7.66,173.2,7.41,122.42,7.66-18.01,7.41-33.86,7.66-1.35,7.66-9.37,7.41,2.57,7.66-3.5,7.41,2.84,7.66-8.71,7.66,16.63,6.92-8.9,7.66-9.5,7.41-6.51,7.66-8.56,7.41-24.89,7.66,3.79,7.66-6.75,7.41-4.58,7.66-12.97,7.41-3.96,7.66,3.07,7.66,32.31,6.92-36.56,7.66-9.43,7.41,4.05,7.66-4.91,7.41-6.36,7.66,6.84,7.66-9.51,7.41-9.67,7.66-2.83,7.41-3.02,7.66,12.88,7.66-14.24,6.92-9.02,7.66-.71,7.41,3.72,7.66-10.42,7.41,7.75,7.66,5.47,7.66-10.27,7.41-9.64,7.66,2.29,7.41-7.31,7.66,8.65,7.66,8.8,7.17-13.29,7.66-1.08,7.41-5.28,7.66-.8,7.41,8.28,7.66,3.73,7.66-3.23,7.41-12.58,7.66-8.76,7.41,4.07,7.66,4.86,7.66,6.07,6.92-13.86,7.66-5.72,7.41-2.75,7.66,4,7.41,8.3,7.66,7.45"/>
  </g>
  <g id="Layer_3" data-name="Layer 3">
    <text class="cls-12" transform="translate(20 27.14)"><tspan x="0" y="0">US public transit ridership recovery by system size following COVID</tspan></text>
    <text class="cls-15" transform="translate(133.05 58.94)"><tspan x="0" y="0">2020</tspan></text>
    <text class="cls-15" transform="translate(223.22 58.94)"><tspan x="0" y="0">2021</tspan></text>
    <text class="cls-15" transform="translate(313.39 58.94)"><tspan x="0" y="0">2022</tspan></text>
    <text class="cls-15" transform="translate(403.56 58.94)"><tspan x="0" y="0">2023</tspan></text>
    <text class="cls-15" transform="translate(493.78 58.94)"><tspan x="0" y="0">2024</tspan></text>
    <text class="cls-15" transform="translate(583.95 58.94)"><tspan x="0" y="0">2025</tspan></text>
    <text class="cls-17" transform="translate(44.46 74.93)"><tspan x="0" y="0">100%</tspan></text>
    <text class="cls-16" transform="translate(52.46 148.83)"><tspan x="0" y="0">80%</tspan></text>
    <text class="cls-16" transform="translate(52.46 222.73)"><tspan x="0" y="0">60%</tspan></text>
    <text class="cls-16" transform="translate(52.46 296.63)"><tspan x="0" y="0">40%</tspan></text>
    <text class="cls-16" transform="translate(52.46 370.53)"><tspan x="0" y="0">20%</tspan></text>
    <text class="cls-17" transform="translate(30 356.01) rotate(-90)"><tspan x="0" y="0">Ridership relative to pre-Covid levels</tspan></text>
    <text class="cls-19" transform="translate(593.06 399.26)"><tspan x="0" y="0">07</tspan></text>
    <text class="cls-19" transform="translate(547.97 399.38)"><tspan x="0" y="0">01</tspan></text>
    <text class="cls-19" transform="translate(638.15 399.38)"><tspan x="0" y="0">01</tspan></text>
    <text class="cls-19" transform="translate(502.89 399.26)"><tspan x="0" y="0">07</tspan></text>
    <text class="cls-19" transform="translate(457.8 399.38)"><tspan x="0" y="0">01</tspan></text>
    <text class="cls-19" transform="translate(412.71 399.26)"><tspan x="0" y="0">07</tspan></text>
    <text class="cls-19" transform="translate(367.63 399.38)"><tspan x="0" y="0">01</tspan></text>
    <text class="cls-19" transform="translate(356.48 419.64)"><tspan x="0" y="0">Month</tspan></text>
    <text class="cls-19" transform="translate(322.54 399.26)"><tspan x="0" y="0">07</tspan></text>
    <text class="cls-19" transform="translate(277.45 399.38)"><tspan x="0" y="0">01</tspan></text>
    <text class="cls-19" transform="translate(232.37 399.26)"><tspan x="0" y="0">07</tspan></text>
    <text class="cls-19" transform="translate(187.28 399.38)"><tspan x="0" y="0">01</tspan></text>
    <text class="cls-19" transform="translate(142.19 399.26)"><tspan x="0" y="0">07</tspan></text>
    <text class="cls-19" transform="translate(97.11 399.38)"><tspan x="0" y="0">01</tspan></text>
    <text class="cls-13" transform="translate(608.09 143.33)"><tspan x="0" y="0">Under 500k</tspan></text>
    <text class="cls-10" transform="translate(608.09 157.78)"><tspan x="0" y="0">500k - 1.99M</tspan></text>
    <text class="cls-14" transform="translate(608.09 172.22)"><tspan x="0" y="0">National (US)</tspan></text>
    <text class="cls-11" transform="translate(608.09 186.67)"><tspan x="0" y="0">2M+</tspan></text>
  </g>
</svg>