<?xml version="1.0" encoding="UTF-8" standalone="no"?>
<svg
   width="431px"
   height="64px"
   version="1.1"
   id="svg1"
   sodipodi:docname="eddit-logo.svg"
   inkscape:version="1.4 (1:1.4+202410161351+e7c3feb100)"
   xmlns:inkscape="http://www.inkscape.org/namespaces/inkscape"
   xmlns:sodipodi="http://sodipodi.sourceforge.net/DTD/sodipodi-0.dtd"
   xmlns="http://www.w3.org/2000/svg"
   xmlns:svg="http://www.w3.org/2000/svg">
  <defs
     id="defs1" />
  <sodipodi:namedview
     id="namedview1"
     pagecolor="#ffffff"
     bordercolor="#666666"
     borderopacity="1.0"
     inkscape:showpageshadow="2"
     inkscape:pageopacity="0.0"
     inkscape:pagecheckerboard="0"
     inkscape:deskcolor="#d1d1d1"
     inkscape:zoom="2.1032482"
     inkscape:cx="195.1743"
     inkscape:cy="34.708219"
     inkscape:window-width="1920"
     inkscape:window-height="1043"
     inkscape:window-x="0"
     inkscape:window-y="0"
     inkscape:window-maximized="1"
     inkscape:current-layer="svg1" />
  <path
     fill-rule="evenodd"
     fill="rgb(51, 198, 177)"
     d="m 419.735,44.591 c 1.485,0 3.374,0.243 5.048,1.35 1.214,0.809 2.267,2.078 2.915,3.212 l -3.752,2.024 c -0.351,-0.702 -0.891,-1.43 -1.593,-1.943 -0.809,-0.594 -1.727,-0.864 -2.753,-0.864 -1.646,0 -2.861,0.54 -3.725,1.458 -0.999,1.052 -1.538,2.591 -1.538,4.264 0,2.052 0.755,3.374 1.511,4.13 1.053,1.08 2.268,1.404 3.644,1.404 1.782,0 2.726,-0.621 3.131,-0.972 0.135,-0.108 0.945,-0.81 1.296,-2.132 h -4.346 v -3.347 h 8.935 v 0.189 c 0,2.186 -0.783,5.506 -2.78,7.585 -1.998,2.078 -4.292,2.456 -6.425,2.456 -2.159,0 -4.481,-0.351 -6.586,-2.51 -1.053,-1.08 -2.645,-3.267 -2.645,-6.857 0,-2.942 1.079,-5.29 2.591,-6.829 2.213,-2.294 4.94,-2.618 7.072,-2.618 z m -22.87,0.405 h 4.157 V 63 h -3.617 L 387.633,51.339 V 63 h -4.157 V 44.996 h 3.617 l 9.772,11.607 z M 373.512,63 h -4.157 V 44.996 h 4.157 z m -104.76,0 h -4.157 V 48.505 h -3.914 v -3.509 h 11.985 v 3.509 h -3.914 z M 217.801,44.996 h 4.157 V 63 h -4.157 v -7.639 h -7.18 V 63 h -4.157 V 44.996 h 4.157 v 6.856 h 7.18 z m -24.111,0.945 c 1.214,0.809 2.267,2.078 2.915,3.212 l -3.752,2.024 c -0.351,-0.702 -0.891,-1.43 -1.593,-1.943 -0.809,-0.594 -1.727,-0.864 -2.753,-0.864 -1.646,0 -2.861,0.54 -3.725,1.458 -0.999,1.052 -1.538,2.591 -1.538,4.264 0,2.052 0.755,3.374 1.511,4.13 1.053,1.08 2.268,1.404 3.644,1.404 1.782,0 2.726,-0.621 3.131,-0.972 0.135,-0.108 0.945,-0.81 1.296,-2.132 h -4.346 v -3.347 h 8.935 v 0.189 c 0,2.186 -0.783,5.506 -2.781,7.585 -1.997,2.078 -4.291,2.456 -6.424,2.456 -2.159,0 -4.481,-0.351 -6.586,-2.51 -1.053,-1.08 -2.645,-3.267 -2.645,-6.857 0,-2.942 1.079,-5.29 2.591,-6.829 2.213,-2.294 4.94,-2.618 7.072,-2.618 1.485,0 3.374,0.243 5.048,1.35 z m -44.008,9.42 -1.484,-0.513 c -0.837,-0.297 -1.809,-0.675 -2.511,-1.43 -0.945,-0.999 -1.08,-2.268 -1.08,-3.132 0,-1.592 0.486,-2.942 1.566,-4.049 1.269,-1.295 2.78,-1.646 4.454,-1.646 1.242,0 3.239,0.216 5.344,1.781 l -1.862,3.024 c -1.35,-1.215 -2.51,-1.296 -3.023,-1.296 -0.567,0 -1.269,0.081 -1.755,0.621 -0.27,0.27 -0.459,0.675 -0.459,1.134 0,0.431 0.135,0.755 0.405,0.998 0.432,0.405 1.053,0.567 2.268,1.026 l 1.349,0.513 c 0.783,0.297 1.755,0.702 2.457,1.376 1.052,0.999 1.322,2.295 1.322,3.348 0,1.862 -0.648,3.482 -1.592,4.453 -1.593,1.674 -3.914,1.836 -5.102,1.836 -1.296,0 -2.429,-0.189 -3.563,-0.756 -0.918,-0.459 -1.97,-1.296 -2.645,-1.97 l 2.159,-2.97 c 0.459,0.459 1.188,1.08 1.674,1.377 0.702,0.432 1.43,0.648 2.267,0.648 0.54,0 1.296,-0.108 1.89,-0.621 0.35,-0.297 0.647,-0.783 0.647,-1.458 0,-0.593 -0.243,-0.971 -0.62,-1.295 -0.486,-0.405 -1.593,-0.81 -2.106,-0.999 z M 130.78,44.996 h 4.157 V 63 H 131.32 L 121.548,51.339 V 63 h -4.157 V 44.996 h 3.617 l 9.772,11.607 z M 82.989,63 H 78.67 L 77.321,59.599 H 70.518 L 69.142,63 H 64.823 L 72.084,44.996 H 75.89 Z M 71.733,56.414 h 4.454 l -2.213,-6.047 z m -56.54,3.887 C 12.71,62.811 9.605,63 8.094,63 H 2.263 V 44.996 h 5.696 c 2.375,0 4.886,0.351 7.099,2.483 1.593,1.539 2.591,3.644 2.591,6.451 0,2.835 -0.971,4.886 -2.456,6.371 z M 11.9,50.043 C 10.55,48.694 8.796,48.505 7.527,48.505 H 6.42 v 10.986 h 1.107 c 0.864,0 2.753,-0.081 4.103,-1.215 0.972,-0.81 1.754,-2.348 1.754,-4.346 0,-1.943 -0.782,-3.185 -1.484,-3.887 z M 35.579,44.996 42.678,63 H 38.359 L 37.01,59.599 H 30.207 L 28.831,63 h -4.319 l 7.261,-18.004 z m 0.297,11.418 -2.213,-6.047 -2.241,6.047 z M 59.744,48.505 H 55.83 V 63 H 51.673 V 48.505 H 47.759 V 44.996 H 59.744 Z M 107.427,63 H 103.27 V 44.996 h 4.157 z m 62.424,0 h -4.157 V 44.996 h 4.157 z m 72.224,-14.495 h -3.914 V 63 h -4.157 V 48.505 h -3.914 v -3.509 h 11.985 z m 49.626,-1.944 c 0.755,0.729 1.565,2.025 1.565,4.022 0,1.134 -0.243,2.538 -1.403,3.671 -0.621,0.594 -1.512,1.134 -2.511,1.377 L 294.886,63 h -5.075 l -4.859,-7.099 V 63 h -4.157 V 44.996 h 6.317 c 2.294,0 3.725,0.756 4.589,1.565 z m -5.777,1.674 h -0.972 v 4.94 h 0.945 c 0.756,0 1.782,-0.081 2.483,-0.783 0.297,-0.297 0.675,-0.864 0.675,-1.755 0,-1.025 -0.486,-1.565 -0.836,-1.835 -0.675,-0.513 -1.755,-0.567 -2.295,-0.567 z M 312.572,44.996 319.671,63 h -4.319 l -1.349,-3.401 H 307.2 L 305.824,63 h -4.319 l 7.261,-18.004 z m 0.297,11.418 -2.213,-6.047 -2.241,6.047 z M 331.878,63 h -4.157 V 44.996 h 4.157 z m 23.353,-6.397 V 44.996 h 4.157 V 63 h -3.617 L 345.999,51.339 V 63 h -4.157 V 44.996 h 3.618 z"
     id="path1"
     style="color:#000000;font-style:normal;font-variant:normal;font-weight:normal;font-stretch:normal;font-size:medium;line-height:normal;font-family:sans-serif;font-variant-ligatures:normal;font-variant-position:normal;font-variant-caps:normal;font-variant-numeric:normal;font-variant-alternates:normal;font-variant-east-asian:normal;font-feature-settings:normal;font-variation-settings:normal;text-indent:0;text-align:start;text-decoration-line:none;text-decoration-style:solid;text-decoration-color:#000000;letter-spacing:normal;word-spacing:normal;text-transform:none;writing-mode:lr-tb;direction:ltr;text-orientation:mixed;dominant-baseline:auto;baseline-shift:baseline;text-anchor:start;white-space:normal;shape-padding:0;shape-margin:0;inline-size:0;clip-rule:nonzero;display:inline;overflow:visible;visibility:visible;isolation:auto;mix-blend-mode:normal;color-interpolation:sRGB;color-interpolation-filters:linearRGB;solid-color:#000000;solid-opacity:1;vector-effect:none;fill:#00a189;fill-opacity:1;fill-rule:evenodd;stroke:none;stroke-linecap:butt;stroke-linejoin:miter;stroke-miterlimit:4;stroke-dasharray:none;stroke-dashoffset:0;stroke-opacity:1;-inkscape-stroke:none;color-rendering:auto;image-rendering:auto;shape-rendering:auto;text-rendering:auto;enable-background:accumulate;stop-color:#000000;stop-opacity:1"
     sodipodi:nodetypes="sccccscscscccccscssscsccccccccccccccccccccccccccccccccccccccccccscscscccccssssscsccccscsccscsccccscsscccscscccccccccccccccccccccccccccsccscsccsccscscccccccccccccccccccccccccccccccccccccccccccsccccccccscsccscscsccccccccccccccccccccccccccccc"
     clip-path="none" />
  <path
     style="fill:#ffffff;stroke:#ffffff;stroke-width:2;stroke-linecap:butt;stroke-linejoin:miter;stroke-opacity:1;stroke-dasharray:none"
     d="M 0,34.292144 H 431"
     id="path2" />
  <path
     d="m 424.691,5.218998 v 18.430001 h -5.544 V 5.218998 h -5.21899 V 0.54 H 429.91 v 4.678998 z m -31.536,3.78 v 14.650001 h -5.54301 V 0.54 h 4.82301 l 13.03098,15.478001 V 0.54 h 5.54302 v 23.108999 h -4.824 z M 369.53999,0.54 H 383.11 v 4.678998 h -8.027 v 4.644 h 7.63098 v 4.679003 H 375.083 v 5.328 h 8.027 v 3.778998 h -13.57001 z m -11.59499,9.682998 -6.011,13.426001 h -1.944 l -6.011,-13.426001 -1.90802,13.426001 h -5.54297 L 340.379,0.54 h 4.608 L 350.96198,14.902001 356.937,0.54 h 4.608 l 3.851,23.108999 h -5.54302 z m -31.966,5.903003 h -3.384 v 7.522998 h -5.54301 V 0.54 h 8.45899 c 2.08702,0 4.39102,0.288 6.299,1.98 2.05202,1.8 2.34002,4.174998 2.34002,5.830998 0,3.024 -1.152,4.715002 -2.05202,5.651003 -1.90798,1.944 -4.42798,2.124 -6.11898,2.124 z m 1.584,-10.151003 c -0.82802,-0.792 -2.016,-0.9 -3.096,-0.9 h -1.872 v 6.516 h 1.97998 c 0.75602,0 2.088,-0.0359 2.98802,-0.9 0.50298,-0.504 0.899,-1.332 0.899,-2.376 0,-1.008 -0.36019,-1.836 -0.899,-2.34 z m -27.685,19.114001 c -4.499,0 -7.55902,-1.8 -9.358,-3.528 -2.304,-2.158998 -3.744,-5.398998 -3.744,-8.926999 0,-3.455002 1.54799,-6.947002 3.70799,-9.106 C 292.10298,1.908 295.091,0 299.878,0 c 3.744,0 6.875,1.152 9.28702,3.492 2.26798,2.194998 3.744,5.362998 3.744,9.070998 0,3.203003 -1.152,6.479003 -3.744,8.998001 -2.232,2.16 -5.25502,3.528 -9.28702,3.528 z m 5.256,-17.926001 c -1.18802,-1.152 -3.096,-2.052 -5.29202,-2.052 -2.08698,0 -3.95898,0.756 -5.25498,2.052 -1.04402,1.008 -2.12402,2.772 -2.12402,5.435002 0,2.196001 0.72,3.960001 2.19602,5.400001 1.54798,1.476 3.27598,1.98 5.147,1.98 2.448,0 4.176,-0.9 5.328,-2.052 0.936,-0.9 2.08702,-2.592 2.08702,-5.363003 0,-2.484 -1.00702,-4.32 -2.08702,-5.4 z M 272.52,0.54 h 5.54298 v 19.330001 h 7.451 v 3.778998 H 272.52 Z m -18.072,0 h 13.56998 v 4.678998 h -8.027 v 4.644 h 7.63102 v 4.679003 h -7.63102 v 5.328 h 8.027 v 3.778998 H 254.448 Z M 237.743,23.648999 227.556,0.54 h 5.975 L 239.615,15.910001 245.69798,0.54 H 251.673 L 241.486,23.648999 Z M 211.968,0.54 h 13.57 v 4.678998 h -8.027 v 4.644 h 7.631 v 4.679003 h -7.631 v 5.328 h 8.027 v 3.778998 h -13.57 z m -16.885,23.108999 h -7.775 V 0.54 h 7.595 c 3.168,0 6.515,0.468 9.467,3.312 2.123,2.050998 3.455,4.858998 3.455,8.602998 0,3.779003 -1.296,6.515003 -3.275,8.494001 -3.312,3.348 -7.451,2.7 -9.467,2.7 z m 5.075,-16.378001 c -1.8,-1.8 -4.139,-2.052 -5.831,-2.052 h -1.476 v 14.651003 h 1.476 c 1.152,0 3.672,-0.108019 5.471,-1.62 1.296,-1.08 2.34,-3.132 2.34,-5.795003 0,-2.592 -1.044,-4.248 -1.98,-5.184 z M 160.848,0.54 h 13.57 v 4.678998 h -8.027 v 4.644 h 7.631 v 4.679003 h -7.631 v 5.328 h 8.027 v 3.778998 h -13.57 z m -16.128,0 h 5.543 v 19.330001 h 7.451 v 3.778998 H 144.72 Z m -12.349,23.108999 h -9.035 V 0.54 h 7.343 c 1.296,0 4.247,0.072 6.119,1.836 1.548,1.476 1.728,3.490998 1.728,4.534998 0,0.936 -0.144,2.016 -0.792,3.06 -0.612,1.008 -1.44,1.512 -2.016,1.764 1.152,0.180019 2.448,0.756 3.312,1.619003 0.792,0.792 1.548,2.16 1.548,4.284 0,2.412 -0.936,3.922998 -1.872,4.858998 -1.98,1.908 -4.859,1.152 -6.335,1.152 z m 0.17998,-18.178001 c -0.792,-0.612 -1.872,-0.612 -2.88,-0.612 h -0.864 v 5.436 h 0.9 c 0.756,0 2.016,-0.107981 2.808,-0.684 0.504,-0.36 0.972,-1.08 0.972,-2.124 0,-1.044 -0.504,-1.692 -0.936,-2.016 z m 1.727,9.827003 c -0.971,-0.9 -2.843,-0.9 -3.959,-0.9 h -1.512 v 5.832 h 1.332 c 1.404,0 3.096,-0.03591 4.103,-0.972 0.504,-0.468 0.792,-1.152 0.792,-2.016 0,-0.972 -0.396,-1.62 -0.756,-1.944 z m -21.20398,4.716 h -9.071 l -1.836,3.634998 H 96.408001 L 106.091,0.54 h 5.075 l 9.467,23.108999 h -5.759 z m -4.463,-12.311003 -2.988,8.063003 h 5.939 z M 92.339,23.648999 H 86.795 V 5.218998 H 81.576001 V 0.54 H 97.557997 V 5.218998 H 92.338999 Z M 73.008,0.54 h 5.543 V 23.648999 H 73.008 Z M 57.490999,25.088999 c -2.52,0 -5.184001,-0.36 -7.486998,-2.736 -2.376,-2.446998 -2.664,-5.290998 -2.664,-7.594998 V 0.54 h 5.542997 v 14.074001 c 0,1.044 0.072,2.808 1.260002,4.032 0.972,1.044 2.304,1.26 3.347999,1.26 1.042998,0 2.374998,-0.216 3.346998,-1.26 1.188001,-1.224 1.26,-2.988 1.26,-4.032 V 0.54 H 67.641 v 14.218001 c 0,2.304 -0.288,5.148 -2.663003,7.594998 -2.304,2.376 -4.968,2.736 -7.486998,2.736 z m -18.865999,0.576 -2.338999,-2.448 c -1.188,0.864 -3.060001,1.872 -6.732001,1.872 -3.743002,0 -6.479001,-1.116 -8.818,-3.42 -2.772,-2.734998 -3.78,-6.118998 -3.78,-9.142001 0,-3.6 1.548,-6.84 3.636,-8.926998 2.050999,-2.052 5.254998,-3.6 9.394,-3.6 3.708,0 7.018999,1.332 9.286999,3.456 2.196,2.050998 3.744,5.182998 3.744,9.142 0,1.800001 -0.396,3.276001 -1.008,4.644001 -0.612,1.404 -1.404,2.412 -2.34,3.24 l 4.176,4.534998 z M 35.278002,7.234998 c -1.368001,-1.404 -3.312002,-2.124 -5.292001,-2.124 -2.231002,0 -4.103002,0.936 -5.255002,2.124 -1.368,1.404 -2.087999,3.528 -2.087999,5.399002 0,1.944001 0.684,3.816001 2.015999,5.220001 1.188,1.224 2.844,2.124 5.183002,2.124 1.008,0 1.944,-0.180019 2.88,-0.612 l -4.319002,-4.248 5.363002,-0.576 2.160001,2.304 c 0.898998,-1.224 1.402998,-2.52 1.402998,-4.319003 0,-2.556 -1.042998,-4.284 -2.050998,-5.292 z M 0,0.54 H 13.570002 V 5.218998 H 5.542999 v 4.644 h 7.631002 v 4.679003 H 5.542999 v 5.328 h 8.027003 v 3.778998 H 0 Z"
     style="fill:#ffffff;fill-opacity:1;fill-rule:evenodd;stroke-width:0.999999;opacity:0.8"
     id="path1-0" />
</svg>
