<?xml version="1.0" encoding="UTF-8"?>
<svg id="Layer_1" data-name="Layer 1" xmlns="http://www.w3.org/2000/svg" xmlns:xlink="http://www.w3.org/1999/xlink" viewBox="0 0 360 525.53">
  <defs>
    <style>
      .cls-1 {
        fill: #f0c036;
      }

      .cls-1, .cls-2, .cls-3, .cls-4, .cls-5, .cls-6, .cls-7, .cls-8 {
        stroke-miterlimit: 10;
      }

      .cls-1, .cls-3, .cls-5, .cls-6, .cls-8 {
        stroke: #231f20;
        stroke-width: .5px;
      }

      .cls-2 {
        stroke: #fff;
      }

      .cls-2, .cls-4, .cls-7 {
        fill: none;
      }

      .cls-9 {
        fill: url(#linear-gradient);
      }

      .cls-3 {
        fill: #e57059;
      }

      .cls-10 {
        fill: #4ebdac;
      }

      .cls-4 {
        stroke: #4ebdac;
      }

      .cls-5 {
        fill: #e89645;
      }

      .cls-11, .cls-12 {
        font-family: OpenSans-Bold, 'Open Sans';
        font-weight: 700;
      }

      .cls-11, .cls-12, .cls-13, .cls-14, .cls-15 {
        fill: #231f20;
      }

      .cls-11, .cls-15 {
        font-size: 14px;
      }

      .cls-16 {
        fill: #9a9896;
      }

      .cls-16, .cls-13 {
        font-size: 12px;
      }

      .cls-16, .cls-13, .cls-14, .cls-15 {
        font-family: OpenSans, 'Open Sans';
      }

      .cls-6 {
        fill: #e57459;
      }

      .cls-12 {
        font-size: 20px;
      }

      .cls-7 {
        stroke: #9a9896;
      }

      .cls-14 {
        font-size: 10.03px;
      }

      .cls-8 {
        fill: #f3d033;
      }
    </style>
    <linearGradient id="linear-gradient" x1="309.34" y1="380.16" x2="309.34" y2="187.63" gradientUnits="userSpaceOnUse">
      <stop offset=".04" stop-color="#e36a5b"/>
      <stop offset=".52" stop-color="#e69941"/>
      <stop offset=".96" stop-color="#f3d033"/>
    </linearGradient>
  </defs>
  <text class="cls-13" transform="translate(20.73 139.58)"><tspan x="0" y="0">Households &apos;spending 30% or more of income on shelter </tspan><tspan x="0" y="14.4">costs&apos; or &apos;not suitable&apos; or &apos;major repairs needed&apos;</tspan></text>
  <text class="cls-12" transform="translate(19.81 23.87)"><tspan x="0" y="0">Towns further from Fort </tspan><tspan x="0" y="24">McMurray have higher rates of </tspan><tspan x="0" y="48">households with housing cost </tspan><tspan x="0" y="72">burden or unsuitable housing </tspan><tspan x="0" y="96">conditions</tspan></text>
  <text class="cls-16" transform="translate(20 515.66)"><tspan x="0" y="0">Sources: Statistics Canada (2021) </tspan></text>
  <line class="cls-7" x1="20.41" y1="503.2" x2="340" y2="503.2"/>
  <path class="cls-10" d="M221.9,417.59v51.5l.03.44v1.35l-.03.47v9.89l-.44-.03h-39.28l-.44-.03h-.91l-.42.03h-7.29v-.03l.03-.44v-15.75h-.42v-10.87h-16.4v2.72h-5.47v-2.72h-5.01l-.44.03h-.42l-.05-.03h-4.72l-.29.03-.47-.03h-4.1l-.44.03h-1.4l-.44-.03h-2.28l-.44.03h-.08v-.03l-.03-.03h-.03v-.03l-.05-.03-.08-.05h-.05l-.03-.03h-.03l-.05-.03-.03-.03h-.03l-.03-.05-.03-.03-.03-.05h-.03v-.16l-.03-.03v-.05l-.03-.03v-.21l.03-.1v-.03l.03-.03v-.08l.03-.03.03-.03v-.03l.03-.03.03-.03v-.03l.03-.03.03-.03.03-.05h.03l.03-.03.03-.03h.03l.03-.03.05-.05h.03l.05-.03.03-.03h.03v-.03h.03l.03-.03h.03l.03-.03.03-.03.05-.05.05-.03.03-.03h.03l.03-.03.1-.03h.03l.05-.03h.05l.03-.03h.05l.03-.03h.05l.03-.03.03-.03.03-.03h.05l.08-.05.05-.03.03-.03h.05l.03-.03.03-.03.03-.03.03-.03.03-.05v-.13l-.03-.03v-.03l-.03-.03-.03-.03-.03-.03v-.03l-.03-.03h-.03l-.03-.03h-.13v.03l-.03-.03h-.23v-.03h-.03l-.03-.03-.03-.03v-.03l-.05-.03-.03-.05h-.03l-.03-.05-.03-.03v-.03l-.03-.05-.03-.03v-.05l-.03-.08-.03-.1v-.21l.03-.03v-.18l.03-.03v-.13l.03-.03v-.08l.03-.08.08-.13v-.03l.03-.03.03-.05.03-.03v-.05l.03-.05v-.03l.03-.03v-.05l.05-.16v-.13l.03-.08v-.05l-.03-.08v-.05l-.03-.03v-.08l-.03-.03v-.1l-.03-.03v-.03l-.03-.03-.03-.03-.03-.03v-.03l-.03-.03v-.03l-.03-.03v-.03h-.03l-.03-.03h-.03v-.03h-.05v-.05h-.03v-.03h-.03v-.03l-.03-.03-.03-.03h-.03v-.03h-.03l-.03-.03h-.03v-.03l-.03-.03-.03-.03-.03-.03v-.13l.03-.05v-.1l.03-.03.03-.03v-.03h.05v-.03h.03l.03-.03h.16l.03-.03h.26l.13.03h.31l.08-.03.05-.03h.05l.03-.03h.03l.03-.03.03-.03h.03l.03-.03.03-.03.03-.03.03-.03h.03l.05-.08.05-.1v-.03h.03v-.03l.03-.05.03-.03v-.08h.03v-.03l.03-.03.03-.08v-.05h.03v-.08h.03l.03-.08v-.03l.03-.03v-.08l.03-.03v-.05l.03-.03.03-.08.03-.03.03-.08v-.13h.03v-.1l.03-.05v-.05l.03-.03v-.05h-.03v-.03l-.03-.03v-.23l-.03-.03v-.1l-.03-.03v-.08l-.03-.03v-.05l-.03-.03-.03-.05v-.03l-.03-.05v-.26l.03-.1v-.08l.05-.16v-.03l.03-.05.03-.05v-.05l.03-.03.03-.05.03-.03.05-.05.03-.03.03-.03.05-.03.03-.03.03-.03h.03l.03-.03h.03v-.03h.03l.03-.03h.03v-.03l.03-.03.03-.03.03-.03.03-.05v-.03h.03v-.08.03h.03l-.03-.03v-.13h.03v-.1l-.03-.03v-.26l.03-.08v-.13l.03-.05.03-.05v-.03l.03-.03h.03l.05-.03.03-.03h.16v-.03h.16l.03-.03.03-.03h.03l.03-.03.03-.03v-.03l.03-.03h.03v-.03l.03-.03v-.03l.03-.05.03-.03.03-.03v-.05l.03-.03v-.08l.03-.03v-.05h.03v-.1l.03-.03v-.08h.03v-.03l.03-.03v-.05l.03-.05.03-.03.03-.05h.03v-.03l.03-.03.05-.05.03-.03v-.03h.03l.03-.03.03-.03.03-.03v-.03h.03l.03-.03v-.03l.03-.03.05-.05.03-.03.03-.05.03-.03h.03l.03-.03v-.03l.05-.05v-.05h.03v-.05l.03-.05.03-.03v-.1l.03-.03v-.1h.03v-.36h.03l-.03-.03-.03-.05-.03-.05-.03-.05-.05-.05-.05-.08-.03-.03-.03-.03h-.03l-.03-.08-.05-.03-.03-.03-.03-.03-.03-.03h-.03l-.03-.03v-.03h-.03l-.03-.03h-.03l-.03-.05h-.03v-.05l-.03-.03-.03-.05-.03-.05-.03-.08-.03-.05v-.05l-.03-.05v-.18l-.03-.03v-.16h-.03v-.18l-.03-.05.03-.03v-.18l.03-.1v-.1h-.03v-.03l.03-.05v-.05h-.03v-.13l-.03-.05v-.03l-.03-.03v-.03l-.03-.03v-.03l-.03-.03v-.05l-.03-.03v-.05l-.03-.03v-.05l-.03-.03v-.03l-.03-.05v-.03l-.03-.03v-.03l-.03-.03v-.03l-.03-.03v-.03l-.03-.03-.03-.08v-.08l-.03-.03-.03-.05-.03-.08-.03-.03v-.03l-.03-.03v-.03l-.03-.03-.03-.03v-.03l-.03-.03-.05-.03-.03-.08-.08-.1-.03-.03v-.03l-.03-.03-.03-.03v-.03l-.03-.05-.03-.05v-.03l-.03-.03-.03-.03-.03-.05-.03-.03v-.03l-.03-.03-.05-.08v-.05l-.03-.05v-.03l-.03-.03v-.13l-.03-.1-.03-.03v-.05h-.03v-.05l-.03-.08v-.16l-.03-.05v-.1l-.03-.03-.03-.08v-.05l-.03-.05v-.03l-.03-.05v-.03l-.03-.05-.03-.05v-.03l-.03-.03v-.03l-.03-.05-.03-.03v-.03l-.03-.03v-.03l-.03-.03v-.03l-.03-.03-.03-.05v-.03h-.03l-.03-.08-.03-.03v-.03l-.03-.03v-.03l-.03-.03v-.03l-.03-.03v-.05l-.03-.05v-.03l-.03-.05v-.05l-.03-.03v-.03h-.03v-.05l-.03-.03-.03-.05v-.05l-.03-.05v-.03l-.03-.05v-.08l-.03-.03v-.03l-.03-.03v-.05l-.03-.03-.03-.1v-.05l-.03-.03v-.05h-.03v-.03l-.03-.03-.03-.03-.03-.05-.03-.05-.03-.03-.03-.03-.03-.05v-.05l-.03-.03v-.03h-.03l-.03-.03v-.03h-.03v-.03l-.03-.03v-.03l-.03-.03v-.03l-.03-.03v-.03l-.03-.03-.03-.03v-.03l-.03-.03-.03-.03-.03-.03-.03-.03-.03-.03v-.03l-.03-.03-.03-.03-.03-.03h-.03l-.03-.03h-.18l-.03-.03v-.03h-.03v-.03l-.03-.03-.03-.03h-.03l-.03-.03-.03-.03-.03-.03v-.03l-.03-.03h-.03v-.03h-.03v-.03l-.03-.03-.03-.03-.03-.03-.03-.03v-.03h-.03v-.03l-.03-.05-.03-.03-.03-.05h-.03v-.16l-.03-.05-.03-.05-.03-.05v-.05l-.03-.03v-.03l-.03-.03v-.03l-.03-.03v-.13l-.03-.03-.03-.03v-.05h-.03v-.03l-.03-.03h-.03v-.03l-.03-.03h-.03v-.03h-.05l-.03-.03-.05-.03h-.03l-.05-.03-.08-.03h-.05l-.03-.03h-.03l-.03-.03v-.03h-.03l-.03-.03v-.03l-.03-.03-.03-.03v-.03l-.03-.03v-.05l-.03-.03v-.21h-.03l.03-.05v-.08l.03-.03.03-.08v-.05l.03-.03v-.05l.03-.08v-.03l.03-.03v-.23l-.03-.05v-.03l-.03-.05-.03-.03v-.05l-.03-.03v-.03l-.03-.03v-.03h-.03v-.03l-.03-.05-.05-.05v-.03l-.03-.03v-.03h-.03v-.03l-.03-.03v-.03h-.03l-.03-.05-.03-.03v-.03h-.03v-.03h-.03v-.05h-.03v-.03h-.03v-.03l-.03-.03-.03-.03v-.03h-.03v-.05h-.03v-.05h-.03v-.03l-.03-.05v-.18l-.03-.03.03-.03v-.05l.03-.05.03-.03v-.03l.03-.03.03-.05.03-.03h.03v-.03l.03-.03v-.03l.03-.05.03-.05v-.03l.03-.08v-.34l-.03-.03v-.03h-.03v-.05h-.03v-.03h-.03v-.03h-.03v-.03l-.03-.03h-.03v-.03h-.05l-.05-.03h-.03l-.03-.03h-.18l-.03-.03h-.16l-.03-.03h-.05l-.1-.03h-.03l-.03-.03h-.08l-.1-.03h-.03l-.03-.03h-.03l-.03-.03-.03-.03v-.03h-.05v-.03h-.08v-.03l-.03-.03-.03-.03h-.03v-.03h-.03l-.03-.03-.03-.05-.03-.03h-.03v-.03l-.03-.03-.03-.05-.03-.03h-.03v-.03l-.03-.05v-.03l-.03-.03v-.03h-.03v-.05l-.03-.05-.03-.05v-.31l.03-.03v-.03l.03-.1v-.03l.03-.03.03-.03v-.05l.03-.03v-.03h.03l.03-.03.03-.03.03-.03v-.03l.05-.03.03-.03.03-.03v-.03l.03-.03.03-.03h.03l.03-.03h.03l.03-.03.05-.03.03-.03.03-.03.03-.03.03-.03h.03l.03-.03h.03l.03-.03h.03l.03-.03v-3.76h-.86v-8.3l-.03-.47v-13.41h-.88v-22.39h-.93v-5.63h-11.34v-5.66h-31.68v-45.64h.16l.47.03h91.1l.05-.18v-.05l.08-.13.03-.03.03-.05.05-.03.03-.08.03-.05v-.05l-.03-.08-.03-.13-.36-1.09-.08-.36v-.08l-.05-.29v-.03l.05-.23.03-.13.08-.42v-.03l.08-.31v-.03l.05-.23v-.03l.03-.08.03-.21.08-.54v-.05l.03-.16.03-.1v-.1l.03-.08.05-.34v-.16l-.03-.1v-.86l-.03-.16-.05-.1-.08-.21-.08-.1-.03-.05-.05-.1-.05-.1-.36-.34-.18-.18-.1-.1-.1-.05-.1-.08-.13-.05-.34-.05-.23-.05-.36-.08-.03-.03-.13-.05-.13-.08-.13-.29-.03-.1-.03-.16.03-.13.05-.16.1-.16.13-.16.1-.1.08-.1.16-.16.16-.18.08-.08.05-.13.03-.18v-.29l-.03-.13-.05-.1-.16-.1h-.03l-.05-.03-.31-.05-.31.05-.08.03-.16.08-.05.08-.1.05-.08.05-.18.08-.1.03h-.1l-.1-.03h-.03l-.13-.03-.08-.05-.08-.05-.03-.08-.05-.1-.03-.03-.05-.16v-.39l-.03-.26v-.1l-.03-.05v-.08l-.03-.08-.03-.18-.03-.1-.03-.13-.03-.13-.05-.08-.08-.1-.08-.18-.08-.08-.03-.08-.05-.05-.05-.08-.05-.1-.08-.16-.05-.16-.05-.18-.05-.13v-.1l-.03-.39v-.08l.03-.18v-.03l.03-.08v-.21l.03-.1v-.39l-.03-.16-.03-.1-.03-.05-.05-.13-.08-.16-.13-.18-.1-.1-.26-.21-.03-.08-.03-.03-.21-.31-.03-.1-.16-.47-.05-.08-.08-.08-.05-.03-.05-.05-.05-.13v-.29l.03-.13v-.13l.03-.08v-.36l.03-.16.05-.1.1-.21.05-.18.05-.13.03-.08.03-.05v-.08l-.03-.08-.05-.05-.05-.05-.08-.03-.05-.08-.05-.05-.03-.08-.03-.08-.03-.05-.05-.1v-.08l-.03-.13-.03-.05-.03-.08-.05-.03-.08-.08-.05-.1-.03-.08v-.13l.03-.05v-.03l-.21-.26-.03-.03v-.21l.03-.05.03-.05.1-.05.08-.03.08-.05.05-.1.03-.08.03-.08.08-.1.03-.03.13-.1.1-.08.03-.03h.03l.05-.05.03-.03.03-.1h.03v-.13l-.03-.1-.03-.08.03-.18v-.05l-.05-.13-.08-.08-.18-.03h-.39l-.08-.03-.08-.08-.03-.08-.03-.08v-.08l.03-.05.03-.05.03-.1.05-.05.05-.05.08-.03.18-.1.1-.03.08-.03h.1l.26.05.13.05.05.03h.05l.1.05.36.13.08.05.1.13.03.18v.08l.03.05.03.03h.1l.03-.05.13-.29.08-.21.08-.16.05-.05.05-.1.03-.05.03-.08.03-.08.03-.13v-.1l.03-.1v-.08l-.03-.1.03-.13.08-.21.05-.13.1-.08.13-.08.08-.05h.18l.08.03.13.05.1.08.08.08.08.1.03.03.05.03.1.03h.23l.03-.05.05-.05.03-.1.03-.16v-.05l-.03-.08-.05-.03-.05-.03-.16.03-.05-.03-.05-.03-.03-.05v-.13l.03-.1.08-.1.08-.1.05-.05.08-.05.08-.03h.26l.16.03.21.03h.23l.16.03.13.03.16.03.05.03.1.05.1.03h.03l.03.03.08.05.08.1.05.1.03.13v.44l.03.05.03.08.05.1.08.16.1.13.13.1.13.05h.49l.1-.03.13-.05.05-.05.1-.1.08-.1.05-.13v-.26l-.03-.1-.03-.08-.05-.03h-.05l-.03.03.03.13v.1l-.03.08-.05.03-.03.03h-.05l-.08-.05-.05-.1-.03-.1v-.08l.03-.08.05-.05.03-.05v-.21l-.05-.08-.03-.05-.05-.03h-.13v-.05l.05-.05.05-.08v-.18l-.03-.1-.05-.13-.05-.05-.05-.1-.08-.05-.08-.05-.05-.03-.05-.05-.03-.05-.03-.08v-.05l-.03-.05.03-.08v-.08l.03-.08.03-.05.03-.08.03-.05.08-.08.08-.08.1-.08.08-.05.08-.03.1-.03.08-.03.08.03.05.03.05.05.03.03v.16l.03.05.08.08.1.05.05.03h.03l.1.08.13.05.08.03.13.05h.18l.08-.03.05-.08v-.03l.08-.13.05-.13.03-.18.03-.08.03-.08.03-.05h.05l.05.03.05.03.05.03h.1l.03-.03.08-.03.18-.1.08-.05.1-.08.18-.1.1-.08.1-.16.1-.1.08-.05.08-.03.05-.03.05.03.03.05-.03.05-.03.05-.08.1-.03.08-.03.1-.03.08v.1l.03.08.03.08h.03l.03.05.08.03.08.05.08.05.03.08.05.1.05.08.08.08.05.05.08.03.05.03h.05l.08-.03.05-.05.08-.05.05-.03.08-.05.05-.05.05-.05.03-.05-.03-.03-.03-.03h-.1l-.08-.03h-.05l-.03-.05-.03-.05.03-.05.03-.03h.03l.05-.05.08-.05.1-.1.08-.08.03-.08.03-.05v-.03l-.03-.03-.03-.03-.05-.03-.03-.05-.03-.13-.03-.1-.03-.08-.03-.13-.03-.13v-.18l-.03-.1.05-.13v-.08l.05-.05.03-.05h.1l.08.03.08.08.08.05.05.03.08.03h.08l.08.03.05-.03.08-.03.13-.03.08-.03.08-.05.05-.05v-.05l-.03-.05-.08-.05-.1-.1-.05-.05-.05-.08-.03-.05v-.05l.03-.08.03-.08.05-.1.05-.08.08-.05.08.03.05.05.08.13.05.08.1.08.13.13.16.1.1.08.05.03h.03l.08.03h.05l.03-.05-.03-.05-.03-.08-.05-.1-.05-.13v-.16l.05-.08.05-.05.05-.1.03-.1.03-.1.03-.13.03-.13.03-.13.03-.13.03-.13.03-.1.03-.08.05-.08.05-.03.08-.03.1.03.1.05.08.05.13.03h.21l.05-.03h.05l.03.03.03.05-.03.08-.05.08-.08.1-.03.05-.03.08-.03.08v.08l.03.05.03.08.05.05.05.03h.13l.08-.03.18-.05.13-.05.16-.08.16-.03.16-.05.18-.05.05-.03.08-.08.05-.05.05-.05.05-.03.08.03h.18l.08.03.13-.03.08-.03.1-.03.03-.05.08-.05v-.54l-.03-.1-.03-.05-.05-.1-.05-.13-.03-.13v-.36l.03-.08.03-.1.03-.08v-.08l-.03-.03-.03-.03-.05-.03h-.03l-.03-.03-.03-.03v-.08l-.03-.1v-.08l.03-.08v-.13l-.03-.13.03-.08.03-.05.03-.08h.03l.03-.03.1-.03.13-.03.08-.03h.23l.13-.03.08-.05h.1l.08-.03h.03l.08.03h.08l.05.03.08-.03.08-.05.05-.03.03-.05.03-.05.05-.08.1-.1.1-.1.05-.05.08-.08.05-.08.05-.1.05-.08.03-.05.03-.1.03-.1-.03-.05-.05-.16-.08-.16-.05-.13-.03-.1v-.13l.03-.05.05-.18-.08.05-.1.05h-.03v.03l-.18.08-.03.05-.05.13v.21l-.05.13v.03h-.03l-.05.1.05.08.03.13-.16-.05h-.18l-.18.03-.13.03h-.03l-.1.05-.16.03-.18.05-.05-.03-.13-.03.03-.13.1-.16.03-.03h-.03l-.05-.08-.18.05-.21.03-.03.03-.03.03-.16.13-.1.16-.13.08-.08.05h-.03l-.08.1-.08.13-.13.08-.13.13-.05.03-.03.03-.05.03h-.18l-.21-.03h-.18l-.13.08-.1-.05.03-.08.03-.05.05-.16.05-.18v-.34l-.05-.13-.08-.1-.13.05h-.03l-.16.03-.1-.05-.03-.05h-.03l-.05-.1-.1-.08-.16-.05-.16-.03-.13-.08-.05-.03-.03-.03-.1-.08-.03-.03-.08-.08.03-.1.13.03.05.03h.13l.1.08.1.05.03-.13v-.08l.16.03.08.13.1.05.16.05.03-.05v-.05l-.08-.16-.1.03-.05-.08.05-.08.13.03.16-.05h.03l.03-.1.03-.05v-.16l.08-.16-.1-.1v-.03l-.03-.05-.03-.05v-.03h-.16l-.16-.08-.05-.16v-.21l.08-.16-.1-.1-.08-.03-.16-.05-.23.03-.1.03-.03.03h-.05l-.16.13-.18-.08h-.34l.08-.21.03-.1-.08-.08-.05-.08-.05-.1-.03-.08.03-.05v-.03l.1-.08.08-.08.03-.08-.03-.08-.05-.03h-.13l-.1.03h-.05v.03l-.05.03-.05.05-.16-.23-.21-.29-.03-.08-.08-.1-.03-.03v-.03l-.1-.18-.13-.21-.08-.08-.05-.08h-.03l-.21-.03-.23.03-.05.03-.1.05h-.03l-.1.16-.08-.03-.08-.08-.1.03h-.05l-.1.05-.29.05-.05-.03-.13-.08v-.18l-.03-.16-.1-.18-.03-.05-.05-.08.13-.13v-.34l-.16.03-.1-.03h-.13l-.16-.13-.05-.21v-.1l.03-.13.03-.23.08-.13.03-.08.13-.13.03-.13.03-.08v-.05l.16-.21.03-.21-.05-.08-.08-.13-.05-.03h-.03l-.16-.08h-.26l-.08.05-.18.1h-.31l-.23-.05-.18-.21-.08-.16-.03-.05v-.23l.03-.05.05-.08v-.08l-.03-.16.18-.13.1-.21.03-.05.16-.13.03-.03.08-.08.16-.18v-.03l.23-.21.13-.18.08-.08v-.03l.08-.1.21-.16h.03v-.03l.18-.08.21.03.08-.03.16-.03h.54l.05-.05v-.05l-.03-.05v-.08l-.03-.08-.16-.23-.08-.1-.16-.18-.08-.08-.03-.13v-.18l-.03-.21-.03-.18-.05-.18.03-.16.03-.03v-.08l.03-.1v-.13l.03-.08v-.18l.03-.1.03-.1v-.05l.03-.05v-.1l.03-.03v-.05l.03-.16.03-.08v-.05l.03-.05v-.03l.03-.03v-.03l.03-.03v-.05l.08-.13v-.03l.03-.05.03-.03v-.1l.03-.03v-.03l.03-.03v-.03l.05-.08.03-.03v-.08l.03-.05v-.03l.03-.05v-.08l.03-.03v-.05l.03-.08.1-.31v-.05l.03-.05.08-.34v-.13l.03-.05v-.03l.05-.29.03-.08.03-.05v-.03l.05-.08.05-.05.03-.03.03-.05.05-.05.03-.05.18-.16.29-.18.34-.13.23-.08.26-.08.21-.08.13-.08.05-.03.1-.13.03-.05.03-.08v-.13l.08-.31.1-.39.03-.05.08-.1.21-.42.05-.18.03-.05v-.18l-.03-.03-.03-.1-.08-.08-.1-.08-.13-.1-.05-.05-.23-.18-.21-.05-.03-.03-.26-.03-.26-.03-.18-.1h-.03l-.13-.21-.08-.13-.1-.08-.23-.1-.1-.03-.1.05-.08.08-.05.05-.03.05-.05.05-.03.05-.05.03-.13.05-.1.03h-.16l-.08-.05-.08-.08-.05-.08v-.05l-.03-.05.03-.16-.03-.05-.03-.05-.03-.03h-.03l-.05-.05-.03-.03-.05-.08-.05-.13-.08-.13-.03-.1h-.03l-.03-.05-.03-.03-.08-.08-.03-.03-.18-.13-.16-.1-.05-.05-.23-.13-.16-.08-.05-.05-.1-.05-.16-.1-.13-.08-.1-.08-.13-.05-.1-.05-.16-.05-.05-.03-.13-.08-.03-.03-.03-.05-.05-.08-.03-.1-.03-.05-.03-.05-.03-.05v-.05l-.05-.1v-.23l-.03-.08v-.05l-.05-.08-.08-.1-.13-.1h-.05l-.08-.03h-.03l-.05-.03h-.08l-.08-.03-.08-.05h-.03l-.08-.03-.18-.13-.18-.08-.23-.13-.26-.18-.05-.05-.08-.05-.34-.29-.1-.26-.1-.29-.03-.05-.16-.29-.03-.08-.18-.26-.1-.16-.05-.1-.05-.1-.03-.05-.03-.21v-.08l.05-.26.05-.29-.03-.05-.03-.23v-.21l-.05-.26v-.31l.03-.29.18-.29.23-.21.13-.23-.03-.16-.03-.05-.08-.08-.03-.1.03-.13.08-.13.03-.16-.1-.18-.16-.1-.03-.05.05-.08.08-.1.1-.1.03-.13-.1-.23-.08-.13-.57-.88-.21-.29-.13-.36-.08-.39v-.05l.05-.36.21-.34.39-.29.26-.16.13-.16.03-.23-.03-.34-.08-.21-.08-.26-.03-.1-.03-.1v-.1l.05-.05.08-.13.05-.16.1-.21.18-.21.05-.26.21-.39.13-.21.08-.18.08-.13.05-.18.08-.1.21-.18.13-.1.16-.16.03-.21-.1-.21-.03-.1-.16-.13-.08-.08h-.03l-.42-.18-.57-.18-.67-.23-.65-.18-.52-.13-.49-.1h-.42l-.49.03-.34-.16-.21-.21-.16-.23-.1-.23.03-.23.08-.16.13-.21.23-.13.23-.05.13-.05.23-.18.18-.23.1-.29-.05-.18-.05-.29.1-.18.18-.1.13-.13.1-.16.16-.16.18.05.18-.05.23.08h.26l.6-.18.57-.18.42-.31.03-.05.03-.65v-.03l-.03-.47-.03-.86-.1-.31-.05-.1-.05-.1-.03-.03-.29-.26-.36-.49-.39-.44-.13-.23.05-.1.29-.18.08-.16v-.23l-.13-.52-.13-.26-.23-.52-.13-.23v-.34l.05-.13.05-.13.03-.13-.03-.16-.23-.26-.08-.18.03-.21.03-.16.21-.23.05-.08.08-.18.08-.18v-.18l-.05-.08-.03-.05-.18-.21-.05-.1-.05-.16-.1-.1-.1-.13-.08-.16-.03-.1-.05-.29-.03-.13-.03-.16.05-.36.16-.6.08-.29.13-.34.05-.18v-.21l-.08-.23-.03-.05-.08-.18-.1-.39.05-.54.21-.44.13-.18.16-.13.08-.1.08-.16.08-.1.05-.18v-.18l-.1-.26-.16-.23-.16-.31-.03-.29.05-.26.16-.36.05-.34.03-.36v-.21l-.08-.16-.08-.13-.03-.21.03-.21.05-.08v-.03l.13-.21.16-.26.1-.16.08-.1.13-.16.08-.18.05-.16.08-.18-.05-.18-.03-.18-.03-.16.03-.18.1-.23.29-.21.13-.26.1-.49-.03-.21-.13-.26-.13-.42-.03-.13v-.73l.03-.13-.03-.31-.13-.31-.05-.08-.08-.13-.13-.16-.21-.18-.29-.08-.31-.21-.08-.05-.08-.08-.13-.05-.16-.08-.18-.13-.03-.03-.05-.21-.08-.31v-.05l-.03-.34-.08-.29-.05-.08-.1-.13-.05-.05-.08-.1-.23-.13-.34-.05h-.31l-.05-.05-.08-.05-.05-.05-.08-.1-.05-.18-.05-.21-.08-.13-.1-.16-.05-.18-.03-.31-.03-.23.05-.26.03-.1.05-.23.08-.16.08-.18.16-.1.26-.18.03-.13.03-.13.03-.1v-.03l-.03-.1-.49-.62-.05-.18-.03-.18-.03-.1.03-.18v-.05l.05-.1.1-.1.1-.08-.03-.13-.05-.1-.13-.16-.05-.1v-.1l.08-.08.05-.13-.03-.23-.1-.44v-.03l-.13-.16-.26-.18-.91-.49-.21-.18-.1-.18-.21-.29-.05-.13-.08-.13-.05-.21-.03-.1v-.49l.05-.26h-8.64l-.03-.03-.05.03v.05h-.05l-.03-.03-.03-.03h-.13l-.05-.03-.05-.03-.03-.03-.05-.03-.08-.05-.03-.03h-.05l-.03-.05h-.1l-.08-.03h-.16l-.03.03-.03.03-.03.03v.08h-.08l-.03.05-.05.03v.03h-.03v.03h-.03l-.03.03h-.05l-.05.03-.05.03h-.05l-.03.03h-.08v.03l-.03-.03v.03l-.03-.03h-.18l-.03.03h-.03l-.03.03-.03.03v.03h-.03l-.03.03h-.03l-.03.03-.03.03h-.03l-.03.03h-.05l-.03.03h-.05v.03l-.03-.03-.03.03h-.05v.03h-.18l-.03.03h-.08l-.03.03v-.03h-.03l-.03.03h-.05l-.03.03h-.03l-.03.03h-.08v.03l-.03-.03h-.03.03-.05l-.03.03v.05l-.03.03h-.05v-.03h-.03v.03h-.03v.05h.03v.03h-.03l-.03-.03h-.05v.05h-.03v.03h-.05.03-.03l-.03.03h-.05v-.03h-.08v-.03h-.1l-.03.03h-.03v.03l-.03.03h-.03.03-.08v-.08h-.03v-.03l.03-.08v-.03l-.03-.03h-.03v-.03h-.03v-.03h-.08v.03h-.03v.03h-.05v-.03l-.03.03v.08h-.05l-.03-.03-.03-.03-.03-.03h-.03v-.03h-.05l-.03-.03h-.08l-.03.03h-.03l-.03.03h-.05v.03h-.05v-.03h-.05l-.03-.03v-.03l.03-.03v-.03h-.03v-.05h-.03l-.03-.03v-.03l-.03-.03v-.03l-.03-.03h-.03v-.1h-.03v-.03h-.03v-.03l-.03-.03v-.03h.03v-.05h-.03v-.03l-.08-.03-.03-.03h-.03l-.03-.05-.05-.08-.03-.05v-.1l-.03-.03v-.08h.05l.03-.03h.13v-.08l-.03-.05v-.05l-.03-.08-.03-.05v-.26h.08l.03.03h.03l.03-.03v-.05l-.05-.05v-.05h-.03v-.03h-.03v-.03l-.03-.03h-.08l-.03-.03h-.03v-.03l-.03-.03.03-.05v-.03h-.03l-.03.03h-.03v-.05h-.08v-.05l-.03-.03h.05l.03-.03v-.03l.03-.03-.03-.03-.03.03h-.03v-.03l.03-.03v-.05l-.03-.03-.03-.03v-.03h-.03l-.03-.03-.08-.05h-.05v-.05h-.05l-.05.03h-.03v-.05l-.03-.05v-.08l-.03-.03v-.05l.03-.03v-.03l-.03-.03v-.03h-.03l-.05-.03h-.08l-.03.03-.08.03v.03h-.08v-.03h-.03l-.03-.03v-.05l-.03-.03h.03v-.03l-.03-.03v-.05l-.03-.03-.03-.03-.03-.03-.03-.03v-.03l-.03-.03v-.08h-.08l-.03.05h-.05l-.03.03h-.03v-.03l-.03-.03-.03-.03h-.21l-.03-.03h-.03v.03h-.05l-.03-.03-.03.03-.03-.03h-.13l-.03-.03-.08-.08v-.08h-.05l-.05-.03-.03-.03h-.03l-.03-.03h-.03v-.03l-.03-.03h-.05v.03h-.13l-.03.03-.05.05v.05l-.03.03v.03h-.08l-.03.03-.03.03-.03.03h-.03l-.03.03h-.08v.03h-.1l-.03.03h-.05v-.05l-.03-.03v-.05l-.03-.03h-.03l-.03-.03h-.03v-.1l.03-.05v-.03l.03-.03v-.05h.03v-.05l.03-.05v-.03h.03v-.1l-.03-.05v-.08l-.03-.03h-.05l-.05-.03v-.03l-.03-.03-.03-.03v-.03h-.03v-.03h-.03l-.03-.03h-.03l-.03.03h-.03l-.03-.03h-.03l-.03.03h-.03l-.03.03h-.05l-.03.03h-.03l-.03-.03h-.03v-.03h-.03l-.03-.03h-.08v-.03l-.03-.05-.03-.03-.03-.03h-.03l-.03-.03-.03-.03-.03-.03v-.18l-.03-.03h-.03l-.05-.03-.05-.08-.03-.03v-.03l-.03-.03v-.03l-.03-.03v-.03h-.03l-.03-.03v-.03h-.03l-.03-.03h-.05l-.08-.03-.03-.03v-.1l-.03-.03v-.03l-.03-.03v-.05h-.05l-.03-.03-.03-.05h-.03v-.1l.03-.03v-.03l-.03-.03v-.05h-.03v-.03l-.03-.03-.03.03h-.03v-.03h-.03v-.1h-.03l-.03.03-.03.03v.03h.03v.03h.03v.03h-.05v-.03l-.03-.03v-.03l.03-.03v-.05l-.03-.03h-.03l-.03-.03v.05l-.03.03-.03.03h-.03v-.03h-.08v.03h-.05v-.05h-.08l-.03.03h-.05l-.03-.03v-.08h-.05l-.03-.03h-.05v-.08h-.05v.03h-.03l-.03-.03v-.05l-.03-.03v-.03l-.03-.03-.03.03h-.03l-.03.03v-.03l.03-.03v-.03h.03l.03-.03v-.03l-.05-.03-.05-.03-.03-.03v.03h-.03v.03l-.03.03v.05h-.03l-.03-.03v-.03l-.03-.03v-.03l.03-.03v-.03h.03v-.03h-.03l-.03-.03-.03.03-.03.05h-.03l-.03.03h-.05v.05h.03v.03h-.03l-.03-.03-.03-.03-.03-.05h-.03l-.03-.03h-.05l-.03-.03v-.03l-.03-.03v-.03l.03-.05v-.03h-.08l-.03-.03v-.03l-.03-.03h-.03l-.03-.03h-.03l-.03.03-.05.03h-.05v-.03l-.03-.03-.03-.03-.03-.03-.03-.05-.03-.05-.08-.08-.05-.03v-.03l-.05-.05h-.03l-.03-.03-.05-.03-.05-.03-.08-.03-.03-.03h-.03l-.05-.03-.08-.03h-.03l-.08-.03h-.18l-.08.03h-.05l-.05.03h-.1l-.03-.03h-.05l-.03-.03-.03-.03-.08-.08-.03-.05-.05-.05-.05-.08-.03-.03-.05-.08-.05-.05-.05-.05-.08-.05-.05-.08-.03-.03-.08-.08-.05-.08-.05-.05-.05-.05-.05-.05-.03-.05-.1-.05-.1-.1-.05-.08-.1-.08-.05-.08-.03-.05-.05-.03-.05-.03-.08-.08h-.05l-.05-.05-.1-.08-.26-.16-.21-.13-.16-.1-.05-.03-.03-.03-.1-.03-.13-.03-.05.03h-.18l-.05-.03-.03-.03-.05-.05-.08-.1-.05-.03-.03-.03-.08-.03-.1-.05-.05-.03-.03-.05-.03-.08-.05-.13v-.05l-.08-.18-.03-.08-.03-.05h-.03l-.03-.05-.03-.03-.05-.05-.05-.03-.13-.08-.03-.03-.08-.05-.13-.08-.05-.05-.03-.03-.08-.08-.08-.08-.03-.05-.03-.03-.08-.03-.05-.03h-.08l-.05.03v.03l-.08.13-.03.05-.03.03-.03.03h-.05l-.03-.03-.05-.03-.05-.05-.03-.05-.03-.05h-.1v.08l.03.03.03.05.03.03v.08l-.03.03h-.03l-.05.03h-.03l-.05-.05-.05-.05-.03-.05-.05-.05-.08-.05-.03-.03h-.08l-.03.03-.03.03v.03l-.03.05v.05l-.03.05v.03h-.05l-.03.03-.05-.03-.03-.03-.05-.03-.03-.05-.03-.08-.03-.08v-.08l-.03-.08-.03-.05-.03-.03-.05-.05h-.08l-.03.03-.03.03v.03l-.03.03-.03.03v.03l-.03.03h-.05l-.03-.03-.08-.05-.03-.03-.05-.03h-.03v-.1l.03-.05.03-.05.05-.1.03-.08.05-.05.03-.03.05-.05.03-.03.03-.05.03-.03v-.05l-.03-.05-.05-.13v-.08l-.03-.03v-.03l.03-.1v-.13l.03-.08.03-.03v-.03l.03-.03.03-.03.03-.03v-.18h-.03l.03-.03.03-.03.03-.03h.03l.03.03.05.03h.1v-.03h.03l.05-.03h.03l.03-.03h1.06l1.17-.03h6.41l.91.03h16.27l1.22-.03h30.72l.44-.03h24.34v228.2h0" vector-effect="none"/>
  <text class="cls-14" transform="translate(26.71 251.45)"><tspan x="0" y="0">Population</tspan></text>
  <text class="cls-14" transform="translate(43.44 226.94)"><tspan x="0" y="0">100</tspan></text>
  <text class="cls-14" transform="translate(37.73 198.06)"><tspan x="0" y="0">70000</tspan></text>
  <g>
    <circle class="cls-5" cx="186.3" cy="471.55" r="5.21"/>
    <circle class="cls-8" cx="191.67" cy="429.23" r="6.43"/>
    <circle class="cls-3" cx="186.19" cy="274.2" r="6.9"/>
    <circle class="cls-8" cx="165.23" cy="378.11" r="6.65"/>
    <circle class="cls-6" cx="198.83" cy="456.62" r="6.08"/>
    <circle class="cls-8" cx="175.85" cy="409.46" r="15.26"/>
    <circle class="cls-1" cx="192.31" cy="414.35" r="6.44"/>
    <circle class="cls-8" cx="179.26" cy="427.14" r="5.09"/>
  </g>
  <circle class="cls-4" cx="52" cy="220.88" r="20"/>
  <text class="cls-15" transform="translate(200.6 431.34)"><tspan x="0" y="0">Anzac</tspan></text>
  <text class="cls-15" transform="translate(30.22 431.46)"><tspan x="0" y="0">Gregoire Lake Estates</tspan></text>
  <text class="cls-11" transform="translate(64.02 276.91)"><tspan x="0" y="0">Fort Chipewyan</tspan></text>
  <text class="cls-11" transform="translate(206.85 460.66)"><tspan x="0" y="0">Janvier</tspan></text>
  <text class="cls-15" transform="translate(200.28 416.34)"><tspan x="0" y="0">Saprae Creek</tspan></text>
  <text class="cls-11" transform="translate(193.46 476.76)"><tspan x="0" y="0">Conklin</tspan></text>
  <text class="cls-11" transform="translate(52 412.83)"><tspan x="0" y="0">Fort McMurray</tspan></text>
  <text class="cls-15" transform="translate(173.57 380.62)"><tspan x="0" y="0">Fort McKay</tspan></text>
  <circle class="cls-4" cx="52" cy="234.92" r="5.96"/>
  <line class="cls-2" x1="325.66" y1="316.27" x2="316.4" y2="316.27"/>
  <rect class="cls-9" x="304.46" y="187.63" width="9.76" height="192.53"/>
  <line class="cls-2" x1="313.97" y1="251.95" x2="304.71" y2="251.95"/>
  <line class="cls-2" x1="313.97" y1="316.27" x2="304.71" y2="316.27"/>
  <line class="cls-2" x1="333.96" y1="405.64" x2="324.7" y2="405.64"/>
  <text class="cls-13" transform="translate(318.59 191.92)"><tspan x="0" y="0">20%</tspan></text>
  <text class="cls-13" transform="translate(318.59 256.61)"><tspan x="0" y="0">30%</tspan></text>
  <text class="cls-13" transform="translate(318.59 320.52)"><tspan x="0" y="0">40%</tspan></text>
  <text class="cls-13" transform="translate(318.59 383.98)"><tspan x="0" y="0">50%</tspan></text>
</svg>