<?xml version="1.0" encoding="UTF-8"?>
<svg id="Layer_1" data-name="Layer 1" xmlns="http://www.w3.org/2000/svg" viewBox="0 0 360 385.93">
  <defs>
    <style>
      .cls-1, .cls-2 {
        stroke: #231f20;
        stroke-width: .1px;
      }

      .cls-1, .cls-2, .cls-3 {
        font-size: 12px;
      }

      .cls-1, .cls-2, .cls-4 {
        fill: #231f20;
      }

      .cls-1, .cls-2, .cls-5, .cls-6 {
        stroke-miterlimit: 10;
      }

      .cls-1, .cls-3 {
        font-family: OpenSans, 'Open Sans';
      }

      .cls-2, .cls-4 {
        font-family: OpenSans-Bold, 'Open Sans';
        font-weight: 700;
      }

      .cls-7 {
        fill: #efc419;
      }

      .cls-8 {
        fill: #6fc7e9;
      }

      .cls-3 {
        fill: #9a9896;
      }

      .cls-9 {
        fill: #00a28a;
      }

      .cls-4 {
        font-size: 20px;
      }

      .cls-5 {
        stroke: #9a9896;
      }

      .cls-5, .cls-6 {
        fill: none;
      }

      .cls-6 {
        stroke: #58595b;
      }
    </style>
  </defs>
  <text class="cls-4" transform="translate(20 24.18)"><tspan x="0" y="0">Affordable shelters across</tspan><tspan x="0" y="24">professions</tspan></text>
  <text class="cls-1" transform="translate(43.67 98.62)"><tspan x="0" y="0">Driller in</tspan><tspan x="-3.64" y="10.99">Oil &amp; Gas</tspan></text>
  <text class="cls-1" transform="translate(19.19 178.37)"><tspan x="0" y="0">Construction</tspan><tspan x="30.82" y="10.99">Worker</tspan></text>
  <text class="cls-1" transform="translate(46.82 143.99)"><tspan x="0" y="0">Teacher</tspan></text>
  <text class="cls-1" transform="translate(57.23 223.75)"><tspan x="0" y="0">Nurse</tspan></text>
  <text class="cls-1" transform="translate(55.14 303.5)"><tspan x="0" y="0">Server</tspan></text>
  <text class="cls-1" transform="translate(30.21 258.13)"><tspan x="0" y="0">Real Estate</tspan><tspan x="28.75" y="10.99">Agent</tspan></text>
  <text class="cls-3" transform="translate(20 360)"><tspan x="0" y="0">Sources: Alberta Wage &amp; Salary Survey (2022), </tspan><tspan x="0" y="14.4">Statistics Canada (2021)</tspan></text>
  <line class="cls-5" x1="20.41" y1="347.54" x2="330" y2="347.54"/>
  <rect class="cls-9" x="110" y="92.75" width="220" height="15"/>
  <rect class="cls-8" x="110" y="132.27" width="136" height="15"/>
  <rect class="cls-8" x="110" y="172.56" width="136" height="15"/>
  <rect class="cls-8" x="110" y="212.27" width="106" height="15"/>
  <rect class="cls-7" x="110" y="252.36" width="106" height="15"/>
  <rect class="cls-7" x="110" y="292.27" width="48" height="15"/>
  <line class="cls-6" x1="110.09" y1="69.43" x2="110.09" y2="330.59"/>
  <text class="cls-2" transform="translate(303.3 104.69)"><tspan x="0" y="0">55%</tspan></text>
  <text class="cls-2" transform="translate(218.46 144.6)"><tspan x="0" y="0">34%</tspan></text>
  <text class="cls-2" transform="translate(218.46 184.51)"><tspan x="0" y="0">34%</tspan></text>
  <text class="cls-2" transform="translate(189.11 224.42)"><tspan x="0" y="0">27%</tspan></text>
  <text class="cls-2" transform="translate(189.11 264.33)"><tspan x="0" y="0">27%</tspan></text>
  <text class="cls-2" transform="translate(131.23 304.24)"><tspan x="0" y="0">12%</tspan></text>
</svg>