<?xml version="1.0" encoding="UTF-8" standalone="no"?>
<svg
   id="Layer_1"
   data-name="Layer 1"
   viewBox="0 0 360 525.53"
   version="1.1"
   sodipodi:docname="woodbuffalo-housingburden-map-360.svg"
   inkscape:version="1.4 (1:1.4+202410161351+e7c3feb100)"
   xmlns:inkscape="http://www.inkscape.org/namespaces/inkscape"
   xmlns:sodipodi="http://sodipodi.sourceforge.net/DTD/sodipodi-0.dtd"
   xmlns="http://www.w3.org/2000/svg"
   xmlns:svg="http://www.w3.org/2000/svg">
  <sodipodi:namedview
     id="namedview37"
     pagecolor="#ffffff"
     bordercolor="#666666"
     borderopacity="1.0"
     inkscape:showpageshadow="2"
     inkscape:pageopacity="0.0"
     inkscape:pagecheckerboard="0"
     inkscape:deskcolor="#d1d1d1"
     inkscape:zoom="2.1420546"
     inkscape:cx="110.40802"
     inkscape:cy="413.62158"
     inkscape:window-width="1920"
     inkscape:window-height="1043"
     inkscape:window-x="0"
     inkscape:window-y="0"
     inkscape:window-maximized="1"
     inkscape:current-layer="Layer_1"
     showgrid="true">
    <inkscape:grid
       id="grid37"
       units="px"
       originx="0"
       originy="0"
       spacingx="1"
       spacingy="0.99999994"
       empcolor="#0099e5"
       empopacity="0.30196078"
       color="#0099e5"
       opacity="0.14902"
       empspacing="5"
       enabled="true"
       visible="true" />
  </sodipodi:namedview>
  <defs
     id="defs3">
    <style
       id="style1">
      .cls-1 {
        fill: #f0c036;
      }

      .cls-1, .cls-2, .cls-3, .cls-4, .cls-5, .cls-6, .cls-7, .cls-8 {
        stroke-miterlimit: 10;
      }

      .cls-1, .cls-3, .cls-5, .cls-6, .cls-8 {
        stroke: #231f20;
        stroke-width: .5px;
      }

      .cls-2 {
        stroke: #fff;
      }

      .cls-2, .cls-4, .cls-7 {
        fill: none;
      }

      .cls-9 {
        fill: url(#linear-gradient);
      }

      .cls-3 {
        fill: #e57059;
      }

      .cls-10 {
        fill: #4ebdac;
      }

      .cls-4 {
        stroke: #4ebdac;
      }

      .cls-5 {
        fill: #e89645;
      }

      .cls-11, .cls-12 {
        font-family: OpenSans-Bold, 'Open Sans';
        font-weight: 700;
      }

      .cls-11, .cls-12, .cls-13, .cls-14, .cls-15 {
        fill: #231f20;
      }

      .cls-11, .cls-15 {
        font-size: 14px;
      }

      .cls-16 {
        fill: #9a9896;
      }

      .cls-16, .cls-13 {
        font-size: 12px;
      }

      .cls-16, .cls-13, .cls-14, .cls-15 {
        font-family: OpenSans, 'Open Sans';
      }

      .cls-6 {
        fill: #e57459;
      }

      .cls-12 {
        font-size: 20px;
      }

      .cls-7 {
        stroke: #9a9896;
      }

      .cls-14 {
        font-size: 10.03px;
      }

      .cls-8 {
        fill: #f3d033;
      }
    </style>
    <linearGradient
       id="linear-gradient"
       x1="52.98"
       y1="318.03"
       x2="52.98"
       y2="189.39"
       gradientUnits="userSpaceOnUse">
      <stop
         offset=".04"
         stop-color="#e36a5b"
         id="stop1" />
      <stop
         offset=".52"
         stop-color="#e69941"
         id="stop2" />
      <stop
         offset=".96"
         stop-color="#f3d033"
         id="stop3" />
    </linearGradient>
  </defs>
  <text
     class="cls-13"
     transform="translate(20.73 139.58)"
     id="text4"><tspan
       x="0"
       y="0"
       id="tspan3">Households 'spending 30% or more of income on shelter </tspan><tspan
       x="0"
       y="14.4"
       id="tspan4">costs' or 'not suitable' or 'major repairs needed'</tspan></text>
  <text
     class="cls-12"
     transform="translate(19.81 23.87)"
     id="text9"><tspan
       x="0"
       y="0"
       id="tspan5">Towns further from Fort </tspan><tspan
       x="0"
       y="24"
       id="tspan6">McMurray have higher rates of </tspan><tspan
       x="0"
       y="48"
       id="tspan7">households with housing cost </tspan><tspan
       x="0"
       y="72"
       id="tspan8">burden or unsuitable housing </tspan><tspan
       x="0"
       y="96"
       id="tspan9">conditions</tspan></text>
  <text
     class="cls-16"
     transform="translate(20 515.66)"
     id="text10"><tspan
       x="0"
       y="0"
       id="tspan10">Sources: Statistics Canada (2021) </tspan></text>
  <line
     class="cls-7"
     x1="20.41"
     y1="500"
     x2="340"
     y2="500"
     id="line10" />
  <path
     class="cls-10"
     d="M255.21,417.59v51.5l.03.44v1.35l-.03.47v9.89l-.44-.03h-39.28l-.44-.03h-.91l-.42.03h-7.29v-.03l.03-.44v-15.75h-.42v-10.87h-16.4v2.72h-5.47v-2.72h-5.01l-.44.03h-.42l-.05-.03h-4.72l-.29.03-.47-.03h-4.1l-.44.03h-1.4l-.44-.03h-2.28l-.44.03h-.08v-.03l-.03-.03h-.03v-.03l-.05-.03-.08-.05h-.05l-.03-.03h-.03l-.05-.03-.03-.03h-.03l-.03-.05-.03-.03-.03-.05h-.03v-.16l-.03-.03v-.05l-.03-.03v-.21l.03-.1v-.03l.03-.03v-.08l.03-.03.03-.03v-.03l.03-.03.03-.03v-.03l.03-.03.03-.03.03-.05h.03l.03-.03.03-.03h.03l.03-.03.05-.05h.03l.05-.03.03-.03h.03v-.03h.03l.03-.03h.03l.03-.03.03-.03.05-.05.05-.03.03-.03h.03l.03-.03.1-.03h.03l.05-.03h.05l.03-.03h.05l.03-.03h.05l.03-.03.03-.03.03-.03h.05l.08-.05.05-.03.03-.03h.05l.03-.03.03-.03.03-.03.03-.03.03-.05v-.13l-.03-.03v-.03l-.03-.03-.03-.03-.03-.03v-.03l-.03-.03h-.03l-.03-.03h-.13v.03l-.03-.03h-.23v-.03h-.03l-.03-.03-.03-.03v-.03l-.05-.03-.03-.05h-.03l-.03-.05-.03-.03v-.03l-.03-.05-.03-.03v-.05l-.03-.08-.03-.1v-.21l.03-.03v-.18l.03-.03v-.13l.03-.03v-.08l.03-.08.08-.13v-.03l.03-.03.03-.05.03-.03v-.05l.03-.05v-.03l.03-.03v-.05l.05-.16v-.13l.03-.08v-.05l-.03-.08v-.05l-.03-.03v-.08l-.03-.03v-.1l-.03-.03v-.03l-.03-.03-.03-.03-.03-.03v-.03l-.03-.03v-.03l-.03-.03v-.03h-.03l-.03-.03h-.03v-.03h-.05v-.05h-.03v-.03h-.03v-.03l-.03-.03-.03-.03h-.03v-.03h-.03l-.03-.03h-.03v-.03l-.03-.03-.03-.03-.03-.03v-.13l.03-.05v-.1l.03-.03.03-.03v-.03h.05v-.03h.03l.03-.03h.16l.03-.03h.26l.13.03h.31l.08-.03.05-.03h.05l.03-.03h.03l.03-.03.03-.03h.03l.03-.03.03-.03.03-.03.03-.03h.03l.05-.08.05-.1v-.03h.03v-.03l.03-.05.03-.03v-.08h.03v-.03l.03-.03.03-.08v-.05h.03v-.08h.03l.03-.08v-.03l.03-.03v-.08l.03-.03v-.05l.03-.03.03-.08.03-.03.03-.08v-.13h.03v-.1l.03-.05v-.05l.03-.03v-.05h-.03v-.03l-.03-.03v-.23l-.03-.03v-.1l-.03-.03v-.08l-.03-.03v-.05l-.03-.03-.03-.05v-.03l-.03-.05v-.26l.03-.1v-.08l.05-.16v-.03l.03-.05.03-.05v-.05l.03-.03.03-.05.03-.03.05-.05.03-.03.03-.03.05-.03.03-.03.03-.03h.03l.03-.03h.03v-.03h.03l.03-.03h.03v-.03l.03-.03.03-.03.03-.03.03-.05v-.03h.03v-.08.03h.03l-.03-.03v-.13h.03v-.1l-.03-.03v-.26l.03-.08v-.13l.03-.05.03-.05v-.03l.03-.03h.03l.05-.03.03-.03h.16v-.03h.16l.03-.03.03-.03h.03l.03-.03.03-.03v-.03l.03-.03h.03v-.03l.03-.03v-.03l.03-.05.03-.03.03-.03v-.05l.03-.03v-.08l.03-.03v-.05h.03v-.1l.03-.03v-.08h.03v-.03l.03-.03v-.05l.03-.05.03-.03.03-.05h.03v-.03l.03-.03.05-.05.03-.03v-.03h.03l.03-.03.03-.03.03-.03v-.03h.03l.03-.03v-.03l.03-.03.05-.05.03-.03.03-.05.03-.03h.03l.03-.03v-.03l.05-.05v-.05h.03v-.05l.03-.05.03-.03v-.1l.03-.03v-.1h.03v-.36h.03l-.03-.03-.03-.05-.03-.05-.03-.05-.05-.05-.05-.08-.03-.03-.03-.03h-.03l-.03-.08-.05-.03-.03-.03-.03-.03-.03-.03h-.03l-.03-.03v-.03h-.03l-.03-.03h-.03l-.03-.05h-.03v-.05l-.03-.03-.03-.05-.03-.05-.03-.08-.03-.05v-.05l-.03-.05v-.18l-.03-.03v-.16h-.03v-.18l-.03-.05.03-.03v-.18l.03-.1v-.1h-.03v-.03l.03-.05v-.05h-.03v-.13l-.03-.05v-.03l-.03-.03v-.03l-.03-.03v-.03l-.03-.03v-.05l-.03-.03v-.05l-.03-.03v-.05l-.03-.03v-.03l-.03-.05v-.03l-.03-.03v-.03l-.03-.03v-.03l-.03-.03v-.03l-.03-.03-.03-.08v-.08l-.03-.03-.03-.05-.03-.08-.03-.03v-.03l-.03-.03v-.03l-.03-.03-.03-.03v-.03l-.03-.03-.05-.03-.03-.08-.08-.1-.03-.03v-.03l-.03-.03-.03-.03v-.03l-.03-.05-.03-.05v-.03l-.03-.03-.03-.03-.03-.05-.03-.03v-.03l-.03-.03-.05-.08v-.05l-.03-.05v-.03l-.03-.03v-.13l-.03-.1-.03-.03v-.05h-.03v-.05l-.03-.08v-.16l-.03-.05v-.1l-.03-.03-.03-.08v-.05l-.03-.05v-.03l-.03-.05v-.03l-.03-.05-.03-.05v-.03l-.03-.03v-.03l-.03-.05-.03-.03v-.03l-.03-.03v-.03l-.03-.03v-.03l-.03-.03-.03-.05v-.03h-.03l-.03-.08-.03-.03v-.03l-.03-.03v-.03l-.03-.03v-.03l-.03-.03v-.05l-.03-.05v-.03l-.03-.05v-.05l-.03-.03v-.03h-.03v-.05l-.03-.03-.03-.05v-.05l-.03-.05v-.03l-.03-.05v-.08l-.03-.03v-.03l-.03-.03v-.05l-.03-.03-.03-.1v-.05l-.03-.03v-.05h-.03v-.03l-.03-.03-.03-.03-.03-.05-.03-.05-.03-.03-.03-.03-.03-.05v-.05l-.03-.03v-.03h-.03l-.03-.03v-.03h-.03v-.03l-.03-.03v-.03l-.03-.03v-.03l-.03-.03v-.03l-.03-.03-.03-.03v-.03l-.03-.03-.03-.03-.03-.03-.03-.03-.03-.03v-.03l-.03-.03-.03-.03-.03-.03h-.03l-.03-.03h-.18l-.03-.03v-.03h-.03v-.03l-.03-.03-.03-.03h-.03l-.03-.03-.03-.03-.03-.03v-.03l-.03-.03h-.03v-.03h-.03v-.03l-.03-.03-.03-.03-.03-.03-.03-.03v-.03h-.03v-.03l-.03-.05-.03-.03-.03-.05h-.03v-.16l-.03-.05-.03-.05-.03-.05v-.05l-.03-.03v-.03l-.03-.03v-.03l-.03-.03v-.13l-.03-.03-.03-.03v-.05h-.03v-.03l-.03-.03h-.03v-.03l-.03-.03h-.03v-.03h-.05l-.03-.03-.05-.03h-.03l-.05-.03-.08-.03h-.05l-.03-.03h-.03l-.03-.03v-.03h-.03l-.03-.03v-.03l-.03-.03-.03-.03v-.03l-.03-.03v-.05l-.03-.03v-.21h-.03l.03-.05v-.08l.03-.03.03-.08v-.05l.03-.03v-.05l.03-.08v-.03l.03-.03v-.23l-.03-.05v-.03l-.03-.05-.03-.03v-.05l-.03-.03v-.03l-.03-.03v-.03h-.03v-.03l-.03-.05-.05-.05v-.03l-.03-.03v-.03h-.03v-.03l-.03-.03v-.03h-.03l-.03-.05-.03-.03v-.03h-.03v-.03h-.03v-.05h-.03v-.03h-.03v-.03l-.03-.03-.03-.03v-.03h-.03v-.05h-.03v-.05h-.03v-.03l-.03-.05v-.18l-.03-.03.03-.03v-.05l.03-.05.03-.03v-.03l.03-.03.03-.05.03-.03h.03v-.03l.03-.03v-.03l.03-.05.03-.05v-.03l.03-.08v-.34l-.03-.03v-.03h-.03v-.05h-.03v-.03h-.03v-.03h-.03v-.03l-.03-.03h-.03v-.03h-.05l-.05-.03h-.03l-.03-.03h-.18l-.03-.03h-.16l-.03-.03h-.05l-.1-.03h-.03l-.03-.03h-.08l-.1-.03h-.03l-.03-.03h-.03l-.03-.03-.03-.03v-.03h-.05v-.03h-.08v-.03l-.03-.03-.03-.03h-.03v-.03h-.03l-.03-.03-.03-.05-.03-.03h-.03v-.03l-.03-.03-.03-.05-.03-.03h-.03v-.03l-.03-.05v-.03l-.03-.03v-.03h-.03v-.05l-.03-.05-.03-.05v-.31l.03-.03v-.03l.03-.1v-.03l.03-.03.03-.03v-.05l.03-.03v-.03h.03l.03-.03.03-.03.03-.03v-.03l.05-.03.03-.03.03-.03v-.03l.03-.03.03-.03h.03l.03-.03h.03l.03-.03.05-.03.03-.03.03-.03.03-.03.03-.03h.03l.03-.03h.03l.03-.03h.03l.03-.03v-3.76h-.86v-8.3l-.03-.47v-13.41h-.88v-22.39h-.93v-5.63h-11.34v-5.66h-31.68v-45.64h.16l.47.03h91.1l.05-.18v-.05l.08-.13.03-.03.03-.05.05-.03.03-.08.03-.05v-.05l-.03-.08-.03-.13-.36-1.09-.08-.36v-.08l-.05-.29v-.03l.05-.23.03-.13.08-.42v-.03l.08-.31v-.03l.05-.23v-.03l.03-.08.03-.21.08-.54v-.05l.03-.16.03-.1v-.1l.03-.08.05-.34v-.16l-.03-.1v-.86l-.03-.16-.05-.1-.08-.21-.08-.1-.03-.05-.05-.1-.05-.1-.36-.34-.18-.18-.1-.1-.1-.05-.1-.08-.13-.05-.34-.05-.23-.05-.36-.08-.03-.03-.13-.05-.13-.08-.13-.29-.03-.1-.03-.16.03-.13.05-.16.1-.16.13-.16.1-.1.08-.1.16-.16.16-.18.08-.08.05-.13.03-.18v-.29l-.03-.13-.05-.1-.16-.1h-.03l-.05-.03-.31-.05-.31.05-.08.03-.16.08-.05.08-.1.05-.08.05-.18.08-.1.03h-.1l-.1-.03h-.03l-.13-.03-.08-.05-.08-.05-.03-.08-.05-.1-.03-.03-.05-.16v-.39l-.03-.26v-.1l-.03-.05v-.08l-.03-.08-.03-.18-.03-.1-.03-.13-.03-.13-.05-.08-.08-.1-.08-.18-.08-.08-.03-.08-.05-.05-.05-.08-.05-.1-.08-.16-.05-.16-.05-.18-.05-.13v-.1l-.03-.39v-.08l.03-.18v-.03l.03-.08v-.21l.03-.1v-.39l-.03-.16-.03-.1-.03-.05-.05-.13-.08-.16-.13-.18-.1-.1-.26-.21-.03-.08-.03-.03-.21-.31-.03-.1-.16-.47-.05-.08-.08-.08-.05-.03-.05-.05-.05-.13v-.29l.03-.13v-.13l.03-.08v-.36l.03-.16.05-.1.1-.21.05-.18.05-.13.03-.08.03-.05v-.08l-.03-.08-.05-.05-.05-.05-.08-.03-.05-.08-.05-.05-.03-.08-.03-.08-.03-.05-.05-.1v-.08l-.03-.13-.03-.05-.03-.08-.05-.03-.08-.08-.05-.1-.03-.08v-.13l.03-.05v-.03l-.21-.26-.03-.03v-.21l.03-.05.03-.05.1-.05.08-.03.08-.05.05-.1.03-.08.03-.08.08-.1.03-.03.13-.1.1-.08.03-.03h.03l.05-.05.03-.03.03-.1h.03v-.13l-.03-.1-.03-.08.03-.18v-.05l-.05-.13-.08-.08-.18-.03h-.39l-.08-.03-.08-.08-.03-.08-.03-.08v-.08l.03-.05.03-.05.03-.1.05-.05.05-.05.08-.03.18-.1.1-.03.08-.03h.1l.26.05.13.05.05.03h.05l.1.05.36.13.08.05.1.13.03.18v.08l.03.05.03.03h.1l.03-.05.13-.29.08-.21.08-.16.05-.05.05-.1.03-.05.03-.08.03-.08.03-.13v-.1l.03-.1v-.08l-.03-.1.03-.13.08-.21.05-.13.1-.08.13-.08.08-.05h.18l.08.03.13.05.1.08.08.08.08.1.03.03.05.03.1.03h.23l.03-.05.05-.05.03-.1.03-.16v-.05l-.03-.08-.05-.03-.05-.03-.16.03-.05-.03-.05-.03-.03-.05v-.13l.03-.1.08-.1.08-.1.05-.05.08-.05.08-.03h.26l.16.03.21.03h.23l.16.03.13.03.16.03.05.03.1.05.1.03h.03l.03.03.08.05.08.1.05.1.03.13v.44l.03.05.03.08.05.1.08.16.1.13.13.1.13.05h.49l.1-.03.13-.05.05-.05.1-.1.08-.1.05-.13v-.26l-.03-.1-.03-.08-.05-.03h-.05l-.03.03.03.13v.1l-.03.08-.05.03-.03.03h-.05l-.08-.05-.05-.1-.03-.1v-.08l.03-.08.05-.05.03-.05v-.21l-.05-.08-.03-.05-.05-.03h-.13v-.05l.05-.05.05-.08v-.18l-.03-.1-.05-.13-.05-.05-.05-.1-.08-.05-.08-.05-.05-.03-.05-.05-.03-.05-.03-.08v-.05l-.03-.05.03-.08v-.08l.03-.08.03-.05.03-.08.03-.05.08-.08.08-.08.1-.08.08-.05.08-.03.1-.03.08-.03.08.03.05.03.05.05.03.03v.16l.03.05.08.08.1.05.05.03h.03l.1.08.13.05.08.03.13.05h.18l.08-.03.05-.08v-.03l.08-.13.05-.13.03-.18.03-.08.03-.08.03-.05h.05l.05.03.05.03.05.03h.1l.03-.03.08-.03.18-.1.08-.05.1-.08.18-.1.1-.08.1-.16.1-.1.08-.05.08-.03.05-.03.05.03.03.05-.03.05-.03.05-.08.1-.03.08-.03.1-.03.08v.1l.03.08.03.08h.03l.03.05.08.03.08.05.08.05.03.08.05.1.05.08.08.08.05.05.08.03.05.03h.05l.08-.03.05-.05.08-.05.05-.03.08-.05.05-.05.05-.05.03-.05-.03-.03-.03-.03h-.1l-.08-.03h-.05l-.03-.05-.03-.05.03-.05.03-.03h.03l.05-.05.08-.05.1-.1.08-.08.03-.08.03-.05v-.03l-.03-.03-.03-.03-.05-.03-.03-.05-.03-.13-.03-.1-.03-.08-.03-.13-.03-.13v-.18l-.03-.1.05-.13v-.08l.05-.05.03-.05h.1l.08.03.08.08.08.05.05.03.08.03h.08l.08.03.05-.03.08-.03.13-.03.08-.03.08-.05.05-.05v-.05l-.03-.05-.08-.05-.1-.1-.05-.05-.05-.08-.03-.05v-.05l.03-.08.03-.08.05-.1.05-.08.08-.05.08.03.05.05.08.13.05.08.1.08.13.13.16.1.1.08.05.03h.03l.08.03h.05l.03-.05-.03-.05-.03-.08-.05-.1-.05-.13v-.16l.05-.08.05-.05.05-.1.03-.1.03-.1.03-.13.03-.13.03-.13.03-.13.03-.13.03-.1.03-.08.05-.08.05-.03.08-.03.1.03.1.05.08.05.13.03h.21l.05-.03h.05l.03.03.03.05-.03.08-.05.08-.08.1-.03.05-.03.08-.03.08v.08l.03.05.03.08.05.05.05.03h.13l.08-.03.18-.05.13-.05.16-.08.16-.03.16-.05.18-.05.05-.03.08-.08.05-.05.05-.05.05-.03.08.03h.18l.08.03.13-.03.08-.03.1-.03.03-.05.08-.05v-.54l-.03-.1-.03-.05-.05-.1-.05-.13-.03-.13v-.36l.03-.08.03-.1.03-.08v-.08l-.03-.03-.03-.03-.05-.03h-.03l-.03-.03-.03-.03v-.08l-.03-.1v-.08l.03-.08v-.13l-.03-.13.03-.08.03-.05.03-.08h.03l.03-.03.1-.03.13-.03.08-.03h.23l.13-.03.08-.05h.1l.08-.03h.03l.08.03h.08l.05.03.08-.03.08-.05.05-.03.03-.05.03-.05.05-.08.1-.1.1-.1.05-.05.08-.08.05-.08.05-.1.05-.08.03-.05.03-.1.03-.1-.03-.05-.05-.16-.08-.16-.05-.13-.03-.1v-.13l.03-.05.05-.18-.08.05-.1.05h-.03v.03l-.18.08-.03.05-.05.13v.21l-.05.13v.03h-.03l-.05.1.05.08.03.13-.16-.05h-.18l-.18.03-.13.03h-.03l-.1.05-.16.03-.18.05-.05-.03-.13-.03.03-.13.1-.16.03-.03h-.03l-.05-.08-.18.05-.21.03-.03.03-.03.03-.16.13-.1.16-.13.08-.08.05h-.03l-.08.1-.08.13-.13.08-.13.13-.05.03-.03.03-.05.03h-.18l-.21-.03h-.18l-.13.08-.1-.05.03-.08.03-.05.05-.16.05-.18v-.34l-.05-.13-.08-.1-.13.05h-.03l-.16.03-.1-.05-.03-.05h-.03l-.05-.1-.1-.08-.16-.05-.16-.03-.13-.08-.05-.03-.03-.03-.1-.08-.03-.03-.08-.08.03-.1.13.03.05.03h.13l.1.08.1.05.03-.13v-.08l.16.03.08.13.1.05.16.05.03-.05v-.05l-.08-.16-.1.03-.05-.08.05-.08.13.03.16-.05h.03l.03-.1.03-.05v-.16l.08-.16-.1-.1v-.03l-.03-.05-.03-.05v-.03h-.16l-.16-.08-.05-.16v-.21l.08-.16-.1-.1-.08-.03-.16-.05-.23.03-.1.03-.03.03h-.05l-.16.13-.18-.08h-.34l.08-.21.03-.1-.08-.08-.05-.08-.05-.1-.03-.08.03-.05v-.03l.1-.08.08-.08.03-.08-.03-.08-.05-.03h-.13l-.1.03h-.05v.03l-.05.03-.05.05-.16-.23-.21-.29-.03-.08-.08-.1-.03-.03v-.03l-.1-.18-.13-.21-.08-.08-.05-.08h-.03l-.21-.03-.23.03-.05.03-.1.05h-.03l-.1.16-.08-.03-.08-.08-.1.03h-.05l-.1.05-.29.05-.05-.03-.13-.08v-.18l-.03-.16-.1-.18-.03-.05-.05-.08.13-.13v-.34l-.16.03-.1-.03h-.13l-.16-.13-.05-.21v-.1l.03-.13.03-.23.08-.13.03-.08.13-.13.03-.13.03-.08v-.05l.16-.21.03-.21-.05-.08-.08-.13-.05-.03h-.03l-.16-.08h-.26l-.08.05-.18.1h-.31l-.23-.05-.18-.21-.08-.16-.03-.05v-.23l.03-.05.05-.08v-.08l-.03-.16.18-.13.1-.21.03-.05.16-.13.03-.03.08-.08.16-.18v-.03l.23-.21.13-.18.08-.08v-.03l.08-.1.21-.16h.03v-.03l.18-.08.21.03.08-.03.16-.03h.54l.05-.05v-.05l-.03-.05v-.08l-.03-.08-.16-.23-.08-.1-.16-.18-.08-.08-.03-.13v-.18l-.03-.21-.03-.18-.05-.18.03-.16.03-.03v-.08l.03-.1v-.13l.03-.08v-.18l.03-.1.03-.1v-.05l.03-.05v-.1l.03-.03v-.05l.03-.16.03-.08v-.05l.03-.05v-.03l.03-.03v-.03l.03-.03v-.05l.08-.13v-.03l.03-.05.03-.03v-.1l.03-.03v-.03l.03-.03v-.03l.05-.08.03-.03v-.08l.03-.05v-.03l.03-.05v-.08l.03-.03v-.05l.03-.08.1-.31v-.05l.03-.05.08-.34v-.13l.03-.05v-.03l.05-.29.03-.08.03-.05v-.03l.05-.08.05-.05.03-.03.03-.05.05-.05.03-.05.18-.16.29-.18.34-.13.23-.08.26-.08.21-.08.13-.08.05-.03.1-.13.03-.05.03-.08v-.13l.08-.31.1-.39.03-.05.08-.1.21-.42.05-.18.03-.05v-.18l-.03-.03-.03-.1-.08-.08-.1-.08-.13-.1-.05-.05-.23-.18-.21-.05-.03-.03-.26-.03-.26-.03-.18-.1h-.03l-.13-.21-.08-.13-.1-.08-.23-.1-.1-.03-.1.05-.08.08-.05.05-.03.05-.05.05-.03.05-.05.03-.13.05-.1.03h-.16l-.08-.05-.08-.08-.05-.08v-.05l-.03-.05.03-.16-.03-.05-.03-.05-.03-.03h-.03l-.05-.05-.03-.03-.05-.08-.05-.13-.08-.13-.03-.1h-.03l-.03-.05-.03-.03-.08-.08-.03-.03-.18-.13-.16-.1-.05-.05-.23-.13-.16-.08-.05-.05-.1-.05-.16-.1-.13-.08-.1-.08-.13-.05-.1-.05-.16-.05-.05-.03-.13-.08-.03-.03-.03-.05-.05-.08-.03-.1-.03-.05-.03-.05-.03-.05v-.05l-.05-.1v-.23l-.03-.08v-.05l-.05-.08-.08-.1-.13-.1h-.05l-.08-.03h-.03l-.05-.03h-.08l-.08-.03-.08-.05h-.03l-.08-.03-.18-.13-.18-.08-.23-.13-.26-.18-.05-.05-.08-.05-.34-.29-.1-.26-.1-.29-.03-.05-.16-.29-.03-.08-.18-.26-.1-.16-.05-.1-.05-.1-.03-.05-.03-.21v-.08l.05-.26.05-.29-.03-.05-.03-.23v-.21l-.05-.26v-.31l.03-.29.18-.29.23-.21.13-.23-.03-.16-.03-.05-.08-.08-.03-.1.03-.13.08-.13.03-.16-.1-.18-.16-.1-.03-.05.05-.08.08-.1.1-.1.03-.13-.1-.23-.08-.13-.57-.88-.21-.29-.13-.36-.08-.39v-.05l.05-.36.21-.34.39-.29.26-.16.13-.16.03-.23-.03-.34-.08-.21-.08-.26-.03-.1-.03-.1v-.1l.05-.05.08-.13.05-.16.1-.21.18-.21.05-.26.21-.39.13-.21.08-.18.08-.13.05-.18.08-.1.21-.18.13-.1.16-.16.03-.21-.1-.21-.03-.1-.16-.13-.08-.08h-.03l-.42-.18-.57-.18-.67-.23-.65-.18-.52-.13-.49-.1h-.42l-.49.03-.34-.16-.21-.21-.16-.23-.1-.23.03-.23.08-.16.13-.21.23-.13.23-.05.13-.05.23-.18.18-.23.1-.29-.05-.18-.05-.29.1-.18.18-.1.13-.13.1-.16.16-.16.18.05.18-.05.23.08h.26l.6-.18.57-.18.42-.31.03-.05.03-.65v-.03l-.03-.47-.03-.86-.1-.31-.05-.1-.05-.1-.03-.03-.29-.26-.36-.49-.39-.44-.13-.23.05-.1.29-.18.08-.16v-.23l-.13-.52-.13-.26-.23-.52-.13-.23v-.34l.05-.13.05-.13.03-.13-.03-.16-.23-.26-.08-.18.03-.21.03-.16.21-.23.05-.08.08-.18.08-.18v-.18l-.05-.08-.03-.05-.18-.21-.05-.1-.05-.16-.1-.1-.1-.13-.08-.16-.03-.1-.05-.29-.03-.13-.03-.16.05-.36.16-.6.08-.29.13-.34.05-.18v-.21l-.08-.23-.03-.05-.08-.18-.1-.39.05-.54.21-.44.13-.18.16-.13.08-.1.08-.16.08-.1.05-.18v-.18l-.1-.26-.16-.23-.16-.31-.03-.29.05-.26.16-.36.05-.34.03-.36v-.21l-.08-.16-.08-.13-.03-.21.03-.21.05-.08v-.03l.13-.21.16-.26.1-.16.08-.1.13-.16.08-.18.05-.16.08-.18-.05-.18-.03-.18-.03-.16.03-.18.1-.23.29-.21.13-.26.1-.49-.03-.21-.13-.26-.13-.42-.03-.13v-.73l.03-.13-.03-.31-.13-.31-.05-.08-.08-.13-.13-.16-.21-.18-.29-.08-.31-.21-.08-.05-.08-.08-.13-.05-.16-.08-.18-.13-.03-.03-.05-.21-.08-.31v-.05l-.03-.34-.08-.29-.05-.08-.1-.13-.05-.05-.08-.1-.23-.13-.34-.05h-.31l-.05-.05-.08-.05-.05-.05-.08-.1-.05-.18-.05-.21-.08-.13-.1-.16-.05-.18-.03-.31-.03-.23.05-.26.03-.1.05-.23.08-.16.08-.18.16-.1.26-.18.03-.13.03-.13.03-.1v-.03l-.03-.1-.49-.62-.05-.18-.03-.18-.03-.1.03-.18v-.05l.05-.1.1-.1.1-.08-.03-.13-.05-.1-.13-.16-.05-.1v-.1l.08-.08.05-.13-.03-.23-.1-.44v-.03l-.13-.16-.26-.18-.91-.49-.21-.18-.1-.18-.21-.29-.05-.13-.08-.13-.05-.21-.03-.1v-.49l.05-.26h-8.64l-.03-.03-.05.03v.05h-.05l-.03-.03-.03-.03h-.13l-.05-.03-.05-.03-.03-.03-.05-.03-.08-.05-.03-.03h-.05l-.03-.05h-.1l-.08-.03h-.16l-.03.03-.03.03-.03.03v.08h-.08l-.03.05-.05.03v.03h-.03v.03h-.03l-.03.03h-.05l-.05.03-.05.03h-.05l-.03.03h-.08v.03l-.03-.03v.03l-.03-.03h-.18l-.03.03h-.03l-.03.03-.03.03v.03h-.03l-.03.03h-.03l-.03.03-.03.03h-.03l-.03.03h-.05l-.03.03h-.05v.03l-.03-.03-.03.03h-.05v.03h-.18l-.03.03h-.08l-.03.03v-.03h-.03l-.03.03h-.05l-.03.03h-.03l-.03.03h-.08v.03l-.03-.03h-.03.03-.05l-.03.03v.05l-.03.03h-.05v-.03h-.03v.03h-.03v.05h.03v.03h-.03l-.03-.03h-.05v.05h-.03v.03h-.05.03-.03l-.03.03h-.05v-.03h-.08v-.03h-.1l-.03.03h-.03v.03l-.03.03h-.03.03-.08v-.08h-.03v-.03l.03-.08v-.03l-.03-.03h-.03v-.03h-.03v-.03h-.08v.03h-.03v.03h-.05v-.03l-.03.03v.08h-.05l-.03-.03-.03-.03-.03-.03h-.03v-.03h-.05l-.03-.03h-.08l-.03.03h-.03l-.03.03h-.05v.03h-.05v-.03h-.05l-.03-.03v-.03l.03-.03v-.03h-.03v-.05h-.03l-.03-.03v-.03l-.03-.03v-.03l-.03-.03h-.03v-.1h-.03v-.03h-.03v-.03l-.03-.03v-.03h.03v-.05h-.03v-.03l-.08-.03-.03-.03h-.03l-.03-.05-.05-.08-.03-.05v-.1l-.03-.03v-.08h.05l.03-.03h.13v-.08l-.03-.05v-.05l-.03-.08-.03-.05v-.26h.08l.03.03h.03l.03-.03v-.05l-.05-.05v-.05h-.03v-.03h-.03v-.03l-.03-.03h-.08l-.03-.03h-.03v-.03l-.03-.03.03-.05v-.03h-.03l-.03.03h-.03v-.05h-.08v-.05l-.03-.03h.05l.03-.03v-.03l.03-.03-.03-.03-.03.03h-.03v-.03l.03-.03v-.05l-.03-.03-.03-.03v-.03h-.03l-.03-.03-.08-.05h-.05v-.05h-.05l-.05.03h-.03v-.05l-.03-.05v-.08l-.03-.03v-.05l.03-.03v-.03l-.03-.03v-.03h-.03l-.05-.03h-.08l-.03.03-.08.03v.03h-.08v-.03h-.03l-.03-.03v-.05l-.03-.03h.03v-.03l-.03-.03v-.05l-.03-.03-.03-.03-.03-.03-.03-.03v-.03l-.03-.03v-.08h-.08l-.03.05h-.05l-.03.03h-.03v-.03l-.03-.03-.03-.03h-.21l-.03-.03h-.03v.03h-.05l-.03-.03-.03.03-.03-.03h-.13l-.03-.03-.08-.08v-.08h-.05l-.05-.03-.03-.03h-.03l-.03-.03h-.03v-.03l-.03-.03h-.05v.03h-.13l-.03.03-.05.05v.05l-.03.03v.03h-.08l-.03.03-.03.03-.03.03h-.03l-.03.03h-.08v.03h-.1l-.03.03h-.05v-.05l-.03-.03v-.05l-.03-.03h-.03l-.03-.03h-.03v-.1l.03-.05v-.03l.03-.03v-.05h.03v-.05l.03-.05v-.03h.03v-.1l-.03-.05v-.08l-.03-.03h-.05l-.05-.03v-.03l-.03-.03-.03-.03v-.03h-.03v-.03h-.03l-.03-.03h-.03l-.03.03h-.03l-.03-.03h-.03l-.03.03h-.03l-.03.03h-.05l-.03.03h-.03l-.03-.03h-.03v-.03h-.03l-.03-.03h-.08v-.03l-.03-.05-.03-.03-.03-.03h-.03l-.03-.03-.03-.03-.03-.03v-.18l-.03-.03h-.03l-.05-.03-.05-.08-.03-.03v-.03l-.03-.03v-.03l-.03-.03v-.03h-.03l-.03-.03v-.03h-.03l-.03-.03h-.05l-.08-.03-.03-.03v-.1l-.03-.03v-.03l-.03-.03v-.05h-.05l-.03-.03-.03-.05h-.03v-.1l.03-.03v-.03l-.03-.03v-.05h-.03v-.03l-.03-.03-.03.03h-.03v-.03h-.03v-.1h-.03l-.03.03-.03.03v.03h.03v.03h.03v.03h-.05v-.03l-.03-.03v-.03l.03-.03v-.05l-.03-.03h-.03l-.03-.03v.05l-.03.03-.03.03h-.03v-.03h-.08v.03h-.05v-.05h-.08l-.03.03h-.05l-.03-.03v-.08h-.05l-.03-.03h-.05v-.08h-.05v.03h-.03l-.03-.03v-.05l-.03-.03v-.03l-.03-.03-.03.03h-.03l-.03.03v-.03l.03-.03v-.03h.03l.03-.03v-.03l-.05-.03-.05-.03-.03-.03v.03h-.03v.03l-.03.03v.05h-.03l-.03-.03v-.03l-.03-.03v-.03l.03-.03v-.03h.03v-.03h-.03l-.03-.03-.03.03-.03.05h-.03l-.03.03h-.05v.05h.03v.03h-.03l-.03-.03-.03-.03-.03-.05h-.03l-.03-.03h-.05l-.03-.03v-.03l-.03-.03v-.03l.03-.05v-.03h-.08l-.03-.03v-.03l-.03-.03h-.03l-.03-.03h-.03l-.03.03-.05.03h-.05v-.03l-.03-.03-.03-.03-.03-.03-.03-.05-.03-.05-.08-.08-.05-.03v-.03l-.05-.05h-.03l-.03-.03-.05-.03-.05-.03-.08-.03-.03-.03h-.03l-.05-.03-.08-.03h-.03l-.08-.03h-.18l-.08.03h-.05l-.05.03h-.1l-.03-.03h-.05l-.03-.03-.03-.03-.08-.08-.03-.05-.05-.05-.05-.08-.03-.03-.05-.08-.05-.05-.05-.05-.08-.05-.05-.08-.03-.03-.08-.08-.05-.08-.05-.05-.05-.05-.05-.05-.03-.05-.1-.05-.1-.1-.05-.08-.1-.08-.05-.08-.03-.05-.05-.03-.05-.03-.08-.08h-.05l-.05-.05-.1-.08-.26-.16-.21-.13-.16-.1-.05-.03-.03-.03-.1-.03-.13-.03-.05.03h-.18l-.05-.03-.03-.03-.05-.05-.08-.1-.05-.03-.03-.03-.08-.03-.1-.05-.05-.03-.03-.05-.03-.08-.05-.13v-.05l-.08-.18-.03-.08-.03-.05h-.03l-.03-.05-.03-.03-.05-.05-.05-.03-.13-.08-.03-.03-.08-.05-.13-.08-.05-.05-.03-.03-.08-.08-.08-.08-.03-.05-.03-.03-.08-.03-.05-.03h-.08l-.05.03v.03l-.08.13-.03.05-.03.03-.03.03h-.05l-.03-.03-.05-.03-.05-.05-.03-.05-.03-.05h-.1v.08l.03.03.03.05.03.03v.08l-.03.03h-.03l-.05.03h-.03l-.05-.05-.05-.05-.03-.05-.05-.05-.08-.05-.03-.03h-.08l-.03.03-.03.03v.03l-.03.05v.05l-.03.05v.03h-.05l-.03.03-.05-.03-.03-.03-.05-.03-.03-.05-.03-.08-.03-.08v-.08l-.03-.08-.03-.05-.03-.03-.05-.05h-.08l-.03.03-.03.03v.03l-.03.03-.03.03v.03l-.03.03h-.05l-.03-.03-.08-.05-.03-.03-.05-.03h-.03v-.1l.03-.05.03-.05.05-.1.03-.08.05-.05.03-.03.05-.05.03-.03.03-.05.03-.03v-.05l-.03-.05-.05-.13v-.08l-.03-.03v-.03l.03-.1v-.13l.03-.08.03-.03v-.03l.03-.03.03-.03.03-.03v-.18h-.03l.03-.03.03-.03.03-.03h.03l.03.03.05.03h.1v-.03h.03l.05-.03h.03l.03-.03h1.06l1.17-.03h6.41l.91.03h16.27l1.22-.03h30.72l.44-.03h24.34v228.2h0"
     vector-effect="none"
     id="path10" />
  <text
     class="cls-14"
     transform="translate(289.13 250.44)"
     id="text11"><tspan
       x="0"
       y="0"
       id="tspan11">Population</tspan></text>
  <text
     class="cls-14"
     transform="translate(305.85 225.92)"
     id="text12"><tspan
       x="0"
       y="0"
       id="tspan12">100</tspan></text>
  <text
     class="cls-14"
     transform="translate(300.15 197.04)"
     id="text13"><tspan
       x="0"
       y="0"
       id="tspan13">70000</tspan></text>
  <g
     id="g20">
    <circle
       class="cls-5"
       cx="219.61"
       cy="471.55"
       r="5.21"
       id="circle13" />
    <circle
       class="cls-8"
       cx="224.98"
       cy="429.23"
       r="6.43"
       id="circle14" />
    <circle
       class="cls-3"
       cx="219.5"
       cy="274.2"
       r="6.9"
       id="circle15" />
    <circle
       class="cls-8"
       cx="198.53"
       cy="378.11"
       r="6.65"
       id="circle16" />
    <circle
       class="cls-6"
       cx="232.14"
       cy="456.62"
       r="6.08"
       id="circle17" />
    <circle
       class="cls-8"
       cx="209.16"
       cy="409.46"
       r="15.26"
       id="circle18" />
    <circle
       class="cls-1"
       cx="225.62"
       cy="414.35"
       r="6.44"
       id="circle19" />
    <circle
       class="cls-8"
       cx="212.56"
       cy="427.14"
       r="5.09"
       id="circle20" />
  </g>
  <circle
     class="cls-4"
     cx="314.42"
     cy="219.86"
     r="20"
     id="circle21" />
  <text
     class="cls-15"
     transform="translate(233.91 431.34)"
     id="text21"><tspan
       x="0"
       y="0"
       id="tspan21">Anzac</tspan></text>
  <text
     class="cls-15"
     transform="translate(63.53 431.46)"
     id="text22"><tspan
       x="0"
       y="0"
       id="tspan22">Gregoire Lake Estates</tspan></text>
  <text
     class="cls-11"
     transform="translate(228.46 276.91)"
     id="text23"><tspan
       x="0"
       y="0"
       id="tspan23">Fort Chipewyan</tspan></text>
  <text
     class="cls-11"
     transform="translate(240.16 460.66)"
     id="text24"><tspan
       x="0"
       y="0"
       id="tspan24">Janvier</tspan></text>
  <text
     class="cls-15"
     transform="translate(233.58 416.34)"
     id="text25"><tspan
       x="0"
       y="0"
       id="tspan25">Saprae Creek</tspan></text>
  <text
     class="cls-11"
     transform="translate(226.77 476.76)"
     id="text26"><tspan
       x="0"
       y="0"
       id="tspan26">Conklin</tspan></text>
  <text
     class="cls-11"
     transform="translate(85.31 412.83)"
     id="text27"><tspan
       x="0"
       y="0"
       id="tspan27">Fort McMurray</tspan></text>
  <text
     class="cls-15"
     transform="translate(206.88 380.62)"
     id="text28"><tspan
       x="0"
       y="0"
       id="tspan28">Fort McKay</tspan></text>
  <circle
     class="cls-4"
     cx="314.42"
     cy="233.91"
     r="5.96"
     id="circle28" />
  <line
     class="cls-2"
     x1="333.96"
     y1="405.64"
     x2="324.7"
     y2="405.64"
     id="line28" />
  <text
     class="cls-13"
     transform="translate(62.43 194.1)"
     id="text32"><tspan
       x="0"
       y="0"
       id="tspan29">Households in </tspan><tspan
       x="0"
       y="14.4"
       id="tspan30">Inadequate or </tspan><tspan
       x="0"
       y="28.8"
       id="tspan31">Unaffordable </tspan><tspan
       x="0"
       y="43.2"
       id="tspan32">Housing</tspan></text>
  <line
     class="cls-2"
     x1="44.83"
     y1="296.98"
     x2="35.57"
     y2="296.98"
     id="line32" />
  <rect
     class="cls-9"
     x="48.1"
     y="189.39"
     width="9.76"
     height="128.64"
     id="rect32" />
  <line
     class="cls-2"
     x1="57.61"
     y1="232.37"
     x2="48.35"
     y2="232.37"
     id="line33" />
  <line
     class="cls-2"
     x1="57.61"
     y1="275.34"
     x2="48.35"
     y2="275.34"
     id="line34" />
  <text
     class="cls-13"
     transform="translate(21.22 193.68)"
     id="text34"><tspan
       x="0"
       y="0"
       id="tspan34">20%</tspan></text>
  <text
     class="cls-13"
     transform="translate(21.22 237.31)"
     id="text35"><tspan
       x="0"
       y="0"
       id="tspan35">30%</tspan></text>
  <text
     class="cls-13"
     transform="translate(21.22 280.27)"
     id="text36"><tspan
       x="0"
       y="0"
       id="tspan36">40%</tspan></text>
  <text
     class="cls-13"
     transform="translate(21.22 322.63)"
     id="text37"><tspan
       x="0"
       y="0"
       id="tspan37">50%</tspan></text>
  <text
     class="cls-14"
     id="text23-1"
     style="font-size:14px;font-family:OpenSans, 'Open Sans';fill:#0d534d;fill-opacity:1"
     x="131.30135"
     y="344.18585"><tspan
       x="131.30135"
       y="344.18585"
       id="tspan23-4"
       style="fill:#0d534d;fill-opacity:1">WOOD BUFFALO</tspan></text>
</svg>
