<?xml version="1.0" encoding="UTF-8"?>
<svg id="Layer_1" data-name="Layer 1" xmlns="http://www.w3.org/2000/svg" xmlns:xlink="http://www.w3.org/1999/xlink" viewBox="0 0 720 618.23">
  <defs>
    <style>
      .cls-1 {
        fill: #f0c036;
      }

      .cls-1, .cls-2, .cls-3, .cls-4, .cls-5, .cls-6, .cls-7, .cls-8 {
        stroke-miterlimit: 10;
      }

      .cls-1, .cls-3, .cls-5, .cls-6, .cls-8 {
        stroke: #231f20;
        stroke-width: .5px;
      }

      .cls-2 {
        stroke: #fff;
      }

      .cls-2, .cls-4, .cls-7 {
        fill: none;
      }

      .cls-9 {
        fill: url(#linear-gradient);
      }

      .cls-3 {
        fill: #e57059;
      }

      .cls-10 {
        fill: #4ebdac;
      }

      .cls-4 {
        stroke: #4ebdac;
      }

      .cls-5 {
        fill: #e89645;
      }

      .cls-11, .cls-12 {
        font-family: OpenSans-Bold, 'Open Sans';
        font-weight: 700;
      }

      .cls-11, .cls-12, .cls-13, .cls-14 {
        fill: #231f20;
      }

      .cls-11, .cls-14 {
        font-size: 14px;
      }

      .cls-15 {
        fill: #9a9896;
      }

      .cls-15, .cls-13 {
        font-size: 12px;
      }

      .cls-15, .cls-13, .cls-14 {
        font-family: OpenSans, 'Open Sans';
      }

      .cls-6 {
        fill: #e57459;
      }

      .cls-12 {
        font-size: 20px;
      }

      .cls-7 {
        stroke: #9a9896;
      }

      .cls-8 {
        fill: #f3d033;
      }

      .cls-16 {
        letter-spacing: .04em;
      }
    </style>
    <linearGradient id="linear-gradient" x1="666.67" y1="427.39" x2="666.67" y2="109.67" gradientUnits="userSpaceOnUse">
      <stop offset=".04" stop-color="#e36a5b"/>
      <stop offset=".52" stop-color="#e69941"/>
      <stop offset=".96" stop-color="#f3d033"/>
    </linearGradient>
  </defs>
  <path class="cls-10" d="M487.68,466.23v80.47l.04.69v2.11l-.04.73v15.45l-.69-.04h-61.38l-.69-.04h-1.42l-.65.04h-11.39v-.04l.04-.69v-24.61h-.65v-16.99h-25.62v4.26h-8.55v-4.26h-7.82l-.69.04h-.65l-.08-.04h-7.38l-.45.04-.73-.04h-6.41l-.69.04h-2.19l-.69-.04h-3.57l-.69.04h-.12v-.04l-.04-.04h-.04v-.04l-.08-.04-.12-.08h-.08l-.04-.04h-.04l-.08-.04-.04-.04h-.04l-.04-.08-.04-.04-.04-.08h-.04v-.24l-.04-.04v-.08l-.04-.04v-.32l.04-.16v-.04l.04-.04v-.12l.04-.04.04-.04v-.04l.04-.04.04-.04v-.04l.04-.04.04-.04.04-.08h.04l.04-.04.04-.04h.04l.04-.04.08-.08h.04l.08-.04.04-.04h.04v-.04h.04l.04-.04h.04l.04-.04.04-.04.08-.08.08-.04.04-.04h.04l.04-.04.16-.04h.04l.08-.04h.08l.04-.04h.08l.04-.04h.08l.04-.04.04-.04.04-.04h.08l.12-.08.08-.04.04-.04h.08l.04-.04.04-.04.04-.04.04-.04.04-.08v-.2l-.04-.04v-.04l-.04-.04-.04-.04-.04-.04v-.04l-.04-.04h-.04l-.04-.04h-.2v.04l-.04-.04h-.36v-.04h-.04l-.04-.04-.04-.04v-.04l-.08-.04-.04-.08h-.04l-.04-.08-.04-.04v-.04l-.04-.08-.04-.04v-.08l-.04-.12-.04-.16v-.32l.04-.04v-.28l.04-.04v-.2l.04-.04v-.12l.04-.12.12-.2v-.04l.04-.04.04-.08.04-.04v-.08l.04-.08v-.04l.04-.04v-.08l.08-.24v-.2l.04-.12v-.08l-.04-.12v-.08l-.04-.04v-.12l-.04-.04v-.16l-.04-.04v-.04l-.04-.04-.04-.04-.04-.04v-.04l-.04-.04v-.04l-.04-.04v-.04h-.04l-.04-.04h-.04v-.04h-.08v-.08h-.04v-.04h-.04v-.04l-.04-.04-.04-.04h-.04v-.04h-.04l-.04-.04h-.04v-.04l-.04-.04-.04-.04-.04-.04v-.2l.04-.08v-.16l.04-.04.04-.04v-.04h.08v-.04h.04l.04-.04h.24l.04-.04h.41l.2.04h.49l.12-.04.08-.04h.08l.04-.04h.04l.04-.04.04-.04h.04l.04-.04.04-.04.04-.04.04-.04h.04l.08-.12.08-.16v-.04h.04v-.04l.04-.08.04-.04v-.12h.04v-.04l.04-.04.04-.12v-.08h.04v-.12h.04l.04-.12v-.04l.04-.04v-.12l.04-.04v-.08l.04-.04.04-.12.04-.04.04-.12v-.2h.04v-.16l.04-.08v-.08l.04-.04v-.08h-.04v-.04l-.04-.04v-.36l-.04-.04v-.16l-.04-.04v-.12l-.04-.04v-.08l-.04-.04-.04-.08v-.04l-.04-.08v-.41l.04-.16v-.12l.08-.24v-.04l.04-.08.04-.08v-.08l.04-.04.04-.08.04-.04.08-.08.04-.04.04-.04.08-.04.04-.04.04-.04h.04l.04-.04h.04v-.04h.04l.04-.04h.04v-.04l.04-.04.04-.04.04-.04.04-.08v-.04h.04v-.12.04h.04l-.04-.04v-.2h.04v-.16l-.04-.04v-.41l.04-.12v-.2l.04-.08.04-.08v-.04l.04-.04h.04l.08-.04.04-.04h.24v-.04h.24l.04-.04.04-.04h.04l.04-.04.04-.04v-.04l.04-.04h.04v-.04l.04-.04v-.04l.04-.08.04-.04.04-.04v-.08l.04-.04v-.12l.04-.04v-.08h.04v-.16l.04-.04v-.12h.04v-.04l.04-.04v-.08l.04-.08.04-.04.04-.08h.04v-.04l.04-.04.08-.08.04-.04v-.04h.04l.04-.04.04-.04.04-.04v-.04h.04l.04-.04v-.04l.04-.04.08-.08.04-.04.04-.08.04-.04h.04l.04-.04v-.04l.08-.08v-.08h.04v-.08l.04-.08.04-.04v-.16l.04-.04v-.16h.04v-.57h.04l-.04-.04-.04-.08-.04-.08-.04-.08-.08-.08-.08-.12-.04-.04-.04-.04h-.04l-.04-.12-.08-.04-.04-.04-.04-.04-.04-.04h-.04l-.04-.04v-.04h-.04l-.04-.04h-.04l-.04-.08h-.04v-.08l-.04-.04-.04-.08-.04-.08-.04-.12-.04-.08v-.08l-.04-.08v-.28l-.04-.04v-.24h-.04v-.28l-.04-.08.04-.04v-.28l.04-.16v-.16h-.04v-.04l.04-.08v-.08h-.04v-.2l-.04-.08v-.04l-.04-.04v-.04l-.04-.04v-.04l-.04-.04v-.08l-.04-.04v-.08l-.04-.04v-.08l-.04-.04v-.04l-.04-.08v-.04l-.04-.04v-.04l-.04-.04v-.04l-.04-.04v-.04l-.04-.04-.04-.12v-.12l-.04-.04-.04-.08-.04-.12-.04-.04v-.04l-.04-.04v-.04l-.04-.04-.04-.04v-.04l-.04-.04-.08-.04-.04-.12-.12-.16-.04-.04v-.04l-.04-.04-.04-.04v-.04l-.04-.08-.04-.08v-.04l-.04-.04-.04-.04-.04-.08-.04-.04v-.04l-.04-.04-.08-.12v-.08l-.04-.08v-.04l-.04-.04v-.2l-.04-.16-.04-.04v-.08h-.04v-.08l-.04-.12v-.24l-.04-.08v-.16l-.04-.04-.04-.12v-.08l-.04-.08v-.04l-.04-.08v-.04l-.04-.08-.04-.08v-.04l-.04-.04v-.04l-.04-.08-.04-.04v-.04l-.04-.04v-.04l-.04-.04v-.04l-.04-.04-.04-.08v-.04h-.04l-.04-.12-.04-.04v-.04l-.04-.04v-.04l-.04-.04v-.04l-.04-.04v-.08l-.04-.08v-.04l-.04-.08v-.08l-.04-.04v-.04h-.04v-.08l-.04-.04-.04-.08v-.08l-.04-.08v-.04l-.04-.08v-.12l-.04-.04v-.04l-.04-.04v-.08l-.04-.04-.04-.16v-.08l-.04-.04v-.08h-.04v-.04l-.04-.04-.04-.04-.04-.08-.04-.08-.04-.04-.04-.04-.04-.08v-.08l-.04-.04v-.04h-.04l-.04-.04v-.04h-.04v-.04l-.04-.04v-.04l-.04-.04v-.04l-.04-.04v-.04l-.04-.04-.04-.04v-.04l-.04-.04-.04-.04-.04-.04-.04-.04-.04-.04v-.04l-.04-.04-.04-.04-.04-.04h-.04l-.04-.04h-.28l-.04-.04v-.04h-.04v-.04l-.04-.04-.04-.04h-.04l-.04-.04-.04-.04-.04-.04v-.04l-.04-.04h-.04v-.04h-.04v-.04l-.04-.04-.04-.04-.04-.04-.04-.04v-.04h-.04v-.04l-.04-.08-.04-.04-.04-.08h-.04v-.24l-.04-.08-.04-.08-.04-.08v-.08l-.04-.04v-.04l-.04-.04v-.04l-.04-.04v-.2l-.04-.04-.04-.04v-.08h-.04v-.04l-.04-.04h-.04v-.04l-.04-.04h-.04v-.04h-.08l-.04-.04-.08-.04h-.04l-.08-.04-.12-.04h-.08l-.04-.04h-.04l-.04-.04v-.04h-.04l-.04-.04v-.04l-.04-.04-.04-.04v-.04l-.04-.04v-.08l-.04-.04v-.32h-.04l.04-.08v-.12l.04-.04.04-.12v-.08l.04-.04v-.08l.04-.12v-.04l.04-.04v-.36l-.04-.08v-.04l-.04-.08-.04-.04v-.08l-.04-.04v-.04l-.04-.04v-.04h-.04v-.04l-.04-.08-.08-.08v-.04l-.04-.04v-.04h-.04v-.04l-.04-.04v-.04h-.04l-.04-.08-.04-.04v-.04h-.04v-.04h-.04v-.08h-.04v-.04h-.04v-.04l-.04-.04-.04-.04v-.04h-.04v-.08h-.04v-.08h-.04v-.04l-.04-.08v-.28l-.04-.04.04-.04v-.08l.04-.08.04-.04v-.04l.04-.04.04-.08.04-.04h.04v-.04l.04-.04v-.04l.04-.08.04-.08v-.04l.04-.12v-.53l-.04-.04v-.04h-.04v-.08h-.04v-.04h-.04v-.04h-.04v-.04l-.04-.04h-.04v-.04h-.08l-.08-.04h-.04l-.04-.04h-.28l-.04-.04h-.24l-.04-.04h-.08l-.16-.04h-.04l-.04-.04h-.12l-.16-.04h-.04l-.04-.04h-.04l-.04-.04-.04-.04v-.04h-.08v-.04h-.12v-.04l-.04-.04-.04-.04h-.04v-.04h-.04l-.04-.04-.04-.08-.04-.04h-.04v-.04l-.04-.04-.04-.08-.04-.04h-.04v-.04l-.04-.08v-.04l-.04-.04v-.04h-.04v-.08l-.04-.08-.04-.08v-.49l.04-.04v-.04l.04-.16v-.04l.04-.04.04-.04v-.08l.04-.04v-.04h.04l.04-.04.04-.04.04-.04v-.04l.08-.04.04-.04.04-.04v-.04l.04-.04.04-.04h.04l.04-.04h.04l.04-.04.08-.04.04-.04.04-.04.04-.04.04-.04h.04l.04-.04h.04l.04-.04h.04l.04-.04v-5.88h-1.34v-12.97l-.04-.73v-20.96h-1.38v-34.99h-1.46v-8.8h-17.72v-8.84h-49.5v-71.31h.24l.73.04h142.34l.08-.28v-.08l.12-.2.04-.04.04-.08.08-.04.04-.12.04-.08v-.08l-.04-.12-.04-.2-.57-1.7-.12-.57v-.12l-.08-.45v-.04l.08-.36.04-.2.12-.65v-.04l.12-.49v-.04l.08-.36v-.04l.04-.12.04-.32.12-.85v-.08l.04-.24.04-.16v-.16l.04-.12.08-.53v-.24l-.04-.16v-1.34l-.04-.24-.08-.16-.12-.32-.12-.16-.04-.08-.08-.16-.08-.16-.57-.53-.28-.28-.16-.16-.16-.08-.16-.12-.2-.08-.53-.08-.36-.08-.57-.12-.04-.04-.2-.08-.2-.12-.2-.45-.04-.16-.04-.24.04-.2.08-.24.16-.24.2-.24.16-.16.12-.16.24-.24.24-.28.12-.12.08-.2.04-.28v-.45l-.04-.2-.08-.16-.24-.16h-.04l-.08-.04-.49-.08-.49.08-.12.04-.24.12-.08.12-.16.08-.12.08-.28.12-.16.04h-.16l-.16-.04h-.04l-.2-.04-.12-.08-.12-.08-.04-.12-.08-.16-.04-.04-.08-.24v-.61l-.04-.41v-.16l-.04-.08v-.12l-.04-.12-.04-.28-.04-.16-.04-.2-.04-.2-.08-.12-.12-.16-.12-.28-.12-.12-.04-.12-.08-.08-.08-.12-.08-.16-.12-.24-.08-.24-.08-.28-.08-.2v-.16l-.04-.61v-.12l.04-.28v-.04l.04-.12v-.32l.04-.16v-.61l-.04-.24-.04-.16-.04-.08-.08-.2-.12-.24-.2-.28-.16-.16-.41-.32-.04-.12-.04-.04-.32-.49-.04-.16-.24-.73-.08-.12-.12-.12-.08-.04-.08-.08-.08-.2v-.45l.04-.2v-.2l.04-.12v-.57l.04-.24.08-.16.16-.32.08-.28.08-.2.04-.12.04-.08v-.12l-.04-.12-.08-.08-.08-.08-.12-.04-.08-.12-.08-.08-.04-.12-.04-.12-.04-.08-.08-.16v-.12l-.04-.2-.04-.08-.04-.12-.08-.04-.12-.12-.08-.16-.04-.12v-.2l.04-.08v-.04l-.32-.41-.04-.04v-.32l.04-.08.04-.08.16-.08.12-.04.12-.08.08-.16.04-.12.04-.12.12-.16.04-.04.2-.16.16-.12.04-.04h.04l.08-.08.04-.04.04-.16h.04v-.2l-.04-.16-.04-.12.04-.28v-.08l-.08-.2-.12-.12-.28-.04h-.61l-.12-.04-.12-.12-.04-.12-.04-.12v-.12l.04-.08.04-.08.04-.16.08-.08.08-.08.12-.04.28-.16.16-.04.12-.04h.16l.41.08.2.08.08.04h.08l.16.08.57.2.12.08.16.2.04.28v.12l.04.08.04.04h.16l.04-.08.2-.45.12-.32.12-.24.08-.08.08-.16.04-.08.04-.12.04-.12.04-.2v-.16l.04-.16v-.12l-.04-.16.04-.2.12-.32.08-.2.16-.12.2-.12.12-.08h.28l.12.04.2.08.16.12.12.12.12.16.04.04.08.04.16.04h.36l.04-.08.08-.08.04-.16.04-.24v-.08l-.04-.12-.08-.04-.08-.04-.24.04-.08-.04-.08-.04-.04-.08v-.2l.04-.16.12-.16.12-.16.08-.08.12-.08.12-.04h.41l.24.04.32.04h.36l.24.04.2.04.24.04.08.04.16.08.16.04h.04l.04.04.12.08.12.16.08.16.04.2v.69l.04.08.04.12.08.16.12.24.16.2.2.16.2.08h.77l.16-.04.2-.08.08-.08.16-.16.12-.16.08-.2v-.41l-.04-.16-.04-.12-.08-.04h-.08l-.04.04.04.2v.16l-.04.12-.08.04-.04.04h-.08l-.12-.08-.08-.16-.04-.16v-.12l.04-.12.08-.08.04-.08v-.32l-.08-.12-.04-.08-.08-.04h-.2v-.08l.08-.08.08-.12v-.28l-.04-.16-.08-.2-.08-.08-.08-.16-.12-.08-.12-.08-.08-.04-.08-.08-.04-.08-.04-.12v-.08l-.04-.08.04-.12v-.12l.04-.12.04-.08.04-.12.04-.08.12-.12.12-.12.16-.12.12-.08.12-.04.16-.04.12-.04.12.04.08.04.08.08.04.04v.24l.04.08.12.12.16.08.08.04h.04l.16.12.2.08.12.04.2.08h.28l.12-.04.08-.12v-.04l.12-.2.08-.2.04-.28.04-.12.04-.12.04-.08h.08l.08.04.08.04.08.04h.16l.04-.04.12-.04.28-.16.12-.08.16-.12.28-.16.16-.12.16-.24.16-.16.12-.08.12-.04.08-.04.08.04.04.08-.04.08-.04.08-.12.16-.04.12-.04.16-.04.12v.16l.04.12.04.12h.04l.04.08.12.04.12.08.12.08.04.12.08.16.08.12.12.12.08.08.12.04.08.04h.08l.12-.04.08-.08.12-.08.08-.04.12-.08.08-.08.08-.08.04-.08-.04-.04-.04-.04h-.16l-.12-.04h-.08l-.04-.08-.04-.08.04-.08.04-.04h.04l.08-.08.12-.08.16-.16.12-.12.04-.12.04-.08v-.04l-.04-.04-.04-.04-.08-.04-.04-.08-.04-.2-.04-.16-.04-.12-.04-.2-.04-.2v-.28l-.04-.16.08-.2v-.12l.08-.08.04-.08h.16l.12.04.12.12.12.08.08.04.12.04h.12l.12.04.08-.04.12-.04.2-.04.12-.04.12-.08.08-.08v-.08l-.04-.08-.12-.08-.16-.16-.08-.08-.08-.12-.04-.08v-.08l.04-.12.04-.12.08-.16.08-.12.12-.08.12.04.08.08.12.2.08.12.16.12.2.2.24.16.16.12.08.04h.04l.12.04h.08l.04-.08-.04-.08-.04-.12-.08-.16-.08-.2v-.24l.08-.12.08-.08.08-.16.04-.16.04-.16.04-.2.04-.2.04-.2.04-.2.04-.2.04-.16.04-.12.08-.12.08-.04.12-.04.16.04.16.08.12.08.2.04h.32l.08-.04h.08l.04.04.04.08-.04.12-.08.12-.12.16-.04.08-.04.12-.04.12v.12l.04.08.04.12.08.08.08.04h.2l.12-.04.28-.08.2-.08.24-.12.24-.04.24-.08.28-.08.08-.04.12-.12.08-.08.08-.08.08-.04.12.04h.28l.12.04.2-.04.12-.04.16-.04.04-.08.12-.08v-.85l-.04-.16-.04-.08-.08-.16-.08-.2-.04-.2v-.57l.04-.12.04-.16.04-.12v-.12l-.04-.04-.04-.04-.08-.04h-.04l-.04-.04-.04-.04v-.12l-.04-.16v-.12l.04-.12v-.2l-.04-.2.04-.12.04-.08.04-.12h.04l.04-.04.16-.04.2-.04.12-.04h.36l.2-.04.12-.08h.16l.12-.04h.04l.12.04h.12l.08.04.12-.04.12-.08.08-.04.04-.08.04-.08.08-.12.16-.16.16-.16.08-.08.12-.12.08-.12.08-.16.08-.12.04-.08.04-.16.04-.16-.04-.08-.08-.24-.12-.24-.08-.2-.04-.16v-.2l.04-.08.08-.28-.12.08-.16.08h-.04v.04l-.28.12-.04.08-.08.2v.32l-.08.2v.04h-.04l-.08.16.08.12.04.2-.24-.08h-.28l-.28.04-.2.04h-.04l-.16.08-.24.04-.28.08-.08-.04-.2-.04.04-.2.16-.24.04-.04h-.04l-.08-.12-.28.08-.32.04-.04.04-.04.04-.24.2-.16.24-.2.12-.12.08h-.04l-.12.16-.12.2-.2.12-.2.2-.08.04-.04.04-.08.04h-.28l-.32-.04h-.28l-.2.12-.16-.08.04-.12.04-.08.08-.24.08-.28v-.53l-.08-.2-.12-.16-.2.08h-.04l-.24.04-.16-.08-.04-.08h-.04l-.08-.16-.16-.12-.24-.08-.24-.04-.2-.12-.08-.04-.04-.04-.16-.12-.04-.04-.12-.12.04-.16.2.04.08.04h.2l.16.12.16.08.04-.2v-.12l.24.04.12.2.16.08.24.08.04-.08v-.08l-.12-.24-.16.04-.08-.12.08-.12.2.04.24-.08h.04l.04-.16.04-.08v-.24l.12-.24-.16-.16v-.04l-.04-.08-.04-.08v-.04h-.24l-.24-.12-.08-.24v-.32l.12-.24-.16-.16-.12-.04-.24-.08-.36.04-.16.04-.04.04h-.08l-.24.2-.28-.12h-.53l.12-.32.04-.16-.12-.12-.08-.12-.08-.16-.04-.12.04-.08v-.04l.16-.12.12-.12.04-.12-.04-.12-.08-.04h-.2l-.16.04h-.08v.04l-.08.04-.08.08-.24-.36-.32-.45-.04-.12-.12-.16-.04-.04v-.04l-.16-.28-.2-.32-.12-.12-.08-.12h-.04l-.32-.04-.36.04-.08.04-.16.08h-.04l-.16.24-.12-.04-.12-.12-.16.04h-.08l-.16.08-.45.08-.08-.04-.2-.12v-.28l-.04-.24-.16-.28-.04-.08-.08-.12.2-.2v-.53l-.24.04-.16-.04h-.2l-.24-.2-.08-.32v-.16l.04-.2.04-.36.12-.2.04-.12.2-.2.04-.2.04-.12v-.08l.24-.32.04-.32-.08-.12-.12-.2-.08-.04h-.04l-.24-.12h-.41l-.12.08-.28.16h-.49l-.36-.08-.28-.32-.12-.24-.04-.08v-.36l.04-.08.08-.12v-.12l-.04-.24.28-.2.16-.32.04-.08.24-.2.04-.04.12-.12.24-.28v-.04l.36-.32.2-.28.12-.12v-.04l.12-.16.32-.24h.04v-.04l.28-.12.32.04.12-.04.24-.04h.85l.08-.08v-.08l-.04-.08v-.12l-.04-.12-.24-.36-.12-.16-.24-.28-.12-.12-.04-.2v-.28l-.04-.32-.04-.28-.08-.28.04-.24.04-.04v-.12l.04-.16v-.2l.04-.12v-.28l.04-.16.04-.16v-.08l.04-.08v-.16l.04-.04v-.08l.04-.24.04-.12v-.08l.04-.08v-.04l.04-.04v-.04l.04-.04v-.08l.12-.2v-.04l.04-.08.04-.04v-.16l.04-.04v-.04l.04-.04v-.04l.08-.12.04-.04v-.12l.04-.08v-.04l.04-.08v-.12l.04-.04v-.08l.04-.12.16-.49v-.08l.04-.08.12-.53v-.2l.04-.08v-.04l.08-.45.04-.12.04-.08v-.04l.08-.12.08-.08.04-.04.04-.08.08-.08.04-.08.28-.24.45-.28.53-.2.36-.12.41-.12.32-.12.2-.12.08-.04.16-.2.04-.08.04-.12v-.2l.12-.49.16-.61.04-.08.12-.16.32-.65.08-.28.04-.08v-.28l-.04-.04-.04-.16-.12-.12-.16-.12-.2-.16-.08-.08-.36-.28-.32-.08-.04-.04-.41-.04-.41-.04-.28-.16h-.04l-.2-.32-.12-.2-.16-.12-.36-.16-.16-.04-.16.08-.12.12-.08.08-.04.08-.08.08-.04.08-.08.04-.2.08-.16.04h-.24l-.12-.08-.12-.12-.08-.12v-.08l-.04-.08.04-.24-.04-.08-.04-.08-.04-.04h-.04l-.08-.08-.04-.04-.08-.12-.08-.2-.12-.2-.04-.16h-.04l-.04-.08-.04-.04-.12-.12-.04-.04-.28-.2-.24-.16-.08-.08-.36-.2-.24-.12-.08-.08-.16-.08-.24-.16-.2-.12-.16-.12-.2-.08-.16-.08-.24-.08-.08-.04-.2-.12-.04-.04-.04-.08-.08-.12-.04-.16-.04-.08-.04-.08-.04-.08v-.08l-.08-.16v-.36l-.04-.12v-.08l-.08-.12-.12-.16-.2-.16h-.08l-.12-.04h-.04l-.08-.04h-.12l-.12-.04-.12-.08h-.04l-.12-.04-.28-.2-.28-.12-.36-.2-.41-.28-.08-.08-.12-.08-.53-.45-.16-.41-.16-.45-.04-.08-.24-.45-.04-.12-.28-.41-.16-.24-.08-.16-.08-.16-.04-.08-.04-.32v-.12l.08-.41.08-.45-.04-.08-.04-.36v-.32l-.08-.41v-.49l.04-.45.28-.45.36-.32.2-.36-.04-.24-.04-.08-.12-.12-.04-.16.04-.2.12-.2.04-.24-.16-.28-.24-.16-.04-.08.08-.12.12-.16.16-.16.04-.2-.16-.36-.12-.2-.89-1.38-.32-.45-.2-.57-.12-.61v-.08l.08-.57.32-.53.61-.45.41-.24.2-.24.04-.36-.04-.53-.12-.32-.12-.41-.04-.16-.04-.16v-.16l.08-.08.12-.2.08-.24.16-.32.28-.32.08-.41.32-.61.2-.32.12-.28.12-.2.08-.28.12-.16.32-.28.2-.16.24-.24.04-.32-.16-.32-.04-.16-.24-.2-.12-.12h-.04l-.65-.28-.89-.28-1.05-.36-1.01-.28-.81-.2-.77-.16h-.65l-.77.04-.53-.24-.32-.32-.24-.36-.16-.36.04-.36.12-.24.2-.32.36-.2.36-.08.2-.08.36-.28.28-.36.16-.45-.08-.28-.08-.45.16-.28.28-.16.2-.2.16-.24.24-.24.28.08.28-.08.36.12h.41l.93-.28.89-.28.65-.49.04-.08.04-1.01v-.04l-.04-.73-.04-1.34-.16-.49-.08-.16-.08-.16-.04-.04-.45-.41-.57-.77-.61-.69-.2-.36.08-.16.45-.28.12-.24v-.36l-.2-.81-.2-.41-.36-.81-.2-.36v-.53l.08-.2.08-.2.04-.2-.04-.24-.36-.41-.12-.28.04-.32.04-.24.32-.36.08-.12.12-.28.12-.28v-.28l-.08-.12-.04-.08-.28-.32-.08-.16-.08-.24-.16-.16-.16-.2-.12-.24-.04-.16-.08-.45-.04-.2-.04-.24.08-.57.24-.93.12-.45.2-.53.08-.28v-.32l-.12-.36-.04-.08-.12-.28-.16-.61.08-.85.32-.69.2-.28.24-.2.12-.16.12-.24.12-.16.08-.28v-.28l-.16-.41-.24-.36-.24-.49-.04-.45.08-.41.24-.57.08-.53.04-.57v-.32l-.12-.24-.12-.2-.04-.32.04-.32.08-.12v-.04l.2-.32.24-.41.16-.24.12-.16.2-.24.12-.28.08-.24.12-.28-.08-.28-.04-.28-.04-.24.04-.28.16-.36.45-.32.2-.41.16-.77-.04-.32-.2-.41-.2-.65-.04-.2v-1.14l.04-.2-.04-.49-.2-.49-.08-.12-.12-.2-.2-.24-.32-.28-.45-.12-.49-.32-.12-.08-.12-.12-.2-.08-.24-.12-.28-.2-.04-.04-.08-.32-.12-.49v-.08l-.04-.53-.12-.45-.08-.12-.16-.2-.08-.08-.12-.16-.36-.2-.53-.08h-.49l-.08-.08-.12-.08-.08-.08-.12-.16-.08-.28-.08-.32-.12-.2-.16-.24-.08-.28-.04-.49-.04-.36.08-.41.04-.16.08-.36.12-.24.12-.28.24-.16.41-.28.04-.2.04-.2.04-.16v-.04l-.04-.16-.77-.97-.08-.28-.04-.28-.04-.16.04-.28v-.08l.08-.16.16-.16.16-.12-.04-.2-.08-.16-.2-.24-.08-.16v-.16l.12-.12.08-.2-.04-.36-.16-.69v-.04l-.2-.24-.41-.28-1.42-.77-.32-.28-.16-.28-.32-.45-.08-.2-.12-.2-.08-.32-.04-.16v-.77l.08-.41h-13.5l-.04-.04-.08.04v.08h-.08l-.04-.04-.04-.04h-.2l-.08-.04-.08-.04-.04-.04-.08-.04-.12-.08-.04-.04h-.08l-.04-.08h-.16l-.12-.04h-.24l-.04.04-.04.04-.04.04v.12h-.12l-.04.08-.08.04v.04h-.04v.04h-.04l-.04.04h-.08l-.08.04-.08.04h-.08l-.04.04h-.12v.04l-.04-.04v.04l-.04-.04h-.28l-.04.04h-.04l-.04.04-.04.04v.04h-.04l-.04.04h-.04l-.04.04-.04.04h-.04l-.04.04h-.08l-.04.04h-.08v.04l-.04-.04-.04.04h-.08v.04h-.28l-.04.04h-.12l-.04.04v-.04h-.04l-.04.04h-.08l-.04.04h-.04l-.04.04h-.12v.04l-.04-.04h-.04.04-.08l-.04.04v.08l-.04.04h-.08v-.04h-.04v.04h-.04v.08h.04v.04h-.04l-.04-.04h-.08v.08h-.04v.04h-.08.04-.04l-.04.04h-.08v-.04h-.12v-.04h-.16l-.04.04h-.04v.04l-.04.04h-.04.04-.12v-.12h-.04v-.04l.04-.12v-.04l-.04-.04h-.04v-.04h-.04v-.04h-.12v.04h-.04v.04h-.08v-.04l-.04.04v.12h-.08l-.04-.04-.04-.04-.04-.04h-.04v-.04h-.08l-.04-.04h-.12l-.04.04h-.04l-.04.04h-.08v.04h-.08v-.04h-.08l-.04-.04v-.04l.04-.04v-.04h-.04v-.08h-.04l-.04-.04v-.04l-.04-.04v-.04l-.04-.04h-.04v-.16h-.04v-.04h-.04v-.04l-.04-.04v-.04h.04v-.08h-.04v-.04l-.12-.04-.04-.04h-.04l-.04-.08-.08-.12-.04-.08v-.16l-.04-.04v-.12h.08l.04-.04h.2v-.12l-.04-.08v-.08l-.04-.12-.04-.08v-.41h.12l.04.04h.04l.04-.04v-.08l-.08-.08v-.08h-.04v-.04h-.04v-.04l-.04-.04h-.12l-.04-.04h-.04v-.04l-.04-.04.04-.08v-.04h-.04l-.04.04h-.04v-.08h-.12v-.08l-.04-.04h.08l.04-.04v-.04l.04-.04-.04-.04-.04.04h-.04v-.04l.04-.04v-.08l-.04-.04-.04-.04v-.04h-.04l-.04-.04-.12-.08h-.08v-.08h-.08l-.08.04h-.04v-.08l-.04-.08v-.12l-.04-.04v-.08l.04-.04v-.04l-.04-.04v-.04h-.04l-.08-.04h-.12l-.04.04-.12.04v.04h-.12v-.04h-.04l-.04-.04v-.08l-.04-.04h.04v-.04l-.04-.04v-.08l-.04-.04-.04-.04-.04-.04-.04-.04v-.04l-.04-.04v-.12h-.12l-.04.08h-.08l-.04.04h-.04v-.04l-.04-.04-.04-.04h-.32l-.04-.04h-.04v.04h-.08l-.04-.04-.04.04-.04-.04h-.2l-.04-.04-.12-.12v-.12h-.08l-.08-.04-.04-.04h-.04l-.04-.04h-.04v-.04l-.04-.04h-.08v.04h-.2l-.04.04-.08.08v.08l-.04.04v.04h-.12l-.04.04-.04.04-.04.04h-.04l-.04.04h-.12v.04h-.16l-.04.04h-.08v-.08l-.04-.04v-.08l-.04-.04h-.04l-.04-.04h-.04v-.16l.04-.08v-.04l.04-.04v-.08h.04v-.08l.04-.08v-.04h.04v-.16l-.04-.08v-.12l-.04-.04h-.08l-.08-.04v-.04l-.04-.04-.04-.04v-.04h-.04v-.04h-.04l-.04-.04h-.04l-.04.04h-.04l-.04-.04h-.04l-.04.04h-.04l-.04.04h-.08l-.04.04h-.04l-.04-.04h-.04v-.04h-.04l-.04-.04h-.12v-.04l-.04-.08-.04-.04-.04-.04h-.04l-.04-.04-.04-.04-.04-.04v-.28l-.04-.04h-.04l-.08-.04-.08-.12-.04-.04v-.04l-.04-.04v-.04l-.04-.04v-.04h-.04l-.04-.04v-.04h-.04l-.04-.04h-.08l-.12-.04-.04-.04v-.16l-.04-.04v-.04l-.04-.04v-.08h-.08l-.04-.04-.04-.08h-.04v-.16l.04-.04v-.04l-.04-.04v-.08h-.04v-.04l-.04-.04-.04.04h-.04v-.04h-.04v-.16h-.04l-.04.04-.04.04v.04h.04v.04h.04v.04h-.08v-.04l-.04-.04v-.04l.04-.04v-.08l-.04-.04h-.04l-.04-.04v.08l-.04.04-.04.04h-.04v-.04h-.12v.04h-.08v-.08h-.12l-.04.04h-.08l-.04-.04v-.12h-.08l-.04-.04h-.08v-.12h-.08v.04h-.04l-.04-.04v-.08l-.04-.04v-.04l-.04-.04-.04.04h-.04l-.04.04v-.04l.04-.04v-.04h.04l.04-.04v-.04l-.08-.04-.08-.04-.04-.04v.04h-.04v.04l-.04.04v.08h-.04l-.04-.04v-.04l-.04-.04v-.04l.04-.04v-.04h.04v-.04h-.04l-.04-.04-.04.04-.04.08h-.04l-.04.04h-.08v.08h.04v.04h-.04l-.04-.04-.04-.04-.04-.08h-.04l-.04-.04h-.08l-.04-.04v-.04l-.04-.04v-.04l.04-.08v-.04h-.12l-.04-.04v-.04l-.04-.04h-.04l-.04-.04h-.04l-.04.04-.08.04h-.08v-.04l-.04-.04-.04-.04-.04-.04-.04-.08-.04-.08-.12-.12-.08-.04v-.04l-.08-.08h-.04l-.04-.04-.08-.04-.08-.04-.12-.04-.04-.04h-.04l-.08-.04-.12-.04h-.04l-.12-.04h-.28l-.12.04h-.08l-.08.04h-.16l-.04-.04h-.08l-.04-.04-.04-.04-.12-.12-.04-.08-.08-.08-.08-.12-.04-.04-.08-.12-.08-.08-.08-.08-.12-.08-.08-.12-.04-.04-.12-.12-.08-.12-.08-.08-.08-.08-.08-.08-.04-.08-.16-.08-.16-.16-.08-.12-.16-.12-.08-.12-.04-.08-.08-.04-.08-.04-.12-.12h-.08l-.08-.08-.16-.12-.41-.24-.32-.2-.24-.16-.08-.04-.04-.04-.16-.04-.2-.04-.08.04h-.28l-.08-.04-.04-.04-.08-.08-.12-.16-.08-.04-.04-.04-.12-.04-.16-.08-.08-.04-.04-.08-.04-.12-.08-.2v-.08l-.12-.28-.04-.12-.04-.08h-.04l-.04-.08-.04-.04-.08-.08-.08-.04-.2-.12-.04-.04-.12-.08-.2-.12-.08-.08-.04-.04-.12-.12-.12-.12-.04-.08-.04-.04-.12-.04-.08-.04h-.12l-.08.04v.04l-.12.2-.04.08-.04.04-.04.04h-.08l-.04-.04-.08-.04-.08-.08-.04-.08-.04-.08h-.16v.12l.04.04.04.08.04.04v.12l-.04.04h-.04l-.08.04h-.04l-.08-.08-.08-.08-.04-.08-.08-.08-.12-.08-.04-.04h-.12l-.04.04-.04.04v.04l-.04.08v.08l-.04.08v.04h-.08l-.04.04-.08-.04-.04-.04-.08-.04-.04-.08-.04-.12-.04-.12v-.12l-.04-.12-.04-.08-.04-.04-.08-.08h-.12l-.04.04-.04.04v.04l-.04.04-.04.04v.04l-.04.04h-.08l-.04-.04-.12-.08-.04-.04-.08-.04h-.04v-.16l.04-.08.04-.08.08-.16.04-.12.08-.08.04-.04.08-.08.04-.04.04-.08.04-.04v-.08l-.04-.08-.08-.2v-.12l-.04-.04v-.04l.04-.16v-.2l.04-.12.04-.04v-.04l.04-.04.04-.04.04-.04v-.28h-.04l.04-.04.04-.04.04-.04h.04l.04.04.08.04h.16v-.04h.04l.08-.04h.04l.04-.04h1.66l1.82-.04h10.01l1.42.04h25.42l1.91-.04h48l.69-.04h38.03v356.55h0" vector-effect="none"/>
  <text class="cls-13" transform="translate(19.97 69.79)"><tspan x="0" y="0">Households &apos;spending 30% or more of income on shelter costs&apos; or &apos;not suitable&apos; or &apos;major repairs needed&apos;</tspan></text>
  <text class="cls-13" transform="translate(26.97 568.65)"><tspan x="0" y="0">Population</tspan></text>
  <text class="cls-13" transform="translate(46.98 539.32)"><tspan x="0" y="0">100</tspan></text>
  <text class="cls-13" transform="translate(40.15 504.77)"><tspan x="0" y="0">70000</tspan></text>
  <text class="cls-12" transform="translate(19.78 25.28)"><tspan x="0" y="0">Towns further from Fort McMurray have higher rates of h</tspan><tspan class="cls-16" x="574.24" y="0">o</tspan><tspan x="587.42" y="0">useholds</tspan><tspan x="0" y="24">with housing cost burden or unsuitable housing conditions</tspan></text>
  <g>
    <circle class="cls-5" cx="432.06" cy="550.54" r="8.13"/>
    <circle class="cls-8" cx="440.45" cy="484.42" r="10.05"/>
    <circle class="cls-3" cx="431.89" cy="242.19" r="10.79"/>
    <circle class="cls-8" cx="399.13" cy="404.54" r="10.39"/>
    <circle class="cls-6" cx="451.64" cy="527.21" r="9.5"/>
    <circle class="cls-8" cx="415.73" cy="453.53" r="23.85"/>
    <circle class="cls-1" cx="441.45" cy="461.17" r="10.06"/>
    <circle class="cls-8" cx="421.05" cy="481.15" r="7.95"/>
  </g>
  <line class="cls-2" x1="682.99" y1="321.96" x2="673.73" y2="321.96"/>
  <text class="cls-13" transform="translate(673.73 114.48)"><tspan x="0" y="0">20%</tspan></text>
  <text class="cls-13" transform="translate(673.73 220.78)"><tspan x="0" y="0">30%</tspan></text>
  <text class="cls-13" transform="translate(673.73 326.4)"><tspan x="0" y="0">40%</tspan></text>
  <text class="cls-13" transform="translate(673.73 431.62)"><tspan x="0" y="0">50%</tspan></text>
  <circle class="cls-4" cx="57.22" cy="532.07" r="23.93"/>
  <text class="cls-14" transform="translate(454.4 487.71)"><tspan x="0" y="0">Anzac</tspan></text>
  <text class="cls-14" transform="translate(268.32 485.07)"><tspan x="0" y="0">Gregoire Lake Estates</tspan></text>
  <text class="cls-11" transform="translate(302.62 246.42)"><tspan x="0" y="0">Fort Chipewyan</tspan></text>
  <text class="cls-11" transform="translate(464.16 530.94)"><tspan x="0" y="0">Janvier</tspan></text>
  <text class="cls-14" transform="translate(453.89 464.27)"><tspan x="0" y="0">Saprae Creek</tspan></text>
  <text class="cls-11" transform="translate(443.24 554.46)"><tspan x="0" y="0">Conklin</tspan></text>
  <text class="cls-11" transform="translate(286.78 457.95)"><tspan x="0" y="0">Fort McMurray</tspan></text>
  <text class="cls-14" transform="translate(412.17 408.46)"><tspan x="0" y="0">Fort McKay</tspan></text>
  <circle class="cls-4" cx="57.22" cy="548.87" r="7.13"/>
  <text class="cls-15" transform="translate(20.49 608.61) rotate(-.01)"><tspan x="0" y="0">Sources: Statistics Canada (2021) </tspan></text>
  <line class="cls-7" x1="19.74" y1="596.15" x2="700.59" y2="596"/>
  <rect class="cls-9" x="661.79" y="109.67" width="9.76" height="317.72"/>
  <line class="cls-2" x1="671.3" y1="215.82" x2="662.04" y2="215.82"/>
  <line class="cls-2" x1="671.3" y1="321.96" x2="662.04" y2="321.96"/>
</svg>