<?xml version="1.0" encoding="UTF-8" standalone="no"?>
<svg
   id="Layer_1"
   data-name="Layer 1"
   viewBox="0 0 360 285.61"
   version="1.1"
   sodipodi:docname="woodbuffalo-housingadequacy-360.svg"
   inkscape:version="1.4 (1:1.4+202410161351+e7c3feb100)"
   xmlns:inkscape="http://www.inkscape.org/namespaces/inkscape"
   xmlns:sodipodi="http://sodipodi.sourceforge.net/DTD/sodipodi-0.dtd"
   xmlns="http://www.w3.org/2000/svg"
   xmlns:svg="http://www.w3.org/2000/svg">
  <sodipodi:namedview
     id="namedview20"
     pagecolor="#ffffff"
     bordercolor="#666666"
     borderopacity="1.0"
     inkscape:showpageshadow="2"
     inkscape:pageopacity="0.0"
     inkscape:pagecheckerboard="0"
     inkscape:deskcolor="#d1d1d1"
     showgrid="false"
     inkscape:zoom="1.3935087"
     inkscape:cx="123.78825"
     inkscape:cy="120.55899"
     inkscape:window-width="1920"
     inkscape:window-height="1043"
     inkscape:window-x="0"
     inkscape:window-y="0"
     inkscape:window-maximized="1"
     inkscape:current-layer="Layer_1">
    <inkscape:grid
       id="grid20"
       units="px"
       originx="0"
       originy="0"
       spacingx="1"
       spacingy="1.0000001"
       empcolor="#0099e5"
       empopacity="0.30196078"
       color="#0099e5"
       opacity="0.14902"
       empspacing="5"
       enabled="true"
       visible="false" />
  </sodipodi:namedview>
  <defs
     id="defs1">
    <style
       id="style1">
      .cls-1 {
        fill: #fff;
      }

      .cls-2 {
        fill: #9a9896;
        font-family: OpenSans, 'Open Sans';
        font-size: 12px;
      }

      .cls-3 {
        fill: #00a28a;
      }

      .cls-4 {
        fill: #231f20;
        font-family: OpenSans-Bold, 'Open Sans';
        font-size: 20px;
        font-weight: 700;
      }

      .cls-5 {
        fill: none;
        stroke: #9a9896;
        stroke-miterlimit: 10;
      }

      .cls-6 {
        fill: #1e3864;
      }
    </style>
  </defs>
  <text
     class="cls-4"
     id="text3"
     x="18.83"
     y="29.742098"><tspan
       x="18.83"
       y="29.742098"
       id="tspan1">Over 1 in 5 households live in</tspan><tspan
       x="18.83"
       y="53.742096"
       id="tspan2">inadequate, unsuitable, or</tspan><tspan
       x="18.83"
       y="77.742096"
       id="tspan3">unaffordable housing</tspan></text>
  <g
     id="g4">
    <path
       class="cls-6"
       d="M88.36,165.26c-.48-.12-.91-1.03-.87-1.52l.11-26.51c7.54-8.02,15.59-15.64,23.31-23.52.46-.4,1.02-.4,1.47,0l23.11,23.19c.12.33.15.67.17,1.02.61,8.39-.47,17.49,0,25.95.17.42-.58,1.39-.87,1.39h-14.9l-.2-.2v-20.62c0-.13-.75-.69-.99-.6-4.54.32-9.64-.42-14.11,0-.37.03-1.12.36-1.12.74v20.49l-.2.2h-14.9Z"
       id="path3" />
    <path
       class="cls-6"
       d="M131.89,130.45c-5.69-5.66-11.32-11.4-17.03-17.03-1.07-1.06-2.2-2.1-3.33-3.1l-28.36,28.33c-.66.51-1.33.88-2.2.61-.22-.07-1.62-1.42-1.79-1.66-.61-.86-.32-1.64.27-2.4l30.87-30.87c.68-.68,1.66-.73,2.4-.13l8.44,8.32,12.85.05c.82.02,1.56.39,1.66,1.27.13,1.06.22,2.86-.94,3.32l-.06,8.86,9.26,9.37c.44.66.6,1.45.13,2.13-.14.21-1.5,1.55-1.68,1.65-.95.49-1.8-.06-2.51-.65-2.68-2.22-5.44-5.56-7.96-8.07Z"
       id="path4" />
  </g>
  <g
     id="g6">
    <path
       class="cls-6"
       d="M156.49,165.26c-.48-.12-.91-1.03-.87-1.52l.11-26.51c7.54-8.02,15.59-15.64,23.31-23.52.46-.4,1.02-.4,1.47,0l23.11,23.19c.12.33.15.67.17,1.02.61,8.39-.47,17.49,0,25.95.17.42-.58,1.39-.87,1.39h-14.9l-.2-.2v-20.62c0-.13-.75-.69-.99-.6-4.54.32-9.64-.42-14.11,0-.37.03-1.12.36-1.12.74v20.49l-.2.2h-14.9Z"
       id="path5" />
    <path
       class="cls-6"
       d="M200.02,130.45c-5.69-5.66-11.32-11.4-17.03-17.03-1.07-1.06-2.2-2.1-3.33-3.1l-28.36,28.33c-.66.51-1.33.88-2.2.61-.22-.07-1.62-1.42-1.79-1.66-.61-.86-.32-1.64.27-2.4l30.87-30.87c.68-.68,1.66-.73,2.4-.13l8.44,8.32,12.85.05c.82.02,1.56.39,1.66,1.27.13,1.06.22,2.86-.94,3.32l-.06,8.86,9.26,9.37c.44.66.6,1.45.13,2.13-.14.21-1.5,1.55-1.68,1.65-.95.49-1.8-.06-2.51-.65-2.68-2.22-5.44-5.56-7.96-8.07Z"
       id="path6" />
  </g>
  <g
     id="g8">
    <path
       class="cls-6"
       d="M224.62,165.26c-.48-.12-.91-1.03-.87-1.52l.11-26.51c7.54-8.02,15.59-15.64,23.31-23.52.46-.4,1.02-.4,1.47,0l23.11,23.19c.12.33.15.67.17,1.02.61,8.39-.47,17.49,0,25.95.17.42-.58,1.39-.87,1.39h-14.9l-.2-.2v-20.62c0-.13-.75-.69-.99-.6-4.54.32-9.64-.42-14.11,0-.37.03-1.12.36-1.12.74v20.49l-.2.2h-14.9Z"
       id="path7" />
    <path
       class="cls-6"
       d="M268.15,130.45c-5.69-5.66-11.32-11.4-17.03-17.03-1.07-1.06-2.2-2.1-3.33-3.1l-28.36,28.33c-.66.51-1.33.88-2.2.61-.22-.07-1.62-1.42-1.79-1.66-.61-.86-.32-1.64.27-2.4l30.87-30.87c.68-.68,1.66-.73,2.4-.13l8.44,8.32,12.85.05c.82.02,1.56.39,1.66,1.27.13,1.06.22,2.86-.94,3.32l-.06,8.86,9.26,9.37c.44.66.6,1.45.13,2.13-.14.21-1.5,1.55-1.68,1.65-.95.49-1.8-.06-2.51-.65-2.68-2.22-5.44-5.56-7.96-8.07Z"
       id="path8" />
  </g>
  <g
     id="g10">
    <path
       class="cls-6"
       d="M292.76,165.26c-.48-.12-.91-1.03-.87-1.52l.11-26.51c7.54-8.02,15.59-15.64,23.31-23.52.46-.4,1.02-.4,1.47,0l23.11,23.19c.12.33.15.67.17,1.02.61,8.39-.47,17.49,0,25.95.17.42-.58,1.39-.87,1.39h-14.9l-.2-.2v-20.62c0-.13-.75-.69-.99-.6-4.54.32-9.64-.42-14.11,0-.37.03-1.12.36-1.12.74v20.49l-.2.2h-14.9Z"
       id="path9" />
    <path
       class="cls-6"
       d="M336.28,130.45c-5.69-5.66-11.32-11.4-17.03-17.03-1.07-1.06-2.2-2.1-3.33-3.1l-28.36,28.33c-.66.51-1.33.88-2.2.61-.22-.07-1.62-1.42-1.79-1.66-.61-.86-.32-1.64.27-2.4l30.87-30.87c.68-.68,1.66-.73,2.4-.13l8.44,8.32,12.85.05c.82.02,1.56.39,1.66,1.27.13,1.06.22,2.86-.94,3.32l-.06,8.86,9.26,9.37c.44.66.6,1.45.13,2.13-.14.21-1.5,1.55-1.68,1.65-.95.49-1.8-.06-2.51-.65-2.68-2.22-5.44-5.56-7.96-8.07Z"
       id="path10" />
  </g>
  <g
     id="g16">
    <g
       id="g12"
       style="fill:#ab1368;fill-opacity:1.0">
      <path
         class="cls-3"
         d="M35.93,165.32h-14.9c-.48-.12-.91-1.03-.87-1.52l.11-26.51c7.54-8.02,15.59-15.64,23.31-23.52.46-.4,1.02-.4,1.47,0l23.11,23.19c.12.33.15.67.17,1.02.61,8.39-.47,17.49,0,25.95.17.42-.58,1.39-.87,1.39h-14.9"
         id="path11"
         style="fill:#ab1368;fill-opacity:1.0" />
      <path
         class="cls-3"
         d="M64.53,140.35c-4.56-6.6-9.06-13.27-13.65-19.84-.86-1.23-1.78-2.46-2.71-3.65l-33.04,22.69c-.74.38-1.47.62-2.27.2-.21-.11-1.34-1.69-1.46-1.96-.44-.95-.01-1.67.7-2.31l35.97-24.73c.79-.54,1.77-.42,2.38.31l6.79,9.72,12.63,2.39c.8.16,1.46.67,1.4,1.55-.07,1.07-.3,2.85-1.53,3.09l-1.68,8.7,7.39,10.9c.31.73.33,1.53-.26,2.12-.18.18-1.76,1.25-1.95,1.31-1.02.31-1.76-.38-2.35-1.09-2.23-2.67-4.34-6.46-6.36-9.39Z"
         id="path12"
         style="fill:#ab1368;fill-opacity:1.0" />
    </g>
    <rect
       class="cls-1"
       x="23.01"
       y="149.66"
       width="30.58"
       height="2.48"
       rx=".46"
       ry=".46"
       transform="translate(50.65 -4.29) rotate(18.79)"
       id="rect12" />
    <rect
       class="cls-1"
       x="22.17"
       y="149.66"
       width="30.58"
       height="2.48"
       rx=".46"
       ry=".46"
       transform="translate(-34.26 12.95) rotate(-13.53)"
       id="rect13" />
    <circle
       cx="51.16"
       cy="147.66"
       r=".3"
       id="circle13" />
    <circle
       cx="51.93"
       cy="155.55"
       r=".3"
       id="circle14" />
    <circle
       cx="24.71"
       cy="146.38"
       r=".3"
       id="circle15" />
    <circle
       cx="23.55"
       cy="154.24"
       r=".3"
       id="circle16" />
  </g>
  <text
     class="cls-2"
     transform="translate(20.07 216.97)"
     id="text16"><tspan
       x="0"
       y="0"
       id="tspan16">Sources: Statistics Canada (2021) </tspan></text>
  <line
     class="cls-5"
     x1="20.48"
     y1="200.65283"
     x2="340"
     y2="200.65283"
     id="line16" />
  <text
     class="cls-2"
     transform="translate(23.25 232.06)"
     id="text20"><tspan
       x="0"
       y="0"
       id="tspan17">*”inadequate” refers to housing in need of major repairs; </tspan><tspan
       x="0"
       y="14.4"
       id="tspan18">“unsuitable” refers to not enough bedrooms for </tspan><tspan
       x="0"
       y="28.8"
       id="tspan19">household members; “unaffordable” is defined as housing </tspan><tspan
       x="0"
       y="43.2"
       id="tspan20">that costs more than 30% of a household’s income</tspan></text>
</svg>
