<?xml version="1.0" encoding="UTF-8" standalone="no"?>
<svg
   id="Layer_1"
   data-name="Layer 1"
   viewBox="0 0 720 618.23"
   version="1.1"
   sodipodi:docname="woodbuffalo-housingburden-map-720.svg"
   inkscape:version="1.4 (1:1.4+202410161351+e7c3feb100)"
   xmlns:inkscape="http://www.inkscape.org/namespaces/inkscape"
   xmlns:sodipodi="http://sodipodi.sourceforge.net/DTD/sodipodi-0.dtd"
   xmlns="http://www.w3.org/2000/svg"
   xmlns:svg="http://www.w3.org/2000/svg">
  <sodipodi:namedview
     id="namedview33"
     pagecolor="#ffffff"
     bordercolor="#666666"
     borderopacity="1.0"
     inkscape:showpageshadow="2"
     inkscape:pageopacity="0.0"
     inkscape:pagecheckerboard="0"
     inkscape:deskcolor="#d1d1d1"
     inkscape:zoom="1.2875467"
     inkscape:cx="303.28996"
     inkscape:cy="407.75219"
     inkscape:window-width="1920"
     inkscape:window-height="1043"
     inkscape:window-x="0"
     inkscape:window-y="0"
     inkscape:window-maximized="1"
     inkscape:current-layer="Layer_1"
     showgrid="false">
    <inkscape:grid
       id="grid33"
       units="px"
       originx="0"
       originy="0"
       spacingx="1"
       spacingy="1"
       empcolor="#0099e5"
       empopacity="0.30196078"
       color="#0099e5"
       opacity="0.14902"
       empspacing="5"
       enabled="true"
       visible="false" />
  </sodipodi:namedview>
  <defs
     id="defs3">
    <style
       id="style1">
      .cls-1 {
        fill: #f0c036;
      }

      .cls-1, .cls-2, .cls-3, .cls-4, .cls-5, .cls-6, .cls-7, .cls-8 {
        stroke-miterlimit: 10;
      }

      .cls-1, .cls-3, .cls-5, .cls-6, .cls-8 {
        stroke: #231f20;
        stroke-width: .5px;
      }

      .cls-2 {
        stroke: #fff;
      }

      .cls-2, .cls-4, .cls-7 {
        fill: none;
      }

      .cls-9 {
        fill: url(#linear-gradient);
      }

      .cls-3 {
        fill: #e57059;
      }

      .cls-10 {
        fill: #4ebdac;
      }

      .cls-4 {
        stroke: #4ebdac;
      }

      .cls-5 {
        fill: #e89645;
      }

      .cls-11, .cls-12 {
        font-family: OpenSans-Bold, 'Open Sans';
        font-weight: 700;
      }

      .cls-11, .cls-12, .cls-13, .cls-14 {
        fill: #231f20;
      }

      .cls-11, .cls-14 {
        font-size: 14px;
      }

      .cls-15 {
        fill: #9a9896;
      }

      .cls-15, .cls-13 {
        font-size: 12px;
      }

      .cls-15, .cls-13, .cls-14 {
        font-family: OpenSans, 'Open Sans';
      }

      .cls-6 {
        fill: #e57459;
      }

      .cls-12 {
        font-size: 20px;
      }

      .cls-7 {
        stroke: #9a9896;
      }

      .cls-8 {
        fill: #f3d033;
      }
    </style>
    <linearGradient
       id="linear-gradient"
       x1="52.53"
       y1="564.94"
       x2="52.53"
       y2="372.41"
       gradientUnits="userSpaceOnUse"
       gradientTransform="translate(448.48167,-1.1388525)">
      <stop
         offset=".04"
         stop-color="#e36a5b"
         id="stop1" />
      <stop
         offset=".52"
         stop-color="#e69941"
         id="stop2" />
      <stop
         offset=".96"
         stop-color="#f3d033"
         id="stop3" />
    </linearGradient>
  </defs>
  <path
     class="cls-10"
     d="m 375.1719,466.23 v 80.47 l 0.04,0.69 v 2.11 l -0.04,0.73 v 15.45 l -0.69,-0.04 h -61.38 l -0.69,-0.04 h -1.42 l -0.65,0.04 h -11.39 v -0.04 l 0.04,-0.69 V 540.3 h -0.65 v -16.99 h -25.62 v 4.26 h -8.55 v -4.26 h -7.82 l -0.69,0.04 h -0.65 l -0.08,-0.04 h -7.38 l -0.45,0.04 -0.73,-0.04 h -6.41 l -0.69,0.04 h -2.19 l -0.69,-0.04 h -3.57 l -0.69,0.04 h -0.12 v -0.04 l -0.04,-0.04 h -0.04 v -0.04 l -0.08,-0.04 -0.12,-0.08 h -0.08 l -0.04,-0.04 h -0.04 l -0.08,-0.04 -0.04,-0.04 h -0.04 l -0.04,-0.08 -0.04,-0.04 -0.04,-0.08 h -0.04 v -0.24 l -0.04,-0.04 v -0.08 l -0.04,-0.04 v -0.32 l 0.04,-0.16 v -0.04 l 0.04,-0.04 v -0.12 l 0.04,-0.04 0.04,-0.04 v -0.04 l 0.04,-0.04 0.04,-0.04 v -0.04 l 0.04,-0.04 0.04,-0.04 0.04,-0.08 h 0.04 l 0.04,-0.04 0.04,-0.04 h 0.04 l 0.04,-0.04 0.08,-0.08 h 0.04 l 0.08,-0.04 0.04,-0.04 h 0.04 v -0.04 h 0.04 l 0.04,-0.04 h 0.04 l 0.04,-0.04 0.04,-0.04 0.08,-0.08 0.08,-0.04 0.04,-0.04 h 0.04 l 0.04,-0.04 0.16,-0.04 h 0.04 l 0.08,-0.04 h 0.08 l 0.04,-0.04 h 0.08 l 0.04,-0.04 h 0.08 l 0.04,-0.04 0.04,-0.04 0.04,-0.04 h 0.08 l 0.12,-0.08 0.08,-0.04 0.04,-0.04 h 0.08 l 0.04,-0.04 0.04,-0.04 0.04,-0.04 0.04,-0.04 0.04,-0.08 v -0.2 l -0.04,-0.04 v -0.04 l -0.04,-0.04 -0.04,-0.04 -0.04,-0.04 v -0.04 l -0.04,-0.04 h -0.04 l -0.04,-0.04 h -0.2 v 0.04 l -0.04,-0.04 h -0.36 v -0.04 h -0.04 l -0.04,-0.04 -0.04,-0.04 v -0.04 l -0.08,-0.04 -0.04,-0.08 h -0.04 l -0.04,-0.08 -0.04,-0.04 v -0.04 l -0.04,-0.08 -0.04,-0.04 v -0.08 l -0.04,-0.12 -0.04,-0.16 v -0.32 l 0.04,-0.04 v -0.28 l 0.04,-0.04 v -0.2 l 0.04,-0.04 v -0.12 l 0.04,-0.12 0.12,-0.2 v -0.04 l 0.04,-0.04 0.04,-0.08 0.04,-0.04 v -0.08 l 0.04,-0.08 v -0.04 l 0.04,-0.04 v -0.08 l 0.08,-0.24 v -0.2 l 0.04,-0.12 v -0.08 l -0.04,-0.12 v -0.08 l -0.04,-0.04 v -0.12 l -0.04,-0.04 v -0.16 l -0.04,-0.04 v -0.04 l -0.04,-0.04 -0.04,-0.04 -0.04,-0.04 v -0.04 l -0.04,-0.04 v -0.04 l -0.04,-0.04 v -0.04 h -0.04 l -0.04,-0.04 h -0.04 v -0.04 h -0.08 v -0.08 h -0.04 v -0.04 h -0.04 v -0.04 l -0.04,-0.04 -0.04,-0.04 h -0.04 v -0.04 h -0.04 l -0.04,-0.04 h -0.04 v -0.04 l -0.04,-0.04 -0.04,-0.04 -0.04,-0.04 v -0.2 l 0.04,-0.08 v -0.16 l 0.04,-0.04 0.04,-0.04 v -0.04 h 0.08 v -0.04 h 0.04 l 0.04,-0.04 h 0.24 l 0.04,-0.04 h 0.41 l 0.2,0.04 h 0.49 l 0.12,-0.04 0.08,-0.04 h 0.08 l 0.04,-0.04 h 0.04 l 0.04,-0.04 0.04,-0.04 h 0.04 l 0.04,-0.04 0.04,-0.04 0.04,-0.04 0.04,-0.04 h 0.04 l 0.08,-0.12 0.08,-0.16 v -0.04 h 0.04 v -0.04 l 0.04,-0.08 0.04,-0.04 v -0.12 h 0.04 v -0.04 l 0.04,-0.04 0.04,-0.12 v -0.08 h 0.04 v -0.12 h 0.04 l 0.04,-0.12 v -0.04 l 0.04,-0.04 v -0.12 l 0.04,-0.04 v -0.08 l 0.04,-0.04 0.04,-0.12 0.04,-0.04 0.04,-0.12 v -0.2 h 0.04 v -0.16 l 0.04,-0.08 v -0.08 l 0.04,-0.04 v -0.08 h -0.04 v -0.04 l -0.04,-0.04 v -0.36 l -0.04,-0.04 v -0.16 l -0.04,-0.04 v -0.12 l -0.04,-0.04 v -0.08 l -0.04,-0.04 -0.04,-0.08 v -0.04 l -0.04,-0.08 v -0.41 l 0.04,-0.16 v -0.12 l 0.08,-0.24 v -0.04 l 0.04,-0.08 0.04,-0.08 v -0.08 l 0.04,-0.04 0.04,-0.08 0.04,-0.04 0.08,-0.08 0.04,-0.04 0.04,-0.04 0.08,-0.04 0.04,-0.04 0.04,-0.04 h 0.04 l 0.04,-0.04 h 0.04 v -0.04 h 0.04 l 0.04,-0.04 h 0.04 v -0.04 l 0.04,-0.04 0.04,-0.04 0.04,-0.04 0.04,-0.08 v -0.04 h 0.04 v -0.12 0.04 h 0.04 l -0.04,-0.04 v -0.2 h 0.04 v -0.16 l -0.04,-0.04 v -0.41 l 0.04,-0.12 v -0.2 l 0.04,-0.08 0.04,-0.08 v -0.04 l 0.04,-0.04 h 0.04 l 0.08,-0.04 0.04,-0.04 h 0.24 v -0.04 h 0.24 l 0.04,-0.04 0.04,-0.04 h 0.04 l 0.04,-0.04 0.04,-0.04 v -0.04 l 0.04,-0.04 h 0.04 v -0.04 l 0.04,-0.04 v -0.04 l 0.04,-0.08 0.04,-0.04 0.04,-0.04 v -0.08 l 0.04,-0.04 v -0.12 l 0.04,-0.04 v -0.08 h 0.04 v -0.16 l 0.04,-0.04 v -0.12 h 0.04 v -0.04 l 0.04,-0.04 v -0.08 l 0.04,-0.08 0.04,-0.04 0.04,-0.08 h 0.04 v -0.04 l 0.04,-0.04 0.08,-0.08 0.04,-0.04 v -0.04 h 0.04 l 0.04,-0.04 0.04,-0.04 0.04,-0.04 v -0.04 h 0.04 l 0.04,-0.04 v -0.04 l 0.04,-0.04 0.08,-0.08 0.04,-0.04 0.04,-0.08 0.04,-0.04 h 0.04 l 0.04,-0.04 v -0.04 l 0.08,-0.08 v -0.08 h 0.04 v -0.08 l 0.04,-0.08 0.04,-0.04 v -0.16 l 0.04,-0.04 v -0.16 h 0.04 v -0.57 h 0.04 l -0.04,-0.04 -0.04,-0.08 -0.04,-0.08 -0.04,-0.08 -0.08,-0.08 -0.08,-0.12 -0.04,-0.04 -0.04,-0.04 h -0.04 l -0.04,-0.12 -0.08,-0.04 -0.04,-0.04 -0.04,-0.04 -0.04,-0.04 h -0.04 l -0.04,-0.04 v -0.04 h -0.04 l -0.04,-0.04 h -0.04 l -0.04,-0.08 h -0.04 v -0.08 l -0.04,-0.04 -0.04,-0.08 -0.04,-0.08 -0.04,-0.12 -0.04,-0.08 V 501 l -0.04,-0.08 v -0.28 l -0.04,-0.04 v -0.24 h -0.04 v -0.28 l -0.04,-0.08 0.04,-0.04 v -0.28 l 0.04,-0.16 v -0.16 h -0.04 v -0.04 l 0.04,-0.08 v -0.08 h -0.04 v -0.2 l -0.04,-0.08 v -0.04 l -0.04,-0.04 v -0.04 l -0.04,-0.04 v -0.04 l -0.04,-0.04 v -0.08 l -0.04,-0.04 v -0.08 l -0.04,-0.04 v -0.08 l -0.04,-0.04 v -0.04 l -0.04,-0.08 v -0.04 l -0.04,-0.04 v -0.04 l -0.04,-0.04 v -0.04 l -0.04,-0.04 v -0.04 l -0.04,-0.04 -0.04,-0.12 v -0.12 l -0.04,-0.04 -0.04,-0.08 -0.04,-0.12 -0.04,-0.04 v -0.04 l -0.04,-0.04 v -0.04 l -0.04,-0.04 -0.04,-0.04 v -0.04 l -0.04,-0.04 -0.08,-0.04 -0.04,-0.12 -0.12,-0.16 -0.04,-0.04 v -0.04 l -0.04,-0.04 -0.04,-0.04 v -0.04 l -0.04,-0.08 -0.04,-0.08 v -0.04 l -0.04,-0.04 -0.04,-0.04 -0.04,-0.08 -0.04,-0.04 v -0.04 l -0.04,-0.04 -0.08,-0.12 v -0.08 l -0.04,-0.08 v -0.04 l -0.04,-0.04 v -0.2 l -0.04,-0.16 -0.04,-0.04 v -0.08 h -0.04 v -0.08 l -0.04,-0.12 v -0.24 l -0.04,-0.08 v -0.16 l -0.04,-0.04 -0.04,-0.12 v -0.08 l -0.04,-0.08 v -0.04 l -0.04,-0.08 v -0.04 l -0.04,-0.08 -0.04,-0.08 v -0.04 l -0.04,-0.04 v -0.04 l -0.04,-0.08 -0.04,-0.04 v -0.04 l -0.04,-0.04 v -0.04 l -0.04,-0.04 v -0.04 l -0.04,-0.04 -0.04,-0.08 v -0.04 h -0.04 l -0.04,-0.12 -0.04,-0.04 v -0.04 l -0.04,-0.04 V 493 l -0.04,-0.04 v -0.04 l -0.04,-0.04 v -0.08 l -0.04,-0.08 v -0.04 l -0.04,-0.08 v -0.08 l -0.04,-0.04 v -0.04 h -0.04 v -0.08 l -0.04,-0.04 -0.04,-0.08 v -0.08 l -0.04,-0.08 v -0.04 l -0.04,-0.08 v -0.12 l -0.04,-0.04 v -0.04 l -0.04,-0.04 v -0.08 l -0.04,-0.04 -0.04,-0.16 v -0.08 l -0.04,-0.04 v -0.08 h -0.04 v -0.04 l -0.04,-0.04 -0.04,-0.04 -0.04,-0.08 -0.04,-0.08 -0.04,-0.04 -0.04,-0.04 -0.04,-0.08 v -0.08 l -0.04,-0.04 v -0.04 h -0.04 l -0.04,-0.04 v -0.04 h -0.04 v -0.04 l -0.04,-0.04 v -0.04 l -0.04,-0.04 v -0.04 l -0.04,-0.04 v -0.04 l -0.04,-0.04 -0.04,-0.04 v -0.04 l -0.04,-0.04 -0.04,-0.04 -0.04,-0.04 -0.04,-0.04 -0.04,-0.04 v -0.04 l -0.04,-0.04 -0.04,-0.04 -0.04,-0.04 h -0.04 l -0.04,-0.04 h -0.28 l -0.04,-0.04 v -0.04 h -0.04 v -0.04 l -0.04,-0.04 -0.04,-0.04 h -0.04 l -0.04,-0.04 -0.04,-0.04 -0.04,-0.04 v -0.04 l -0.04,-0.04 h -0.04 v -0.04 h -0.04 v -0.04 l -0.04,-0.04 -0.04,-0.04 -0.04,-0.04 -0.04,-0.04 v -0.04 h -0.04 v -0.04 l -0.04,-0.08 -0.04,-0.04 -0.04,-0.08 h -0.04 v -0.24 l -0.04,-0.08 -0.04,-0.08 -0.04,-0.08 v -0.08 l -0.04,-0.04 v -0.04 l -0.04,-0.04 v -0.04 l -0.04,-0.04 v -0.2 l -0.04,-0.04 -0.04,-0.04 v -0.08 h -0.04 v -0.04 l -0.04,-0.04 h -0.04 v -0.04 l -0.04,-0.04 h -0.04 v -0.04 h -0.08 l -0.04,-0.04 -0.08,-0.04 h -0.04 l -0.08,-0.04 -0.12,-0.04 h -0.08 l -0.04,-0.04 h -0.04 l -0.04,-0.04 v -0.04 h -0.04 l -0.04,-0.04 v -0.04 l -0.04,-0.04 -0.04,-0.04 v -0.04 l -0.04,-0.04 v -0.08 l -0.04,-0.04 v -0.32 h -0.04 l 0.04,-0.08 v -0.12 l 0.04,-0.04 0.04,-0.12 v -0.08 l 0.04,-0.04 V 486 l 0.04,-0.12 v -0.04 l 0.04,-0.04 v -0.36 l -0.04,-0.08 v -0.04 l -0.04,-0.08 -0.04,-0.04 v -0.08 l -0.04,-0.04 v -0.04 l -0.04,-0.04 v -0.04 h -0.04 v -0.04 l -0.04,-0.08 -0.08,-0.08 v -0.04 l -0.04,-0.04 v -0.04 h -0.04 v -0.04 l -0.04,-0.04 v -0.04 h -0.04 l -0.04,-0.08 -0.04,-0.04 v -0.04 h -0.04 v -0.04 h -0.04 v -0.08 h -0.04 v -0.04 h -0.04 v -0.04 l -0.04,-0.04 -0.04,-0.04 v -0.04 h -0.04 v -0.08 h -0.04 v -0.08 h -0.04 v -0.04 l -0.04,-0.08 v -0.28 l -0.04,-0.04 0.04,-0.04 v -0.08 l 0.04,-0.08 0.04,-0.04 v -0.04 l 0.04,-0.04 0.04,-0.08 0.04,-0.04 h 0.04 v -0.04 l 0.04,-0.04 v -0.04 l 0.04,-0.08 0.04,-0.08 v -0.04 l 0.04,-0.12 v -0.53 l -0.04,-0.04 v -0.04 h -0.04 v -0.08 h -0.04 v -0.04 h -0.04 v -0.04 h -0.04 v -0.04 l -0.04,-0.04 h -0.04 v -0.04 h -0.08 l -0.08,-0.04 h -0.04 l -0.04,-0.04 h -0.28 l -0.04,-0.04 h -0.24 l -0.04,-0.04 h -0.08 l -0.16,-0.04 h -0.04 l -0.04,-0.04 h -0.12 l -0.16,-0.04 h -0.04 l -0.04,-0.04 h -0.04 l -0.04,-0.04 -0.04,-0.04 v -0.04 h -0.08 v -0.04 h -0.12 v -0.04 l -0.04,-0.04 -0.04,-0.04 h -0.04 v -0.04 h -0.04 l -0.04,-0.04 -0.04,-0.08 -0.04,-0.04 h -0.04 v -0.04 l -0.04,-0.04 -0.04,-0.08 -0.04,-0.04 h -0.04 v -0.04 l -0.04,-0.08 v -0.04 l -0.04,-0.04 v -0.04 h -0.04 v -0.08 l -0.04,-0.08 -0.04,-0.08 v -0.49 l 0.04,-0.04 v -0.04 l 0.04,-0.16 v -0.04 l 0.04,-0.04 0.04,-0.04 v -0.08 l 0.04,-0.04 v -0.04 h 0.04 l 0.04,-0.04 0.04,-0.04 0.04,-0.04 v -0.04 l 0.08,-0.04 0.04,-0.04 0.04,-0.04 v -0.04 l 0.04,-0.04 0.04,-0.04 h 0.04 l 0.04,-0.04 h 0.04 l 0.04,-0.04 0.08,-0.04 0.04,-0.04 0.04,-0.04 0.04,-0.04 0.04,-0.04 h 0.04 l 0.04,-0.04 h 0.04 l 0.04,-0.04 h 0.04 l 0.04,-0.04 v -5.88 h -1.34 v -12.97 l -0.04,-0.73 v -20.96 h -1.38 v -34.99 h -1.46 v -8.8 h -17.72 v -8.84 h -49.5 V 313.9 h 0.24 l 0.73,0.04 h 142.34 l 0.08,-0.28 v -0.08 l 0.12,-0.2 0.04,-0.04 0.04,-0.08 0.08,-0.04 0.04,-0.12 0.04,-0.08 v -0.08 l -0.04,-0.12 -0.04,-0.2 -0.57,-1.7 -0.12,-0.57 v -0.12 l -0.08,-0.45 v -0.04 l 0.08,-0.36 0.04,-0.2 0.12,-0.65 v -0.04 l 0.12,-0.49 v -0.04 l 0.08,-0.36 v -0.04 l 0.04,-0.12 0.04,-0.32 0.12,-0.85 v -0.08 l 0.04,-0.24 0.04,-0.16 v -0.16 l 0.04,-0.12 0.08,-0.53 v -0.24 l -0.04,-0.16 v -1.34 l -0.04,-0.24 -0.08,-0.16 -0.12,-0.32 -0.12,-0.16 -0.04,-0.08 -0.08,-0.16 -0.08,-0.16 -0.57,-0.53 -0.28,-0.28 -0.16,-0.16 -0.16,-0.08 -0.16,-0.12 -0.2,-0.08 -0.53,-0.08 -0.36,-0.08 -0.57,-0.12 -0.04,-0.04 -0.2,-0.08 -0.2,-0.12 -0.2,-0.45 -0.04,-0.16 -0.04,-0.24 0.04,-0.2 0.08,-0.24 0.16,-0.24 0.2,-0.24 0.16,-0.16 0.12,-0.16 0.24,-0.24 0.24,-0.28 0.12,-0.12 0.08,-0.2 0.04,-0.28 v -0.45 l -0.04,-0.2 -0.08,-0.16 -0.24,-0.16 h -0.04 l -0.08,-0.04 -0.49,-0.08 -0.49,0.08 -0.12,0.04 -0.24,0.12 -0.08,0.12 -0.16,0.08 -0.12,0.08 -0.28,0.12 -0.16,0.04 h -0.16 l -0.16,-0.04 h -0.04 l -0.2,-0.04 -0.12,-0.08 -0.12,-0.08 -0.04,-0.12 -0.08,-0.16 -0.04,-0.04 -0.08,-0.24 v -0.61 l -0.04,-0.41 v -0.16 l -0.04,-0.08 v -0.12 l -0.04,-0.12 -0.04,-0.28 -0.04,-0.16 -0.04,-0.2 -0.04,-0.2 -0.08,-0.12 -0.12,-0.16 -0.12,-0.28 -0.12,-0.12 -0.04,-0.12 -0.08,-0.08 -0.08,-0.12 -0.08,-0.16 -0.12,-0.24 -0.08,-0.24 -0.08,-0.28 -0.08,-0.2 v -0.16 l -0.04,-0.61 v -0.12 l 0.04,-0.28 v -0.04 l 0.04,-0.12 v -0.32 l 0.04,-0.16 v -0.61 l -0.04,-0.24 -0.04,-0.16 -0.04,-0.08 -0.08,-0.2 -0.12,-0.24 -0.2,-0.28 -0.16,-0.16 -0.41,-0.32 -0.04,-0.12 -0.04,-0.04 -0.32,-0.49 -0.04,-0.16 -0.24,-0.73 -0.08,-0.12 -0.12,-0.12 -0.08,-0.04 -0.08,-0.08 -0.08,-0.2 v -0.45 l 0.04,-0.2 v -0.2 l 0.04,-0.12 v -0.57 l 0.04,-0.24 0.08,-0.16 0.16,-0.32 0.08,-0.28 0.08,-0.2 0.04,-0.12 0.04,-0.08 v -0.12 l -0.04,-0.12 -0.08,-0.08 -0.08,-0.08 -0.12,-0.04 -0.08,-0.12 -0.08,-0.08 -0.04,-0.12 -0.04,-0.12 -0.04,-0.08 -0.08,-0.16 v -0.12 l -0.04,-0.2 -0.04,-0.08 -0.04,-0.12 -0.08,-0.04 -0.12,-0.12 -0.08,-0.16 -0.04,-0.12 v -0.2 l 0.04,-0.08 v -0.04 l -0.32,-0.41 -0.04,-0.04 V 279 l 0.04,-0.08 0.04,-0.08 0.16,-0.08 0.12,-0.04 0.12,-0.08 0.08,-0.16 0.04,-0.12 0.04,-0.12 0.12,-0.16 0.04,-0.04 0.2,-0.16 0.16,-0.12 0.04,-0.04 h 0.04 l 0.08,-0.08 0.04,-0.04 0.04,-0.16 h 0.04 v -0.2 l -0.04,-0.16 -0.04,-0.12 0.04,-0.28 v -0.08 l -0.08,-0.2 -0.12,-0.12 -0.28,-0.04 h -0.61 l -0.12,-0.04 -0.12,-0.12 -0.04,-0.12 -0.04,-0.12 v -0.12 l 0.04,-0.08 0.04,-0.08 0.04,-0.16 0.08,-0.08 0.08,-0.08 0.12,-0.04 0.28,-0.16 0.16,-0.04 0.12,-0.04 h 0.16 l 0.41,0.08 0.2,0.08 0.08,0.04 h 0.08 l 0.16,0.08 0.57,0.2 0.12,0.08 0.16,0.2 0.04,0.28 v 0.12 l 0.04,0.08 0.04,0.04 h 0.16 l 0.04,-0.08 0.2,-0.45 0.12,-0.32 0.12,-0.24 0.08,-0.08 0.08,-0.16 0.04,-0.08 0.04,-0.12 0.04,-0.12 0.04,-0.2 v -0.16 l 0.04,-0.16 v -0.12 l -0.04,-0.16 0.04,-0.2 0.12,-0.32 0.08,-0.2 0.16,-0.12 0.2,-0.12 0.12,-0.08 h 0.28 l 0.12,0.04 0.2,0.08 0.16,0.12 0.12,0.12 0.12,0.16 0.04,0.04 0.08,0.04 0.16,0.04 h 0.36 l 0.04,-0.08 0.08,-0.08 0.04,-0.16 0.04,-0.24 v -0.08 l -0.04,-0.12 -0.08,-0.04 -0.08,-0.04 -0.24,0.04 -0.08,-0.04 -0.08,-0.04 -0.04,-0.08 v -0.2 l 0.04,-0.16 0.12,-0.16 0.12,-0.16 0.08,-0.08 0.12,-0.08 0.12,-0.04 h 0.41 l 0.24,0.04 0.32,0.04 h 0.36 l 0.24,0.04 0.2,0.04 0.24,0.04 0.08,0.04 0.16,0.08 0.16,0.04 h 0.04 l 0.04,0.04 0.12,0.08 0.12,0.16 0.08,0.16 0.04,0.2 v 0.69 l 0.04,0.08 0.04,0.12 0.08,0.16 0.12,0.24 0.16,0.2 0.2,0.16 0.2,0.08 h 0.77 l 0.16,-0.04 0.2,-0.08 0.08,-0.08 0.16,-0.16 0.12,-0.16 0.08,-0.2 v -0.41 l -0.04,-0.16 -0.04,-0.12 -0.08,-0.04 h -0.08 l -0.04,0.04 0.04,0.2 v 0.16 l -0.04,0.12 -0.08,0.04 -0.04,0.04 h -0.08 l -0.12,-0.08 -0.08,-0.16 -0.04,-0.16 v -0.12 l 0.04,-0.12 0.08,-0.08 0.04,-0.08 v -0.32 l -0.08,-0.12 -0.04,-0.08 -0.08,-0.04 h -0.2 v -0.08 l 0.08,-0.08 0.08,-0.12 v -0.28 l -0.04,-0.16 -0.08,-0.2 -0.08,-0.08 -0.08,-0.16 -0.12,-0.08 -0.12,-0.08 -0.08,-0.04 -0.08,-0.08 -0.04,-0.08 -0.04,-0.12 v -0.08 l -0.04,-0.08 0.04,-0.12 v -0.12 l 0.04,-0.12 0.04,-0.08 0.04,-0.12 0.04,-0.08 0.12,-0.12 0.12,-0.12 0.16,-0.12 0.12,-0.08 0.12,-0.04 0.16,-0.04 0.12,-0.04 0.12,0.04 0.08,0.04 0.08,0.08 0.04,0.04 v 0.24 l 0.04,0.08 0.12,0.12 0.16,0.08 0.08,0.04 h 0.04 l 0.16,0.12 0.2,0.08 0.12,0.04 0.2,0.08 h 0.28 l 0.12,-0.04 0.08,-0.12 v -0.04 l 0.12,-0.2 0.08,-0.2 0.04,-0.28 0.04,-0.12 0.04,-0.12 0.04,-0.08 h 0.08 l 0.08,0.04 0.08,0.04 0.08,0.04 h 0.16 l 0.04,-0.04 0.12,-0.04 0.28,-0.16 0.12,-0.08 0.16,-0.12 0.28,-0.16 0.16,-0.12 0.16,-0.24 0.16,-0.16 0.12,-0.08 0.12,-0.04 0.08,-0.04 0.08,0.04 0.04,0.08 -0.04,0.08 -0.04,0.08 -0.12,0.16 -0.04,0.12 -0.04,0.16 -0.04,0.12 v 0.16 l 0.04,0.12 0.04,0.12 h 0.04 l 0.04,0.08 0.12,0.04 0.12,0.08 0.12,0.08 0.04,0.12 0.08,0.16 0.08,0.12 0.12,0.12 0.08,0.08 0.12,0.04 0.08,0.04 h 0.08 l 0.12,-0.04 0.08,-0.08 0.12,-0.08 0.08,-0.04 0.12,-0.08 0.08,-0.08 0.08,-0.08 0.04,-0.08 -0.04,-0.04 -0.04,-0.04 h -0.16 l -0.12,-0.04 h -0.08 l -0.04,-0.08 -0.04,-0.08 0.04,-0.08 0.04,-0.04 h 0.04 l 0.08,-0.08 0.12,-0.08 0.16,-0.16 0.12,-0.12 0.04,-0.12 0.04,-0.08 v -0.04 l -0.04,-0.04 -0.04,-0.04 -0.08,-0.04 -0.04,-0.08 -0.04,-0.2 -0.04,-0.16 -0.04,-0.12 -0.04,-0.2 -0.04,-0.2 v -0.28 l -0.04,-0.16 0.08,-0.2 v -0.12 l 0.08,-0.08 0.04,-0.08 h 0.16 l 0.12,0.04 0.12,0.12 0.12,0.08 0.08,0.04 0.12,0.04 h 0.12 l 0.12,0.04 0.08,-0.04 0.12,-0.04 0.2,-0.04 0.12,-0.04 0.12,-0.08 0.08,-0.08 v -0.08 l -0.04,-0.08 -0.12,-0.08 -0.16,-0.16 -0.08,-0.08 -0.08,-0.12 -0.04,-0.08 v -0.08 l 0.04,-0.12 0.04,-0.12 0.08,-0.16 0.08,-0.12 0.12,-0.08 0.12,0.04 0.08,0.08 0.12,0.2 0.08,0.12 0.16,0.12 0.2,0.2 0.24,0.16 0.16,0.12 0.08,0.04 h 0.04 l 0.12,0.04 h 0.08 l 0.04,-0.08 -0.04,-0.08 -0.04,-0.12 -0.08,-0.16 -0.08,-0.2 v -0.24 l 0.08,-0.12 0.08,-0.08 0.08,-0.16 0.04,-0.16 0.04,-0.16 0.04,-0.2 0.04,-0.2 0.04,-0.2 0.04,-0.2 0.04,-0.2 0.04,-0.16 0.04,-0.12 0.08,-0.12 0.08,-0.04 0.12,-0.04 0.16,0.04 0.16,0.08 0.12,0.08 0.2,0.04 h 0.32 l 0.08,-0.04 h 0.08 l 0.04,0.04 0.04,0.08 -0.04,0.12 -0.08,0.12 -0.12,0.16 -0.04,0.08 -0.04,0.12 -0.04,0.12 v 0.12 l 0.04,0.08 0.04,0.12 0.08,0.08 0.08,0.04 h 0.2 l 0.12,-0.04 0.28,-0.08 0.2,-0.08 0.24,-0.12 0.24,-0.04 0.24,-0.08 0.28,-0.08 0.08,-0.04 0.12,-0.12 0.08,-0.08 0.08,-0.08 0.08,-0.04 0.12,0.04 h 0.28 l 0.12,0.04 0.2,-0.04 0.12,-0.04 0.16,-0.04 0.04,-0.08 0.12,-0.08 v -0.85 l -0.04,-0.16 -0.04,-0.08 -0.08,-0.16 -0.08,-0.2 -0.04,-0.2 v -0.57 l 0.04,-0.12 0.04,-0.16 0.04,-0.12 v -0.12 l -0.04,-0.04 -0.04,-0.04 -0.08,-0.04 h -0.04 l -0.04,-0.04 -0.04,-0.04 v -0.12 l -0.04,-0.16 v -0.12 l 0.04,-0.12 v -0.2 l -0.04,-0.2 0.04,-0.12 0.04,-0.08 0.04,-0.12 h 0.04 l 0.04,-0.04 0.16,-0.04 0.2,-0.04 0.12,-0.04 h 0.36 l 0.2,-0.04 0.12,-0.08 h 0.16 l 0.12,-0.04 h 0.04 l 0.12,0.04 h 0.12 l 0.08,0.04 0.12,-0.04 0.12,-0.08 0.08,-0.04 0.04,-0.08 0.04,-0.08 0.08,-0.12 0.16,-0.16 0.16,-0.16 0.08,-0.08 0.12,-0.12 0.08,-0.12 0.08,-0.16 0.08,-0.12 0.04,-0.08 0.04,-0.16 0.04,-0.16 -0.04,-0.08 -0.08,-0.24 -0.12,-0.24 -0.08,-0.2 -0.04,-0.16 v -0.2 l 0.04,-0.08 0.08,-0.28 -0.12,0.08 -0.16,0.08 h -0.04 v 0.04 l -0.28,0.12 -0.04,0.08 -0.08,0.2 v 0.32 l -0.08,0.2 v 0.04 h -0.04 l -0.08,0.16 0.08,0.12 0.04,0.2 -0.24,-0.08 h -0.28 l -0.28,0.04 -0.2,0.04 h -0.04 l -0.16,0.08 -0.24,0.04 -0.28,0.08 -0.08,-0.04 -0.2,-0.04 0.04,-0.2 0.16,-0.24 0.04,-0.04 h -0.04 l -0.08,-0.12 -0.28,0.08 -0.32,0.04 -0.04,0.04 -0.04,0.04 -0.24,0.2 -0.16,0.24 -0.2,0.12 -0.12,0.08 h -0.04 l -0.12,0.16 -0.12,0.2 -0.2,0.12 -0.2,0.2 -0.08,0.04 -0.04,0.04 -0.08,0.04 h -0.28 l -0.32,-0.04 h -0.28 l -0.2,0.12 -0.16,-0.08 0.04,-0.12 0.04,-0.08 0.08,-0.24 0.08,-0.28 v -0.53 l -0.08,-0.2 -0.12,-0.16 -0.2,0.08 h -0.04 l -0.24,0.04 -0.16,-0.08 -0.04,-0.08 h -0.04 l -0.08,-0.16 -0.16,-0.12 -0.24,-0.08 -0.24,-0.04 -0.2,-0.12 -0.08,-0.04 -0.04,-0.04 -0.16,-0.12 -0.04,-0.04 -0.12,-0.12 0.04,-0.16 0.2,0.04 0.08,0.04 h 0.2 l 0.16,0.12 0.16,0.08 0.04,-0.2 v -0.12 l 0.24,0.04 0.12,0.2 0.16,0.08 0.24,0.08 0.04,-0.08 v -0.08 l -0.12,-0.24 -0.16,0.04 -0.08,-0.12 0.08,-0.12 0.2,0.04 0.24,-0.08 h 0.04 l 0.04,-0.16 0.04,-0.08 v -0.24 l 0.12,-0.24 -0.16,-0.16 v -0.04 l -0.04,-0.08 -0.04,-0.08 v -0.04 h -0.24 l -0.24,-0.12 -0.08,-0.24 v -0.32 l 0.12,-0.24 -0.16,-0.16 -0.12,-0.04 -0.24,-0.08 -0.36,0.04 -0.16,0.04 -0.04,0.04 h -0.08 l -0.24,0.2 -0.28,-0.12 h -0.53 l 0.12,-0.32 0.04,-0.16 -0.12,-0.12 -0.08,-0.12 -0.08,-0.16 -0.04,-0.12 0.04,-0.08 v -0.04 l 0.16,-0.12 0.12,-0.12 0.04,-0.12 -0.04,-0.12 -0.08,-0.04 h -0.2 l -0.16,0.04 h -0.08 V 252 l -0.08,0.04 -0.08,0.08 -0.24,-0.36 -0.32,-0.45 -0.04,-0.12 -0.12,-0.16 -0.04,-0.04 v -0.04 l -0.16,-0.28 -0.2,-0.32 -0.12,-0.12 -0.08,-0.12 h -0.04 l -0.32,-0.04 -0.36,0.04 -0.08,0.04 -0.16,0.08 h -0.04 l -0.16,0.24 -0.12,-0.04 -0.12,-0.12 -0.16,0.04 h -0.08 l -0.16,0.08 -0.45,0.08 -0.08,-0.04 -0.2,-0.12 v -0.28 l -0.04,-0.24 -0.16,-0.28 -0.04,-0.08 -0.08,-0.12 0.2,-0.2 v -0.53 l -0.24,0.04 -0.16,-0.04 h -0.2 l -0.24,-0.2 -0.08,-0.32 v -0.16 l 0.04,-0.2 0.04,-0.36 0.12,-0.2 0.04,-0.12 0.2,-0.2 0.04,-0.2 0.04,-0.12 v -0.08 l 0.24,-0.32 0.04,-0.32 -0.08,-0.12 -0.12,-0.2 -0.08,-0.04 h -0.04 l -0.24,-0.12 h -0.41 l -0.12,0.08 -0.28,0.16 h -0.49 l -0.36,-0.08 -0.28,-0.32 -0.12,-0.24 -0.04,-0.08 v -0.36 l 0.04,-0.08 0.08,-0.12 v -0.12 l -0.04,-0.24 0.28,-0.2 0.16,-0.32 0.04,-0.08 0.24,-0.2 0.04,-0.04 0.12,-0.12 0.24,-0.28 v -0.04 l 0.36,-0.32 0.2,-0.28 0.12,-0.12 v -0.04 l 0.12,-0.16 0.32,-0.24 h 0.04 v -0.04 l 0.28,-0.12 0.32,0.04 0.12,-0.04 0.24,-0.04 h 0.85 l 0.08,-0.08 v -0.08 l -0.04,-0.08 v -0.12 l -0.04,-0.12 -0.24,-0.36 -0.12,-0.16 -0.24,-0.28 -0.12,-0.12 -0.04,-0.2 v -0.28 l -0.04,-0.32 -0.04,-0.28 -0.08,-0.28 0.04,-0.24 0.04,-0.04 v -0.12 l 0.04,-0.16 v -0.2 l 0.04,-0.12 v -0.28 l 0.04,-0.16 0.04,-0.16 v -0.08 l 0.04,-0.08 v -0.16 l 0.04,-0.04 v -0.08 l 0.04,-0.24 0.04,-0.12 v -0.08 l 0.04,-0.08 v -0.04 l 0.04,-0.04 v -0.04 l 0.04,-0.04 v -0.08 l 0.12,-0.2 v -0.04 l 0.04,-0.08 0.04,-0.04 v -0.16 l 0.04,-0.04 v -0.04 l 0.04,-0.04 v -0.04 l 0.08,-0.12 0.04,-0.04 v -0.12 l 0.04,-0.08 v -0.04 l 0.04,-0.08 v -0.12 l 0.04,-0.04 v -0.08 l 0.04,-0.12 0.16,-0.49 v -0.08 l 0.04,-0.08 0.12,-0.53 v -0.2 l 0.04,-0.08 v -0.04 l 0.08,-0.45 0.04,-0.12 0.04,-0.08 v -0.04 l 0.08,-0.12 0.08,-0.08 0.04,-0.04 0.04,-0.08 0.08,-0.08 0.04,-0.08 0.28,-0.24 0.45,-0.28 0.53,-0.2 0.36,-0.12 0.41,-0.12 0.32,-0.12 0.2,-0.12 0.08,-0.04 0.16,-0.2 0.04,-0.08 0.04,-0.12 v -0.2 l 0.12,-0.49 0.16,-0.61 0.04,-0.08 0.12,-0.16 0.32,-0.65 0.08,-0.28 0.04,-0.08 v -0.28 l -0.04,-0.04 -0.04,-0.16 -0.12,-0.12 -0.16,-0.12 -0.2,-0.16 -0.08,-0.08 -0.36,-0.28 -0.32,-0.08 -0.04,-0.04 -0.41,-0.04 -0.41,-0.04 -0.28,-0.16 h -0.04 l -0.2,-0.32 -0.12,-0.2 -0.16,-0.12 -0.36,-0.16 -0.16,-0.04 -0.16,0.08 -0.12,0.12 -0.08,0.08 -0.04,0.08 -0.08,0.08 -0.04,0.08 -0.08,0.04 -0.2,0.08 -0.16,0.04 h -0.24 l -0.12,-0.08 -0.12,-0.12 -0.08,-0.12 v -0.08 l -0.04,-0.08 0.04,-0.24 -0.04,-0.08 -0.04,-0.08 -0.04,-0.04 h -0.04 l -0.08,-0.08 -0.04,-0.04 -0.08,-0.12 -0.08,-0.2 -0.12,-0.2 -0.04,-0.16 h -0.04 l -0.04,-0.08 -0.04,-0.04 -0.12,-0.12 -0.04,-0.04 -0.28,-0.2 -0.24,-0.16 -0.08,-0.08 -0.36,-0.2 -0.24,-0.12 -0.08,-0.08 -0.16,-0.08 -0.24,-0.16 -0.2,-0.12 -0.16,-0.12 -0.2,-0.08 -0.16,-0.08 -0.24,-0.08 -0.08,-0.04 -0.2,-0.12 -0.04,-0.04 -0.04,-0.08 -0.08,-0.12 -0.04,-0.16 -0.04,-0.08 -0.04,-0.08 -0.04,-0.08 v -0.08 l -0.08,-0.16 v -0.36 l -0.04,-0.12 v -0.08 l -0.08,-0.12 -0.12,-0.16 -0.2,-0.16 h -0.08 l -0.12,-0.04 h -0.04 l -0.08,-0.04 h -0.12 l -0.12,-0.04 -0.12,-0.08 h -0.04 l -0.12,-0.04 -0.28,-0.2 -0.28,-0.12 -0.36,-0.2 -0.41,-0.28 -0.08,-0.08 -0.12,-0.08 -0.53,-0.45 -0.16,-0.41 -0.16,-0.45 -0.04,-0.08 -0.24,-0.45 -0.04,-0.12 -0.28,-0.41 -0.16,-0.24 -0.08,-0.16 -0.08,-0.16 -0.04,-0.08 -0.04,-0.32 v -0.12 l 0.08,-0.41 0.08,-0.45 -0.04,-0.08 -0.04,-0.36 v -0.32 l -0.08,-0.41 v -0.49 l 0.04,-0.45 0.28,-0.45 0.36,-0.32 0.2,-0.36 -0.04,-0.24 -0.04,-0.08 -0.12,-0.12 -0.04,-0.16 0.04,-0.2 0.12,-0.2 0.04,-0.24 -0.16,-0.28 -0.24,-0.16 -0.04,-0.08 0.08,-0.12 0.12,-0.16 0.16,-0.16 0.04,-0.2 -0.16,-0.36 -0.12,-0.2 -0.89,-1.38 -0.32,-0.45 -0.2,-0.57 -0.12,-0.61 v -0.08 l 0.08,-0.57 0.32,-0.53 0.61,-0.45 0.41,-0.24 0.2,-0.24 0.04,-0.36 -0.04,-0.53 -0.12,-0.32 -0.12,-0.41 -0.04,-0.16 -0.04,-0.16 v -0.16 l 0.08,-0.08 0.12,-0.2 0.08,-0.24 0.16,-0.32 0.28,-0.32 0.08,-0.41 0.32,-0.61 0.2,-0.32 0.12,-0.28 0.12,-0.2 0.08,-0.28 0.12,-0.16 0.32,-0.28 0.2,-0.16 0.24,-0.24 0.04,-0.32 -0.16,-0.32 -0.04,-0.16 -0.24,-0.2 -0.12,-0.12 h -0.04 l -0.65,-0.28 -0.89,-0.28 -1.05,-0.36 -1.01,-0.28 -0.81,-0.2 -0.77,-0.16 h -0.65 l -0.77,0.04 -0.53,-0.24 -0.32,-0.32 -0.24,-0.36 -0.16,-0.36 0.04,-0.36 0.12,-0.24 0.2,-0.32 0.36,-0.2 0.36,-0.08 0.2,-0.08 0.36,-0.28 0.28,-0.36 0.16,-0.45 -0.08,-0.28 -0.08,-0.45 0.16,-0.28 0.28,-0.16 0.2,-0.2 0.16,-0.24 0.24,-0.24 0.28,0.08 0.28,-0.08 0.36,0.12 h 0.41 l 0.93,-0.28 0.89,-0.28 0.65,-0.49 0.04,-0.08 0.04,-1.01 v -0.04 l -0.04,-0.73 -0.04,-1.34 -0.16,-0.49 -0.08,-0.16 -0.08,-0.16 -0.04,-0.04 -0.45,-0.41 -0.57,-0.77 -0.61,-0.69 -0.2,-0.36 0.08,-0.16 0.45,-0.28 0.12,-0.24 v -0.36 l -0.2,-0.81 -0.2,-0.41 -0.36,-0.81 -0.2,-0.36 v -0.53 l 0.08,-0.2 0.08,-0.2 0.04,-0.2 -0.04,-0.24 -0.36,-0.41 -0.12,-0.28 0.04,-0.32 0.04,-0.24 0.32,-0.36 0.08,-0.12 0.12,-0.28 0.12,-0.28 v -0.28 l -0.08,-0.12 -0.04,-0.08 -0.28,-0.32 -0.08,-0.16 -0.08,-0.24 -0.16,-0.16 -0.16,-0.2 -0.12,-0.24 -0.04,-0.16 -0.08,-0.45 -0.04,-0.2 -0.04,-0.24 0.08,-0.57 0.24,-0.93 0.12,-0.45 0.2,-0.53 0.08,-0.28 v -0.32 l -0.12,-0.36 -0.04,-0.08 -0.12,-0.28 -0.16,-0.61 0.08,-0.85 0.32,-0.69 0.2,-0.28 0.24,-0.2 0.12,-0.16 0.12,-0.24 0.12,-0.16 0.08,-0.28 v -0.28 l -0.16,-0.41 -0.24,-0.36 -0.24,-0.49 -0.04,-0.45 0.08,-0.41 0.24,-0.57 0.08,-0.53 0.04,-0.57 v -0.32 l -0.12,-0.24 -0.12,-0.2 -0.04,-0.32 0.04,-0.32 0.08,-0.12 v -0.04 l 0.2,-0.32 0.24,-0.41 0.16,-0.24 0.12,-0.16 0.2,-0.24 0.12,-0.28 0.08,-0.24 0.12,-0.28 -0.08,-0.28 -0.04,-0.28 -0.04,-0.24 0.04,-0.28 0.16,-0.36 0.45,-0.32 0.2,-0.41 0.16,-0.77 -0.04,-0.32 -0.2,-0.41 -0.2,-0.65 -0.04,-0.2 v -1.14 l 0.04,-0.2 -0.04,-0.49 -0.2,-0.49 -0.08,-0.12 -0.12,-0.2 -0.2,-0.24 -0.32,-0.28 -0.45,-0.12 -0.49,-0.32 -0.12,-0.08 -0.12,-0.12 -0.2,-0.08 -0.24,-0.12 -0.28,-0.2 -0.04,-0.04 -0.08,-0.32 -0.12,-0.49 v -0.08 l -0.04,-0.53 -0.12,-0.45 -0.08,-0.12 -0.16,-0.2 -0.08,-0.08 -0.12,-0.16 -0.36,-0.2 -0.53,-0.08 h -0.49 l -0.08,-0.08 -0.12,-0.08 -0.08,-0.08 -0.12,-0.16 -0.08,-0.28 -0.08,-0.32 -0.12,-0.2 -0.16,-0.24 -0.08,-0.28 -0.04,-0.49 -0.04,-0.36 0.08,-0.41 0.04,-0.16 0.08,-0.36 0.12,-0.24 0.12,-0.28 0.24,-0.16 0.41,-0.28 0.04,-0.2 0.04,-0.2 0.04,-0.16 v -0.04 l -0.04,-0.16 -0.77,-0.97 -0.08,-0.28 -0.04,-0.28 -0.04,-0.16 0.04,-0.28 v -0.08 l 0.08,-0.16 0.16,-0.16 0.16,-0.12 -0.04,-0.2 -0.08,-0.16 -0.2,-0.24 -0.08,-0.16 v -0.16 l 0.12,-0.12 0.08,-0.2 -0.04,-0.36 -0.16,-0.69 v -0.04 l -0.2,-0.24 -0.41,-0.28 -1.42,-0.77 -0.32,-0.28 -0.16,-0.28 -0.32,-0.45 -0.08,-0.2 -0.12,-0.2 -0.08,-0.32 -0.04,-0.16 v -0.77 l 0.08,-0.41 h -13.5 l -0.04,-0.04 -0.08,0.04 v 0.08 h -0.08 l -0.04,-0.04 -0.04,-0.04 h -0.2 l -0.08,-0.04 -0.08,-0.04 -0.04,-0.04 -0.08,-0.04 -0.12,-0.08 -0.04,-0.04 h -0.08 l -0.04,-0.08 h -0.16 l -0.12,-0.04 h -0.24 l -0.04,0.04 -0.04,0.04 -0.04,0.04 v 0.12 h -0.12 l -0.04,0.08 -0.08,0.04 v 0.04 h -0.04 v 0.04 h -0.04 l -0.04,0.04 h -0.08 l -0.08,0.04 -0.08,0.04 h -0.08 l -0.04,0.04 h -0.12 v 0.04 l -0.04,-0.04 v 0.04 l -0.04,-0.04 h -0.28 l -0.04,0.04 h -0.04 l -0.04,0.04 -0.04,0.04 v 0.04 h -0.04 l -0.04,0.04 h -0.04 l -0.04,0.04 -0.04,0.04 h -0.04 l -0.04,0.04 h -0.08 l -0.04,0.04 h -0.08 v 0.04 l -0.04,-0.04 -0.04,0.04 h -0.08 v 0.04 h -0.28 l -0.04,0.04 h -0.12 l -0.04,0.04 v -0.04 h -0.04 l -0.04,0.04 h -0.08 l -0.04,0.04 h -0.04 l -0.04,0.04 h -0.12 v 0.04 l -0.04,-0.04 h -0.04 0.04 -0.08 l -0.04,0.04 v 0.08 l -0.04,0.04 h -0.08 v -0.04 h -0.04 v 0.04 h -0.04 v 0.08 h 0.04 v 0.04 h -0.04 l -0.04,-0.04 h -0.08 v 0.08 h -0.04 v 0.04 h -0.08 0.04 -0.04 l -0.04,0.04 h -0.08 v -0.04 h -0.12 v -0.04 h -0.16 l -0.04,0.04 h -0.04 v 0.04 l -0.04,0.04 h -0.04 0.04 -0.12 v -0.12 h -0.04 v -0.04 l 0.04,-0.12 v -0.04 l -0.04,-0.04 h -0.04 v -0.04 h -0.04 v -0.04 h -0.12 v 0.04 h -0.04 v 0.04 h -0.08 v -0.04 l -0.04,0.04 v 0.12 h -0.08 l -0.04,-0.04 -0.04,-0.04 -0.04,-0.04 h -0.04 v -0.04 h -0.08 l -0.04,-0.04 h -0.12 l -0.04,0.04 h -0.04 l -0.04,0.04 h -0.08 v 0.04 h -0.08 v -0.04 h -0.08 l -0.04,-0.04 v -0.04 l 0.04,-0.04 v -0.04 h -0.04 v -0.08 h -0.04 l -0.04,-0.04 v -0.04 l -0.04,-0.04 v -0.04 l -0.04,-0.04 h -0.04 v -0.16 h -0.04 v -0.04 h -0.04 v -0.04 l -0.04,-0.04 v -0.04 h 0.04 v -0.08 h -0.04 v -0.04 l -0.12,-0.04 -0.04,-0.04 h -0.04 l -0.04,-0.08 -0.08,-0.12 -0.04,-0.08 v -0.16 l -0.04,-0.04 v -0.12 h 0.08 l 0.04,-0.04 h 0.2 v -0.12 l -0.04,-0.08 v -0.08 l -0.04,-0.12 -0.04,-0.08 v -0.41 h 0.12 l 0.04,0.04 h 0.04 l 0.04,-0.04 v -0.08 l -0.08,-0.08 v -0.08 h -0.04 v -0.04 h -0.04 v -0.04 l -0.04,-0.04 h -0.12 l -0.04,-0.04 h -0.04 v -0.04 l -0.04,-0.04 0.04,-0.08 v -0.04 h -0.04 l -0.04,0.04 h -0.04 v -0.08 h -0.12 v -0.08 l -0.04,-0.04 h 0.08 l 0.04,-0.04 v -0.04 l 0.04,-0.04 -0.04,-0.04 -0.04,0.04 h -0.04 v -0.04 l 0.04,-0.04 v -0.08 l -0.04,-0.04 -0.04,-0.04 v -0.04 h -0.04 l -0.04,-0.04 -0.12,-0.08 h -0.08 v -0.08 h -0.08 l -0.08,0.04 h -0.04 v -0.08 l -0.04,-0.08 v -0.12 l -0.04,-0.04 v -0.08 l 0.04,-0.04 v -0.04 l -0.04,-0.04 v -0.04 h -0.04 l -0.08,-0.04 h -0.12 l -0.04,0.04 -0.12,0.04 v 0.04 h -0.12 v -0.04 h -0.04 l -0.04,-0.04 v -0.08 l -0.04,-0.04 h 0.04 v -0.04 l -0.04,-0.04 v -0.08 l -0.04,-0.04 -0.04,-0.04 -0.04,-0.04 -0.04,-0.04 v -0.04 l -0.04,-0.04 v -0.12 h -0.12 l -0.04,0.08 h -0.08 l -0.04,0.04 h -0.04 v -0.04 l -0.04,-0.04 -0.04,-0.04 h -0.32 l -0.04,-0.04 h -0.04 v 0.04 h -0.08 l -0.04,-0.04 -0.04,0.04 -0.04,-0.04 h -0.2 l -0.04,-0.04 -0.12,-0.12 v -0.12 h -0.08 l -0.08,-0.04 -0.04,-0.04 h -0.04 l -0.04,-0.04 h -0.04 v -0.04 l -0.04,-0.04 h -0.08 v 0.04 h -0.2 l -0.04,0.04 -0.08,0.08 v 0.08 l -0.04,0.04 v 0.04 h -0.12 l -0.04,0.04 -0.04,0.04 -0.04,0.04 h -0.04 l -0.04,0.04 h -0.12 v 0.04 h -0.16 l -0.04,0.04 h -0.08 v -0.08 l -0.04,-0.04 v -0.08 l -0.04,-0.04 h -0.04 l -0.04,-0.04 h -0.04 v -0.16 l 0.04,-0.08 v -0.04 l 0.04,-0.04 v -0.08 h 0.04 v -0.08 l 0.04,-0.08 v -0.04 h 0.04 v -0.16 l -0.04,-0.08 v -0.12 l -0.04,-0.04 h -0.08 l -0.08,-0.04 v -0.04 l -0.04,-0.04 -0.04,-0.04 v -0.04 h -0.04 v -0.04 h -0.04 l -0.04,-0.04 h -0.04 l -0.04,0.04 h -0.04 l -0.04,-0.04 h -0.04 l -0.04,0.04 h -0.04 l -0.04,0.04 h -0.08 l -0.04,0.04 h -0.04 l -0.04,-0.04 h -0.04 v -0.04 h -0.04 l -0.04,-0.04 h -0.12 v -0.04 l -0.04,-0.08 -0.04,-0.04 -0.04,-0.04 h -0.04 l -0.04,-0.04 -0.04,-0.04 -0.04,-0.04 v -0.28 l -0.04,-0.04 h -0.04 l -0.08,-0.04 -0.08,-0.12 -0.04,-0.04 v -0.04 l -0.04,-0.04 v -0.04 l -0.04,-0.04 v -0.04 h -0.04 l -0.04,-0.04 v -0.04 h -0.04 l -0.04,-0.04 h -0.08 l -0.12,-0.04 -0.04,-0.04 v -0.16 l -0.04,-0.04 v -0.04 l -0.04,-0.04 v -0.08 h -0.08 l -0.04,-0.04 -0.04,-0.08 h -0.04 v -0.16 l 0.04,-0.04 v -0.04 l -0.04,-0.04 v -0.08 h -0.04 v -0.04 l -0.04,-0.04 -0.04,0.04 h -0.04 v -0.04 h -0.04 v -0.16 h -0.04 l -0.04,0.04 -0.04,0.04 v 0.04 h 0.04 v 0.04 h 0.04 v 0.04 h -0.08 v -0.04 l -0.04,-0.04 v -0.04 l 0.04,-0.04 v -0.08 l -0.04,-0.04 h -0.04 l -0.04,-0.04 v 0.08 l -0.04,0.04 -0.04,0.04 h -0.04 v -0.04 h -0.12 v 0.04 h -0.08 v -0.08 h -0.12 l -0.04,0.04 h -0.08 l -0.04,-0.04 v -0.12 h -0.08 l -0.04,-0.04 h -0.08 v -0.12 h -0.08 v 0.04 h -0.04 l -0.04,-0.04 v -0.08 l -0.04,-0.04 v -0.04 l -0.04,-0.04 -0.04,0.04 h -0.04 l -0.04,0.04 v -0.04 l 0.04,-0.04 v -0.04 h 0.04 l 0.04,-0.04 v -0.04 l -0.08,-0.04 -0.08,-0.04 -0.04,-0.04 v 0.04 h -0.04 v 0.04 l -0.04,0.04 v 0.08 h -0.04 l -0.04,-0.04 v -0.04 l -0.04,-0.04 v -0.04 l 0.04,-0.04 v -0.04 h 0.04 v -0.04 h -0.04 l -0.04,-0.04 -0.04,0.04 -0.04,0.08 h -0.04 l -0.04,0.04 h -0.08 v 0.08 h 0.04 v 0.04 h -0.04 l -0.04,-0.04 -0.04,-0.04 -0.04,-0.08 h -0.04 l -0.04,-0.04 h -0.08 l -0.04,-0.04 v -0.04 l -0.04,-0.04 v -0.04 l 0.04,-0.08 v -0.04 h -0.12 l -0.04,-0.04 v -0.04 l -0.04,-0.04 h -0.04 l -0.04,-0.04 h -0.04 l -0.04,0.04 -0.08,0.04 h -0.08 v -0.04 l -0.04,-0.04 -0.04,-0.04 -0.04,-0.04 -0.04,-0.08 -0.04,-0.08 -0.12,-0.12 -0.08,-0.04 v -0.04 l -0.08,-0.08 h -0.04 l -0.04,-0.04 -0.08,-0.04 -0.08,-0.04 -0.12,-0.04 -0.04,-0.04 h -0.04 l -0.08,-0.04 -0.12,-0.04 h -0.04 l -0.12,-0.04 h -0.28 l -0.12,0.04 h -0.08 l -0.08,0.04 h -0.16 l -0.04,-0.04 h -0.08 l -0.04,-0.04 -0.04,-0.04 -0.12,-0.12 -0.04,-0.08 -0.08,-0.08 -0.08,-0.12 -0.04,-0.04 -0.08,-0.12 -0.08,-0.08 -0.08,-0.08 -0.12,-0.08 -0.08,-0.12 -0.04,-0.04 -0.12,-0.12 -0.08,-0.12 -0.08,-0.08 -0.08,-0.08 -0.08,-0.08 -0.04,-0.08 -0.16,-0.08 -0.16,-0.16 -0.08,-0.12 -0.16,-0.12 -0.08,-0.12 -0.04,-0.08 -0.08,-0.04 -0.08,-0.04 -0.12,-0.12 h -0.08 l -0.08,-0.08 -0.16,-0.12 -0.41,-0.24 -0.32,-0.2 -0.24,-0.16 -0.08,-0.04 -0.04,-0.04 -0.16,-0.04 -0.2,-0.04 -0.08,0.04 h -0.28 l -0.08,-0.04 -0.04,-0.04 -0.08,-0.08 -0.12,-0.16 -0.08,-0.04 -0.04,-0.04 -0.12,-0.04 -0.16,-0.08 -0.08,-0.04 -0.04,-0.08 -0.04,-0.12 -0.08,-0.2 v -0.08 l -0.12,-0.28 -0.04,-0.12 -0.04,-0.08 h -0.04 l -0.04,-0.08 -0.04,-0.04 -0.08,-0.08 -0.08,-0.04 -0.2,-0.12 -0.04,-0.04 -0.12,-0.08 -0.2,-0.12 -0.08,-0.08 -0.04,-0.04 -0.12,-0.12 -0.12,-0.12 -0.04,-0.08 -0.04,-0.04 -0.12,-0.04 -0.08,-0.04 h -0.12 l -0.08,0.04 v 0.04 l -0.12,0.2 -0.04,0.08 -0.04,0.04 -0.04,0.04 h -0.08 l -0.04,-0.04 -0.08,-0.04 -0.08,-0.08 -0.04,-0.08 -0.04,-0.08 h -0.16 v 0.12 l 0.04,0.04 0.04,0.08 0.04,0.04 v 0.12 l -0.04,0.04 h -0.04 l -0.08,0.04 h -0.04 l -0.08,-0.08 -0.08,-0.08 -0.04,-0.08 -0.08,-0.08 -0.12,-0.08 -0.04,-0.04 h -0.12 l -0.04,0.04 -0.04,0.04 v 0.04 l -0.04,0.08 v 0.08 l -0.04,0.08 v 0.04 h -0.08 l -0.04,0.04 -0.08,-0.04 -0.04,-0.04 -0.08,-0.04 -0.04,-0.08 -0.04,-0.12 -0.04,-0.12 v -0.12 l -0.04,-0.12 -0.04,-0.08 -0.04,-0.04 -0.08,-0.08 h -0.12 l -0.04,0.04 -0.04,0.04 v 0.04 l -0.04,0.04 -0.04,0.04 v 0.04 l -0.04,0.04 h -0.08 l -0.04,-0.04 -0.12,-0.08 -0.04,-0.04 -0.08,-0.04 h -0.04 v -0.16 l 0.04,-0.08 0.04,-0.08 0.08,-0.16 0.04,-0.12 0.08,-0.08 0.04,-0.04 0.08,-0.08 0.04,-0.04 0.04,-0.08 0.04,-0.04 v -0.08 l -0.04,-0.08 -0.08,-0.2 v -0.12 l -0.04,-0.04 v -0.04 l 0.04,-0.16 v -0.2 l 0.04,-0.12 0.04,-0.04 v -0.04 l 0.04,-0.04 0.04,-0.04 0.04,-0.04 v -0.28 h -0.04 l 0.04,-0.04 0.04,-0.04 0.04,-0.04 h 0.04 l 0.04,0.04 0.08,0.04 h 0.16 v -0.04 h 0.04 l 0.08,-0.04 h 0.04 l 0.04,-0.04 h 1.66 l 1.82,-0.04 h 10.01 l 1.42,0.04 h 25.42 l 1.91,-0.04 h 48 l 0.69,-0.04 h 38.03 v 356.55 0"
     vector-effect="none"
     id="path3" />
  <text
     class="cls-13"
     transform="translate(19.97 69.79)"
     id="text3"><tspan
       x="0"
       y="0"
       id="tspan3">Households 'spending 30% or more of income on shelter costs' or 'not suitable' or 'major repairs needed'</tspan></text>
  <text
     class="cls-13"
     id="text4"
     x="470.71182"
     y="188.86"><tspan
       x="470.71182"
       y="188.86"
       id="tspan4">Population</tspan></text>
  <text
     class="cls-13"
     id="text5"
     x="490.71182"
     y="159.53999"><tspan
       x="490.71182"
       y="159.53999"
       id="tspan5">100</tspan></text>
  <text
     class="cls-13"
     id="text6"
     x="483.88181"
     y="124.99"><tspan
       x="483.88181"
       y="124.99"
       id="tspan6">70000</tspan></text>
  <text
     class="cls-12"
     transform="translate(19.78 25.28)"
     id="text8"><tspan
       x="0"
       y="0"
       id="tspan7">Towns further from Fort McMurray have higher rates of households</tspan><tspan
       x="0"
       y="24"
       id="tspan8">with housing cost burden or unsuitable housing conditions</tspan></text>
  <g
     id="g15"
     transform="translate(-112.5081)">
    <circle
       class="cls-5"
       cx="432.06"
       cy="550.53998"
       r="8.1300001"
       id="circle8" />
    <circle
       class="cls-8"
       cx="440.45001"
       cy="484.42001"
       r="10.05"
       id="circle9" />
    <circle
       class="cls-3"
       cx="431.89001"
       cy="242.19"
       r="10.79"
       id="circle10" />
    <circle
       class="cls-8"
       cx="399.13"
       cy="404.54001"
       r="10.39"
       id="circle11" />
    <circle
       class="cls-6"
       cx="451.64001"
       cy="527.21002"
       r="9.5"
       id="circle12" />
    <circle
       class="cls-8"
       cx="415.73001"
       cy="453.53"
       r="23.85"
       id="circle13" />
    <circle
       class="cls-1"
       cx="441.45001"
       cy="461.17001"
       r="10.06"
       id="circle14" />
    <circle
       class="cls-8"
       cx="421.04999"
       cy="481.14999"
       r="7.9499998"
       id="circle15" />
  </g>
  <circle
     class="cls-4"
     cx="500.96182"
     cy="152.28999"
     r="23.93"
     id="circle16" />
  <text
     class="cls-14"
     id="text16"
     x="341.89191"
     y="487.70999"><tspan
       x="341.89191"
       y="487.70999"
       id="tspan16">Anzac</tspan></text>
  <text
     class="cls-14"
     id="text17"
     x="155.8119"
     y="485.07001"><tspan
       x="155.8119"
       y="485.07001"
       id="tspan17">Gregoire Lake Estates</tspan></text>
  <text
     class="cls-11"
     id="text18"
     x="190.93568"
     y="246.42"><tspan
       x="190.93568"
       y="246.42"
       id="tspan18">Fort Chipewyan</tspan></text>
  <text
     class="cls-11"
     id="text19"
     x="351.65192"
     y="530.94"><tspan
       x="351.65192"
       y="530.94"
       id="tspan19">Janvier</tspan></text>
  <text
     class="cls-14"
     id="text20"
     x="341.3819"
     y="464.26999"><tspan
       x="341.3819"
       y="464.26999"
       id="tspan20">Saprae Creek</tspan></text>
  <text
     class="cls-11"
     id="text21"
     x="330.7319"
     y="554.46002"><tspan
       x="330.7319"
       y="554.46002"
       id="tspan21">Conklin</tspan></text>
  <text
     class="cls-11"
     id="text22"
     x="171.90474"
     y="457.95001"><tspan
       x="171.90474"
       y="457.95001"
       id="tspan22">Fort McMurray</tspan></text>
  <text
     class="cls-14"
     id="text23"
     x="299.6619"
     y="408.45999"><tspan
       x="299.6619"
       y="408.45999"
       id="tspan23">Fort McKay</tspan></text>
  <text
     class="cls-14"
     id="text23-1"
     style="font-size:14px;font-family:OpenSans, 'Open Sans';fill:#0d534d;fill-opacity:1"
     x="234.2253"
     y="360.79999"><tspan
       x="234.2253"
       y="360.79999"
       id="tspan23-4"
       style="fill:#0d534d;fill-opacity:1">WOOD BUFFALO</tspan></text>
  <circle
     class="cls-4"
     cx="500.96182"
     cy="169.09"
     r="7.1300001"
     id="circle23" />
  <text
     class="cls-15"
     transform="translate(20.49 608.61) rotate(-.01)"
     id="text24"><tspan
       x="0"
       y="0"
       id="tspan24">Sources: Statistics Canada (2021) </tspan></text>
  <line
     class="cls-7"
     x1="19.74"
     y1="593"
     x2="700.59003"
     y2="592.84998"
     id="line24" />
  <text
     class="cls-13"
     id="text28"
     x="510.45169"
     y="449.48553"><tspan
       x="510.45169"
       y="449.48553"
       id="tspan25">Households in</tspan><tspan
       x="510.45169"
       y="463.88553"
       id="tspan26">Inadequate or</tspan><tspan
       x="510.45169"
       y="478.28552"
       id="tspan27">Unaffordable</tspan><tspan
       x="510.45169"
       y="492.68552"
       id="tspan28">Housing</tspan></text>
  <line
     class="cls-2"
     x1="477.48166"
     y1="499.92114"
     x2="468.22165"
     y2="499.92114"
     id="line28" />
  <rect
     class="cls-9"
     x="496.13168"
     y="371.27115"
     width="9.7600002"
     height="192.53"
     id="rect28"
     style="fill:url(#linear-gradient)" />
  <line
     class="cls-2"
     x1="505.64169"
     y1="435.59116"
     x2="496.38168"
     y2="435.59116"
     id="line29" />
  <line
     class="cls-2"
     x1="505.64169"
     y1="499.92114"
     x2="496.38168"
     y2="499.92114"
     id="line30" />
  <text
     class="cls-13"
     id="text30"
     x="468.22165"
     y="375.57114"><tspan
       x="468.22165"
       y="375.57114"
       id="tspan30">20%</tspan></text>
  <text
     class="cls-13"
     id="text31"
     x="468.22165"
     y="440.25116"><tspan
       x="468.22165"
       y="440.25116"
       id="tspan31">30%</tspan></text>
  <text
     class="cls-13"
     id="text32"
     x="468.22165"
     y="504.16113"><tspan
       x="468.22165"
       y="504.16113"
       id="tspan32">40%</tspan></text>
  <text
     class="cls-13"
     id="text33"
     x="468.22165"
     y="567.62115"><tspan
       x="468.22165"
       y="567.62115"
       id="tspan33">50%</tspan></text>
</svg>
